<svg xmlns="http://www.w3.org/2000/svg" width="900" height="700" viewBox="0 0 900 700" role="img" aria-labelledby="title desc">
  <title id="title">Ajwain Seeds</title>
  <desc id="desc">Clean export product artwork for Ajwain Seeds on a dark green background.</desc>
  <defs>
    <linearGradient id="background" x1="0" x2="1" y1="0" y2="1">
      <stop stop-color="#091612" />
      <stop offset="1" stop-color="#1a332b" />
    </linearGradient>
    <filter id="shadow"><feDropShadow dx="0" dy="18" stdDeviation="22" flood-color="#000000" flood-opacity=".35" /></filter>
  </defs>
  <rect width="900" height="700" fill="url(#background)" />
  <rect x="70" y="60" width="760" height="580" rx="52" fill="#132620" stroke="#ffffff20" stroke-width="2" />
  <circle cx="450" cy="300" r="210" fill="#0b1d18" opacity=".5" />
  <ellipse cx="450" cy="315" rx="235" ry="170" fill="#eee5cc" stroke="#d4ff00" stroke-width="7" filter="url(#shadow)" />
    <ellipse cx="445.5" cy="337.6" rx="12.0" ry="10.0" fill="#578a45" stroke="#ffffff88" stroke-width="1.2" transform="rotate(68.0 445.5 337.6)" />
    <ellipse cx="426.2" cy="366.0" rx="16.8" ry="14.0" fill="#7ba35a" stroke="#ffffff88" stroke-width="1.2" transform="rotate(74.6 426.2 366.0)" />
    <ellipse cx="392.7" cy="390.1" rx="21.6" ry="18.0" fill="#315d34" stroke="#ffffff88" stroke-width="1.2" transform="rotate(81.2 392.7 390.1)" />
    <ellipse cx="347.0" cy="407.8" rx="26.4" ry="22.0" fill="#578a45" stroke="#ffffff88" stroke-width="1.2" transform="rotate(87.8 347.0 407.8)" />
    <ellipse cx="394.6" cy="350.7" rx="31.2" ry="26.0" fill="#7ba35a" stroke="#ffffff88" stroke-width="1.2" transform="rotate(94.5 394.6 350.7)" />
    <ellipse cx="347.9" cy="361.9" rx="12.0" ry="10.0" fill="#315d34" stroke="#ffffff88" stroke-width="1.2" transform="rotate(101.1 347.9 361.9)" />
    <ellipse cx="295.1" cy="363.6" rx="16.8" ry="14.0" fill="#578a45" stroke="#ffffff88" stroke-width="1.2" transform="rotate(107.7 295.1 363.6)" />
    <ellipse cx="379.0" cy="328.5" rx="21.6" ry="18.0" fill="#7ba35a" stroke="#ffffff88" stroke-width="1.2" transform="rotate(114.3 379.0 328.5)" />
    <ellipse cx="329.9" cy="324.3" rx="26.4" ry="22.0" fill="#315d34" stroke="#ffffff88" stroke-width="1.2" transform="rotate(120.9 329.9 324.3)" />
    <ellipse cx="282.2" cy="309.9" rx="31.2" ry="26.0" fill="#578a45" stroke="#ffffff88" stroke-width="1.2" transform="rotate(127.5 282.2 309.9)" />
    <ellipse cx="381.6" cy="305.4" rx="12.0" ry="10.0" fill="#7ba35a" stroke="#ffffff88" stroke-width="1.2" transform="rotate(134.1 381.6 305.4)" />
    <ellipse cx="341.2" cy="287.0" rx="16.8" ry="14.0" fill="#315d34" stroke="#ffffff88" stroke-width="1.2" transform="rotate(140.8 341.2 287.0)" />
    <ellipse cx="309.6" cy="260.0" rx="21.6" ry="18.0" fill="#578a45" stroke="#ffffff88" stroke-width="1.2" transform="rotate(147.4 309.6 260.0)" />
    <ellipse cx="399.9" cy="287.1" rx="26.4" ry="22.0" fill="#7ba35a" stroke="#ffffff88" stroke-width="1.2" transform="rotate(154.0 399.9 287.1)" />
    <ellipse cx="377.4" cy="258.7" rx="31.2" ry="26.0" fill="#315d34" stroke="#ffffff88" stroke-width="1.2" transform="rotate(160.6 377.4 258.7)" />
    <ellipse cx="368.8" cy="225.4" rx="12.0" ry="10.0" fill="#578a45" stroke="#ffffff88" stroke-width="1.2" transform="rotate(167.2 368.8 225.4)" />
    <ellipse cx="427.8" cy="277.4" rx="16.8" ry="14.0" fill="#7ba35a" stroke="#ffffff88" stroke-width="1.2" transform="rotate(173.8 427.8 277.4)" />
    <ellipse cx="428.2" cy="245.6" rx="21.6" ry="18.0" fill="#315d34" stroke="#ffffff88" stroke-width="1.2" transform="rotate(180.4 428.2 245.6)" />
    <ellipse cx="444.4" cy="213.7" rx="26.4" ry="22.0" fill="#578a45" stroke="#ffffff88" stroke-width="1.2" transform="rotate(187.0 444.4 213.7)" />
    <ellipse cx="457.5" cy="277.6" rx="31.2" ry="26.0" fill="#7ba35a" stroke="#ffffff88" stroke-width="1.2" transform="rotate(193.7 457.5 277.6)" />
    <ellipse cx="480.5" cy="249.7" rx="12.0" ry="10.0" fill="#315d34" stroke="#ffffff88" stroke-width="1.2" transform="rotate(200.3 480.5 249.7)" />
    <ellipse cx="517.5" cy="226.5" rx="16.8" ry="14.0" fill="#578a45" stroke="#ffffff88" stroke-width="1.2" transform="rotate(206.9 517.5 226.5)" />
    <ellipse cx="481.6" cy="286.5" rx="21.6" ry="18.0" fill="#7ba35a" stroke="#ffffff88" stroke-width="1.2" transform="rotate(213.5 481.6 286.5)" />
    <ellipse cx="521.8" cy="268.8" rx="26.4" ry="22.0" fill="#315d34" stroke="#ffffff88" stroke-width="1.2" transform="rotate(220.1 521.8 268.8)" />
    <ellipse cx="570.9" cy="259.5" rx="31.2" ry="26.0" fill="#578a45" stroke="#ffffff88" stroke-width="1.2" transform="rotate(226.7 570.9 259.5)" />
    <ellipse cx="495.0" cy="300.9" rx="12.0" ry="10.0" fill="#7ba35a" stroke="#ffffff88" stroke-width="1.2" transform="rotate(233.3 495.0 300.9)" />
    <ellipse cx="543.1" cy="297.3" rx="16.8" ry="14.0" fill="#315d34" stroke="#ffffff88" stroke-width="1.2" transform="rotate(240.0 543.1 297.3)" />
    <ellipse cx="593.0" cy="303.9" rx="21.6" ry="18.0" fill="#578a45" stroke="#ffffff88" stroke-width="1.2" transform="rotate(246.6 593.0 303.9)" />
    <ellipse cx="496.0" cy="316.4" rx="26.4" ry="22.0" fill="#7ba35a" stroke="#ffffff88" stroke-width="1.2" transform="rotate(253.2 496.0 316.4)" />
    <ellipse cx="540.9" cy="327.7" rx="31.2" ry="26.0" fill="#315d34" stroke="#ffffff88" stroke-width="1.2" transform="rotate(259.8 540.9 327.7)" />
    <ellipse cx="580.2" cy="348.5" rx="12.0" ry="10.0" fill="#578a45" stroke="#ffffff88" stroke-width="1.2" transform="rotate(266.4 580.2 348.5)" />
    <ellipse cx="486.0" cy="329.1" rx="16.8" ry="14.0" fill="#7ba35a" stroke="#ffffff88" stroke-width="1.2" transform="rotate(273.0 486.0 329.1)" />
    <ellipse cx="517.6" cy="352.6" rx="21.6" ry="18.0" fill="#315d34" stroke="#ffffff88" stroke-width="1.2" transform="rotate(279.6 517.6 352.6)" />
    <ellipse cx="537.4" cy="382.8" rx="26.4" ry="22.0" fill="#578a45" stroke="#ffffff88" stroke-width="1.2" transform="rotate(286.3 537.4 382.8)" />
    <ellipse cx="469.3" cy="336.3" rx="31.2" ry="26.0" fill="#7ba35a" stroke="#ffffff88" stroke-width="1.2" transform="rotate(292.9 469.3 336.3)" />
    <ellipse cx="480.5" cy="366.6" rx="12.0" ry="10.0" fill="#315d34" stroke="#ffffff88" stroke-width="1.2" transform="rotate(299.5 480.5 366.6)" />
    <ellipse cx="476.4" cy="399.1" rx="16.8" ry="14.0" fill="#578a45" stroke="#ffffff88" stroke-width="1.2" transform="rotate(306.1 476.4 399.1)" />
    <ellipse cx="456.5" cy="431.3" rx="21.6" ry="18.0" fill="#7ba35a" stroke="#ffffff88" stroke-width="1.2" transform="rotate(312.7 456.5 431.3)" />
  <rect x="115" y="538" width="670" height="88" rx="28" fill="#091612" stroke="#ffffff26" />
  <text x="450" y="586" text-anchor="middle" font-family="Arial, sans-serif" font-size="58" font-weight="700" fill="#ffffff">Ajwain Seeds</text>
  <text x="450" y="615" text-anchor="middle" font-family="Arial, sans-serif" font-size="24" fill="#d4ff00" letter-spacing="3">EXPORT QUALITY</text>
</svg>
