<svg xmlns="http://www.w3.org/2000/svg" width="900" height="700" viewBox="0 0 900 700" role="img" aria-labelledby="title desc">
  <title id="title">Aloe Vera Powder</title>
  <desc id="desc">Clean export product artwork for Aloe Vera Powder on a dark green background.</desc>
  <defs>
    <linearGradient id="background" x1="0" x2="1" y1="0" y2="1">
      <stop stop-color="#091612" />
      <stop offset="1" stop-color="#1a332b" />
    </linearGradient>
    <filter id="shadow"><feDropShadow dx="0" dy="18" stdDeviation="22" flood-color="#000000" flood-opacity=".35" /></filter>
  </defs>
  <rect width="900" height="700" fill="url(#background)" />
  <rect x="70" y="60" width="760" height="580" rx="52" fill="#132620" stroke="#ffffff20" stroke-width="2" />
  <circle cx="450" cy="300" r="210" fill="#0b1d18" opacity=".5" />
  <ellipse cx="450" cy="315" rx="235" ry="170" fill="#eee5cc" stroke="#d4ff00" stroke-width="7" filter="url(#shadow)" />
    <ellipse cx="424.8" cy="299.2" rx="12.0" ry="10.0" fill="#578a45" stroke="#ffffff88" stroke-width="1.2" transform="rotate(156.4 424.8 299.2)" />
    <ellipse cx="401.2" cy="272.2" rx="16.8" ry="14.0" fill="#7ba35a" stroke="#ffffff88" stroke-width="1.2" transform="rotate(163.0 401.2 272.2)" />
    <ellipse cx="391.4" cy="240.3" rx="21.6" ry="18.0" fill="#315d34" stroke="#ffffff88" stroke-width="1.2" transform="rotate(169.6 391.4 240.3)" />
    <ellipse cx="396.9" cy="205.9" rx="26.4" ry="22.0" fill="#578a45" stroke="#ffffff88" stroke-width="1.2" transform="rotate(176.2 396.9 205.9)" />
    <ellipse cx="439.0" cy="264.8" rx="31.2" ry="26.0" fill="#7ba35a" stroke="#ffffff88" stroke-width="1.2" transform="rotate(182.9 439.0 264.8)" />
    <ellipse cx="453.0" cy="233.8" rx="12.0" ry="10.0" fill="#315d34" stroke="#ffffff88" stroke-width="1.2" transform="rotate(189.5 453.0 233.8)" />
    <ellipse cx="482.4" cy="205.2" rx="16.8" ry="14.0" fill="#578a45" stroke="#ffffff88" stroke-width="1.2" transform="rotate(196.1 482.4 205.2)" />
    <ellipse cx="475.7" cy="269.9" rx="21.6" ry="18.0" fill="#7ba35a" stroke="#ffffff88" stroke-width="1.2" transform="rotate(202.7 475.7 269.9)" />
    <ellipse cx="510.2" cy="246.8" rx="26.4" ry="22.0" fill="#315d34" stroke="#ffffff88" stroke-width="1.2" transform="rotate(209.3 510.2 246.8)" />
    <ellipse cx="556.4" cy="230.5" rx="31.2" ry="26.0" fill="#578a45" stroke="#ffffff88" stroke-width="1.2" transform="rotate(215.9 556.4 230.5)" />
    <ellipse cx="502.6" cy="285.0" rx="12.0" ry="10.0" fill="#7ba35a" stroke="#ffffff88" stroke-width="1.2" transform="rotate(222.5 502.6 285.0)" />
    <ellipse cx="549.5" cy="275.0" rx="16.8" ry="14.0" fill="#315d34" stroke="#ffffff88" stroke-width="1.2" transform="rotate(229.2 549.5 275.0)" />
    <ellipse cx="601.7" cy="274.6" rx="21.6" ry="18.0" fill="#578a45" stroke="#ffffff88" stroke-width="1.2" transform="rotate(235.8 601.7 274.6)" />
    <ellipse cx="514.4" cy="305.5" rx="26.4" ry="22.0" fill="#7ba35a" stroke="#ffffff88" stroke-width="1.2" transform="rotate(242.4 514.4 305.5)" />
    <ellipse cx="562.8" cy="310.7" rx="31.2" ry="26.0" fill="#315d34" stroke="#ffffff88" stroke-width="1.2" transform="rotate(249.0 562.8 310.7)" />
    <ellipse cx="609.1" cy="326.1" rx="12.0" ry="10.0" fill="#578a45" stroke="#ffffff88" stroke-width="1.2" transform="rotate(255.6 609.1 326.1)" />
    <ellipse cx="509.7" cy="325.8" rx="16.8" ry="14.0" fill="#7ba35a" stroke="#ffffff88" stroke-width="1.2" transform="rotate(262.2 509.7 325.8)" />
    <ellipse cx="548.7" cy="345.0" rx="21.6" ry="18.0" fill="#315d34" stroke="#ffffff88" stroke-width="1.2" transform="rotate(268.8 548.7 345.0)" />
    <ellipse cx="578.5" cy="372.5" rx="26.4" ry="22.0" fill="#578a45" stroke="#ffffff88" stroke-width="1.2" transform="rotate(275.4 578.5 372.5)" />
    <ellipse cx="491.7" cy="341.2" rx="31.2" ry="26.0" fill="#7ba35a" stroke="#ffffff88" stroke-width="1.2" transform="rotate(282.1 491.7 341.2)" />
    <ellipse cx="512.5" cy="369.9" rx="12.0" ry="10.0" fill="#315d34" stroke="#ffffff88" stroke-width="1.2" transform="rotate(288.7 512.5 369.9)" />
    <ellipse cx="519.1" cy="403.0" rx="16.8" ry="14.0" fill="#578a45" stroke="#ffffff88" stroke-width="1.2" transform="rotate(295.3 519.1 403.0)" />
    <ellipse cx="466.3" cy="348.5" rx="21.6" ry="18.0" fill="#7ba35a" stroke="#ffffff88" stroke-width="1.2" transform="rotate(301.9 466.3 348.5)" />
    <ellipse cx="464.2" cy="380.0" rx="26.4" ry="22.0" fill="#315d34" stroke="#ffffff88" stroke-width="1.2" transform="rotate(308.5 464.2 380.0)" />
    <ellipse cx="446.4" cy="411.2" rx="31.2" ry="26.0" fill="#578a45" stroke="#ffffff88" stroke-width="1.2" transform="rotate(315.1 446.4 411.2)" />
    <ellipse cx="440.6" cy="346.9" rx="12.0" ry="10.0" fill="#7ba35a" stroke="#ffffff88" stroke-width="1.2" transform="rotate(321.7 440.6 346.9)" />
    <ellipse cx="416.3" cy="374.1" rx="16.8" ry="14.0" fill="#315d34" stroke="#ffffff88" stroke-width="1.2" transform="rotate(328.4 416.3 374.1)" />
    <ellipse cx="378.4" cy="396.2" rx="21.6" ry="18.0" fill="#578a45" stroke="#ffffff88" stroke-width="1.2" transform="rotate(335.0 378.4 396.2)" />
    <ellipse cx="420.9" cy="338.1" rx="26.4" ry="22.0" fill="#7ba35a" stroke="#ffffff88" stroke-width="1.2" transform="rotate(341.6 420.9 338.1)" />
    <ellipse cx="380.1" cy="354.8" rx="31.2" ry="26.0" fill="#315d34" stroke="#ffffff88" stroke-width="1.2" transform="rotate(348.2 380.1 354.8)" />
    <ellipse cx="331.0" cy="362.9" rx="12.0" ry="10.0" fill="#578a45" stroke="#ffffff88" stroke-width="1.2" transform="rotate(354.8 331.0 362.9)" />
    <ellipse cx="411.1" cy="325.4" rx="16.8" ry="14.0" fill="#7ba35a" stroke="#ffffff88" stroke-width="1.2" transform="rotate(361.4 411.1 325.4)" />
    <ellipse cx="363.2" cy="327.8" rx="21.6" ry="18.0" fill="#315d34" stroke="#ffffff88" stroke-width="1.2" transform="rotate(368.0 363.2 327.8)" />
    <ellipse cx="314.2" cy="320.2" rx="26.4" ry="22.0" fill="#578a45" stroke="#ffffff88" stroke-width="1.2" transform="rotate(374.7 314.2 320.2)" />
    <ellipse cx="412.2" cy="312.4" rx="31.2" ry="26.0" fill="#7ba35a" stroke="#ffffff88" stroke-width="1.2" transform="rotate(381.3 412.2 312.4)" />
    <ellipse cx="368.1" cy="300.1" rx="12.0" ry="10.0" fill="#315d34" stroke="#ffffff88" stroke-width="1.2" transform="rotate(387.9 368.1 300.1)" />
    <ellipse cx="330.4" cy="278.6" rx="16.8" ry="14.0" fill="#578a45" stroke="#ffffff88" stroke-width="1.2" transform="rotate(394.5 330.4 278.6)" />
    <ellipse cx="302.6" cy="249.0" rx="21.6" ry="18.0" fill="#7ba35a" stroke="#ffffff88" stroke-width="1.2" transform="rotate(401.1 302.6 249.0)" />
  <rect x="115" y="538" width="670" height="88" rx="28" fill="#091612" stroke="#ffffff26" />
  <text x="450" y="586" text-anchor="middle" font-family="Arial, sans-serif" font-size="48" font-weight="700" fill="#ffffff">Aloe Vera Powder</text>
  <text x="450" y="615" text-anchor="middle" font-family="Arial, sans-serif" font-size="24" fill="#d4ff00" letter-spacing="3">EXPORT QUALITY</text>
</svg>
