<svg xmlns="http://www.w3.org/2000/svg" width="900" height="700" viewBox="0 0 900 700" role="img" aria-labelledby="title desc">
  <title id="title">Amchur Powder</title>
  <desc id="desc">Clean export product artwork for Amchur Powder on a dark green background.</desc>
  <defs>
    <linearGradient id="background" x1="0" x2="1" y1="0" y2="1">
      <stop stop-color="#091612" />
      <stop offset="1" stop-color="#1a332b" />
    </linearGradient>
    <filter id="shadow"><feDropShadow dx="0" dy="18" stdDeviation="22" flood-color="#000000" flood-opacity=".35" /></filter>
  </defs>
  <rect width="900" height="700" fill="url(#background)" />
  <rect x="70" y="60" width="760" height="580" rx="52" fill="#132620" stroke="#ffffff20" stroke-width="2" />
  <circle cx="450" cy="300" r="210" fill="#0b1d18" opacity=".5" />
  <ellipse cx="450" cy="315" rx="235" ry="170" fill="#eee5cc" stroke="#d4ff00" stroke-width="7" filter="url(#shadow)" />
    <ellipse cx="484.5" cy="319.0" rx="12.0" ry="10.0" fill="#b8743f" stroke="#ffffff88" stroke-width="1.2" transform="rotate(258.4 484.5 319.0)" />
    <ellipse cx="527.2" cy="332.9" rx="16.8" ry="14.0" fill="#d7a66a" stroke="#ffffff88" stroke-width="1.2" transform="rotate(265.0 527.2 332.9)" />
    <ellipse cx="562.7" cy="355.8" rx="21.6" ry="18.0" fill="#7f5130" stroke="#ffffff88" stroke-width="1.2" transform="rotate(271.6 562.7 355.8)" />
    <ellipse cx="587.6" cy="386.3" rx="26.4" ry="22.0" fill="#b8743f" stroke="#ffffff88" stroke-width="1.2" transform="rotate(278.2 587.6 386.3)" />
    <ellipse cx="502.2" cy="352.7" rx="31.2" ry="26.0" fill="#d7a66a" stroke="#ffffff88" stroke-width="1.2" transform="rotate(284.9 502.2 352.7)" />
    <ellipse cx="517.2" cy="383.5" rx="12.0" ry="10.0" fill="#7f5130" stroke="#ffffff88" stroke-width="1.2" transform="rotate(291.5 517.2 383.5)" />
    <ellipse cx="517.3" cy="417.9" rx="16.8" ry="14.0" fill="#b8743f" stroke="#ffffff88" stroke-width="1.2" transform="rotate(298.1 517.3 417.9)" />
    <ellipse cx="467.3" cy="361.8" rx="21.6" ry="18.0" fill="#d7a66a" stroke="#ffffff88" stroke-width="1.2" transform="rotate(304.7 467.3 361.8)" />
    <ellipse cx="458.6" cy="393.5" rx="26.4" ry="22.0" fill="#7f5130" stroke="#ffffff88" stroke-width="1.2" transform="rotate(311.3 458.6 393.5)" />
    <ellipse cx="434.2" cy="423.7" rx="31.2" ry="26.0" fill="#b8743f" stroke="#ffffff88" stroke-width="1.2" transform="rotate(317.9 434.2 423.7)" />
    <ellipse cx="432.0" cy="359.0" rx="12.0" ry="10.0" fill="#d7a66a" stroke="#ffffff88" stroke-width="1.2" transform="rotate(324.5 432.0 359.0)" />
    <ellipse cx="401.8" cy="384.3" rx="16.8" ry="14.0" fill="#7f5130" stroke="#ffffff88" stroke-width="1.2" transform="rotate(331.2 401.8 384.3)" />
    <ellipse cx="358.7" cy="403.6" rx="21.6" ry="18.0" fill="#b8743f" stroke="#ffffff88" stroke-width="1.2" transform="rotate(337.8 358.7 403.6)" />
    <ellipse cx="404.7" cy="346.2" rx="26.4" ry="22.0" fill="#d7a66a" stroke="#ffffff88" stroke-width="1.2" transform="rotate(344.4 404.7 346.2)" />
    <ellipse cx="360.0" cy="359.4" rx="31.2" ry="26.0" fill="#7f5130" stroke="#ffffff88" stroke-width="1.2" transform="rotate(351.0 360.0 359.4)" />
    <ellipse cx="308.4" cy="363.4" rx="12.0" ry="10.0" fill="#b8743f" stroke="#ffffff88" stroke-width="1.2" transform="rotate(357.6 308.4 363.4)" />
    <ellipse cx="391.1" cy="327.6" rx="16.8" ry="14.0" fill="#d7a66a" stroke="#ffffff88" stroke-width="1.2" transform="rotate(364.2 391.1 327.6)" />
    <ellipse cx="342.3" cy="325.9" rx="21.6" ry="18.0" fill="#7f5130" stroke="#ffffff88" stroke-width="1.2" transform="rotate(370.8 342.3 325.9)" />
    <ellipse cx="294.0" cy="313.8" rx="26.4" ry="22.0" fill="#b8743f" stroke="#ffffff88" stroke-width="1.2" transform="rotate(377.4 294.0 313.8)" />
    <ellipse cx="392.9" cy="308.4" rx="31.2" ry="26.0" fill="#d7a66a" stroke="#ffffff88" stroke-width="1.2" transform="rotate(384.1 392.9 308.4)" />
    <ellipse cx="351.1" cy="292.1" rx="12.0" ry="10.0" fill="#7f5130" stroke="#ffffff88" stroke-width="1.2" transform="rotate(390.7 351.1 292.1)" />
    <ellipse cx="317.2" cy="267.0" rx="16.8" ry="14.0" fill="#b8743f" stroke="#ffffff88" stroke-width="1.2" transform="rotate(397.3 317.2 267.0)" />
    <ellipse cx="407.8" cy="293.1" rx="21.6" ry="18.0" fill="#d7a66a" stroke="#ffffff88" stroke-width="1.2" transform="rotate(403.9 407.8 293.1)" />
    <ellipse cx="382.5" cy="266.2" rx="26.4" ry="22.0" fill="#7f5130" stroke="#ffffff88" stroke-width="1.2" transform="rotate(410.5 382.5 266.2)" />
    <ellipse cx="370.5" cy="233.9" rx="31.2" ry="26.0" fill="#b8743f" stroke="#ffffff88" stroke-width="1.2" transform="rotate(417.1 370.5 233.9)" />
    <ellipse cx="430.4" cy="285.1" rx="12.0" ry="10.0" fill="#d7a66a" stroke="#ffffff88" stroke-width="1.2" transform="rotate(423.7 430.4 285.1)" />
    <ellipse cx="427.3" cy="253.7" rx="16.8" ry="14.0" fill="#7f5130" stroke="#ffffff88" stroke-width="1.2" transform="rotate(430.4 427.3 253.7)" />
    <ellipse cx="439.8" cy="221.6" rx="21.6" ry="18.0" fill="#b8743f" stroke="#ffffff88" stroke-width="1.2" transform="rotate(437.0 439.8 221.6)" />
    <ellipse cx="454.3" cy="285.2" rx="26.4" ry="22.0" fill="#d7a66a" stroke="#ffffff88" stroke-width="1.2" transform="rotate(443.6 454.3 285.2)" />
    <ellipse cx="473.9" cy="256.6" rx="31.2" ry="26.0" fill="#7f5130" stroke="#ffffff88" stroke-width="1.2" transform="rotate(450.2 473.9 256.6)" />
    <ellipse cx="507.7" cy="232.1" rx="12.0" ry="10.0" fill="#b8743f" stroke="#ffffff88" stroke-width="1.2" transform="rotate(456.8 507.7 232.1)" />
    <ellipse cx="473.4" cy="292.3" rx="16.8" ry="14.0" fill="#d7a66a" stroke="#ffffff88" stroke-width="1.2" transform="rotate(463.4 473.4 292.3)" />
    <ellipse cx="511.0" cy="272.9" rx="21.6" ry="18.0" fill="#7f5130" stroke="#ffffff88" stroke-width="1.2" transform="rotate(470.0 511.0 272.9)" />
    <ellipse cx="558.3" cy="261.5" rx="26.4" ry="22.0" fill="#b8743f" stroke="#ffffff88" stroke-width="1.2" transform="rotate(476.7 558.3 261.5)" />
    <ellipse cx="483.6" cy="303.5" rx="31.2" ry="26.0" fill="#d7a66a" stroke="#ffffff88" stroke-width="1.2" transform="rotate(483.3 483.6 303.5)" />
    <ellipse cx="530.7" cy="297.7" rx="12.0" ry="10.0" fill="#7f5130" stroke="#ffffff88" stroke-width="1.2" transform="rotate(489.9 530.7 297.7)" />
    <ellipse cx="580.4" cy="301.8" rx="16.8" ry="14.0" fill="#b8743f" stroke="#ffffff88" stroke-width="1.2" transform="rotate(496.5 580.4 301.8)" />
    <ellipse cx="629.0" cy="316.3" rx="21.6" ry="18.0" fill="#d7a66a" stroke="#ffffff88" stroke-width="1.2" transform="rotate(503.1 629.0 316.3)" />
  <rect x="115" y="538" width="670" height="88" rx="28" fill="#091612" stroke="#ffffff26" />
  <text x="450" y="586" text-anchor="middle" font-family="Arial, sans-serif" font-size="58" font-weight="700" fill="#ffffff">Amchur Powder</text>
  <text x="450" y="615" text-anchor="middle" font-family="Arial, sans-serif" font-size="24" fill="#d4ff00" letter-spacing="3">EXPORT QUALITY</text>
</svg>
