<svg xmlns="http://www.w3.org/2000/svg" width="900" height="700" viewBox="0 0 900 700" role="img" aria-labelledby="title desc">
  <title id="title">Amla Powder</title>
  <desc id="desc">Clean export product artwork for Amla Powder on a dark green background.</desc>
  <defs>
    <linearGradient id="background" x1="0" x2="1" y1="0" y2="1">
      <stop stop-color="#091612" />
      <stop offset="1" stop-color="#1a332b" />
    </linearGradient>
    <filter id="shadow"><feDropShadow dx="0" dy="18" stdDeviation="22" flood-color="#000000" flood-opacity=".35" /></filter>
  </defs>
  <rect width="900" height="700" fill="url(#background)" />
  <rect x="70" y="60" width="760" height="580" rx="52" fill="#132620" stroke="#ffffff20" stroke-width="2" />
  <circle cx="450" cy="300" r="210" fill="#0b1d18" opacity=".5" />
  <ellipse cx="450" cy="315" rx="235" ry="170" fill="#eee5cc" stroke="#d4ff00" stroke-width="7" filter="url(#shadow)" />
    <ellipse cx="421.1" cy="302.2" rx="12.0" ry="10.0" fill="#578a45" stroke="#ffffff88" stroke-width="1.2" transform="rotate(149.6 421.1 302.2)" />
    <ellipse cx="390.8" cy="278.1" rx="16.8" ry="14.0" fill="#7ba35a" stroke="#ffffff88" stroke-width="1.2" transform="rotate(156.2 390.8 278.1)" />
    <ellipse cx="372.8" cy="247.8" rx="21.6" ry="18.0" fill="#315d34" stroke="#ffffff88" stroke-width="1.2" transform="rotate(162.8 372.8 247.8)" />
    <ellipse cx="369.3" cy="213.3" rx="26.4" ry="22.0" fill="#578a45" stroke="#ffffff88" stroke-width="1.2" transform="rotate(169.4 369.3 213.3)" />
    <ellipse cx="426.1" cy="266.7" rx="31.2" ry="26.0" fill="#7ba35a" stroke="#ffffff88" stroke-width="1.2" transform="rotate(176.1 426.1 266.7)" />
    <ellipse cx="431.9" cy="234.6" rx="12.0" ry="10.0" fill="#315d34" stroke="#ffffff88" stroke-width="1.2" transform="rotate(182.7 431.9 234.6)" />
    <ellipse cx="453.4" cy="203.2" rx="16.8" ry="14.0" fill="#578a45" stroke="#ffffff88" stroke-width="1.2" transform="rotate(189.3 453.4 203.2)" />
    <ellipse cx="463.6" cy="267.7" rx="21.6" ry="18.0" fill="#7ba35a" stroke="#ffffff88" stroke-width="1.2" transform="rotate(195.9 463.6 267.7)" />
    <ellipse cx="491.5" cy="241.1" rx="26.4" ry="22.0" fill="#315d34" stroke="#ffffff88" stroke-width="1.2" transform="rotate(202.5 491.5 241.1)" />
    <ellipse cx="532.9" cy="220.0" rx="31.2" ry="26.0" fill="#578a45" stroke="#ffffff88" stroke-width="1.2" transform="rotate(209.1 532.9 220.0)" />
    <ellipse cx="494.1" cy="279.7" rx="12.0" ry="10.0" fill="#7ba35a" stroke="#ffffff88" stroke-width="1.2" transform="rotate(215.7 494.1 279.7)" />
    <ellipse cx="537.6" cy="264.6" rx="16.8" ry="14.0" fill="#315d34" stroke="#ffffff88" stroke-width="1.2" transform="rotate(222.4 537.6 264.6)" />
    <ellipse cx="589.0" cy="258.5" rx="21.6" ry="18.0" fill="#578a45" stroke="#ffffff88" stroke-width="1.2" transform="rotate(229.0 589.0 258.5)" />
    <ellipse cx="511.0" cy="298.5" rx="26.4" ry="22.0" fill="#7ba35a" stroke="#ffffff88" stroke-width="1.2" transform="rotate(235.6 511.0 298.5)" />
    <ellipse cx="560.1" cy="298.4" rx="31.2" ry="26.0" fill="#315d34" stroke="#ffffff88" stroke-width="1.2" transform="rotate(242.2 560.1 298.4)" />
    <ellipse cx="609.7" cy="308.5" rx="12.0" ry="10.0" fill="#578a45" stroke="#ffffff88" stroke-width="1.2" transform="rotate(248.8 609.7 308.5)" />
    <ellipse cx="511.7" cy="319.1" rx="16.8" ry="14.0" fill="#7ba35a" stroke="#ffffff88" stroke-width="1.2" transform="rotate(255.4 511.7 319.1)" />
    <ellipse cx="555.1" cy="333.7" rx="21.6" ry="18.0" fill="#315d34" stroke="#ffffff88" stroke-width="1.2" transform="rotate(262.0 555.1 333.7)" />
    <ellipse cx="591.6" cy="357.6" rx="26.4" ry="22.0" fill="#578a45" stroke="#ffffff88" stroke-width="1.2" transform="rotate(268.6 591.6 357.6)" />
    <ellipse cx="497.9" cy="336.2" rx="31.2" ry="26.0" fill="#7ba35a" stroke="#ffffff88" stroke-width="1.2" transform="rotate(275.3 497.9 336.2)" />
    <ellipse cx="525.8" cy="362.2" rx="12.0" ry="10.0" fill="#315d34" stroke="#ffffff88" stroke-width="1.2" transform="rotate(281.9 525.8 362.2)" />
    <ellipse cx="541.0" cy="394.1" rx="16.8" ry="14.0" fill="#578a45" stroke="#ffffff88" stroke-width="1.2" transform="rotate(288.5 541.0 394.1)" />
    <ellipse cx="474.8" cy="346.2" rx="21.6" ry="18.0" fill="#7ba35a" stroke="#ffffff88" stroke-width="1.2" transform="rotate(295.1 474.8 346.2)" />
    <ellipse cx="480.9" cy="377.5" rx="26.4" ry="22.0" fill="#315d34" stroke="#ffffff88" stroke-width="1.2" transform="rotate(301.7 480.9 377.5)" />
    <ellipse cx="471.5" cy="410.2" rx="31.2" ry="26.0" fill="#578a45" stroke="#ffffff88" stroke-width="1.2" transform="rotate(308.3 471.5 410.2)" />
    <ellipse cx="449.0" cy="347.5" rx="12.0" ry="10.0" fill="#7ba35a" stroke="#ffffff88" stroke-width="1.2" transform="rotate(314.9 449.0 347.5)" />
    <ellipse cx="432.2" cy="377.0" rx="16.8" ry="14.0" fill="#315d34" stroke="#ffffff88" stroke-width="1.2" transform="rotate(321.6 432.2 377.0)" />
    <ellipse cx="400.6" cy="402.9" rx="21.6" ry="18.0" fill="#578a45" stroke="#ffffff88" stroke-width="1.2" transform="rotate(328.2 400.6 402.9)" />
    <ellipse cx="427.3" cy="341.0" rx="26.4" ry="22.0" fill="#7ba35a" stroke="#ffffff88" stroke-width="1.2" transform="rotate(334.8 427.3 341.0)" />
    <ellipse cx="391.4" cy="362.0" rx="31.2" ry="26.0" fill="#315d34" stroke="#ffffff88" stroke-width="1.2" transform="rotate(341.4 391.4 362.0)" />
    <ellipse cx="345.2" cy="375.3" rx="12.0" ry="10.0" fill="#578a45" stroke="#ffffff88" stroke-width="1.2" transform="rotate(348.0 345.2 375.3)" />
    <ellipse cx="414.4" cy="329.5" rx="16.8" ry="14.0" fill="#7ba35a" stroke="#ffffff88" stroke-width="1.2" transform="rotate(354.6 414.4 329.5)" />
    <ellipse cx="367.8" cy="337.2" rx="21.6" ry="18.0" fill="#315d34" stroke="#ffffff88" stroke-width="1.2" transform="rotate(361.2 367.8 337.2)" />
    <ellipse cx="317.5" cy="335.0" rx="26.4" ry="22.0" fill="#578a45" stroke="#ffffff88" stroke-width="1.2" transform="rotate(367.9 317.5 335.0)" />
    <ellipse cx="412.1" cy="316.6" rx="31.2" ry="26.0" fill="#7ba35a" stroke="#ffffff88" stroke-width="1.2" transform="rotate(374.5 412.1 316.6)" />
    <ellipse cx="365.4" cy="309.4" rx="12.0" ry="10.0" fill="#315d34" stroke="#ffffff88" stroke-width="1.2" transform="rotate(381.1 365.4 309.4)" />
    <ellipse cx="322.7" cy="292.3" rx="16.8" ry="14.0" fill="#578a45" stroke="#ffffff88" stroke-width="1.2" transform="rotate(387.7 322.7 292.3)" />
    <ellipse cx="287.5" cy="266.2" rx="21.6" ry="18.0" fill="#7ba35a" stroke="#ffffff88" stroke-width="1.2" transform="rotate(394.3 287.5 266.2)" />
  <rect x="115" y="538" width="670" height="88" rx="28" fill="#091612" stroke="#ffffff26" />
  <text x="450" y="586" text-anchor="middle" font-family="Arial, sans-serif" font-size="58" font-weight="700" fill="#ffffff">Amla Powder</text>
  <text x="450" y="615" text-anchor="middle" font-family="Arial, sans-serif" font-size="24" fill="#d4ff00" letter-spacing="3">EXPORT QUALITY</text>
</svg>
