<svg xmlns="http://www.w3.org/2000/svg" width="900" height="700" viewBox="0 0 900 700" role="img" aria-labelledby="title desc">
  <title id="title">Aritha Powder</title>
  <desc id="desc">Clean export product artwork for Aritha Powder on a dark green background.</desc>
  <defs>
    <linearGradient id="background" x1="0" x2="1" y1="0" y2="1">
      <stop stop-color="#091612" />
      <stop offset="1" stop-color="#1a332b" />
    </linearGradient>
    <filter id="shadow"><feDropShadow dx="0" dy="18" stdDeviation="22" flood-color="#000000" flood-opacity=".35" /></filter>
  </defs>
  <rect width="900" height="700" fill="url(#background)" />
  <rect x="70" y="60" width="760" height="580" rx="52" fill="#132620" stroke="#ffffff20" stroke-width="2" />
  <circle cx="450" cy="300" r="210" fill="#0b1d18" opacity=".5" />
  <ellipse cx="450" cy="315" rx="235" ry="170" fill="#eee5cc" stroke="#d4ff00" stroke-width="7" filter="url(#shadow)" />
    <ellipse cx="416.2" cy="309.2" rx="12.0" ry="10.0" fill="#578a45" stroke="#ffffff88" stroke-width="1.2" transform="rotate(136.0 416.2 309.2)" />
    <ellipse cx="375.3" cy="293.1" rx="16.8" ry="14.0" fill="#7ba35a" stroke="#ffffff88" stroke-width="1.2" transform="rotate(142.6 375.3 293.1)" />
    <ellipse cx="342.7" cy="268.4" rx="21.6" ry="18.0" fill="#315d34" stroke="#ffffff88" stroke-width="1.2" transform="rotate(149.2 342.7 268.4)" />
    <ellipse cx="321.8" cy="236.6" rx="26.4" ry="22.0" fill="#578a45" stroke="#ffffff88" stroke-width="1.2" transform="rotate(155.8 321.8 236.6)" />
    <ellipse cx="402.7" cy="274.7" rx="31.2" ry="26.0" fill="#7ba35a" stroke="#ffffff88" stroke-width="1.2" transform="rotate(162.5 402.7 274.7)" />
    <ellipse cx="391.7" cy="243.1" rx="12.0" ry="10.0" fill="#315d34" stroke="#ffffff88" stroke-width="1.2" transform="rotate(169.1 391.7 243.1)" />
    <ellipse cx="395.8" cy="208.9" rx="16.8" ry="14.0" fill="#578a45" stroke="#ffffff88" stroke-width="1.2" transform="rotate(175.7 395.8 208.9)" />
    <ellipse cx="438.6" cy="267.5" rx="21.6" ry="18.0" fill="#7ba35a" stroke="#ffffff88" stroke-width="1.2" transform="rotate(182.3 438.6 267.5)" />
    <ellipse cx="451.3" cy="236.4" rx="26.4" ry="22.0" fill="#315d34" stroke="#ffffff88" stroke-width="1.2" transform="rotate(188.9 451.3 236.4)" />
    <ellipse cx="479.4" cy="207.5" rx="31.2" ry="26.0" fill="#578a45" stroke="#ffffff88" stroke-width="1.2" transform="rotate(195.5 479.4 207.5)" />
    <ellipse cx="473.4" cy="272.1" rx="12.0" ry="10.0" fill="#7ba35a" stroke="#ffffff88" stroke-width="1.2" transform="rotate(202.1 473.4 272.1)" />
    <ellipse cx="506.8" cy="248.5" rx="16.8" ry="14.0" fill="#315d34" stroke="#ffffff88" stroke-width="1.2" transform="rotate(208.8 506.8 248.5)" />
    <ellipse cx="552.1" cy="231.6" rx="21.6" ry="18.0" fill="#578a45" stroke="#ffffff88" stroke-width="1.2" transform="rotate(215.4 552.1 231.6)" />
    <ellipse cx="499.0" cy="286.3" rx="26.4" ry="22.0" fill="#7ba35a" stroke="#ffffff88" stroke-width="1.2" transform="rotate(222.0 499.0 286.3)" />
    <ellipse cx="545.2" cy="275.5" rx="31.2" ry="26.0" fill="#315d34" stroke="#ffffff88" stroke-width="1.2" transform="rotate(228.6 545.2 275.5)" />
    <ellipse cx="597.2" cy="274.2" rx="12.0" ry="10.0" fill="#578a45" stroke="#ffffff88" stroke-width="1.2" transform="rotate(235.2 597.2 274.2)" />
    <ellipse cx="510.3" cy="305.5" rx="16.8" ry="14.0" fill="#7ba35a" stroke="#ffffff88" stroke-width="1.2" transform="rotate(241.8 510.3 305.5)" />
    <ellipse cx="558.7" cy="309.9" rx="21.6" ry="18.0" fill="#315d34" stroke="#ffffff88" stroke-width="1.2" transform="rotate(248.4 558.7 309.9)" />
    <ellipse cx="605.3" cy="324.4" rx="26.4" ry="22.0" fill="#578a45" stroke="#ffffff88" stroke-width="1.2" transform="rotate(255.0 605.3 324.4)" />
    <ellipse cx="506.1" cy="324.6" rx="31.2" ry="26.0" fill="#7ba35a" stroke="#ffffff88" stroke-width="1.2" transform="rotate(261.7 506.1 324.6)" />
    <ellipse cx="545.7" cy="343.1" rx="12.0" ry="10.0" fill="#315d34" stroke="#ffffff88" stroke-width="1.2" transform="rotate(268.3 545.7 343.1)" />
    <ellipse cx="576.4" cy="369.9" rx="16.8" ry="14.0" fill="#578a45" stroke="#ffffff88" stroke-width="1.2" transform="rotate(274.9 576.4 369.9)" />
    <ellipse cx="489.3" cy="339.0" rx="21.6" ry="18.0" fill="#7ba35a" stroke="#ffffff88" stroke-width="1.2" transform="rotate(281.5 489.3 339.0)" />
    <ellipse cx="511.2" cy="367.2" rx="26.4" ry="22.0" fill="#315d34" stroke="#ffffff88" stroke-width="1.2" transform="rotate(288.1 511.2 367.2)" />
    <ellipse cx="519.1" cy="400.1" rx="31.2" ry="26.0" fill="#578a45" stroke="#ffffff88" stroke-width="1.2" transform="rotate(294.7 519.1 400.1)" />
    <ellipse cx="465.7" cy="345.8" rx="12.0" ry="10.0" fill="#7ba35a" stroke="#ffffff88" stroke-width="1.2" transform="rotate(301.3 465.7 345.8)" />
    <ellipse cx="465.0" cy="377.3" rx="16.8" ry="14.0" fill="#315d34" stroke="#ffffff88" stroke-width="1.2" transform="rotate(308.0 465.0 377.3)" />
    <ellipse cx="448.5" cy="408.6" rx="21.6" ry="18.0" fill="#578a45" stroke="#ffffff88" stroke-width="1.2" transform="rotate(314.6 448.5 408.6)" />
    <ellipse cx="442.0" cy="344.4" rx="26.4" ry="22.0" fill="#7ba35a" stroke="#ffffff88" stroke-width="1.2" transform="rotate(321.2 442.0 344.4)" />
    <ellipse cx="418.9" cy="372.0" rx="31.2" ry="26.0" fill="#315d34" stroke="#ffffff88" stroke-width="1.2" transform="rotate(327.8 418.9 372.0)" />
    <ellipse cx="382.1" cy="394.6" rx="12.0" ry="10.0" fill="#578a45" stroke="#ffffff88" stroke-width="1.2" transform="rotate(334.4 382.1 394.6)" />
    <ellipse cx="423.9" cy="336.4" rx="16.8" ry="14.0" fill="#7ba35a" stroke="#ffffff88" stroke-width="1.2" transform="rotate(341.0 423.9 336.4)" />
    <ellipse cx="383.9" cy="353.7" rx="21.6" ry="18.0" fill="#315d34" stroke="#ffffff88" stroke-width="1.2" transform="rotate(347.6 383.9 353.7)" />
    <ellipse cx="335.4" cy="362.6" rx="26.4" ry="22.0" fill="#578a45" stroke="#ffffff88" stroke-width="1.2" transform="rotate(354.3 335.4 362.6)" />
    <ellipse cx="415.0" cy="324.7" rx="31.2" ry="26.0" fill="#7ba35a" stroke="#ffffff88" stroke-width="1.2" transform="rotate(360.9 415.0 324.7)" />
    <ellipse cx="367.4" cy="328.0" rx="12.0" ry="10.0" fill="#315d34" stroke="#ffffff88" stroke-width="1.2" transform="rotate(367.5 367.4 328.0)" />
    <ellipse cx="318.3" cy="321.2" rx="16.8" ry="14.0" fill="#578a45" stroke="#ffffff88" stroke-width="1.2" transform="rotate(374.1 318.3 321.2)" />
    <ellipse cx="271.8" cy="304.2" rx="21.6" ry="18.0" fill="#7ba35a" stroke="#ffffff88" stroke-width="1.2" transform="rotate(380.7 271.8 304.2)" />
  <rect x="115" y="538" width="670" height="88" rx="28" fill="#091612" stroke="#ffffff26" />
  <text x="450" y="586" text-anchor="middle" font-family="Arial, sans-serif" font-size="58" font-weight="700" fill="#ffffff">Aritha Powder</text>
  <text x="450" y="615" text-anchor="middle" font-family="Arial, sans-serif" font-size="24" fill="#d4ff00" letter-spacing="3">EXPORT QUALITY</text>
</svg>
