<svg xmlns="http://www.w3.org/2000/svg" width="900" height="700" viewBox="0 0 900 700" role="img" aria-labelledby="title desc">
  <title id="title">Ashwagandha Powder</title>
  <desc id="desc">Clean export product artwork for Ashwagandha Powder on a dark green background.</desc>
  <defs>
    <linearGradient id="background" x1="0" x2="1" y1="0" y2="1">
      <stop stop-color="#091612" />
      <stop offset="1" stop-color="#1a332b" />
    </linearGradient>
    <filter id="shadow"><feDropShadow dx="0" dy="18" stdDeviation="22" flood-color="#000000" flood-opacity=".35" /></filter>
  </defs>
  <rect width="900" height="700" fill="url(#background)" />
  <rect x="70" y="60" width="760" height="580" rx="52" fill="#132620" stroke="#ffffff20" stroke-width="2" />
  <circle cx="450" cy="300" r="210" fill="#0b1d18" opacity=".5" />
  <ellipse cx="450" cy="315" rx="235" ry="170" fill="#eee5cc" stroke="#d4ff00" stroke-width="7" filter="url(#shadow)" />
    <ellipse cx="429.3" cy="296.6" rx="12.0" ry="10.0" fill="#578a45" stroke="#ffffff88" stroke-width="1.2" transform="rotate(163.2 429.3 296.6)" />
    <ellipse cx="413.1" cy="267.4" rx="16.8" ry="14.0" fill="#7ba35a" stroke="#ffffff88" stroke-width="1.2" transform="rotate(169.8 413.1 267.4)" />
    <ellipse cx="411.7" cy="234.9" rx="21.6" ry="18.0" fill="#315d34" stroke="#ffffff88" stroke-width="1.2" transform="rotate(176.4 411.7 234.9)" />
    <ellipse cx="426.1" cy="201.7" rx="26.4" ry="22.0" fill="#578a45" stroke="#ffffff88" stroke-width="1.2" transform="rotate(183.0 426.1 201.7)" />
    <ellipse cx="452.3" cy="264.3" rx="31.2" ry="26.0" fill="#7ba35a" stroke="#ffffff88" stroke-width="1.2" transform="rotate(189.7 452.3 264.3)" />
    <ellipse cx="474.1" cy="235.3" rx="12.0" ry="10.0" fill="#315d34" stroke="#ffffff88" stroke-width="1.2" transform="rotate(196.3 474.1 235.3)" />
    <ellipse cx="510.5" cy="210.4" rx="16.8" ry="14.0" fill="#578a45" stroke="#ffffff88" stroke-width="1.2" transform="rotate(202.9 510.5 210.4)" />
    <ellipse cx="487.1" cy="273.4" rx="21.6" ry="18.0" fill="#7ba35a" stroke="#ffffff88" stroke-width="1.2" transform="rotate(209.5 487.1 273.4)" />
    <ellipse cx="527.1" cy="254.4" rx="26.4" ry="22.0" fill="#315d34" stroke="#ffffff88" stroke-width="1.2" transform="rotate(216.1 527.1 254.4)" />
    <ellipse cx="576.8" cy="243.4" rx="31.2" ry="26.0" fill="#578a45" stroke="#ffffff88" stroke-width="1.2" transform="rotate(222.7 576.8 243.4)" />
    <ellipse cx="509.7" cy="291.2" rx="12.0" ry="10.0" fill="#7ba35a" stroke="#ffffff88" stroke-width="1.2" transform="rotate(229.3 509.7 291.2)" />
    <ellipse cx="558.5" cy="286.5" rx="16.8" ry="14.0" fill="#315d34" stroke="#ffffff88" stroke-width="1.2" transform="rotate(236.0 558.5 286.5)" />
    <ellipse cx="610.1" cy="291.8" rx="21.6" ry="18.0" fill="#578a45" stroke="#ffffff88" stroke-width="1.2" transform="rotate(242.6 610.1 291.8)" />
    <ellipse cx="515.9" cy="312.7" rx="26.4" ry="22.0" fill="#7ba35a" stroke="#ffffff88" stroke-width="1.2" transform="rotate(249.2 515.9 312.7)" />
    <ellipse cx="562.3" cy="323.2" rx="31.2" ry="26.0" fill="#315d34" stroke="#ffffff88" stroke-width="1.2" transform="rotate(255.8 562.3 323.2)" />
    <ellipse cx="603.9" cy="343.4" rx="12.0" ry="10.0" fill="#578a45" stroke="#ffffff88" stroke-width="1.2" transform="rotate(262.4 603.9 343.4)" />
    <ellipse cx="506.0" cy="332.3" rx="16.8" ry="14.0" fill="#7ba35a" stroke="#ffffff88" stroke-width="1.2" transform="rotate(269.0 506.0 332.3)" />
    <ellipse cx="539.5" cy="355.5" rx="21.6" ry="18.0" fill="#315d34" stroke="#ffffff88" stroke-width="1.2" transform="rotate(275.6 539.5 355.5)" />
    <ellipse cx="561.7" cy="385.8" rx="26.4" ry="22.0" fill="#578a45" stroke="#ffffff88" stroke-width="1.2" transform="rotate(282.2 561.7 385.8)" />
    <ellipse cx="484.3" cy="345.4" rx="31.2" ry="26.0" fill="#7ba35a" stroke="#ffffff88" stroke-width="1.2" transform="rotate(288.9 484.3 345.4)" />
    <ellipse cx="497.3" cy="375.9" rx="12.0" ry="10.0" fill="#315d34" stroke="#ffffff88" stroke-width="1.2" transform="rotate(295.5 497.3 375.9)" />
    <ellipse cx="495.2" cy="409.3" rx="16.8" ry="14.0" fill="#578a45" stroke="#ffffff88" stroke-width="1.2" transform="rotate(302.1 495.2 409.3)" />
    <ellipse cx="457.3" cy="349.8" rx="21.6" ry="18.0" fill="#7ba35a" stroke="#ffffff88" stroke-width="1.2" transform="rotate(308.7 457.3 349.8)" />
    <ellipse cx="447.1" cy="380.6" rx="26.4" ry="22.0" fill="#315d34" stroke="#ffffff88" stroke-width="1.2" transform="rotate(315.3 447.1 380.6)" />
    <ellipse cx="421.4" cy="409.4" rx="31.2" ry="26.0" fill="#578a45" stroke="#ffffff88" stroke-width="1.2" transform="rotate(321.9 421.4 409.4)" />
    <ellipse cx="432.4" cy="345.4" rx="12.0" ry="10.0" fill="#7ba35a" stroke="#ffffff88" stroke-width="1.2" transform="rotate(328.5 432.4 345.4)" />
    <ellipse cx="401.4" cy="369.6" rx="16.8" ry="14.0" fill="#315d34" stroke="#ffffff88" stroke-width="1.2" transform="rotate(335.2 401.4 369.6)" />
    <ellipse cx="358.3" cy="387.2" rx="21.6" ry="18.0" fill="#578a45" stroke="#ffffff88" stroke-width="1.2" transform="rotate(341.8 358.3 387.2)" />
    <ellipse cx="415.3" cy="334.6" rx="26.4" ry="22.0" fill="#7ba35a" stroke="#ffffff88" stroke-width="1.2" transform="rotate(348.4 415.3 334.6)" />
    <ellipse cx="370.7" cy="346.6" rx="31.2" ry="26.0" fill="#315d34" stroke="#ffffff88" stroke-width="1.2" transform="rotate(355.0 370.7 346.6)" />
    <ellipse cx="320.2" cy="349.1" rx="12.0" ry="10.0" fill="#578a45" stroke="#ffffff88" stroke-width="1.2" transform="rotate(361.6 320.2 349.1)" />
    <ellipse cx="409.0" cy="320.9" rx="16.8" ry="14.0" fill="#7ba35a" stroke="#ffffff88" stroke-width="1.2" transform="rotate(368.2 409.0 320.9)" />
    <ellipse cx="361.1" cy="318.1" rx="21.6" ry="18.0" fill="#315d34" stroke="#ffffff88" stroke-width="1.2" transform="rotate(374.8 361.1 318.1)" />
    <ellipse cx="314.8" cy="305.1" rx="26.4" ry="22.0" fill="#578a45" stroke="#ffffff88" stroke-width="1.2" transform="rotate(381.5 314.8 305.1)" />
    <ellipse cx="413.4" cy="308.2" rx="31.2" ry="26.0" fill="#7ba35a" stroke="#ffffff88" stroke-width="1.2" transform="rotate(388.1 413.4 308.2)" />
    <ellipse cx="373.2" cy="291.3" rx="12.0" ry="10.0" fill="#315d34" stroke="#ffffff88" stroke-width="1.2" transform="rotate(394.7 373.2 291.3)" />
    <ellipse cx="341.6" cy="266.0" rx="16.8" ry="14.0" fill="#578a45" stroke="#ffffff88" stroke-width="1.2" transform="rotate(401.3 341.6 266.0)" />
    <ellipse cx="321.9" cy="233.7" rx="21.6" ry="18.0" fill="#7ba35a" stroke="#ffffff88" stroke-width="1.2" transform="rotate(407.9 321.9 233.7)" />
  <rect x="115" y="538" width="670" height="88" rx="28" fill="#091612" stroke="#ffffff26" />
  <text x="450" y="586" text-anchor="middle" font-family="Arial, sans-serif" font-size="48" font-weight="700" fill="#ffffff">Ashwagandha Powder</text>
  <text x="450" y="615" text-anchor="middle" font-family="Arial, sans-serif" font-size="24" fill="#d4ff00" letter-spacing="3">EXPORT QUALITY</text>
</svg>
