<svg xmlns="http://www.w3.org/2000/svg" width="900" height="700" viewBox="0 0 900 700" role="img" aria-labelledby="title desc">
  <title id="title">Black Rice</title>
  <desc id="desc">Clean export product artwork for Black Rice on a dark green background.</desc>
  <defs>
    <linearGradient id="background" x1="0" x2="1" y1="0" y2="1">
      <stop stop-color="#091612" />
      <stop offset="1" stop-color="#1a332b" />
    </linearGradient>
    <filter id="shadow"><feDropShadow dx="0" dy="18" stdDeviation="22" flood-color="#000000" flood-opacity=".35" /></filter>
  </defs>
  <rect width="900" height="700" fill="url(#background)" />
  <rect x="70" y="60" width="760" height="580" rx="52" fill="#132620" stroke="#ffffff20" stroke-width="2" />
  <circle cx="450" cy="300" r="210" fill="#0b1d18" opacity=".5" />
  <ellipse cx="450" cy="315" rx="235" ry="170" fill="#eee5cc" stroke="#d4ff00" stroke-width="7" filter="url(#shadow)" />
    <ellipse cx="415.1" cy="316.7" rx="12.0" ry="10.0" fill="#171715" stroke="#ffffff88" stroke-width="1.2" transform="rotate(374.0 415.1 316.7)" />
    <ellipse cx="368.3" cy="310.2" rx="16.8" ry="14.0" fill="#36342f" stroke="#ffffff88" stroke-width="1.2" transform="rotate(380.6 368.3 310.2)" />
    <ellipse cx="325.2" cy="293.8" rx="21.6" ry="18.0" fill="#565145" stroke="#ffffff88" stroke-width="1.2" transform="rotate(387.2 325.2 293.8)" />
    <ellipse cx="289.4" cy="268.2" rx="26.4" ry="22.0" fill="#171715" stroke="#ffffff88" stroke-width="1.2" transform="rotate(393.8 289.4 268.2)" />
    <ellipse cx="385.0" cy="286.9" rx="31.2" ry="26.0" fill="#36342f" stroke="#ffffff88" stroke-width="1.2" transform="rotate(400.5 385.0 286.9)" />
    <ellipse cx="358.7" cy="259.5" rx="12.0" ry="10.0" fill="#565145" stroke="#ffffff88" stroke-width="1.2" transform="rotate(407.1 358.7 259.5)" />
    <ellipse cx="345.4" cy="226.2" rx="16.8" ry="14.0" fill="#171715" stroke="#ffffff88" stroke-width="1.2" transform="rotate(413.7 345.4 226.2)" />
    <ellipse cx="415.3" cy="272.5" rx="21.6" ry="18.0" fill="#36342f" stroke="#ffffff88" stroke-width="1.2" transform="rotate(420.3 415.3 272.5)" />
    <ellipse cx="411.6" cy="240.4" rx="26.4" ry="22.0" fill="#565145" stroke="#ffffff88" stroke-width="1.2" transform="rotate(426.9 411.6 240.4)" />
    <ellipse cx="423.7" cy="207.2" rx="31.2" ry="26.0" fill="#171715" stroke="#ffffff88" stroke-width="1.2" transform="rotate(433.5 423.7 207.2)" />
    <ellipse cx="450.6" cy="269.5" rx="12.0" ry="10.0" fill="#36342f" stroke="#ffffff88" stroke-width="1.2" transform="rotate(440.1 450.6 269.5)" />
    <ellipse cx="470.2" cy="240.1" rx="16.8" ry="14.0" fill="#565145" stroke="#ffffff88" stroke-width="1.2" transform="rotate(446.8 470.2 240.1)" />
    <ellipse cx="504.5" cy="214.5" rx="21.6" ry="18.0" fill="#171715" stroke="#ffffff88" stroke-width="1.2" transform="rotate(453.4 504.5 214.5)" />
    <ellipse cx="481.9" cy="277.4" rx="26.4" ry="22.0" fill="#36342f" stroke="#ffffff88" stroke-width="1.2" transform="rotate(460.0 481.9 277.4)" />
    <ellipse cx="520.1" cy="257.4" rx="31.2" ry="26.0" fill="#565145" stroke="#ffffff88" stroke-width="1.2" transform="rotate(466.6 520.1 257.4)" />
    <ellipse cx="568.6" cy="245.2" rx="12.0" ry="10.0" fill="#171715" stroke="#ffffff88" stroke-width="1.2" transform="rotate(473.2 568.6 245.2)" />
    <ellipse cx="502.2" cy="293.2" rx="16.8" ry="14.0" fill="#36342f" stroke="#ffffff88" stroke-width="1.2" transform="rotate(479.8 502.2 293.2)" />
    <ellipse cx="550.2" cy="287.1" rx="21.6" ry="18.0" fill="#565145" stroke="#ffffff88" stroke-width="1.2" transform="rotate(486.4 550.2 287.1)" />
    <ellipse cx="601.5" cy="290.9" rx="26.4" ry="22.0" fill="#171715" stroke="#ffffff88" stroke-width="1.2" transform="rotate(493.0 601.5 290.9)" />
    <ellipse cx="507.8" cy="312.2" rx="31.2" ry="26.0" fill="#36342f" stroke="#ffffff88" stroke-width="1.2" transform="rotate(499.7 507.8 312.2)" />
    <ellipse cx="554.6" cy="321.2" rx="12.0" ry="10.0" fill="#565145" stroke="#ffffff88" stroke-width="1.2" transform="rotate(506.3 554.6 321.2)" />
    <ellipse cx="597.0" cy="340.0" rx="16.8" ry="14.0" fill="#171715" stroke="#ffffff88" stroke-width="1.2" transform="rotate(512.9 597.0 340.0)" />
    <ellipse cx="499.3" cy="329.4" rx="21.6" ry="18.0" fill="#36342f" stroke="#ffffff88" stroke-width="1.2" transform="rotate(519.5 499.3 329.4)" />
    <ellipse cx="534.1" cy="351.3" rx="26.4" ry="22.0" fill="#565145" stroke="#ffffff88" stroke-width="1.2" transform="rotate(526.1 534.1 351.3)" />
    <ellipse cx="558.1" cy="380.7" rx="31.2" ry="26.0" fill="#171715" stroke="#ffffff88" stroke-width="1.2" transform="rotate(532.7 558.1 380.7)" />
    <ellipse cx="480.4" cy="340.8" rx="12.0" ry="10.0" fill="#36342f" stroke="#ffffff88" stroke-width="1.2" transform="rotate(539.3 480.4 340.8)" />
    <ellipse cx="495.5" cy="370.7" rx="16.8" ry="14.0" fill="#565145" stroke="#ffffff88" stroke-width="1.2" transform="rotate(546.0 495.5 370.7)" />
    <ellipse cx="495.7" cy="403.8" rx="21.6" ry="18.0" fill="#171715" stroke="#ffffff88" stroke-width="1.2" transform="rotate(552.6 495.7 403.8)" />
    <ellipse cx="457.2" cy="344.5" rx="26.4" ry="22.0" fill="#36342f" stroke="#ffffff88" stroke-width="1.2" transform="rotate(559.2 457.2 344.5)" />
    <ellipse cx="449.3" cy="375.4" rx="31.2" ry="26.0" fill="#565145" stroke="#ffffff88" stroke-width="1.2" transform="rotate(565.8 449.3 375.4)" />
    <ellipse cx="425.9" cy="404.6" rx="12.0" ry="10.0" fill="#171715" stroke="#ffffff88" stroke-width="1.2" transform="rotate(572.4 425.9 404.6)" />
    <ellipse cx="436.0" cy="340.8" rx="16.8" ry="14.0" fill="#36342f" stroke="#ffffff88" stroke-width="1.2" transform="rotate(579.0 436.0 340.8)" />
    <ellipse cx="407.0" cy="365.7" rx="21.6" ry="18.0" fill="#565145" stroke="#ffffff88" stroke-width="1.2" transform="rotate(585.6 407.0 365.7)" />
    <ellipse cx="365.6" cy="384.3" rx="26.4" ry="22.0" fill="#171715" stroke="#ffffff88" stroke-width="1.2" transform="rotate(592.3 365.6 384.3)" />
    <ellipse cx="421.8" cy="331.6" rx="31.2" ry="26.0" fill="#36342f" stroke="#ffffff88" stroke-width="1.2" transform="rotate(598.9 421.8 331.6)" />
    <ellipse cx="378.5" cy="344.9" rx="12.0" ry="10.0" fill="#565145" stroke="#ffffff88" stroke-width="1.2" transform="rotate(605.5 378.5 344.9)" />
    <ellipse cx="328.7" cy="348.8" rx="16.8" ry="14.0" fill="#171715" stroke="#ffffff88" stroke-width="1.2" transform="rotate(612.1 328.7 348.8)" />
    <ellipse cx="276.1" cy="342.7" rx="21.6" ry="18.0" fill="#36342f" stroke="#ffffff88" stroke-width="1.2" transform="rotate(618.7 276.1 342.7)" />
  <rect x="115" y="538" width="670" height="88" rx="28" fill="#091612" stroke="#ffffff26" />
  <text x="450" y="586" text-anchor="middle" font-family="Arial, sans-serif" font-size="58" font-weight="700" fill="#ffffff">Black Rice</text>
  <text x="450" y="615" text-anchor="middle" font-family="Arial, sans-serif" font-size="24" fill="#d4ff00" letter-spacing="3">EXPORT QUALITY</text>
</svg>
