<svg xmlns="http://www.w3.org/2000/svg" width="900" height="700" viewBox="0 0 900 700" role="img" aria-labelledby="title desc">
  <title id="title">Black Pepper</title>
  <desc id="desc">Clean export product artwork for Black Pepper on a dark green background.</desc>
  <defs>
    <linearGradient id="background" x1="0" x2="1" y1="0" y2="1">
      <stop stop-color="#091612" />
      <stop offset="1" stop-color="#1a332b" />
    </linearGradient>
    <filter id="shadow"><feDropShadow dx="0" dy="18" stdDeviation="22" flood-color="#000000" flood-opacity=".35" /></filter>
  </defs>
  <rect width="900" height="700" fill="url(#background)" />
  <rect x="70" y="60" width="760" height="580" rx="52" fill="#132620" stroke="#ffffff20" stroke-width="2" />
  <circle cx="450" cy="300" r="210" fill="#0b1d18" opacity=".5" />
  <ellipse cx="450" cy="315" rx="235" ry="170" fill="#eee5cc" stroke="#d4ff00" stroke-width="7" filter="url(#shadow)" />
    <ellipse cx="468.3" cy="334.4" rx="12.0" ry="10.0" fill="#171715" stroke="#ffffff88" stroke-width="1.2" transform="rotate(40.8 468.3 334.4)" />
    <ellipse cx="480.8" cy="364.4" rx="16.8" ry="14.0" fill="#36342f" stroke="#ffffff88" stroke-width="1.2" transform="rotate(47.4 480.8 364.4)" />
    <ellipse cx="478.2" cy="396.8" rx="21.6" ry="18.0" fill="#565145" stroke="#ffffff88" stroke-width="1.2" transform="rotate(54.0 478.2 396.8)" />
    <ellipse cx="459.6" cy="429.2" rx="26.4" ry="22.0" fill="#171715" stroke="#ffffff88" stroke-width="1.2" transform="rotate(60.6 459.6 429.2)" />
    <ellipse cx="441.4" cy="365.4" rx="31.2" ry="26.0" fill="#36342f" stroke="#ffffff88" stroke-width="1.2" transform="rotate(67.3 441.4 365.4)" />
    <ellipse cx="415.9" cy="393.2" rx="12.0" ry="10.0" fill="#565145" stroke="#ffffff88" stroke-width="1.2" transform="rotate(73.9 415.9 393.2)" />
    <ellipse cx="376.5" cy="416.1" rx="16.8" ry="14.0" fill="#171715" stroke="#ffffff88" stroke-width="1.2" transform="rotate(80.5 376.5 416.1)" />
    <ellipse cx="407.8" cy="354.5" rx="21.6" ry="18.0" fill="#36342f" stroke="#ffffff88" stroke-width="1.2" transform="rotate(87.1 407.8 354.5)" />
    <ellipse cx="365.6" cy="371.4" rx="26.4" ry="22.0" fill="#565145" stroke="#ffffff88" stroke-width="1.2" transform="rotate(93.7 365.6 371.4)" />
    <ellipse cx="314.6" cy="379.6" rx="31.2" ry="26.0" fill="#171715" stroke="#ffffff88" stroke-width="1.2" transform="rotate(100.3 314.6 379.6)" />
    <ellipse cx="387.5" cy="335.5" rx="12.0" ry="10.0" fill="#36342f" stroke="#ffffff88" stroke-width="1.2" transform="rotate(106.9 387.5 335.5)" />
    <ellipse cx="338.3" cy="337.7" rx="16.8" ry="14.0" fill="#565145" stroke="#ffffff88" stroke-width="1.2" transform="rotate(113.6 338.3 337.7)" />
    <ellipse cx="287.5" cy="329.6" rx="21.6" ry="18.0" fill="#171715" stroke="#ffffff88" stroke-width="1.2" transform="rotate(120.2 287.5 329.6)" />
    <ellipse cx="384.0" cy="313.8" rx="26.4" ry="22.0" fill="#36342f" stroke="#ffffff88" stroke-width="1.2" transform="rotate(126.8 384.0 313.8)" />
    <ellipse cx="339.1" cy="300.9" rx="31.2" ry="26.0" fill="#565145" stroke="#ffffff88" stroke-width="1.2" transform="rotate(133.4 339.1 300.9)" />
    <ellipse cx="300.2" cy="278.5" rx="12.0" ry="10.0" fill="#171715" stroke="#ffffff88" stroke-width="1.2" transform="rotate(140.0 300.2 278.5)" />
    <ellipse cx="396.3" cy="294.8" rx="16.8" ry="14.0" fill="#36342f" stroke="#ffffff88" stroke-width="1.2" transform="rotate(146.6 396.3 294.8)" />
    <ellipse cx="365.9" cy="269.9" rx="21.6" ry="18.0" fill="#565145" stroke="#ffffff88" stroke-width="1.2" transform="rotate(153.2 365.9 269.9)" />
    <ellipse cx="347.6" cy="238.5" rx="26.4" ry="22.0" fill="#171715" stroke="#ffffff88" stroke-width="1.2" transform="rotate(159.8 347.6 238.5)" />
    <ellipse cx="419.6" cy="282.9" rx="31.2" ry="26.0" fill="#36342f" stroke="#ffffff88" stroke-width="1.2" transform="rotate(166.5 419.6 282.9)" />
    <ellipse cx="410.5" cy="251.8" rx="12.0" ry="10.0" fill="#565145" stroke="#ffffff88" stroke-width="1.2" transform="rotate(173.1 410.5 251.8)" />
    <ellipse cx="416.8" cy="218.6" rx="16.8" ry="14.0" fill="#171715" stroke="#ffffff88" stroke-width="1.2" transform="rotate(179.7 416.8 218.6)" />
    <ellipse cx="447.0" cy="280.0" rx="21.6" ry="18.0" fill="#36342f" stroke="#ffffff88" stroke-width="1.2" transform="rotate(186.3 447.0 280.0)" />
    <ellipse cx="461.1" cy="249.8" rx="26.4" ry="22.0" fill="#565145" stroke="#ffffff88" stroke-width="1.2" transform="rotate(192.9 461.1 249.8)" />
    <ellipse cx="490.3" cy="222.4" rx="31.2" ry="26.0" fill="#171715" stroke="#ffffff88" stroke-width="1.2" transform="rotate(199.5 490.3 222.4)" />
    <ellipse cx="471.4" cy="285.6" rx="12.0" ry="10.0" fill="#36342f" stroke="#ffffff88" stroke-width="1.2" transform="rotate(206.1 471.4 285.6)" />
    <ellipse cx="505.3" cy="263.2" rx="16.8" ry="14.0" fill="#565145" stroke="#ffffff88" stroke-width="1.2" transform="rotate(212.8 505.3 263.2)" />
    <ellipse cx="550.4" cy="247.9" rx="21.6" ry="18.0" fill="#171715" stroke="#ffffff88" stroke-width="1.2" transform="rotate(219.4 550.4 247.9)" />
    <ellipse cx="487.1" cy="297.3" rx="26.4" ry="22.0" fill="#36342f" stroke="#ffffff88" stroke-width="1.2" transform="rotate(226.0 487.1 297.3)" />
    <ellipse cx="533.0" cy="287.7" rx="31.2" ry="26.0" fill="#565145" stroke="#ffffff88" stroke-width="1.2" transform="rotate(232.6 533.0 287.7)" />
    <ellipse cx="583.6" cy="287.9" rx="12.0" ry="10.0" fill="#171715" stroke="#ffffff88" stroke-width="1.2" transform="rotate(239.2 583.6 287.9)" />
    <ellipse cx="491.6" cy="311.3" rx="16.8" ry="14.0" fill="#36342f" stroke="#ffffff88" stroke-width="1.2" transform="rotate(245.8 491.6 311.3)" />
    <ellipse cx="539.0" cy="316.6" rx="21.6" ry="18.0" fill="#565145" stroke="#ffffff88" stroke-width="1.2" transform="rotate(252.4 539.0 316.6)" />
    <ellipse cx="583.5" cy="332.0" rx="26.4" ry="22.0" fill="#171715" stroke="#ffffff88" stroke-width="1.2" transform="rotate(259.1 583.5 332.0)" />
    <ellipse cx="485.6" cy="323.7" rx="31.2" ry="26.0" fill="#36342f" stroke="#ffffff88" stroke-width="1.2" transform="rotate(265.7 485.6 323.7)" />
    <ellipse cx="523.6" cy="342.6" rx="12.0" ry="10.0" fill="#565145" stroke="#ffffff88" stroke-width="1.2" transform="rotate(272.3 523.6 342.6)" />
    <ellipse cx="551.9" cy="369.6" rx="16.8" ry="14.0" fill="#171715" stroke="#ffffff88" stroke-width="1.2" transform="rotate(278.9 551.9 369.6)" />
    <ellipse cx="567.5" cy="402.8" rx="21.6" ry="18.0" fill="#36342f" stroke="#ffffff88" stroke-width="1.2" transform="rotate(285.5 567.5 402.8)" />
  <rect x="115" y="538" width="670" height="88" rx="28" fill="#091612" stroke="#ffffff26" />
  <text x="450" y="586" text-anchor="middle" font-family="Arial, sans-serif" font-size="58" font-weight="700" fill="#ffffff">Black Pepper</text>
  <text x="450" y="615" text-anchor="middle" font-family="Arial, sans-serif" font-size="24" fill="#d4ff00" letter-spacing="3">EXPORT QUALITY</text>
</svg>
