<svg xmlns="http://www.w3.org/2000/svg" width="900" height="700" viewBox="0 0 900 700" role="img" aria-labelledby="title desc">
  <title id="title">Brown Rice</title>
  <desc id="desc">Clean export product artwork for Brown Rice on a dark green background.</desc>
  <defs>
    <linearGradient id="background" x1="0" x2="1" y1="0" y2="1">
      <stop stop-color="#091612" />
      <stop offset="1" stop-color="#1a332b" />
    </linearGradient>
    <filter id="shadow"><feDropShadow dx="0" dy="18" stdDeviation="22" flood-color="#000000" flood-opacity=".35" /></filter>
  </defs>
  <rect width="900" height="700" fill="url(#background)" />
  <rect x="70" y="60" width="760" height="580" rx="52" fill="#132620" stroke="#ffffff20" stroke-width="2" />
  <circle cx="450" cy="300" r="210" fill="#0b1d18" opacity=".5" />
  <ellipse cx="450" cy="315" rx="235" ry="170" fill="#eee5cc" stroke="#d4ff00" stroke-width="7" filter="url(#shadow)" />
    <ellipse cx="416.0" cy="320.5" rx="12.0" ry="10.0" fill="#caa66a" stroke="#ffffff88" stroke-width="1.2" transform="rotate(367.2 416.0 320.5)" />
    <ellipse cx="368.3" cy="319.2" rx="16.8" ry="14.0" fill="#e1c887" stroke="#ffffff88" stroke-width="1.2" transform="rotate(373.8 368.3 319.2)" />
    <ellipse cx="321.5" cy="307.8" rx="21.6" ry="18.0" fill="#8f6a3c" stroke="#ffffff88" stroke-width="1.2" transform="rotate(380.4 321.5 307.8)" />
    <ellipse cx="279.5" cy="286.6" rx="26.4" ry="22.0" fill="#caa66a" stroke="#ffffff88" stroke-width="1.2" transform="rotate(387.0 279.5 286.6)" />
    <ellipse cx="378.7" cy="294.5" rx="31.2" ry="26.0" fill="#e1c887" stroke="#ffffff88" stroke-width="1.2" transform="rotate(393.7 378.7 294.5)" />
    <ellipse cx="345.6" cy="270.3" rx="12.0" ry="10.0" fill="#8f6a3c" stroke="#ffffff88" stroke-width="1.2" transform="rotate(400.3 345.6 270.3)" />
    <ellipse cx="323.8" cy="239.0" rx="16.8" ry="14.0" fill="#caa66a" stroke="#ffffff88" stroke-width="1.2" transform="rotate(406.9 323.8 239.0)" />
    <ellipse cx="404.7" cy="276.9" rx="21.6" ry="18.0" fill="#e1c887" stroke="#ffffff88" stroke-width="1.2" transform="rotate(413.5 404.7 276.9)" />
    <ellipse cx="392.8" cy="245.7" rx="26.4" ry="22.0" fill="#8f6a3c" stroke="#ffffff88" stroke-width="1.2" transform="rotate(420.1 392.8 245.7)" />
    <ellipse cx="396.0" cy="211.6" rx="31.2" ry="26.0" fill="#caa66a" stroke="#ffffff88" stroke-width="1.2" transform="rotate(426.7 396.0 211.6)" />
    <ellipse cx="438.7" cy="270.1" rx="12.0" ry="10.0" fill="#e1c887" stroke="#ffffff88" stroke-width="1.2" transform="rotate(433.3 438.7 270.1)" />
    <ellipse cx="450.4" cy="239.0" rx="16.8" ry="14.0" fill="#8f6a3c" stroke="#ffffff88" stroke-width="1.2" transform="rotate(440.0 450.4 239.0)" />
    <ellipse cx="477.5" cy="209.9" rx="21.6" ry="18.0" fill="#caa66a" stroke="#ffffff88" stroke-width="1.2" transform="rotate(446.6 477.5 209.9)" />
    <ellipse cx="471.6" cy="274.5" rx="26.4" ry="22.0" fill="#e1c887" stroke="#ffffff88" stroke-width="1.2" transform="rotate(453.2 471.6 274.5)" />
    <ellipse cx="504.1" cy="250.5" rx="31.2" ry="26.0" fill="#8f6a3c" stroke="#ffffff88" stroke-width="1.2" transform="rotate(459.8 504.1 250.5)" />
    <ellipse cx="548.7" cy="233.1" rx="12.0" ry="10.0" fill="#caa66a" stroke="#ffffff88" stroke-width="1.2" transform="rotate(466.4 548.7 233.1)" />
    <ellipse cx="495.8" cy="287.8" rx="16.8" ry="14.0" fill="#e1c887" stroke="#ffffff88" stroke-width="1.2" transform="rotate(473.0 495.8 287.8)" />
    <ellipse cx="541.4" cy="276.4" rx="21.6" ry="18.0" fill="#8f6a3c" stroke="#ffffff88" stroke-width="1.2" transform="rotate(479.6 541.4 276.4)" />
    <ellipse cx="593.1" cy="274.6" rx="26.4" ry="22.0" fill="#caa66a" stroke="#ffffff88" stroke-width="1.2" transform="rotate(486.2 593.1 274.6)" />
    <ellipse cx="506.3" cy="305.9" rx="31.2" ry="26.0" fill="#e1c887" stroke="#ffffff88" stroke-width="1.2" transform="rotate(492.9 506.3 305.9)" />
    <ellipse cx="554.7" cy="309.6" rx="12.0" ry="10.0" fill="#8f6a3c" stroke="#ffffff88" stroke-width="1.2" transform="rotate(499.5 554.7 309.6)" />
    <ellipse cx="601.4" cy="323.5" rx="16.8" ry="14.0" fill="#caa66a" stroke="#ffffff88" stroke-width="1.2" transform="rotate(506.1 601.4 323.5)" />
    <ellipse cx="502.3" cy="323.7" rx="21.6" ry="18.0" fill="#e1c887" stroke="#ffffff88" stroke-width="1.2" transform="rotate(512.7 502.3 323.7)" />
    <ellipse cx="542.4" cy="341.6" rx="26.4" ry="22.0" fill="#8f6a3c" stroke="#ffffff88" stroke-width="1.2" transform="rotate(519.3 542.4 341.6)" />
    <ellipse cx="573.6" cy="367.9" rx="31.2" ry="26.0" fill="#caa66a" stroke="#ffffff88" stroke-width="1.2" transform="rotate(525.9 573.6 367.9)" />
    <ellipse cx="486.7" cy="337.1" rx="12.0" ry="10.0" fill="#e1c887" stroke="#ffffff88" stroke-width="1.2" transform="rotate(532.5 486.7 337.1)" />
    <ellipse cx="509.3" cy="364.9" rx="16.8" ry="14.0" fill="#8f6a3c" stroke="#ffffff88" stroke-width="1.2" transform="rotate(539.2 509.3 364.9)" />
    <ellipse cx="518.1" cy="397.5" rx="21.6" ry="18.0" fill="#caa66a" stroke="#ffffff88" stroke-width="1.2" transform="rotate(545.8 518.1 397.5)" />
    <ellipse cx="464.8" cy="343.3" rx="26.4" ry="22.0" fill="#e1c887" stroke="#ffffff88" stroke-width="1.2" transform="rotate(552.4 464.8 343.3)" />
    <ellipse cx="465.0" cy="374.7" rx="31.2" ry="26.0" fill="#8f6a3c" stroke="#ffffff88" stroke-width="1.2" transform="rotate(559.0 465.0 374.7)" />
    <ellipse cx="449.5" cy="406.0" rx="12.0" ry="10.0" fill="#caa66a" stroke="#ffffff88" stroke-width="1.2" transform="rotate(565.6 449.5 406.0)" />
    <ellipse cx="443.0" cy="341.9" rx="16.8" ry="14.0" fill="#e1c887" stroke="#ffffff88" stroke-width="1.2" transform="rotate(572.2 443.0 341.9)" />
    <ellipse cx="420.8" cy="369.7" rx="21.6" ry="18.0" fill="#8f6a3c" stroke="#ffffff88" stroke-width="1.2" transform="rotate(578.8 420.8 369.7)" />
    <ellipse cx="384.9" cy="392.6" rx="26.4" ry="22.0" fill="#caa66a" stroke="#ffffff88" stroke-width="1.2" transform="rotate(585.5 384.9 392.6)" />
    <ellipse cx="426.6" cy="334.4" rx="31.2" ry="26.0" fill="#e1c887" stroke="#ffffff88" stroke-width="1.2" transform="rotate(592.1 426.6 334.4)" />
    <ellipse cx="387.3" cy="352.3" rx="12.0" ry="10.0" fill="#8f6a3c" stroke="#ffffff88" stroke-width="1.2" transform="rotate(598.7 387.3 352.3)" />
    <ellipse cx="339.3" cy="361.7" rx="16.8" ry="14.0" fill="#caa66a" stroke="#ffffff88" stroke-width="1.2" transform="rotate(605.3 339.3 361.7)" />
    <ellipse cx="285.8" cy="361.4" rx="21.6" ry="18.0" fill="#e1c887" stroke="#ffffff88" stroke-width="1.2" transform="rotate(611.9 285.8 361.4)" />
  <rect x="115" y="538" width="670" height="88" rx="28" fill="#091612" stroke="#ffffff26" />
  <text x="450" y="586" text-anchor="middle" font-family="Arial, sans-serif" font-size="58" font-weight="700" fill="#ffffff">Brown Rice</text>
  <text x="450" y="615" text-anchor="middle" font-family="Arial, sans-serif" font-size="24" fill="#d4ff00" letter-spacing="3">EXPORT QUALITY</text>
</svg>
