<svg xmlns="http://www.w3.org/2000/svg" width="900" height="700" viewBox="0 0 900 700" role="img" aria-labelledby="title desc">
  <title id="title">Cardamom</title>
  <desc id="desc">Clean export product artwork for Cardamom on a dark green background.</desc>
  <defs>
    <linearGradient id="background" x1="0" x2="1" y1="0" y2="1">
      <stop stop-color="#091612" />
      <stop offset="1" stop-color="#1a332b" />
    </linearGradient>
    <filter id="shadow"><feDropShadow dx="0" dy="18" stdDeviation="22" flood-color="#000000" flood-opacity=".35" /></filter>
  </defs>
  <rect width="900" height="700" fill="url(#background)" />
  <rect x="70" y="60" width="760" height="580" rx="52" fill="#132620" stroke="#ffffff20" stroke-width="2" />
  <circle cx="450" cy="300" r="210" fill="#0b1d18" opacity=".5" />
  <ellipse cx="450" cy="315" rx="235" ry="170" fill="#eee5cc" stroke="#d4ff00" stroke-width="7" filter="url(#shadow)" />
    <ellipse cx="477.2" cy="329.3" rx="12.0" ry="10.0" fill="#578a45" stroke="#ffffff88" stroke-width="1.2" transform="rotate(27.2 477.2 329.3)" />
    <ellipse cx="504.4" cy="354.9" rx="16.8" ry="14.0" fill="#7ba35a" stroke="#ffffff88" stroke-width="1.2" transform="rotate(33.8 504.4 354.9)" />
    <ellipse cx="518.5" cy="386.0" rx="21.6" ry="18.0" fill="#315d34" stroke="#ffffff88" stroke-width="1.2" transform="rotate(40.4 518.5 386.0)" />
    <ellipse cx="517.7" cy="420.6" rx="26.4" ry="22.0" fill="#578a45" stroke="#ffffff88" stroke-width="1.2" transform="rotate(47.0 517.7 420.6)" />
    <ellipse cx="467.7" cy="364.4" rx="31.2" ry="26.0" fill="#7ba35a" stroke="#ffffff88" stroke-width="1.2" transform="rotate(53.7 467.7 364.4)" />
    <ellipse cx="458.0" cy="396.1" rx="12.0" ry="10.0" fill="#315d34" stroke="#ffffff88" stroke-width="1.2" transform="rotate(60.3 458.0 396.1)" />
    <ellipse cx="432.6" cy="426.2" rx="16.8" ry="14.0" fill="#578a45" stroke="#ffffff88" stroke-width="1.2" transform="rotate(66.9 432.6 426.2)" />
    <ellipse cx="430.5" cy="361.4" rx="21.6" ry="18.0" fill="#7ba35a" stroke="#ffffff88" stroke-width="1.2" transform="rotate(73.5 430.5 361.4)" />
    <ellipse cx="399.3" cy="386.4" rx="26.4" ry="22.0" fill="#315d34" stroke="#ffffff88" stroke-width="1.2" transform="rotate(80.1 399.3 386.4)" />
    <ellipse cx="355.5" cy="405.3" rx="31.2" ry="26.0" fill="#578a45" stroke="#ffffff88" stroke-width="1.2" transform="rotate(86.7 355.5 405.3)" />
    <ellipse cx="401.6" cy="347.9" rx="12.0" ry="10.0" fill="#7ba35a" stroke="#ffffff88" stroke-width="1.2" transform="rotate(93.3 401.6 347.9)" />
    <ellipse cx="356.3" cy="360.6" rx="16.8" ry="14.0" fill="#315d34" stroke="#ffffff88" stroke-width="1.2" transform="rotate(100.0 356.3 360.6)" />
    <ellipse cx="304.3" cy="364.0" rx="21.6" ry="18.0" fill="#578a45" stroke="#ffffff88" stroke-width="1.2" transform="rotate(106.6 304.3 364.0)" />
    <ellipse cx="387.2" cy="328.2" rx="26.4" ry="22.0" fill="#7ba35a" stroke="#ffffff88" stroke-width="1.2" transform="rotate(113.2 387.2 328.2)" />
    <ellipse cx="338.2" cy="325.7" rx="31.2" ry="26.0" fill="#315d34" stroke="#ffffff88" stroke-width="1.2" transform="rotate(119.8 338.2 325.7)" />
    <ellipse cx="290.0" cy="313.1" rx="12.0" ry="10.0" fill="#578a45" stroke="#ffffff88" stroke-width="1.2" transform="rotate(126.4 290.0 313.1)" />
    <ellipse cx="389.0" cy="307.6" rx="16.8" ry="14.0" fill="#7ba35a" stroke="#ffffff88" stroke-width="1.2" transform="rotate(133.0 389.0 307.6)" />
    <ellipse cx="347.6" cy="290.8" rx="21.6" ry="18.0" fill="#315d34" stroke="#ffffff88" stroke-width="1.2" transform="rotate(139.6 347.6 290.8)" />
    <ellipse cx="314.2" cy="265.1" rx="26.4" ry="22.0" fill="#578a45" stroke="#ffffff88" stroke-width="1.2" transform="rotate(146.2 314.2 265.1)" />
    <ellipse cx="404.9" cy="291.3" rx="31.2" ry="26.0" fill="#7ba35a" stroke="#ffffff88" stroke-width="1.2" transform="rotate(152.9 404.9 291.3)" />
    <ellipse cx="380.3" cy="263.9" rx="12.0" ry="10.0" fill="#315d34" stroke="#ffffff88" stroke-width="1.2" transform="rotate(159.5 380.3 263.9)" />
    <ellipse cx="369.2" cy="231.3" rx="16.8" ry="14.0" fill="#578a45" stroke="#ffffff88" stroke-width="1.2" transform="rotate(166.1 369.2 231.3)" />
    <ellipse cx="429.2" cy="282.6" rx="21.6" ry="18.0" fill="#7ba35a" stroke="#ffffff88" stroke-width="1.2" transform="rotate(172.7 429.2 282.6)" />
    <ellipse cx="427.0" cy="251.1" rx="26.4" ry="22.0" fill="#315d34" stroke="#ffffff88" stroke-width="1.2" transform="rotate(179.3 427.0 251.1)" />
    <ellipse cx="440.5" cy="219.0" rx="31.2" ry="26.0" fill="#578a45" stroke="#ffffff88" stroke-width="1.2" transform="rotate(185.9 440.5 219.0)" />
    <ellipse cx="455.1" cy="282.7" rx="12.0" ry="10.0" fill="#7ba35a" stroke="#ffffff88" stroke-width="1.2" transform="rotate(192.5 455.1 282.7)" />
    <ellipse cx="475.6" cy="254.2" rx="16.8" ry="14.0" fill="#315d34" stroke="#ffffff88" stroke-width="1.2" transform="rotate(199.2 475.6 254.2)" />
    <ellipse cx="510.3" cy="230.0" rx="21.6" ry="18.0" fill="#578a45" stroke="#ffffff88" stroke-width="1.2" transform="rotate(205.8 510.3 230.0)" />
    <ellipse cx="475.9" cy="290.3" rx="26.4" ry="22.0" fill="#7ba35a" stroke="#ffffff88" stroke-width="1.2" transform="rotate(212.4 475.9 290.3)" />
    <ellipse cx="514.2" cy="271.3" rx="31.2" ry="26.0" fill="#315d34" stroke="#ffffff88" stroke-width="1.2" transform="rotate(219.0 514.2 271.3)" />
    <ellipse cx="562.1" cy="260.5" rx="12.0" ry="10.0" fill="#578a45" stroke="#ffffff88" stroke-width="1.2" transform="rotate(225.6 562.1 260.5)" />
    <ellipse cx="487.3" cy="302.5" rx="16.8" ry="14.0" fill="#7ba35a" stroke="#ffffff88" stroke-width="1.2" transform="rotate(232.2 487.3 302.5)" />
    <ellipse cx="534.7" cy="297.2" rx="21.6" ry="18.0" fill="#315d34" stroke="#ffffff88" stroke-width="1.2" transform="rotate(238.8 534.7 297.2)" />
    <ellipse cx="584.5" cy="302.1" rx="26.4" ry="22.0" fill="#578a45" stroke="#ffffff88" stroke-width="1.2" transform="rotate(245.5 584.5 302.1)" />
    <ellipse cx="488.0" cy="315.5" rx="31.2" ry="26.0" fill="#7ba35a" stroke="#ffffff88" stroke-width="1.2" transform="rotate(252.1 488.0 315.5)" />
    <ellipse cx="533.6" cy="325.1" rx="12.0" ry="10.0" fill="#315d34" stroke="#ffffff88" stroke-width="1.2" transform="rotate(258.7 533.6 325.1)" />
    <ellipse cx="574.0" cy="344.4" rx="16.8" ry="14.0" fill="#578a45" stroke="#ffffff88" stroke-width="1.2" transform="rotate(265.3 574.0 344.4)" />
    <ellipse cx="605.8" cy="372.3" rx="21.6" ry="18.0" fill="#7ba35a" stroke="#ffffff88" stroke-width="1.2" transform="rotate(271.9 605.8 372.3)" />
  <rect x="115" y="538" width="670" height="88" rx="28" fill="#091612" stroke="#ffffff26" />
  <text x="450" y="586" text-anchor="middle" font-family="Arial, sans-serif" font-size="58" font-weight="700" fill="#ffffff">Cardamom</text>
  <text x="450" y="615" text-anchor="middle" font-family="Arial, sans-serif" font-size="24" fill="#d4ff00" letter-spacing="3">EXPORT QUALITY</text>
</svg>
