<svg xmlns="http://www.w3.org/2000/svg" width="900" height="700" viewBox="0 0 900 700" role="img" aria-labelledby="title desc">
  <title id="title">Chana Dal</title>
  <desc id="desc">Clean export product artwork for Chana Dal on a dark green background.</desc>
  <defs>
    <linearGradient id="background" x1="0" x2="1" y1="0" y2="1">
      <stop stop-color="#091612" />
      <stop offset="1" stop-color="#1a332b" />
    </linearGradient>
    <filter id="shadow"><feDropShadow dx="0" dy="18" stdDeviation="22" flood-color="#000000" flood-opacity=".35" /></filter>
  </defs>
  <rect width="900" height="700" fill="url(#background)" />
  <rect x="70" y="60" width="760" height="580" rx="52" fill="#132620" stroke="#ffffff20" stroke-width="2" />
  <circle cx="450" cy="300" r="210" fill="#0b1d18" opacity=".5" />
  <ellipse cx="450" cy="315" rx="235" ry="170" fill="#eee5cc" stroke="#d4ff00" stroke-width="7" filter="url(#shadow)" />
    <ellipse cx="472.9" cy="332.2" rx="12.0" ry="10.0" fill="#caa66a" stroke="#ffffff88" stroke-width="1.2" transform="rotate(285.6 472.9 332.2)" />
    <ellipse cx="492.8" cy="360.5" rx="16.8" ry="14.0" fill="#e1c887" stroke="#ffffff88" stroke-width="1.2" transform="rotate(292.2 492.8 360.5)" />
    <ellipse cx="498.2" cy="392.8" rx="21.6" ry="18.0" fill="#8f6a3c" stroke="#ffffff88" stroke-width="1.2" transform="rotate(298.8 498.2 392.8)" />
    <ellipse cx="488.1" cy="426.7" rx="26.4" ry="22.0" fill="#caa66a" stroke="#ffffff88" stroke-width="1.2" transform="rotate(305.4 488.1 426.7)" />
    <ellipse cx="454.1" cy="365.6" rx="31.2" ry="26.0" fill="#e1c887" stroke="#ffffff88" stroke-width="1.2" transform="rotate(312.1 454.1 365.6)" />
    <ellipse cx="435.9" cy="395.7" rx="12.0" ry="10.0" fill="#8f6a3c" stroke="#ffffff88" stroke-width="1.2" transform="rotate(318.7 435.9 395.7)" />
    <ellipse cx="402.8" cy="422.5" rx="16.8" ry="14.0" fill="#caa66a" stroke="#ffffff88" stroke-width="1.2" transform="rotate(325.3 402.8 422.5)" />
    <ellipse cx="418.2" cy="358.4" rx="21.6" ry="18.0" fill="#e1c887" stroke="#ffffff88" stroke-width="1.2" transform="rotate(331.9 418.2 358.4)" />
    <ellipse cx="380.8" cy="379.5" rx="26.4" ry="22.0" fill="#8f6a3c" stroke="#ffffff88" stroke-width="1.2" transform="rotate(338.5 380.8 379.5)" />
    <ellipse cx="332.6" cy="393.1" rx="31.2" ry="26.0" fill="#caa66a" stroke="#ffffff88" stroke-width="1.2" transform="rotate(345.1 332.6 393.1)" />
    <ellipse cx="393.5" cy="341.9" rx="12.0" ry="10.0" fill="#e1c887" stroke="#ffffff88" stroke-width="1.2" transform="rotate(351.7 393.5 341.9)" />
    <ellipse cx="345.5" cy="349.2" rx="16.8" ry="14.0" fill="#8f6a3c" stroke="#ffffff88" stroke-width="1.2" transform="rotate(358.4 345.5 349.2)" />
    <ellipse cx="293.4" cy="346.6" rx="21.6" ry="18.0" fill="#caa66a" stroke="#ffffff88" stroke-width="1.2" transform="rotate(365.0 293.4 346.6)" />
    <ellipse cx="384.6" cy="320.8" rx="26.4" ry="22.0" fill="#e1c887" stroke="#ffffff88" stroke-width="1.2" transform="rotate(371.6 384.6 320.8)" />
    <ellipse cx="337.1" cy="312.8" rx="31.2" ry="26.0" fill="#8f6a3c" stroke="#ffffff88" stroke-width="1.2" transform="rotate(378.2 337.1 312.8)" />
    <ellipse cx="293.0" cy="294.8" rx="12.0" ry="10.0" fill="#caa66a" stroke="#ffffff88" stroke-width="1.2" transform="rotate(384.8 293.0 294.8)" />
    <ellipse cx="392.0" cy="300.8" rx="16.8" ry="14.0" fill="#e1c887" stroke="#ffffff88" stroke-width="1.2" transform="rotate(391.4 392.0 300.8)" />
    <ellipse cx="355.7" cy="279.4" rx="21.6" ry="18.0" fill="#8f6a3c" stroke="#ffffff88" stroke-width="1.2" transform="rotate(398.0 355.7 279.4)" />
    <ellipse cx="329.8" cy="250.3" rx="26.4" ry="22.0" fill="#caa66a" stroke="#ffffff88" stroke-width="1.2" transform="rotate(404.6 329.8 250.3)" />
    <ellipse cx="412.0" cy="286.5" rx="31.2" ry="26.0" fill="#e1c887" stroke="#ffffff88" stroke-width="1.2" transform="rotate(411.3 412.0 286.5)" />
    <ellipse cx="395.2" cy="256.8" rx="12.0" ry="10.0" fill="#8f6a3c" stroke="#ffffff88" stroke-width="1.2" transform="rotate(417.9 395.2 256.8)" />
    <ellipse cx="393.2" cy="223.4" rx="16.8" ry="14.0" fill="#caa66a" stroke="#ffffff88" stroke-width="1.2" transform="rotate(424.5 393.2 223.4)" />
    <ellipse cx="438.3" cy="280.7" rx="21.6" ry="18.0" fill="#e1c887" stroke="#ffffff88" stroke-width="1.2" transform="rotate(431.1 438.3 280.7)" />
    <ellipse cx="444.7" cy="249.4" rx="26.4" ry="22.0" fill="#8f6a3c" stroke="#ffffff88" stroke-width="1.2" transform="rotate(437.7 444.7 249.4)" />
    <ellipse cx="466.7" cy="219.4" rx="31.2" ry="26.0" fill="#caa66a" stroke="#ffffff88" stroke-width="1.2" transform="rotate(444.3 466.7 219.4)" />
    <ellipse cx="463.7" cy="283.7" rx="12.0" ry="10.0" fill="#e1c887" stroke="#ffffff88" stroke-width="1.2" transform="rotate(450.9 463.7 283.7)" />
    <ellipse cx="491.6" cy="258.0" rx="16.8" ry="14.0" fill="#8f6a3c" stroke="#ffffff88" stroke-width="1.2" transform="rotate(457.6 491.6 258.0)" />
    <ellipse cx="532.4" cy="238.2" rx="21.6" ry="18.0" fill="#caa66a" stroke="#ffffff88" stroke-width="1.2" transform="rotate(464.2 532.4 238.2)" />
    <ellipse cx="482.2" cy="293.6" rx="26.4" ry="22.0" fill="#e1c887" stroke="#ffffff88" stroke-width="1.2" transform="rotate(470.8 482.2 293.6)" />
    <ellipse cx="525.1" cy="279.3" rx="31.2" ry="26.0" fill="#8f6a3c" stroke="#ffffff88" stroke-width="1.2" transform="rotate(477.4 525.1 279.3)" />
    <ellipse cx="575.1" cy="274.1" rx="12.0" ry="10.0" fill="#caa66a" stroke="#ffffff88" stroke-width="1.2" transform="rotate(484.0 575.1 274.1)" />
    <ellipse cx="490.1" cy="306.9" rx="16.8" ry="14.0" fill="#e1c887" stroke="#ffffff88" stroke-width="1.2" transform="rotate(490.6 490.1 306.9)" />
    <ellipse cx="538.2" cy="307.2" rx="21.6" ry="18.0" fill="#8f6a3c" stroke="#ffffff88" stroke-width="1.2" transform="rotate(497.2 538.2 307.2)" />
    <ellipse cx="585.9" cy="317.7" rx="26.4" ry="22.0" fill="#caa66a" stroke="#ffffff88" stroke-width="1.2" transform="rotate(503.9 585.9 317.7)" />
    <ellipse cx="487.3" cy="319.8" rx="31.2" ry="26.0" fill="#e1c887" stroke="#ffffff88" stroke-width="1.2" transform="rotate(510.5 487.3 319.8)" />
    <ellipse cx="529.5" cy="334.5" rx="12.0" ry="10.0" fill="#8f6a3c" stroke="#ffffff88" stroke-width="1.2" transform="rotate(517.1 529.5 334.5)" />
    <ellipse cx="564.1" cy="358.1" rx="16.8" ry="14.0" fill="#caa66a" stroke="#ffffff88" stroke-width="1.2" transform="rotate(523.7 564.1 358.1)" />
    <ellipse cx="587.9" cy="389.2" rx="21.6" ry="18.0" fill="#e1c887" stroke="#ffffff88" stroke-width="1.2" transform="rotate(530.3 587.9 389.2)" />
  <rect x="115" y="538" width="670" height="88" rx="28" fill="#091612" stroke="#ffffff26" />
  <text x="450" y="586" text-anchor="middle" font-family="Arial, sans-serif" font-size="58" font-weight="700" fill="#ffffff">Chana Dal</text>
  <text x="450" y="615" text-anchor="middle" font-family="Arial, sans-serif" font-size="24" fill="#d4ff00" letter-spacing="3">EXPORT QUALITY</text>
</svg>
