<svg xmlns="http://www.w3.org/2000/svg" width="900" height="700" viewBox="0 0 900 700" role="img" aria-labelledby="title desc">
  <title id="title">Chilli Powder</title>
  <desc id="desc">Clean export product artwork for Chilli Powder on a dark green background.</desc>
  <defs>
    <linearGradient id="background" x1="0" x2="1" y1="0" y2="1">
      <stop stop-color="#091612" />
      <stop offset="1" stop-color="#1a332b" />
    </linearGradient>
    <filter id="shadow"><feDropShadow dx="0" dy="18" stdDeviation="22" flood-color="#000000" flood-opacity=".35" /></filter>
  </defs>
  <rect width="900" height="700" fill="url(#background)" />
  <rect x="70" y="60" width="760" height="580" rx="52" fill="#132620" stroke="#ffffff20" stroke-width="2" />
  <circle cx="450" cy="300" r="210" fill="#0b1d18" opacity=".5" />
  <ellipse cx="450" cy="315" rx="235" ry="170" fill="#eee5cc" stroke="#d4ff00" stroke-width="7" filter="url(#shadow)" />
    <ellipse cx="428.9" cy="333.2" rx="12.0" ry="10.0" fill="#d9432f" stroke="#ffffff88" stroke-width="1.2" transform="rotate(340.0 428.9 333.2)" />
    <ellipse cx="390.5" cy="351.7" rx="16.8" ry="14.0" fill="#9d1f2d" stroke="#ffffff88" stroke-width="1.2" transform="rotate(346.6 390.5 351.7)" />
    <ellipse cx="343.1" cy="361.9" rx="21.6" ry="18.0" fill="#f06b48" stroke="#ffffff88" stroke-width="1.2" transform="rotate(353.2 343.1 361.9)" />
    <ellipse cx="289.9" cy="362.6" rx="26.4" ry="22.0" fill="#d9432f" stroke="#ffffff88" stroke-width="1.2" transform="rotate(359.8 289.9 362.6)" />
    <ellipse cx="374.7" cy="328.2" rx="31.2" ry="26.0" fill="#9d1f2d" stroke="#ffffff88" stroke-width="1.2" transform="rotate(366.5 374.7 328.2)" />
    <ellipse cx="325.6" cy="323.0" rx="12.0" ry="10.0" fill="#f06b48" stroke="#ffffff88" stroke-width="1.2" transform="rotate(373.1 325.6 323.0)" />
    <ellipse cx="278.4" cy="307.5" rx="16.8" ry="14.0" fill="#d9432f" stroke="#ffffff88" stroke-width="1.2" transform="rotate(379.7 278.4 307.5)" />
    <ellipse cx="378.0" cy="303.9" rx="21.6" ry="18.0" fill="#9d1f2d" stroke="#ffffff88" stroke-width="1.2" transform="rotate(386.3 378.0 303.9)" />
    <ellipse cx="338.5" cy="284.5" rx="26.4" ry="22.0" fill="#f06b48" stroke="#ffffff88" stroke-width="1.2" transform="rotate(392.9 338.5 284.5)" />
    <ellipse cx="308.0" cy="256.7" rx="31.2" ry="26.0" fill="#d9432f" stroke="#ffffff88" stroke-width="1.2" transform="rotate(399.5 308.0 256.7)" />
    <ellipse cx="397.8" cy="284.7" rx="12.0" ry="10.0" fill="#9d1f2d" stroke="#ffffff88" stroke-width="1.2" transform="rotate(406.1 397.8 284.7)" />
    <ellipse cx="376.7" cy="255.7" rx="16.8" ry="14.0" fill="#f06b48" stroke="#ffffff88" stroke-width="1.2" transform="rotate(412.8 376.7 255.7)" />
    <ellipse cx="369.7" cy="222.0" rx="21.6" ry="18.0" fill="#d9432f" stroke="#ffffff88" stroke-width="1.2" transform="rotate(419.4 369.7 222.0)" />
    <ellipse cx="427.6" cy="274.6" rx="26.4" ry="22.0" fill="#9d1f2d" stroke="#ffffff88" stroke-width="1.2" transform="rotate(426.0 427.6 274.6)" />
    <ellipse cx="429.7" cy="242.7" rx="31.2" ry="26.0" fill="#f06b48" stroke="#ffffff88" stroke-width="1.2" transform="rotate(432.6 429.7 242.7)" />
    <ellipse cx="447.5" cy="211.0" rx="12.0" ry="10.0" fill="#d9432f" stroke="#ffffff88" stroke-width="1.2" transform="rotate(439.2 447.5 211.0)" />
    <ellipse cx="459.3" cy="275.2" rx="16.8" ry="14.0" fill="#9d1f2d" stroke="#ffffff88" stroke-width="1.2" transform="rotate(445.8 459.3 275.2)" />
    <ellipse cx="483.8" cy="247.6" rx="21.6" ry="18.0" fill="#f06b48" stroke="#ffffff88" stroke-width="1.2" transform="rotate(452.4 483.8 247.6)" />
    <ellipse cx="522.1" cy="225.1" rx="26.4" ry="22.0" fill="#d9432f" stroke="#ffffff88" stroke-width="1.2" transform="rotate(459.0 522.1 225.1)" />
    <ellipse cx="484.9" cy="284.9" rx="31.2" ry="26.0" fill="#9d1f2d" stroke="#ffffff88" stroke-width="1.2" transform="rotate(465.7 484.9 284.9)" />
    <ellipse cx="526.1" cy="268.0" rx="12.0" ry="10.0" fill="#f06b48" stroke="#ffffff88" stroke-width="1.2" transform="rotate(472.3 526.1 268.0)" />
    <ellipse cx="576.0" cy="259.7" rx="16.8" ry="14.0" fill="#d9432f" stroke="#ffffff88" stroke-width="1.2" transform="rotate(478.9 576.0 259.7)" />
    <ellipse cx="499.1" cy="300.4" rx="21.6" ry="18.0" fill="#9d1f2d" stroke="#ffffff88" stroke-width="1.2" transform="rotate(485.5 499.1 300.4)" />
    <ellipse cx="547.5" cy="297.9" rx="26.4" ry="22.0" fill="#f06b48" stroke="#ffffff88" stroke-width="1.2" transform="rotate(492.1 547.5 297.9)" />
    <ellipse cx="597.3" cy="305.6" rx="31.2" ry="26.0" fill="#d9432f" stroke="#ffffff88" stroke-width="1.2" transform="rotate(498.7 597.3 305.6)" />
    <ellipse cx="499.9" cy="317.2" rx="12.0" ry="10.0" fill="#9d1f2d" stroke="#ffffff88" stroke-width="1.2" transform="rotate(505.3 499.9 317.2)" />
    <ellipse cx="544.4" cy="329.5" rx="16.8" ry="14.0" fill="#f06b48" stroke="#ffffff88" stroke-width="1.2" transform="rotate(512.0 544.4 329.5)" />
    <ellipse cx="582.7" cy="351.3" rx="21.6" ry="18.0" fill="#d9432f" stroke="#ffffff88" stroke-width="1.2" transform="rotate(518.6 582.7 351.3)" />
    <ellipse cx="488.9" cy="331.0" rx="26.4" ry="22.0" fill="#9d1f2d" stroke="#ffffff88" stroke-width="1.2" transform="rotate(525.2 488.9 331.0)" />
    <ellipse cx="519.4" cy="355.3" rx="31.2" ry="26.0" fill="#f06b48" stroke="#ffffff88" stroke-width="1.2" transform="rotate(531.8 519.4 355.3)" />
    <ellipse cx="537.7" cy="385.9" rx="12.0" ry="10.0" fill="#d9432f" stroke="#ffffff88" stroke-width="1.2" transform="rotate(538.4 537.7 385.9)" />
    <ellipse cx="470.6" cy="338.8" rx="16.8" ry="14.0" fill="#9d1f2d" stroke="#ffffff88" stroke-width="1.2" transform="rotate(545.0 470.6 338.8)" />
    <ellipse cx="480.2" cy="369.4" rx="21.6" ry="18.0" fill="#f06b48" stroke="#ffffff88" stroke-width="1.2" transform="rotate(551.6 480.2 369.4)" />
    <ellipse cx="474.4" cy="402.0" rx="26.4" ry="22.0" fill="#d9432f" stroke="#ffffff88" stroke-width="1.2" transform="rotate(558.3 474.4 402.0)" />
    <ellipse cx="450.6" cy="339.7" rx="31.2" ry="26.0" fill="#9d1f2d" stroke="#ffffff88" stroke-width="1.2" transform="rotate(564.9 450.6 339.7)" />
    <ellipse cx="437.3" cy="369.6" rx="12.0" ry="10.0" fill="#f06b48" stroke="#ffffff88" stroke-width="1.2" transform="rotate(571.5 437.3 369.6)" />
    <ellipse cx="409.1" cy="396.6" rx="16.8" ry="14.0" fill="#d9432f" stroke="#ffffff88" stroke-width="1.2" transform="rotate(578.1 409.1 396.6)" />
    <ellipse cx="367.2" cy="418.2" rx="21.6" ry="18.0" fill="#9d1f2d" stroke="#ffffff88" stroke-width="1.2" transform="rotate(584.7 367.2 418.2)" />
  <rect x="115" y="538" width="670" height="88" rx="28" fill="#091612" stroke="#ffffff26" />
  <text x="450" y="586" text-anchor="middle" font-family="Arial, sans-serif" font-size="58" font-weight="700" fill="#ffffff">Chilli Powder</text>
  <text x="450" y="615" text-anchor="middle" font-family="Arial, sans-serif" font-size="24" fill="#d4ff00" letter-spacing="3">EXPORT QUALITY</text>
</svg>
