<svg xmlns="http://www.w3.org/2000/svg" width="900" height="700" viewBox="0 0 900 700" role="img" aria-labelledby="title desc">
  <title id="title">Chilli</title>
  <desc id="desc">Clean export product artwork for Chilli on a dark green background.</desc>
  <defs>
    <linearGradient id="background" x1="0" x2="1" y1="0" y2="1">
      <stop stop-color="#091612" />
      <stop offset="1" stop-color="#1a332b" />
    </linearGradient>
    <filter id="shadow"><feDropShadow dx="0" dy="18" stdDeviation="22" flood-color="#000000" flood-opacity=".35" /></filter>
  </defs>
  <rect width="900" height="700" fill="url(#background)" />
  <rect x="70" y="60" width="760" height="580" rx="52" fill="#132620" stroke="#ffffff20" stroke-width="2" />
  <circle cx="450" cy="300" r="210" fill="#0b1d18" opacity=".5" />
  <ellipse cx="450" cy="315" rx="235" ry="170" fill="#eee5cc" stroke="#d4ff00" stroke-width="7" filter="url(#shadow)" />
    <ellipse cx="484.5" cy="318.8" rx="12.0" ry="10.0" fill="#d9432f" stroke="#ffffff88" stroke-width="1.2" transform="rotate(6.8 484.5 318.8)" />
    <ellipse cx="527.4" cy="332.5" rx="16.8" ry="14.0" fill="#9d1f2d" stroke="#ffffff88" stroke-width="1.2" transform="rotate(13.4 527.4 332.5)" />
    <ellipse cx="563.2" cy="355.3" rx="21.6" ry="18.0" fill="#f06b48" stroke="#ffffff88" stroke-width="1.2" transform="rotate(20.0 563.2 355.3)" />
    <ellipse cx="588.4" cy="385.7" rx="26.4" ry="22.0" fill="#d9432f" stroke="#ffffff88" stroke-width="1.2" transform="rotate(26.6 588.4 385.7)" />
    <ellipse cx="502.6" cy="352.5" rx="31.2" ry="26.0" fill="#9d1f2d" stroke="#ffffff88" stroke-width="1.2" transform="rotate(33.3 502.6 352.5)" />
    <ellipse cx="517.9" cy="383.2" rx="12.0" ry="10.0" fill="#f06b48" stroke="#ffffff88" stroke-width="1.2" transform="rotate(39.9 517.9 383.2)" />
    <ellipse cx="518.4" cy="417.6" rx="16.8" ry="14.0" fill="#d9432f" stroke="#ffffff88" stroke-width="1.2" transform="rotate(46.5 518.4 417.6)" />
    <ellipse cx="467.8" cy="361.7" rx="21.6" ry="18.0" fill="#9d1f2d" stroke="#ffffff88" stroke-width="1.2" transform="rotate(53.1 467.8 361.7)" />
    <ellipse cx="459.4" cy="393.4" rx="26.4" ry="22.0" fill="#f06b48" stroke="#ffffff88" stroke-width="1.2" transform="rotate(59.7 459.4 393.4)" />
    <ellipse cx="435.3" cy="423.8" rx="31.2" ry="26.0" fill="#d9432f" stroke="#ffffff88" stroke-width="1.2" transform="rotate(66.3 435.3 423.8)" />
    <ellipse cx="432.5" cy="359.1" rx="12.0" ry="10.0" fill="#9d1f2d" stroke="#ffffff88" stroke-width="1.2" transform="rotate(72.9 432.5 359.1)" />
    <ellipse cx="402.5" cy="384.5" rx="16.8" ry="14.0" fill="#f06b48" stroke="#ffffff88" stroke-width="1.2" transform="rotate(79.6 402.5 384.5)" />
    <ellipse cx="359.7" cy="404.0" rx="21.6" ry="18.0" fill="#d9432f" stroke="#ffffff88" stroke-width="1.2" transform="rotate(86.2 359.7 404.0)" />
    <ellipse cx="405.1" cy="346.4" rx="26.4" ry="22.0" fill="#9d1f2d" stroke="#ffffff88" stroke-width="1.2" transform="rotate(92.8 405.1 346.4)" />
    <ellipse cx="360.5" cy="359.8" rx="31.2" ry="26.0" fill="#f06b48" stroke="#ffffff88" stroke-width="1.2" transform="rotate(99.4 360.5 359.8)" />
    <ellipse cx="308.9" cy="364.1" rx="12.0" ry="10.0" fill="#d9432f" stroke="#ffffff88" stroke-width="1.2" transform="rotate(106.0 308.9 364.1)" />
    <ellipse cx="391.3" cy="327.9" rx="16.8" ry="14.0" fill="#9d1f2d" stroke="#ffffff88" stroke-width="1.2" transform="rotate(112.6 391.3 327.9)" />
    <ellipse cx="342.4" cy="326.3" rx="21.6" ry="18.0" fill="#f06b48" stroke="#ffffff88" stroke-width="1.2" transform="rotate(119.2 342.4 326.3)" />
    <ellipse cx="294.0" cy="314.5" rx="26.4" ry="22.0" fill="#d9432f" stroke="#ffffff88" stroke-width="1.2" transform="rotate(125.8 294.0 314.5)" />
    <ellipse cx="392.8" cy="308.6" rx="31.2" ry="26.0" fill="#9d1f2d" stroke="#ffffff88" stroke-width="1.2" transform="rotate(132.5 392.8 308.6)" />
    <ellipse cx="350.8" cy="292.5" rx="12.0" ry="10.0" fill="#f06b48" stroke="#ffffff88" stroke-width="1.2" transform="rotate(139.1 350.8 292.5)" />
    <ellipse cx="316.7" cy="267.6" rx="16.8" ry="14.0" fill="#d9432f" stroke="#ffffff88" stroke-width="1.2" transform="rotate(145.7 316.7 267.6)" />
    <ellipse cx="407.5" cy="293.3" rx="21.6" ry="18.0" fill="#9d1f2d" stroke="#ffffff88" stroke-width="1.2" transform="rotate(152.3 407.5 293.3)" />
    <ellipse cx="381.9" cy="266.5" rx="26.4" ry="22.0" fill="#f06b48" stroke="#ffffff88" stroke-width="1.2" transform="rotate(158.9 381.9 266.5)" />
    <ellipse cx="369.6" cy="234.2" rx="31.2" ry="26.0" fill="#d9432f" stroke="#ffffff88" stroke-width="1.2" transform="rotate(165.5 369.6 234.2)" />
    <ellipse cx="430.1" cy="285.2" rx="12.0" ry="10.0" fill="#9d1f2d" stroke="#ffffff88" stroke-width="1.2" transform="rotate(172.1 430.1 285.2)" />
    <ellipse cx="426.6" cy="253.8" rx="16.8" ry="14.0" fill="#f06b48" stroke="#ffffff88" stroke-width="1.2" transform="rotate(178.8 426.6 253.8)" />
    <ellipse cx="438.8" cy="221.7" rx="21.6" ry="18.0" fill="#d9432f" stroke="#ffffff88" stroke-width="1.2" transform="rotate(185.4 438.8 221.7)" />
    <ellipse cx="454.0" cy="285.2" rx="26.4" ry="22.0" fill="#9d1f2d" stroke="#ffffff88" stroke-width="1.2" transform="rotate(192.0 454.0 285.2)" />
    <ellipse cx="473.2" cy="256.5" rx="31.2" ry="26.0" fill="#f06b48" stroke="#ffffff88" stroke-width="1.2" transform="rotate(198.6 473.2 256.5)" />
    <ellipse cx="506.8" cy="231.8" rx="12.0" ry="10.0" fill="#d9432f" stroke="#ffffff88" stroke-width="1.2" transform="rotate(205.2 506.8 231.8)" />
    <ellipse cx="473.1" cy="292.2" rx="16.8" ry="14.0" fill="#9d1f2d" stroke="#ffffff88" stroke-width="1.2" transform="rotate(211.8 473.1 292.2)" />
    <ellipse cx="510.6" cy="272.6" rx="21.6" ry="18.0" fill="#f06b48" stroke="#ffffff88" stroke-width="1.2" transform="rotate(218.4 510.6 272.6)" />
    <ellipse cx="557.7" cy="261.0" rx="26.4" ry="22.0" fill="#d9432f" stroke="#ffffff88" stroke-width="1.2" transform="rotate(225.1 557.7 261.0)" />
    <ellipse cx="483.5" cy="303.3" rx="31.2" ry="26.0" fill="#9d1f2d" stroke="#ffffff88" stroke-width="1.2" transform="rotate(231.7 483.5 303.3)" />
    <ellipse cx="530.5" cy="297.3" rx="12.0" ry="10.0" fill="#f06b48" stroke="#ffffff88" stroke-width="1.2" transform="rotate(238.3 530.5 297.3)" />
    <ellipse cx="580.3" cy="301.3" rx="16.8" ry="14.0" fill="#d9432f" stroke="#ffffff88" stroke-width="1.2" transform="rotate(244.9 580.3 301.3)" />
    <ellipse cx="629.0" cy="315.5" rx="21.6" ry="18.0" fill="#9d1f2d" stroke="#ffffff88" stroke-width="1.2" transform="rotate(251.5 629.0 315.5)" />
  <rect x="115" y="538" width="670" height="88" rx="28" fill="#091612" stroke="#ffffff26" />
  <text x="450" y="586" text-anchor="middle" font-family="Arial, sans-serif" font-size="58" font-weight="700" fill="#ffffff">Chilli</text>
  <text x="450" y="615" text-anchor="middle" font-family="Arial, sans-serif" font-size="24" fill="#d4ff00" letter-spacing="3">EXPORT QUALITY</text>
</svg>
