<svg xmlns="http://www.w3.org/2000/svg" width="900" height="700" viewBox="0 0 900 700" role="img" aria-labelledby="title desc">
  <title id="title">Cinnamon</title>
  <desc id="desc">Clean export product artwork for Cinnamon on a dark green background.</desc>
  <defs>
    <linearGradient id="background" x1="0" x2="1" y1="0" y2="1">
      <stop stop-color="#091612" />
      <stop offset="1" stop-color="#1a332b" />
    </linearGradient>
    <filter id="shadow"><feDropShadow dx="0" dy="18" stdDeviation="22" flood-color="#000000" flood-opacity=".35" /></filter>
  </defs>
  <rect width="900" height="700" fill="url(#background)" />
  <rect x="70" y="60" width="760" height="580" rx="52" fill="#132620" stroke="#ffffff20" stroke-width="2" />
  <circle cx="450" cy="300" r="210" fill="#0b1d18" opacity=".5" />
  <ellipse cx="450" cy="315" rx="235" ry="170" fill="#eee5cc" stroke="#d4ff00" stroke-width="7" filter="url(#shadow)" />
    <ellipse cx="473.1" cy="332.1" rx="12.0" ry="10.0" fill="#b8743f" stroke="#ffffff88" stroke-width="1.2" transform="rotate(34.0 473.1 332.1)" />
    <ellipse cx="493.2" cy="360.3" rx="16.8" ry="14.0" fill="#d7a66a" stroke="#ffffff88" stroke-width="1.2" transform="rotate(40.6 493.2 360.3)" />
    <ellipse cx="499.1" cy="392.6" rx="21.6" ry="18.0" fill="#7f5130" stroke="#ffffff88" stroke-width="1.2" transform="rotate(47.2 499.1 392.6)" />
    <ellipse cx="489.2" cy="426.5" rx="26.4" ry="22.0" fill="#b8743f" stroke="#ffffff88" stroke-width="1.2" transform="rotate(53.8 489.2 426.5)" />
    <ellipse cx="454.6" cy="365.6" rx="31.2" ry="26.0" fill="#d7a66a" stroke="#ffffff88" stroke-width="1.2" transform="rotate(60.5 454.6 365.6)" />
    <ellipse cx="436.8" cy="395.8" rx="12.0" ry="10.0" fill="#7f5130" stroke="#ffffff88" stroke-width="1.2" transform="rotate(67.1 436.8 395.8)" />
    <ellipse cx="403.9" cy="422.7" rx="16.8" ry="14.0" fill="#b8743f" stroke="#ffffff88" stroke-width="1.2" transform="rotate(73.7 403.9 422.7)" />
    <ellipse cx="418.7" cy="358.6" rx="21.6" ry="18.0" fill="#d7a66a" stroke="#ffffff88" stroke-width="1.2" transform="rotate(80.3 418.7 358.6)" />
    <ellipse cx="381.5" cy="379.8" rx="26.4" ry="22.0" fill="#7f5130" stroke="#ffffff88" stroke-width="1.2" transform="rotate(86.9 381.5 379.8)" />
    <ellipse cx="333.4" cy="393.6" rx="31.2" ry="26.0" fill="#b8743f" stroke="#ffffff88" stroke-width="1.2" transform="rotate(93.5 333.4 393.6)" />
    <ellipse cx="393.8" cy="342.1" rx="12.0" ry="10.0" fill="#d7a66a" stroke="#ffffff88" stroke-width="1.2" transform="rotate(100.1 393.8 342.1)" />
    <ellipse cx="345.8" cy="349.6" rx="16.8" ry="14.0" fill="#7f5130" stroke="#ffffff88" stroke-width="1.2" transform="rotate(106.8 345.8 349.6)" />
    <ellipse cx="293.7" cy="347.3" rx="21.6" ry="18.0" fill="#b8743f" stroke="#ffffff88" stroke-width="1.2" transform="rotate(113.4 293.7 347.3)" />
    <ellipse cx="384.7" cy="321.1" rx="26.4" ry="22.0" fill="#d7a66a" stroke="#ffffff88" stroke-width="1.2" transform="rotate(120.0 384.7 321.1)" />
    <ellipse cx="337.0" cy="313.3" rx="31.2" ry="26.0" fill="#7f5130" stroke="#ffffff88" stroke-width="1.2" transform="rotate(126.6 337.0 313.3)" />
    <ellipse cx="292.8" cy="295.5" rx="12.0" ry="10.0" fill="#b8743f" stroke="#ffffff88" stroke-width="1.2" transform="rotate(133.2 292.8 295.5)" />
    <ellipse cx="391.8" cy="301.0" rx="16.8" ry="14.0" fill="#d7a66a" stroke="#ffffff88" stroke-width="1.2" transform="rotate(139.8 391.8 301.0)" />
    <ellipse cx="355.4" cy="279.8" rx="21.6" ry="18.0" fill="#7f5130" stroke="#ffffff88" stroke-width="1.2" transform="rotate(146.4 355.4 279.8)" />
    <ellipse cx="329.2" cy="250.9" rx="26.4" ry="22.0" fill="#b8743f" stroke="#ffffff88" stroke-width="1.2" transform="rotate(153.0 329.2 250.9)" />
    <ellipse cx="411.7" cy="286.7" rx="31.2" ry="26.0" fill="#d7a66a" stroke="#ffffff88" stroke-width="1.2" transform="rotate(159.7 411.7 286.7)" />
    <ellipse cx="394.6" cy="257.0" rx="12.0" ry="10.0" fill="#7f5130" stroke="#ffffff88" stroke-width="1.2" transform="rotate(166.3 394.6 257.0)" />
    <ellipse cx="392.2" cy="223.6" rx="16.8" ry="14.0" fill="#b8743f" stroke="#ffffff88" stroke-width="1.2" transform="rotate(172.9 392.2 223.6)" />
    <ellipse cx="438.0" cy="280.8" rx="21.6" ry="18.0" fill="#d7a66a" stroke="#ffffff88" stroke-width="1.2" transform="rotate(179.5 438.0 280.8)" />
    <ellipse cx="444.0" cy="249.5" rx="26.4" ry="22.0" fill="#7f5130" stroke="#ffffff88" stroke-width="1.2" transform="rotate(186.1 444.0 249.5)" />
    <ellipse cx="465.6" cy="219.3" rx="31.2" ry="26.0" fill="#b8743f" stroke="#ffffff88" stroke-width="1.2" transform="rotate(192.7 465.6 219.3)" />
    <ellipse cx="463.4" cy="283.7" rx="12.0" ry="10.0" fill="#d7a66a" stroke="#ffffff88" stroke-width="1.2" transform="rotate(199.3 463.4 283.7)" />
    <ellipse cx="491.0" cy="257.9" rx="16.8" ry="14.0" fill="#7f5130" stroke="#ffffff88" stroke-width="1.2" transform="rotate(206.0 491.0 257.9)" />
    <ellipse cx="531.5" cy="237.9" rx="21.6" ry="18.0" fill="#b8743f" stroke="#ffffff88" stroke-width="1.2" transform="rotate(212.6 531.5 237.9)" />
    <ellipse cx="481.9" cy="293.5" rx="26.4" ry="22.0" fill="#d7a66a" stroke="#ffffff88" stroke-width="1.2" transform="rotate(219.2 481.9 293.5)" />
    <ellipse cx="524.7" cy="279.0" rx="31.2" ry="26.0" fill="#7f5130" stroke="#ffffff88" stroke-width="1.2" transform="rotate(225.8 524.7 279.0)" />
    <ellipse cx="574.6" cy="273.6" rx="12.0" ry="10.0" fill="#b8743f" stroke="#ffffff88" stroke-width="1.2" transform="rotate(232.4 574.6 273.6)" />
    <ellipse cx="490.0" cy="306.7" rx="16.8" ry="14.0" fill="#d7a66a" stroke="#ffffff88" stroke-width="1.2" transform="rotate(239.0 490.0 306.7)" />
    <ellipse cx="538.1" cy="306.8" rx="21.6" ry="18.0" fill="#7f5130" stroke="#ffffff88" stroke-width="1.2" transform="rotate(245.6 538.1 306.8)" />
    <ellipse cx="586.0" cy="317.1" rx="26.4" ry="22.0" fill="#b8743f" stroke="#ffffff88" stroke-width="1.2" transform="rotate(252.3 586.0 317.1)" />
    <ellipse cx="487.3" cy="319.6" rx="31.2" ry="26.0" fill="#d7a66a" stroke="#ffffff88" stroke-width="1.2" transform="rotate(258.9 487.3 319.6)" />
    <ellipse cx="529.7" cy="334.2" rx="12.0" ry="10.0" fill="#7f5130" stroke="#ffffff88" stroke-width="1.2" transform="rotate(265.5 529.7 334.2)" />
    <ellipse cx="564.6" cy="357.6" rx="16.8" ry="14.0" fill="#b8743f" stroke="#ffffff88" stroke-width="1.2" transform="rotate(272.1 564.6 357.6)" />
    <ellipse cx="588.7" cy="388.6" rx="21.6" ry="18.0" fill="#d7a66a" stroke="#ffffff88" stroke-width="1.2" transform="rotate(278.7 588.7 388.6)" />
  <rect x="115" y="538" width="670" height="88" rx="28" fill="#091612" stroke="#ffffff26" />
  <text x="450" y="586" text-anchor="middle" font-family="Arial, sans-serif" font-size="58" font-weight="700" fill="#ffffff">Cinnamon</text>
  <text x="450" y="615" text-anchor="middle" font-family="Arial, sans-serif" font-size="24" fill="#d4ff00" letter-spacing="3">EXPORT QUALITY</text>
</svg>
