<svg xmlns="http://www.w3.org/2000/svg" width="900" height="700" viewBox="0 0 900 700" role="img" aria-labelledby="title desc">
  <title id="title">Coriander Seeds</title>
  <desc id="desc">Clean export product artwork for Coriander Seeds on a dark green background.</desc>
  <defs>
    <linearGradient id="background" x1="0" x2="1" y1="0" y2="1">
      <stop stop-color="#091612" />
      <stop offset="1" stop-color="#1a332b" />
    </linearGradient>
    <filter id="shadow"><feDropShadow dx="0" dy="18" stdDeviation="22" flood-color="#000000" flood-opacity=".35" /></filter>
  </defs>
  <rect width="900" height="700" fill="url(#background)" />
  <rect x="70" y="60" width="760" height="580" rx="52" fill="#132620" stroke="#ffffff20" stroke-width="2" />
  <circle cx="450" cy="300" r="210" fill="#0b1d18" opacity=".5" />
  <ellipse cx="450" cy="315" rx="235" ry="170" fill="#eee5cc" stroke="#d4ff00" stroke-width="7" filter="url(#shadow)" />
    <ellipse cx="439.7" cy="336.7" rx="12.0" ry="10.0" fill="#caa66a" stroke="#ffffff88" stroke-width="1.2" transform="rotate(74.8 439.7 336.7)" />
    <ellipse cx="413.3" cy="362.7" rx="16.8" ry="14.0" fill="#e1c887" stroke="#ffffff88" stroke-width="1.2" transform="rotate(81.4 413.3 362.7)" />
    <ellipse cx="374.0" cy="382.8" rx="21.6" ry="18.0" fill="#8f6a3c" stroke="#ffffff88" stroke-width="1.2" transform="rotate(88.0 374.0 382.8)" />
    <ellipse cx="324.3" cy="395.1" rx="26.4" ry="22.0" fill="#caa66a" stroke="#ffffff88" stroke-width="1.2" transform="rotate(94.6 324.3 395.1)" />
    <ellipse cx="386.1" cy="344.1" rx="31.2" ry="26.0" fill="#e1c887" stroke="#ffffff88" stroke-width="1.2" transform="rotate(101.3 386.1 344.1)" />
    <ellipse cx="337.2" cy="350.0" rx="12.0" ry="10.0" fill="#8f6a3c" stroke="#ffffff88" stroke-width="1.2" transform="rotate(107.9 337.2 350.0)" />
    <ellipse cx="284.7" cy="345.8" rx="16.8" ry="14.0" fill="#caa66a" stroke="#ffffff88" stroke-width="1.2" transform="rotate(114.5 284.7 345.8)" />
    <ellipse cx="376.5" cy="320.5" rx="21.6" ry="18.0" fill="#e1c887" stroke="#ffffff88" stroke-width="1.2" transform="rotate(121.1 376.5 320.5)" />
    <ellipse cx="329.2" cy="311.0" rx="26.4" ry="22.0" fill="#8f6a3c" stroke="#ffffff88" stroke-width="1.2" transform="rotate(127.7 329.2 311.0)" />
    <ellipse cx="285.9" cy="291.5" rx="31.2" ry="26.0" fill="#caa66a" stroke="#ffffff88" stroke-width="1.2" transform="rotate(134.3 285.9 291.5)" />
    <ellipse cx="385.0" cy="298.0" rx="12.0" ry="10.0" fill="#e1c887" stroke="#ffffff88" stroke-width="1.2" transform="rotate(140.9 385.0 298.0)" />
    <ellipse cx="350.1" cy="275.4" rx="16.8" ry="14.0" fill="#8f6a3c" stroke="#ffffff88" stroke-width="1.2" transform="rotate(147.6 350.1 275.4)" />
    <ellipse cx="325.9" cy="245.3" rx="21.6" ry="18.0" fill="#caa66a" stroke="#ffffff88" stroke-width="1.2" transform="rotate(154.2 325.9 245.3)" />
    <ellipse cx="407.8" cy="282.0" rx="26.4" ry="22.0" fill="#e1c887" stroke="#ffffff88" stroke-width="1.2" transform="rotate(160.8 407.8 282.0)" />
    <ellipse cx="393.1" cy="251.5" rx="31.2" ry="26.0" fill="#8f6a3c" stroke="#ffffff88" stroke-width="1.2" transform="rotate(167.4 393.1 251.5)" />
    <ellipse cx="393.3" cy="217.7" rx="12.0" ry="10.0" fill="#caa66a" stroke="#ffffff88" stroke-width="1.2" transform="rotate(174.0 393.3 217.7)" />
    <ellipse cx="437.9" cy="275.5" rx="16.8" ry="14.0" fill="#e1c887" stroke="#ffffff88" stroke-width="1.2" transform="rotate(180.6 437.9 275.5)" />
    <ellipse cx="446.6" cy="244.2" rx="21.6" ry="18.0" fill="#8f6a3c" stroke="#ffffff88" stroke-width="1.2" transform="rotate(187.2 446.6 244.2)" />
    <ellipse cx="470.8" cy="214.5" rx="26.4" ry="22.0" fill="#caa66a" stroke="#ffffff88" stroke-width="1.2" transform="rotate(193.8 470.8 214.5)" />
    <ellipse cx="467.1" cy="279.0" rx="31.2" ry="26.0" fill="#e1c887" stroke="#ffffff88" stroke-width="1.2" transform="rotate(200.5 467.1 279.0)" />
    <ellipse cx="497.0" cy="254.0" rx="12.0" ry="10.0" fill="#8f6a3c" stroke="#ffffff88" stroke-width="1.2" transform="rotate(207.1 497.0 254.0)" />
    <ellipse cx="539.5" cy="235.2" rx="16.8" ry="14.0" fill="#caa66a" stroke="#ffffff88" stroke-width="1.2" transform="rotate(213.7 539.5 235.2)" />
    <ellipse cx="488.6" cy="290.4" rx="21.6" ry="18.0" fill="#e1c887" stroke="#ffffff88" stroke-width="1.2" transform="rotate(220.3 488.6 290.4)" />
    <ellipse cx="532.8" cy="277.4" rx="26.4" ry="22.0" fill="#8f6a3c" stroke="#ffffff88" stroke-width="1.2" transform="rotate(226.9 532.8 277.4)" />
    <ellipse cx="583.6" cy="273.6" rx="31.2" ry="26.0" fill="#caa66a" stroke="#ffffff88" stroke-width="1.2" transform="rotate(233.5 583.6 273.6)" />
    <ellipse cx="498.1" cy="306.0" rx="12.0" ry="10.0" fill="#e1c887" stroke="#ffffff88" stroke-width="1.2" transform="rotate(240.1 498.1 306.0)" />
    <ellipse cx="546.4" cy="307.8" rx="16.8" ry="14.0" fill="#8f6a3c" stroke="#ffffff88" stroke-width="1.2" transform="rotate(246.8 546.4 307.8)" />
    <ellipse cx="593.8" cy="319.8" rx="21.6" ry="18.0" fill="#caa66a" stroke="#ffffff88" stroke-width="1.2" transform="rotate(253.4 593.8 319.8)" />
    <ellipse cx="494.9" cy="321.4" rx="26.4" ry="22.0" fill="#e1c887" stroke="#ffffff88" stroke-width="1.2" transform="rotate(260.0 494.9 321.4)" />
    <ellipse cx="536.3" cy="337.5" rx="31.2" ry="26.0" fill="#8f6a3c" stroke="#ffffff88" stroke-width="1.2" transform="rotate(266.6 536.3 337.5)" />
    <ellipse cx="569.6" cy="362.3" rx="12.0" ry="10.0" fill="#caa66a" stroke="#ffffff88" stroke-width="1.2" transform="rotate(273.2 569.6 362.3)" />
    <ellipse cx="481.8" cy="332.8" rx="16.8" ry="14.0" fill="#e1c887" stroke="#ffffff88" stroke-width="1.2" transform="rotate(279.8 481.8 332.8)" />
    <ellipse cx="506.8" cy="359.5" rx="21.6" ry="18.0" fill="#8f6a3c" stroke="#ffffff88" stroke-width="1.2" transform="rotate(286.4 506.8 359.5)" />
    <ellipse cx="518.5" cy="391.4" rx="26.4" ry="22.0" fill="#caa66a" stroke="#ffffff88" stroke-width="1.2" transform="rotate(293.1 518.5 391.4)" />
    <ellipse cx="463.5" cy="338.1" rx="31.2" ry="26.0" fill="#e1c887" stroke="#ffffff88" stroke-width="1.2" transform="rotate(299.7 463.5 338.1)" />
    <ellipse cx="466.6" cy="369.2" rx="12.0" ry="10.0" fill="#8f6a3c" stroke="#ffffff88" stroke-width="1.2" transform="rotate(306.3 466.6 369.2)" />
    <ellipse cx="454.2" cy="400.8" rx="16.8" ry="14.0" fill="#caa66a" stroke="#ffffff88" stroke-width="1.2" transform="rotate(312.9 454.2 400.8)" />
    <ellipse cx="426.1" cy="430.3" rx="21.6" ry="18.0" fill="#e1c887" stroke="#ffffff88" stroke-width="1.2" transform="rotate(319.5 426.1 430.3)" />
  <rect x="115" y="538" width="670" height="88" rx="28" fill="#091612" stroke="#ffffff26" />
  <text x="450" y="586" text-anchor="middle" font-family="Arial, sans-serif" font-size="58" font-weight="700" fill="#ffffff">Coriander Seeds</text>
  <text x="450" y="615" text-anchor="middle" font-family="Arial, sans-serif" font-size="24" fill="#d4ff00" letter-spacing="3">EXPORT QUALITY</text>
</svg>
