<svg xmlns="http://www.w3.org/2000/svg" width="900" height="700" viewBox="0 0 900 700" role="img" aria-labelledby="title desc">
  <title id="title">Coriander Powder</title>
  <desc id="desc">Clean export product artwork for Coriander Powder on a dark green background.</desc>
  <defs>
    <linearGradient id="background" x1="0" x2="1" y1="0" y2="1">
      <stop stop-color="#091612" />
      <stop offset="1" stop-color="#1a332b" />
    </linearGradient>
    <filter id="shadow"><feDropShadow dx="0" dy="18" stdDeviation="22" flood-color="#000000" flood-opacity=".35" /></filter>
  </defs>
  <rect width="900" height="700" fill="url(#background)" />
  <rect x="70" y="60" width="760" height="580" rx="52" fill="#132620" stroke="#ffffff20" stroke-width="2" />
  <circle cx="450" cy="300" r="210" fill="#0b1d18" opacity=".5" />
  <ellipse cx="450" cy="315" rx="235" ry="170" fill="#eee5cc" stroke="#d4ff00" stroke-width="7" filter="url(#shadow)" />
    <ellipse cx="445.3" cy="337.5" rx="12.0" ry="10.0" fill="#caa66a" stroke="#ffffff88" stroke-width="1.2" transform="rotate(319.6 445.3 337.5)" />
    <ellipse cx="425.7" cy="365.9" rx="16.8" ry="14.0" fill="#e1c887" stroke="#ffffff88" stroke-width="1.2" transform="rotate(326.2 425.7 365.9)" />
    <ellipse cx="392.0" cy="389.9" rx="21.6" ry="18.0" fill="#8f6a3c" stroke="#ffffff88" stroke-width="1.2" transform="rotate(332.8 392.0 389.9)" />
    <ellipse cx="346.0" cy="407.3" rx="26.4" ry="22.0" fill="#caa66a" stroke="#ffffff88" stroke-width="1.2" transform="rotate(339.4 346.0 407.3)" />
    <ellipse cx="394.2" cy="350.4" rx="31.2" ry="26.0" fill="#e1c887" stroke="#ffffff88" stroke-width="1.2" transform="rotate(346.1 394.2 350.4)" />
    <ellipse cx="347.4" cy="361.4" rx="12.0" ry="10.0" fill="#8f6a3c" stroke="#ffffff88" stroke-width="1.2" transform="rotate(352.7 347.4 361.4)" />
    <ellipse cx="294.6" cy="362.9" rx="16.8" ry="14.0" fill="#caa66a" stroke="#ffffff88" stroke-width="1.2" transform="rotate(359.3 294.6 362.9)" />
    <ellipse cx="378.8" cy="328.2" rx="21.6" ry="18.0" fill="#e1c887" stroke="#ffffff88" stroke-width="1.2" transform="rotate(365.9 378.8 328.2)" />
    <ellipse cx="329.8" cy="323.8" rx="26.4" ry="22.0" fill="#8f6a3c" stroke="#ffffff88" stroke-width="1.2" transform="rotate(372.5 329.8 323.8)" />
    <ellipse cx="282.2" cy="309.2" rx="31.2" ry="26.0" fill="#caa66a" stroke="#ffffff88" stroke-width="1.2" transform="rotate(379.1 282.2 309.2)" />
    <ellipse cx="381.7" cy="305.1" rx="12.0" ry="10.0" fill="#e1c887" stroke="#ffffff88" stroke-width="1.2" transform="rotate(385.7 381.7 305.1)" />
    <ellipse cx="341.5" cy="286.5" rx="16.8" ry="14.0" fill="#8f6a3c" stroke="#ffffff88" stroke-width="1.2" transform="rotate(392.4 341.5 286.5)" />
    <ellipse cx="310.1" cy="259.3" rx="21.6" ry="18.0" fill="#caa66a" stroke="#ffffff88" stroke-width="1.2" transform="rotate(399.0 310.1 259.3)" />
    <ellipse cx="400.2" cy="286.9" rx="26.4" ry="22.0" fill="#e1c887" stroke="#ffffff88" stroke-width="1.2" transform="rotate(405.6 400.2 286.9)" />
    <ellipse cx="378.0" cy="258.4" rx="31.2" ry="26.0" fill="#8f6a3c" stroke="#ffffff88" stroke-width="1.2" transform="rotate(412.2 378.0 258.4)" />
    <ellipse cx="369.8" cy="225.0" rx="12.0" ry="10.0" fill="#caa66a" stroke="#ffffff88" stroke-width="1.2" transform="rotate(418.8 369.8 225.0)" />
    <ellipse cx="428.2" cy="277.3" rx="16.8" ry="14.0" fill="#e1c887" stroke="#ffffff88" stroke-width="1.2" transform="rotate(425.4 428.2 277.3)" />
    <ellipse cx="428.9" cy="245.5" rx="21.6" ry="18.0" fill="#8f6a3c" stroke="#ffffff88" stroke-width="1.2" transform="rotate(432.0 428.9 245.5)" />
    <ellipse cx="445.4" cy="213.6" rx="26.4" ry="22.0" fill="#caa66a" stroke="#ffffff88" stroke-width="1.2" transform="rotate(438.6 445.4 213.6)" />
    <ellipse cx="457.9" cy="277.6" rx="31.2" ry="26.0" fill="#e1c887" stroke="#ffffff88" stroke-width="1.2" transform="rotate(445.3 457.9 277.6)" />
    <ellipse cx="481.2" cy="249.8" rx="12.0" ry="10.0" fill="#8f6a3c" stroke="#ffffff88" stroke-width="1.2" transform="rotate(451.9 481.2 249.8)" />
    <ellipse cx="518.4" cy="226.8" rx="16.8" ry="14.0" fill="#caa66a" stroke="#ffffff88" stroke-width="1.2" transform="rotate(458.5 518.4 226.8)" />
    <ellipse cx="481.9" cy="286.7" rx="21.6" ry="18.0" fill="#e1c887" stroke="#ffffff88" stroke-width="1.2" transform="rotate(465.1 481.9 286.7)" />
    <ellipse cx="522.3" cy="269.1" rx="26.4" ry="22.0" fill="#8f6a3c" stroke="#ffffff88" stroke-width="1.2" transform="rotate(471.7 522.3 269.1)" />
    <ellipse cx="571.5" cy="260.0" rx="31.2" ry="26.0" fill="#caa66a" stroke="#ffffff88" stroke-width="1.2" transform="rotate(478.3 571.5 260.0)" />
    <ellipse cx="495.2" cy="301.1" rx="12.0" ry="10.0" fill="#e1c887" stroke="#ffffff88" stroke-width="1.2" transform="rotate(484.9 495.2 301.1)" />
    <ellipse cx="543.3" cy="297.7" rx="16.8" ry="14.0" fill="#8f6a3c" stroke="#ffffff88" stroke-width="1.2" transform="rotate(491.6 543.3 297.7)" />
    <ellipse cx="593.1" cy="304.5" rx="21.6" ry="18.0" fill="#caa66a" stroke="#ffffff88" stroke-width="1.2" transform="rotate(498.2 593.1 304.5)" />
    <ellipse cx="495.9" cy="316.6" rx="26.4" ry="22.0" fill="#e1c887" stroke="#ffffff88" stroke-width="1.2" transform="rotate(504.8 495.9 316.6)" />
    <ellipse cx="540.8" cy="328.1" rx="31.2" ry="26.0" fill="#8f6a3c" stroke="#ffffff88" stroke-width="1.2" transform="rotate(511.4 540.8 328.1)" />
    <ellipse cx="579.8" cy="349.1" rx="12.0" ry="10.0" fill="#caa66a" stroke="#ffffff88" stroke-width="1.2" transform="rotate(518.0 579.8 349.1)" />
    <ellipse cx="485.8" cy="329.3" rx="16.8" ry="14.0" fill="#e1c887" stroke="#ffffff88" stroke-width="1.2" transform="rotate(524.6 485.8 329.3)" />
    <ellipse cx="517.2" cy="352.9" rx="21.6" ry="18.0" fill="#8f6a3c" stroke="#ffffff88" stroke-width="1.2" transform="rotate(531.2 517.2 352.9)" />
    <ellipse cx="536.6" cy="383.1" rx="26.4" ry="22.0" fill="#caa66a" stroke="#ffffff88" stroke-width="1.2" transform="rotate(537.9 536.6 383.1)" />
    <ellipse cx="469.1" cy="336.4" rx="31.2" ry="26.0" fill="#e1c887" stroke="#ffffff88" stroke-width="1.2" transform="rotate(544.5 469.1 336.4)" />
    <ellipse cx="479.9" cy="366.7" rx="12.0" ry="10.0" fill="#8f6a3c" stroke="#ffffff88" stroke-width="1.2" transform="rotate(551.1 479.9 366.7)" />
    <ellipse cx="475.5" cy="399.2" rx="16.8" ry="14.0" fill="#caa66a" stroke="#ffffff88" stroke-width="1.2" transform="rotate(557.7 475.5 399.2)" />
    <ellipse cx="455.2" cy="431.3" rx="21.6" ry="18.0" fill="#e1c887" stroke="#ffffff88" stroke-width="1.2" transform="rotate(564.3 455.2 431.3)" />
  <rect x="115" y="538" width="670" height="88" rx="28" fill="#091612" stroke="#ffffff26" />
  <text x="450" y="586" text-anchor="middle" font-family="Arial, sans-serif" font-size="48" font-weight="700" fill="#ffffff">Coriander Powder</text>
  <text x="450" y="615" text-anchor="middle" font-family="Arial, sans-serif" font-size="24" fill="#d4ff00" letter-spacing="3">EXPORT QUALITY</text>
</svg>
