<svg xmlns="http://www.w3.org/2000/svg" width="900" height="700" viewBox="0 0 900 700" role="img" aria-labelledby="title desc">
  <title id="title">Cumin Seeds</title>
  <desc id="desc">Clean export product artwork for Cumin Seeds on a dark green background.</desc>
  <defs>
    <linearGradient id="background" x1="0" x2="1" y1="0" y2="1">
      <stop stop-color="#091612" />
      <stop offset="1" stop-color="#1a332b" />
    </linearGradient>
    <filter id="shadow"><feDropShadow dx="0" dy="18" stdDeviation="22" flood-color="#000000" flood-opacity=".35" /></filter>
  </defs>
  <rect width="900" height="700" fill="url(#background)" />
  <rect x="70" y="60" width="760" height="580" rx="52" fill="#132620" stroke="#ffffff20" stroke-width="2" />
  <circle cx="450" cy="300" r="210" fill="#0b1d18" opacity=".5" />
  <ellipse cx="450" cy="315" rx="235" ry="170" fill="#eee5cc" stroke="#d4ff00" stroke-width="7" filter="url(#shadow)" />
    <ellipse cx="457.3" cy="337.2" rx="12.0" ry="10.0" fill="#caa66a" stroke="#ffffff88" stroke-width="1.2" transform="rotate(54.4 457.3 337.2)" />
    <ellipse cx="453.7" cy="368.2" rx="16.8" ry="14.0" fill="#e1c887" stroke="#ffffff88" stroke-width="1.2" transform="rotate(61.0 453.7 368.2)" />
    <ellipse cx="434.6" cy="398.2" rx="21.6" ry="18.0" fill="#8f6a3c" stroke="#ffffff88" stroke-width="1.2" transform="rotate(67.6 434.6 398.2)" />
    <ellipse cx="400.5" cy="424.8" rx="26.4" ry="22.0" fill="#caa66a" stroke="#ffffff88" stroke-width="1.2" transform="rotate(74.2 400.5 424.8)" />
    <ellipse cx="416.0" cy="360.6" rx="31.2" ry="26.0" fill="#e1c887" stroke="#ffffff88" stroke-width="1.2" transform="rotate(80.9 416.0 360.6)" />
    <ellipse cx="377.8" cy="381.3" rx="12.0" ry="10.0" fill="#8f6a3c" stroke="#ffffff88" stroke-width="1.2" transform="rotate(87.5 377.8 381.3)" />
    <ellipse cx="328.9" cy="394.4" rx="16.8" ry="14.0" fill="#caa66a" stroke="#ffffff88" stroke-width="1.2" transform="rotate(94.1 328.9 394.4)" />
    <ellipse cx="390.0" cy="343.1" rx="21.6" ry="18.0" fill="#e1c887" stroke="#ffffff88" stroke-width="1.2" transform="rotate(100.7 390.0 343.1)" />
    <ellipse cx="341.5" cy="349.8" rx="26.4" ry="22.0" fill="#8f6a3c" stroke="#ffffff88" stroke-width="1.2" transform="rotate(107.3 341.5 349.8)" />
    <ellipse cx="289.2" cy="346.6" rx="31.2" ry="26.0" fill="#caa66a" stroke="#ffffff88" stroke-width="1.2" transform="rotate(113.9 289.2 346.6)" />
    <ellipse cx="380.6" cy="320.8" rx="12.0" ry="10.0" fill="#e1c887" stroke="#ffffff88" stroke-width="1.2" transform="rotate(120.5 380.6 320.8)" />
    <ellipse cx="333.1" cy="312.2" rx="16.8" ry="14.0" fill="#8f6a3c" stroke="#ffffff88" stroke-width="1.2" transform="rotate(127.2 333.1 312.2)" />
    <ellipse cx="289.4" cy="293.6" rx="21.6" ry="18.0" fill="#caa66a" stroke="#ffffff88" stroke-width="1.2" transform="rotate(133.8 289.4 293.6)" />
    <ellipse cx="388.4" cy="299.6" rx="26.4" ry="22.0" fill="#e1c887" stroke="#ffffff88" stroke-width="1.2" transform="rotate(140.4 388.4 299.6)" />
    <ellipse cx="352.7" cy="277.7" rx="31.2" ry="26.0" fill="#8f6a3c" stroke="#ffffff88" stroke-width="1.2" transform="rotate(147.0 352.7 277.7)" />
    <ellipse cx="327.5" cy="248.1" rx="12.0" ry="10.0" fill="#caa66a" stroke="#ffffff88" stroke-width="1.2" transform="rotate(153.6 327.5 248.1)" />
    <ellipse cx="409.7" cy="284.4" rx="16.8" ry="14.0" fill="#e1c887" stroke="#ffffff88" stroke-width="1.2" transform="rotate(160.2 409.7 284.4)" />
    <ellipse cx="393.8" cy="254.3" rx="21.6" ry="18.0" fill="#8f6a3c" stroke="#ffffff88" stroke-width="1.2" transform="rotate(166.8 393.8 254.3)" />
    <ellipse cx="392.7" cy="220.7" rx="26.4" ry="22.0" fill="#caa66a" stroke="#ffffff88" stroke-width="1.2" transform="rotate(173.4 392.7 220.7)" />
    <ellipse cx="437.9" cy="278.1" rx="31.2" ry="26.0" fill="#e1c887" stroke="#ffffff88" stroke-width="1.2" transform="rotate(180.1 437.9 278.1)" />
    <ellipse cx="445.2" cy="246.8" rx="12.0" ry="10.0" fill="#8f6a3c" stroke="#ffffff88" stroke-width="1.2" transform="rotate(186.7 445.2 246.8)" />
    <ellipse cx="468.2" cy="216.9" rx="16.8" ry="14.0" fill="#caa66a" stroke="#ffffff88" stroke-width="1.2" transform="rotate(193.3 468.2 216.9)" />
    <ellipse cx="465.2" cy="281.3" rx="21.6" ry="18.0" fill="#e1c887" stroke="#ffffff88" stroke-width="1.2" transform="rotate(199.9 465.2 281.3)" />
    <ellipse cx="494.0" cy="255.9" rx="26.4" ry="22.0" fill="#8f6a3c" stroke="#ffffff88" stroke-width="1.2" transform="rotate(206.5 494.0 255.9)" />
    <ellipse cx="535.5" cy="236.5" rx="31.2" ry="26.0" fill="#caa66a" stroke="#ffffff88" stroke-width="1.2" transform="rotate(213.1 535.5 236.5)" />
    <ellipse cx="485.2" cy="291.9" rx="12.0" ry="10.0" fill="#e1c887" stroke="#ffffff88" stroke-width="1.2" transform="rotate(219.7 485.2 291.9)" />
    <ellipse cx="528.7" cy="278.2" rx="16.8" ry="14.0" fill="#8f6a3c" stroke="#ffffff88" stroke-width="1.2" transform="rotate(226.4 528.7 278.2)" />
    <ellipse cx="579.1" cy="273.5" rx="21.6" ry="18.0" fill="#caa66a" stroke="#ffffff88" stroke-width="1.2" transform="rotate(233.0 579.1 273.5)" />
    <ellipse cx="494.0" cy="306.4" rx="26.4" ry="22.0" fill="#e1c887" stroke="#ffffff88" stroke-width="1.2" transform="rotate(239.6 494.0 306.4)" />
    <ellipse cx="542.2" cy="307.3" rx="31.2" ry="26.0" fill="#8f6a3c" stroke="#ffffff88" stroke-width="1.2" transform="rotate(246.2 542.2 307.3)" />
    <ellipse cx="589.9" cy="318.4" rx="12.0" ry="10.0" fill="#caa66a" stroke="#ffffff88" stroke-width="1.2" transform="rotate(252.8 589.9 318.4)" />
    <ellipse cx="491.1" cy="320.5" rx="16.8" ry="14.0" fill="#e1c887" stroke="#ffffff88" stroke-width="1.2" transform="rotate(259.4 491.1 320.5)" />
    <ellipse cx="533.0" cy="335.8" rx="21.6" ry="18.0" fill="#8f6a3c" stroke="#ffffff88" stroke-width="1.2" transform="rotate(266.0 533.0 335.8)" />
    <ellipse cx="567.1" cy="359.9" rx="26.4" ry="22.0" fill="#caa66a" stroke="#ffffff88" stroke-width="1.2" transform="rotate(272.7 567.1 359.9)" />
    <ellipse cx="479.1" cy="330.9" rx="31.2" ry="26.0" fill="#e1c887" stroke="#ffffff88" stroke-width="1.2" transform="rotate(279.3 479.1 330.9)" />
    <ellipse cx="505.2" cy="357.0" rx="12.0" ry="10.0" fill="#8f6a3c" stroke="#ffffff88" stroke-width="1.2" transform="rotate(285.9 505.2 357.0)" />
    <ellipse cx="518.0" cy="388.5" rx="16.8" ry="14.0" fill="#caa66a" stroke="#ffffff88" stroke-width="1.2" transform="rotate(292.5 518.0 388.5)" />
    <ellipse cx="515.8" cy="423.2" rx="21.6" ry="18.0" fill="#e1c887" stroke="#ffffff88" stroke-width="1.2" transform="rotate(299.1 515.8 423.2)" />
  <rect x="115" y="538" width="670" height="88" rx="28" fill="#091612" stroke="#ffffff26" />
  <text x="450" y="586" text-anchor="middle" font-family="Arial, sans-serif" font-size="58" font-weight="700" fill="#ffffff">Cumin Seeds</text>
  <text x="450" y="615" text-anchor="middle" font-family="Arial, sans-serif" font-size="24" fill="#d4ff00" letter-spacing="3">EXPORT QUALITY</text>
</svg>
