<svg xmlns="http://www.w3.org/2000/svg" width="900" height="700" viewBox="0 0 900 700" role="img" aria-labelledby="title desc">
  <title id="title">Cumin Powder</title>
  <desc id="desc">Clean export product artwork for Cumin Powder on a dark green background.</desc>
  <defs>
    <linearGradient id="background" x1="0" x2="1" y1="0" y2="1">
      <stop stop-color="#091612" />
      <stop offset="1" stop-color="#1a332b" />
    </linearGradient>
    <filter id="shadow"><feDropShadow dx="0" dy="18" stdDeviation="22" flood-color="#000000" flood-opacity=".35" /></filter>
  </defs>
  <rect width="900" height="700" fill="url(#background)" />
  <rect x="70" y="60" width="760" height="580" rx="52" fill="#132620" stroke="#ffffff20" stroke-width="2" />
  <circle cx="450" cy="300" r="210" fill="#0b1d18" opacity=".5" />
  <ellipse cx="450" cy="315" rx="235" ry="170" fill="#eee5cc" stroke="#d4ff00" stroke-width="7" filter="url(#shadow)" />
    <ellipse cx="457.1" cy="337.3" rx="12.0" ry="10.0" fill="#caa66a" stroke="#ffffff88" stroke-width="1.2" transform="rotate(306.0 457.1 337.3)" />
    <ellipse cx="453.2" cy="368.3" rx="16.8" ry="14.0" fill="#e1c887" stroke="#ffffff88" stroke-width="1.2" transform="rotate(312.6 453.2 368.3)" />
    <ellipse cx="433.7" cy="398.2" rx="21.6" ry="18.0" fill="#8f6a3c" stroke="#ffffff88" stroke-width="1.2" transform="rotate(319.2 433.7 398.2)" />
    <ellipse cx="399.3" cy="424.6" rx="26.4" ry="22.0" fill="#caa66a" stroke="#ffffff88" stroke-width="1.2" transform="rotate(325.8 399.3 424.6)" />
    <ellipse cx="415.6" cy="360.5" rx="31.2" ry="26.0" fill="#e1c887" stroke="#ffffff88" stroke-width="1.2" transform="rotate(332.5 415.6 360.5)" />
    <ellipse cx="377.1" cy="381.0" rx="12.0" ry="10.0" fill="#8f6a3c" stroke="#ffffff88" stroke-width="1.2" transform="rotate(339.1 377.1 381.0)" />
    <ellipse cx="328.0" cy="393.8" rx="16.8" ry="14.0" fill="#caa66a" stroke="#ffffff88" stroke-width="1.2" transform="rotate(345.7 328.0 393.8)" />
    <ellipse cx="389.7" cy="342.8" rx="21.6" ry="18.0" fill="#e1c887" stroke="#ffffff88" stroke-width="1.2" transform="rotate(352.3 389.7 342.8)" />
    <ellipse cx="341.2" cy="349.4" rx="26.4" ry="22.0" fill="#8f6a3c" stroke="#ffffff88" stroke-width="1.2" transform="rotate(358.9 341.2 349.4)" />
    <ellipse cx="288.9" cy="345.9" rx="31.2" ry="26.0" fill="#caa66a" stroke="#ffffff88" stroke-width="1.2" transform="rotate(365.5 288.9 345.9)" />
    <ellipse cx="380.5" cy="320.5" rx="12.0" ry="10.0" fill="#e1c887" stroke="#ffffff88" stroke-width="1.2" transform="rotate(372.1 380.5 320.5)" />
    <ellipse cx="333.1" cy="311.7" rx="16.8" ry="14.0" fill="#8f6a3c" stroke="#ffffff88" stroke-width="1.2" transform="rotate(378.8 333.1 311.7)" />
    <ellipse cx="289.6" cy="292.8" rx="21.6" ry="18.0" fill="#caa66a" stroke="#ffffff88" stroke-width="1.2" transform="rotate(385.4 289.6 292.8)" />
    <ellipse cx="388.6" cy="299.3" rx="26.4" ry="22.0" fill="#e1c887" stroke="#ffffff88" stroke-width="1.2" transform="rotate(392.0 388.6 299.3)" />
    <ellipse cx="353.1" cy="277.2" rx="31.2" ry="26.0" fill="#8f6a3c" stroke="#ffffff88" stroke-width="1.2" transform="rotate(398.6 353.1 277.2)" />
    <ellipse cx="328.2" cy="247.6" rx="12.0" ry="10.0" fill="#caa66a" stroke="#ffffff88" stroke-width="1.2" transform="rotate(405.2 328.2 247.6)" />
    <ellipse cx="410.1" cy="284.2" rx="16.8" ry="14.0" fill="#e1c887" stroke="#ffffff88" stroke-width="1.2" transform="rotate(411.8 410.1 284.2)" />
    <ellipse cx="394.5" cy="254.0" rx="21.6" ry="18.0" fill="#8f6a3c" stroke="#ffffff88" stroke-width="1.2" transform="rotate(418.4 394.5 254.0)" />
    <ellipse cx="393.7" cy="220.4" rx="26.4" ry="22.0" fill="#caa66a" stroke="#ffffff88" stroke-width="1.2" transform="rotate(425.0 393.7 220.4)" />
    <ellipse cx="438.3" cy="278.1" rx="31.2" ry="26.0" fill="#e1c887" stroke="#ffffff88" stroke-width="1.2" transform="rotate(431.7 438.3 278.1)" />
    <ellipse cx="445.9" cy="246.8" rx="12.0" ry="10.0" fill="#8f6a3c" stroke="#ffffff88" stroke-width="1.2" transform="rotate(438.3 445.9 246.8)" />
    <ellipse cx="469.2" cy="217.0" rx="16.8" ry="14.0" fill="#caa66a" stroke="#ffffff88" stroke-width="1.2" transform="rotate(444.9 469.2 217.0)" />
    <ellipse cx="465.5" cy="281.4" rx="21.6" ry="18.0" fill="#e1c887" stroke="#ffffff88" stroke-width="1.2" transform="rotate(451.5 465.5 281.4)" />
    <ellipse cx="494.6" cy="256.1" rx="26.4" ry="22.0" fill="#8f6a3c" stroke="#ffffff88" stroke-width="1.2" transform="rotate(458.1 494.6 256.1)" />
    <ellipse cx="536.3" cy="236.9" rx="31.2" ry="26.0" fill="#caa66a" stroke="#ffffff88" stroke-width="1.2" transform="rotate(464.7 536.3 236.9)" />
    <ellipse cx="485.5" cy="292.1" rx="12.0" ry="10.0" fill="#e1c887" stroke="#ffffff88" stroke-width="1.2" transform="rotate(471.3 485.5 292.1)" />
    <ellipse cx="529.1" cy="278.5" rx="16.8" ry="14.0" fill="#8f6a3c" stroke="#ffffff88" stroke-width="1.2" transform="rotate(478.0 529.1 278.5)" />
    <ellipse cx="579.5" cy="274.1" rx="21.6" ry="18.0" fill="#caa66a" stroke="#ffffff88" stroke-width="1.2" transform="rotate(484.6 579.5 274.1)" />
    <ellipse cx="494.1" cy="306.5" rx="26.4" ry="22.0" fill="#e1c887" stroke="#ffffff88" stroke-width="1.2" transform="rotate(491.2 494.1 306.5)" />
    <ellipse cx="542.3" cy="307.7" rx="31.2" ry="26.0" fill="#8f6a3c" stroke="#ffffff88" stroke-width="1.2" transform="rotate(497.8 542.3 307.7)" />
    <ellipse cx="589.9" cy="319.0" rx="12.0" ry="10.0" fill="#caa66a" stroke="#ffffff88" stroke-width="1.2" transform="rotate(504.4 589.9 319.0)" />
    <ellipse cx="491.1" cy="320.7" rx="16.8" ry="14.0" fill="#e1c887" stroke="#ffffff88" stroke-width="1.2" transform="rotate(511.0 491.1 320.7)" />
    <ellipse cx="532.8" cy="336.2" rx="21.6" ry="18.0" fill="#8f6a3c" stroke="#ffffff88" stroke-width="1.2" transform="rotate(517.6 532.8 336.2)" />
    <ellipse cx="566.6" cy="360.5" rx="26.4" ry="22.0" fill="#caa66a" stroke="#ffffff88" stroke-width="1.2" transform="rotate(524.3 566.6 360.5)" />
    <ellipse cx="478.9" cy="331.0" rx="31.2" ry="26.0" fill="#e1c887" stroke="#ffffff88" stroke-width="1.2" transform="rotate(530.9 478.9 331.0)" />
    <ellipse cx="504.8" cy="357.3" rx="12.0" ry="10.0" fill="#8f6a3c" stroke="#ffffff88" stroke-width="1.2" transform="rotate(537.5 504.8 357.3)" />
    <ellipse cx="517.3" cy="388.8" rx="16.8" ry="14.0" fill="#caa66a" stroke="#ffffff88" stroke-width="1.2" transform="rotate(544.1 517.3 388.8)" />
    <ellipse cx="514.6" cy="423.5" rx="21.6" ry="18.0" fill="#e1c887" stroke="#ffffff88" stroke-width="1.2" transform="rotate(550.7 514.6 423.5)" />
  <rect x="115" y="538" width="670" height="88" rx="28" fill="#091612" stroke="#ffffff26" />
  <text x="450" y="586" text-anchor="middle" font-family="Arial, sans-serif" font-size="58" font-weight="700" fill="#ffffff">Cumin Powder</text>
  <text x="450" y="615" text-anchor="middle" font-family="Arial, sans-serif" font-size="24" fill="#d4ff00" letter-spacing="3">EXPORT QUALITY</text>
</svg>
