<svg xmlns="http://www.w3.org/2000/svg" width="900" height="700" viewBox="0 0 900 700" role="img" aria-labelledby="title desc">
  <title id="title">Curry Powder</title>
  <desc id="desc">Clean export product artwork for Curry Powder on a dark green background.</desc>
  <defs>
    <linearGradient id="background" x1="0" x2="1" y1="0" y2="1">
      <stop stop-color="#091612" />
      <stop offset="1" stop-color="#1a332b" />
    </linearGradient>
    <filter id="shadow"><feDropShadow dx="0" dy="18" stdDeviation="22" flood-color="#000000" flood-opacity=".35" /></filter>
  </defs>
  <rect width="900" height="700" fill="url(#background)" />
  <rect x="70" y="60" width="760" height="580" rx="52" fill="#132620" stroke="#ffffff20" stroke-width="2" />
  <circle cx="450" cy="300" r="210" fill="#0b1d18" opacity=".5" />
  <ellipse cx="450" cy="315" rx="235" ry="170" fill="#eee5cc" stroke="#d4ff00" stroke-width="7" filter="url(#shadow)" />
    <ellipse cx="439.5" cy="336.7" rx="12.0" ry="10.0" fill="#d9a21b" stroke="#ffffff88" stroke-width="1.2" transform="rotate(326.4 439.5 336.7)" />
    <ellipse cx="412.8" cy="362.5" rx="16.8" ry="14.0" fill="#f1c44e" stroke="#ffffff88" stroke-width="1.2" transform="rotate(333.0 412.8 362.5)" />
    <ellipse cx="373.3" cy="382.4" rx="21.6" ry="18.0" fill="#b66b20" stroke="#ffffff88" stroke-width="1.2" transform="rotate(339.6 373.3 382.4)" />
    <ellipse cx="323.5" cy="394.5" rx="26.4" ry="22.0" fill="#d9a21b" stroke="#ffffff88" stroke-width="1.2" transform="rotate(346.2 323.5 394.5)" />
    <ellipse cx="385.8" cy="343.8" rx="31.2" ry="26.0" fill="#f1c44e" stroke="#ffffff88" stroke-width="1.2" transform="rotate(352.9 385.8 343.8)" />
    <ellipse cx="336.8" cy="349.5" rx="12.0" ry="10.0" fill="#b66b20" stroke="#ffffff88" stroke-width="1.2" transform="rotate(359.5 336.8 349.5)" />
    <ellipse cx="284.4" cy="345.1" rx="16.8" ry="14.0" fill="#d9a21b" stroke="#ffffff88" stroke-width="1.2" transform="rotate(366.1 284.4 345.1)" />
    <ellipse cx="376.4" cy="320.2" rx="21.6" ry="18.0" fill="#f1c44e" stroke="#ffffff88" stroke-width="1.2" transform="rotate(372.7 376.4 320.2)" />
    <ellipse cx="329.2" cy="310.4" rx="26.4" ry="22.0" fill="#b66b20" stroke="#ffffff88" stroke-width="1.2" transform="rotate(379.3 329.2 310.4)" />
    <ellipse cx="286.2" cy="290.8" rx="31.2" ry="26.0" fill="#d9a21b" stroke="#ffffff88" stroke-width="1.2" transform="rotate(385.9 286.2 290.8)" />
    <ellipse cx="385.2" cy="297.8" rx="12.0" ry="10.0" fill="#f1c44e" stroke="#ffffff88" stroke-width="1.2" transform="rotate(392.5 385.2 297.8)" />
    <ellipse cx="350.5" cy="275.0" rx="16.8" ry="14.0" fill="#b66b20" stroke="#ffffff88" stroke-width="1.2" transform="rotate(399.2 350.5 275.0)" />
    <ellipse cx="326.6" cy="244.8" rx="21.6" ry="18.0" fill="#d9a21b" stroke="#ffffff88" stroke-width="1.2" transform="rotate(405.8 326.6 244.8)" />
    <ellipse cx="408.2" cy="281.8" rx="26.4" ry="22.0" fill="#f1c44e" stroke="#ffffff88" stroke-width="1.2" transform="rotate(412.4 408.2 281.8)" />
    <ellipse cx="393.8" cy="251.3" rx="31.2" ry="26.0" fill="#b66b20" stroke="#ffffff88" stroke-width="1.2" transform="rotate(419.0 393.8 251.3)" />
    <ellipse cx="394.3" cy="217.5" rx="12.0" ry="10.0" fill="#d9a21b" stroke="#ffffff88" stroke-width="1.2" transform="rotate(425.6 394.3 217.5)" />
    <ellipse cx="438.3" cy="275.4" rx="16.8" ry="14.0" fill="#f1c44e" stroke="#ffffff88" stroke-width="1.2" transform="rotate(432.2 438.3 275.4)" />
    <ellipse cx="447.3" cy="244.2" rx="21.6" ry="18.0" fill="#b66b20" stroke="#ffffff88" stroke-width="1.2" transform="rotate(438.8 447.3 244.2)" />
    <ellipse cx="471.9" cy="214.6" rx="26.4" ry="22.0" fill="#d9a21b" stroke="#ffffff88" stroke-width="1.2" transform="rotate(445.4 471.9 214.6)" />
    <ellipse cx="467.5" cy="279.1" rx="31.2" ry="26.0" fill="#f1c44e" stroke="#ffffff88" stroke-width="1.2" transform="rotate(452.1 467.5 279.1)" />
    <ellipse cx="497.7" cy="254.2" rx="12.0" ry="10.0" fill="#b66b20" stroke="#ffffff88" stroke-width="1.2" transform="rotate(458.7 497.7 254.2)" />
    <ellipse cx="540.4" cy="235.6" rx="16.8" ry="14.0" fill="#d9a21b" stroke="#ffffff88" stroke-width="1.2" transform="rotate(465.3 540.4 235.6)" />
    <ellipse cx="488.8" cy="290.6" rx="21.6" ry="18.0" fill="#f1c44e" stroke="#ffffff88" stroke-width="1.2" transform="rotate(471.9 488.8 290.6)" />
    <ellipse cx="533.2" cy="277.7" rx="26.4" ry="22.0" fill="#b66b20" stroke="#ffffff88" stroke-width="1.2" transform="rotate(478.5 533.2 277.7)" />
    <ellipse cx="584.0" cy="274.2" rx="31.2" ry="26.0" fill="#d9a21b" stroke="#ffffff88" stroke-width="1.2" transform="rotate(485.1 584.0 274.2)" />
    <ellipse cx="498.2" cy="306.2" rx="12.0" ry="10.0" fill="#f1c44e" stroke="#ffffff88" stroke-width="1.2" transform="rotate(491.7 498.2 306.2)" />
    <ellipse cx="546.4" cy="308.2" rx="16.8" ry="14.0" fill="#b66b20" stroke="#ffffff88" stroke-width="1.2" transform="rotate(498.4 546.4 308.2)" />
    <ellipse cx="593.8" cy="320.4" rx="21.6" ry="18.0" fill="#d9a21b" stroke="#ffffff88" stroke-width="1.2" transform="rotate(505.0 593.8 320.4)" />
    <ellipse cx="494.9" cy="321.6" rx="26.4" ry="22.0" fill="#f1c44e" stroke="#ffffff88" stroke-width="1.2" transform="rotate(511.6 494.9 321.6)" />
    <ellipse cx="536.1" cy="337.9" rx="31.2" ry="26.0" fill="#b66b20" stroke="#ffffff88" stroke-width="1.2" transform="rotate(518.2 536.1 337.9)" />
    <ellipse cx="569.1" cy="362.9" rx="12.0" ry="10.0" fill="#d9a21b" stroke="#ffffff88" stroke-width="1.2" transform="rotate(524.8 569.1 362.9)" />
    <ellipse cx="481.6" cy="333.0" rx="16.8" ry="14.0" fill="#f1c44e" stroke="#ffffff88" stroke-width="1.2" transform="rotate(531.4 481.6 333.0)" />
    <ellipse cx="506.4" cy="359.8" rx="21.6" ry="18.0" fill="#b66b20" stroke="#ffffff88" stroke-width="1.2" transform="rotate(538.0 506.4 359.8)" />
    <ellipse cx="517.7" cy="391.7" rx="26.4" ry="22.0" fill="#d9a21b" stroke="#ffffff88" stroke-width="1.2" transform="rotate(544.7 517.7 391.7)" />
    <ellipse cx="463.2" cy="338.2" rx="31.2" ry="26.0" fill="#f1c44e" stroke="#ffffff88" stroke-width="1.2" transform="rotate(551.3 463.2 338.2)" />
    <ellipse cx="466.1" cy="369.3" rx="12.0" ry="10.0" fill="#b66b20" stroke="#ffffff88" stroke-width="1.2" transform="rotate(557.9 466.1 369.3)" />
    <ellipse cx="453.3" cy="400.8" rx="16.8" ry="14.0" fill="#d9a21b" stroke="#ffffff88" stroke-width="1.2" transform="rotate(564.5 453.3 400.8)" />
    <ellipse cx="424.9" cy="430.2" rx="21.6" ry="18.0" fill="#f1c44e" stroke="#ffffff88" stroke-width="1.2" transform="rotate(571.1 424.9 430.2)" />
  <rect x="115" y="538" width="670" height="88" rx="28" fill="#091612" stroke="#ffffff26" />
  <text x="450" y="586" text-anchor="middle" font-family="Arial, sans-serif" font-size="58" font-weight="700" fill="#ffffff">Curry Powder</text>
  <text x="450" y="615" text-anchor="middle" font-family="Arial, sans-serif" font-size="24" fill="#d4ff00" letter-spacing="3">EXPORT QUALITY</text>
</svg>
