<svg xmlns="http://www.w3.org/2000/svg" width="900" height="700" viewBox="0 0 900 700" role="img" aria-labelledby="title desc">
  <title id="title">Desi Chana</title>
  <desc id="desc">Clean export product artwork for Desi Chana on a dark green background.</desc>
  <defs>
    <linearGradient id="background" x1="0" x2="1" y1="0" y2="1">
      <stop stop-color="#091612" />
      <stop offset="1" stop-color="#1a332b" />
    </linearGradient>
    <filter id="shadow"><feDropShadow dx="0" dy="18" stdDeviation="22" flood-color="#000000" flood-opacity=".35" /></filter>
  </defs>
  <rect width="900" height="700" fill="url(#background)" />
  <rect x="70" y="60" width="760" height="580" rx="52" fill="#132620" stroke="#ffffff20" stroke-width="2" />
  <circle cx="450" cy="300" r="210" fill="#0b1d18" opacity=".5" />
  <ellipse cx="450" cy="315" rx="235" ry="170" fill="#eee5cc" stroke="#d4ff00" stroke-width="7" filter="url(#shadow)" />
    <ellipse cx="480.4" cy="326.2" rx="12.0" ry="10.0" fill="#caa66a" stroke="#ffffff88" stroke-width="1.2" transform="rotate(272.0 480.4 326.2)" />
    <ellipse cx="513.6" cy="348.6" rx="16.8" ry="14.0" fill="#e1c887" stroke="#ffffff88" stroke-width="1.2" transform="rotate(278.6 513.6 348.6)" />
    <ellipse cx="535.4" cy="377.9" rx="21.6" ry="18.0" fill="#8f6a3c" stroke="#ffffff88" stroke-width="1.2" transform="rotate(285.2 535.4 377.9)" />
    <ellipse cx="543.2" cy="412.1" rx="26.4" ry="22.0" fill="#caa66a" stroke="#ffffff88" stroke-width="1.2" transform="rotate(291.8 543.2 412.1)" />
    <ellipse cx="479.8" cy="361.8" rx="31.2" ry="26.0" fill="#e1c887" stroke="#ffffff88" stroke-width="1.2" transform="rotate(298.5 479.8 361.8)" />
    <ellipse cx="478.2" cy="394.2" rx="12.0" ry="10.0" fill="#8f6a3c" stroke="#ffffff88" stroke-width="1.2" transform="rotate(305.1 478.2 394.2)" />
    <ellipse cx="460.6" cy="426.6" rx="16.8" ry="14.0" fill="#caa66a" stroke="#ffffff88" stroke-width="1.2" transform="rotate(311.7 460.6 426.6)" />
    <ellipse cx="442.4" cy="362.8" rx="21.6" ry="18.0" fill="#e1c887" stroke="#ffffff88" stroke-width="1.2" transform="rotate(318.3 442.4 362.8)" />
    <ellipse cx="417.9" cy="390.8" rx="26.4" ry="22.0" fill="#8f6a3c" stroke="#ffffff88" stroke-width="1.2" transform="rotate(324.9 417.9 390.8)" />
    <ellipse cx="379.3" cy="414.1" rx="31.2" ry="26.0" fill="#caa66a" stroke="#ffffff88" stroke-width="1.2" transform="rotate(331.5 379.3 414.1)" />
    <ellipse cx="410.5" cy="352.6" rx="12.0" ry="10.0" fill="#e1c887" stroke="#ffffff88" stroke-width="1.2" transform="rotate(338.1 410.5 352.6)" />
    <ellipse cx="369.0" cy="369.9" rx="16.8" ry="14.0" fill="#8f6a3c" stroke="#ffffff88" stroke-width="1.2" transform="rotate(344.8 369.0 369.9)" />
    <ellipse cx="318.5" cy="378.7" rx="21.6" ry="18.0" fill="#caa66a" stroke="#ffffff88" stroke-width="1.2" transform="rotate(351.4 318.5 378.7)" />
    <ellipse cx="391.3" cy="334.6" rx="26.4" ry="22.0" fill="#e1c887" stroke="#ffffff88" stroke-width="1.2" transform="rotate(358.0 391.3 334.6)" />
    <ellipse cx="342.4" cy="337.4" rx="31.2" ry="26.0" fill="#8f6a3c" stroke="#ffffff88" stroke-width="1.2" transform="rotate(364.6 342.4 337.4)" />
    <ellipse cx="291.7" cy="330.0" rx="12.0" ry="10.0" fill="#caa66a" stroke="#ffffff88" stroke-width="1.2" transform="rotate(371.2 291.7 330.0)" />
    <ellipse cx="388.0" cy="314.2" rx="16.8" ry="14.0" fill="#e1c887" stroke="#ffffff88" stroke-width="1.2" transform="rotate(377.8 388.0 314.2)" />
    <ellipse cx="342.9" cy="301.9" rx="21.6" ry="18.0" fill="#8f6a3c" stroke="#ffffff88" stroke-width="1.2" transform="rotate(384.4 342.9 301.9)" />
    <ellipse cx="303.5" cy="280.1" rx="26.4" ry="22.0" fill="#caa66a" stroke="#ffffff88" stroke-width="1.2" transform="rotate(391.0 303.5 280.1)" />
    <ellipse cx="399.6" cy="296.4" rx="31.2" ry="26.0" fill="#e1c887" stroke="#ffffff88" stroke-width="1.2" transform="rotate(397.7 399.6 296.4)" />
    <ellipse cx="368.5" cy="272.0" rx="12.0" ry="10.0" fill="#8f6a3c" stroke="#ffffff88" stroke-width="1.2" transform="rotate(404.3 368.5 272.0)" />
    <ellipse cx="349.4" cy="240.9" rx="16.8" ry="14.0" fill="#caa66a" stroke="#ffffff88" stroke-width="1.2" transform="rotate(410.9 349.4 240.9)" />
    <ellipse cx="421.4" cy="285.2" rx="21.6" ry="18.0" fill="#e1c887" stroke="#ffffff88" stroke-width="1.2" transform="rotate(417.5 421.4 285.2)" />
    <ellipse cx="411.4" cy="254.3" rx="26.4" ry="22.0" fill="#8f6a3c" stroke="#ffffff88" stroke-width="1.2" transform="rotate(424.1 411.4 254.3)" />
    <ellipse cx="416.7" cy="221.3" rx="31.2" ry="26.0" fill="#caa66a" stroke="#ffffff88" stroke-width="1.2" transform="rotate(430.7 416.7 221.3)" />
    <ellipse cx="446.9" cy="282.6" rx="12.0" ry="10.0" fill="#e1c887" stroke="#ffffff88" stroke-width="1.2" transform="rotate(437.3 446.9 282.6)" />
    <ellipse cx="460.0" cy="252.3" rx="16.8" ry="14.0" fill="#8f6a3c" stroke="#ffffff88" stroke-width="1.2" transform="rotate(444.0 460.0 252.3)" />
    <ellipse cx="488.2" cy="224.8" rx="21.6" ry="18.0" fill="#caa66a" stroke="#ffffff88" stroke-width="1.2" transform="rotate(450.6 488.2 224.8)" />
    <ellipse cx="469.3" cy="287.9" rx="26.4" ry="22.0" fill="#e1c887" stroke="#ffffff88" stroke-width="1.2" transform="rotate(457.2 469.3 287.9)" />
    <ellipse cx="502.5" cy="265.1" rx="31.2" ry="26.0" fill="#8f6a3c" stroke="#ffffff88" stroke-width="1.2" transform="rotate(463.8 502.5 265.1)" />
    <ellipse cx="546.9" cy="249.3" rx="12.0" ry="10.0" fill="#caa66a" stroke="#ffffff88" stroke-width="1.2" transform="rotate(470.4 546.9 249.3)" />
    <ellipse cx="483.7" cy="298.7" rx="16.8" ry="14.0" fill="#e1c887" stroke="#ffffff88" stroke-width="1.2" transform="rotate(477.0 483.7 298.7)" />
    <ellipse cx="529.1" cy="288.5" rx="21.6" ry="18.0" fill="#8f6a3c" stroke="#ffffff88" stroke-width="1.2" transform="rotate(483.6 529.1 288.5)" />
    <ellipse cx="579.5" cy="288.0" rx="26.4" ry="22.0" fill="#caa66a" stroke="#ffffff88" stroke-width="1.2" transform="rotate(490.3 579.5 288.0)" />
    <ellipse cx="487.6" cy="311.4" rx="31.2" ry="26.0" fill="#e1c887" stroke="#ffffff88" stroke-width="1.2" transform="rotate(496.9 487.6 311.4)" />
    <ellipse cx="535.0" cy="316.1" rx="12.0" ry="10.0" fill="#8f6a3c" stroke="#ffffff88" stroke-width="1.2" transform="rotate(503.5 535.0 316.1)" />
    <ellipse cx="579.7" cy="330.9" rx="16.8" ry="14.0" fill="#caa66a" stroke="#ffffff88" stroke-width="1.2" transform="rotate(510.1 579.7 330.9)" />
    <ellipse cx="618.1" cy="355.1" rx="21.6" ry="18.0" fill="#e1c887" stroke="#ffffff88" stroke-width="1.2" transform="rotate(516.7 618.1 355.1)" />
  <rect x="115" y="538" width="670" height="88" rx="28" fill="#091612" stroke="#ffffff26" />
  <text x="450" y="586" text-anchor="middle" font-family="Arial, sans-serif" font-size="58" font-weight="700" fill="#ffffff">Desi Chana</text>
  <text x="450" y="615" text-anchor="middle" font-family="Arial, sans-serif" font-size="24" fill="#d4ff00" letter-spacing="3">EXPORT QUALITY</text>
</svg>
