<svg xmlns="http://www.w3.org/2000/svg" width="900" height="700" viewBox="0 0 900 700" role="img" aria-labelledby="title desc">
  <title id="title">Fennel Seeds</title>
  <desc id="desc">Clean export product artwork for Fennel Seeds on a dark green background.</desc>
  <defs>
    <linearGradient id="background" x1="0" x2="1" y1="0" y2="1">
      <stop stop-color="#091612" />
      <stop offset="1" stop-color="#1a332b" />
    </linearGradient>
    <filter id="shadow"><feDropShadow dx="0" dy="18" stdDeviation="22" flood-color="#000000" flood-opacity=".35" /></filter>
  </defs>
  <rect width="900" height="700" fill="url(#background)" />
  <rect x="70" y="60" width="760" height="580" rx="52" fill="#132620" stroke="#ffffff20" stroke-width="2" />
  <circle cx="450" cy="300" r="210" fill="#0b1d18" opacity=".5" />
  <ellipse cx="450" cy="315" rx="235" ry="170" fill="#eee5cc" stroke="#d4ff00" stroke-width="7" filter="url(#shadow)" />
    <ellipse cx="451.4" cy="337.7" rx="12.0" ry="10.0" fill="#578a45" stroke="#ffffff88" stroke-width="1.2" transform="rotate(61.2 451.4 337.7)" />
    <ellipse cx="439.8" cy="367.9" rx="16.8" ry="14.0" fill="#7ba35a" stroke="#ffffff88" stroke-width="1.2" transform="rotate(67.8 439.8 367.9)" />
    <ellipse cx="413.1" cy="395.4" rx="21.6" ry="18.0" fill="#315d34" stroke="#ffffff88" stroke-width="1.2" transform="rotate(74.4 413.1 395.4)" />
    <ellipse cx="372.6" cy="417.7" rx="26.4" ry="22.0" fill="#578a45" stroke="#ffffff88" stroke-width="1.2" transform="rotate(81.0 372.6 417.7)" />
    <ellipse cx="404.6" cy="356.2" rx="31.2" ry="26.0" fill="#7ba35a" stroke="#ffffff88" stroke-width="1.2" transform="rotate(87.7 404.6 356.2)" />
    <ellipse cx="361.6" cy="372.4" rx="12.0" ry="10.0" fill="#315d34" stroke="#ffffff88" stroke-width="1.2" transform="rotate(94.3 361.6 372.4)" />
    <ellipse cx="310.0" cy="379.9" rx="16.8" ry="14.0" fill="#578a45" stroke="#ffffff88" stroke-width="1.2" transform="rotate(100.9 310.0 379.9)" />
    <ellipse cx="383.5" cy="336.1" rx="21.6" ry="18.0" fill="#7ba35a" stroke="#ffffff88" stroke-width="1.2" transform="rotate(107.5 383.5 336.1)" />
    <ellipse cx="334.0" cy="337.4" rx="26.4" ry="22.0" fill="#315d34" stroke="#ffffff88" stroke-width="1.2" transform="rotate(114.1 334.0 337.4)" />
    <ellipse cx="283.3" cy="328.4" rx="31.2" ry="26.0" fill="#578a45" stroke="#ffffff88" stroke-width="1.2" transform="rotate(120.7 283.3 328.4)" />
    <ellipse cx="380.1" cy="313.1" rx="12.0" ry="10.0" fill="#7ba35a" stroke="#ffffff88" stroke-width="1.2" transform="rotate(127.3 380.1 313.1)" />
    <ellipse cx="335.5" cy="299.4" rx="16.8" ry="14.0" fill="#315d34" stroke="#ffffff88" stroke-width="1.2" transform="rotate(134.0 335.5 299.4)" />
    <ellipse cx="297.3" cy="276.2" rx="21.6" ry="18.0" fill="#578a45" stroke="#ffffff88" stroke-width="1.2" transform="rotate(140.6 297.3 276.2)" />
    <ellipse cx="393.3" cy="293.0" rx="26.4" ry="22.0" fill="#7ba35a" stroke="#ffffff88" stroke-width="1.2" transform="rotate(147.2 393.3 293.0)" />
    <ellipse cx="363.8" cy="267.5" rx="31.2" ry="26.0" fill="#315d34" stroke="#ffffff88" stroke-width="1.2" transform="rotate(153.8 363.8 267.5)" />
    <ellipse cx="346.7" cy="235.6" rx="12.0" ry="10.0" fill="#578a45" stroke="#ffffff88" stroke-width="1.2" transform="rotate(160.4 346.7 235.6)" />
    <ellipse cx="418.3" cy="280.4" rx="16.8" ry="14.0" fill="#7ba35a" stroke="#ffffff88" stroke-width="1.2" transform="rotate(167.0 418.3 280.4)" />
    <ellipse cx="410.4" cy="249.0" rx="21.6" ry="18.0" fill="#315d34" stroke="#ffffff88" stroke-width="1.2" transform="rotate(173.6 410.4 249.0)" />
    <ellipse cx="418.1" cy="215.7" rx="26.4" ry="22.0" fill="#578a45" stroke="#ffffff88" stroke-width="1.2" transform="rotate(180.2 418.1 215.7)" />
    <ellipse cx="447.6" cy="277.3" rx="31.2" ry="26.0" fill="#7ba35a" stroke="#ffffff88" stroke-width="1.2" transform="rotate(186.9 447.6 277.3)" />
    <ellipse cx="463.0" cy="247.3" rx="12.0" ry="10.0" fill="#315d34" stroke="#ffffff88" stroke-width="1.2" transform="rotate(193.5 463.0 247.3)" />
    <ellipse cx="493.4" cy="220.3" rx="16.8" ry="14.0" fill="#578a45" stroke="#ffffff88" stroke-width="1.2" transform="rotate(200.1 493.4 220.3)" />
    <ellipse cx="473.7" cy="283.5" rx="21.6" ry="18.0" fill="#7ba35a" stroke="#ffffff88" stroke-width="1.2" transform="rotate(206.7 473.7 283.5)" />
    <ellipse cx="508.7" cy="261.6" rx="26.4" ry="22.0" fill="#315d34" stroke="#ffffff88" stroke-width="1.2" transform="rotate(213.3 508.7 261.6)" />
    <ellipse cx="554.7" cy="247.0" rx="31.2" ry="26.0" fill="#578a45" stroke="#ffffff88" stroke-width="1.2" transform="rotate(219.9 554.7 247.0)" />
    <ellipse cx="490.7" cy="296.1" rx="12.0" ry="10.0" fill="#7ba35a" stroke="#ffffff88" stroke-width="1.2" transform="rotate(226.5 490.7 296.1)" />
    <ellipse cx="537.2" cy="287.3" rx="16.8" ry="14.0" fill="#315d34" stroke="#ffffff88" stroke-width="1.2" transform="rotate(233.2 537.2 287.3)" />
    <ellipse cx="588.0" cy="288.3" rx="21.6" ry="18.0" fill="#578a45" stroke="#ffffff88" stroke-width="1.2" transform="rotate(239.8 588.0 288.3)" />
    <ellipse cx="495.6" cy="311.3" rx="26.4" ry="22.0" fill="#7ba35a" stroke="#ffffff88" stroke-width="1.2" transform="rotate(246.4 495.6 311.3)" />
    <ellipse cx="542.9" cy="317.5" rx="31.2" ry="26.0" fill="#315d34" stroke="#ffffff88" stroke-width="1.2" transform="rotate(253.0 542.9 317.5)" />
    <ellipse cx="587.0" cy="333.7" rx="12.0" ry="10.0" fill="#578a45" stroke="#ffffff88" stroke-width="1.2" transform="rotate(259.6 587.0 333.7)" />
    <ellipse cx="489.1" cy="324.9" rx="16.8" ry="14.0" fill="#7ba35a" stroke="#ffffff88" stroke-width="1.2" transform="rotate(266.2 489.1 324.9)" />
    <ellipse cx="526.4" cy="344.6" rx="21.6" ry="18.0" fill="#315d34" stroke="#ffffff88" stroke-width="1.2" transform="rotate(272.8 526.4 344.6)" />
    <ellipse cx="553.7" cy="372.2" rx="26.4" ry="22.0" fill="#578a45" stroke="#ffffff88" stroke-width="1.2" transform="rotate(279.5 553.7 372.2)" />
    <ellipse cx="474.5" cy="333.9" rx="31.2" ry="26.0" fill="#7ba35a" stroke="#ffffff88" stroke-width="1.2" transform="rotate(286.1 474.5 333.9)" />
    <ellipse cx="493.5" cy="362.5" rx="12.0" ry="10.0" fill="#315d34" stroke="#ffffff88" stroke-width="1.2" transform="rotate(292.7 493.5 362.5)" />
    <ellipse cx="497.9" cy="394.9" rx="16.8" ry="14.0" fill="#578a45" stroke="#ffffff88" stroke-width="1.2" transform="rotate(299.3 497.9 394.9)" />
    <ellipse cx="486.6" cy="428.9" rx="21.6" ry="18.0" fill="#7ba35a" stroke="#ffffff88" stroke-width="1.2" transform="rotate(305.9 486.6 428.9)" />
  <rect x="115" y="538" width="670" height="88" rx="28" fill="#091612" stroke="#ffffff26" />
  <text x="450" y="586" text-anchor="middle" font-family="Arial, sans-serif" font-size="58" font-weight="700" fill="#ffffff">Fennel Seeds</text>
  <text x="450" y="615" text-anchor="middle" font-family="Arial, sans-serif" font-size="24" fill="#d4ff00" letter-spacing="3">EXPORT QUALITY</text>
</svg>
