<svg xmlns="http://www.w3.org/2000/svg" width="900" height="700" viewBox="0 0 900 700" role="img" aria-labelledby="title desc">
  <title id="title">Fennel Powder</title>
  <desc id="desc">Clean export product artwork for Fennel Powder on a dark green background.</desc>
  <defs>
    <linearGradient id="background" x1="0" x2="1" y1="0" y2="1">
      <stop stop-color="#091612" />
      <stop offset="1" stop-color="#1a332b" />
    </linearGradient>
    <filter id="shadow"><feDropShadow dx="0" dy="18" stdDeviation="22" flood-color="#000000" flood-opacity=".35" /></filter>
  </defs>
  <rect width="900" height="700" fill="url(#background)" />
  <rect x="70" y="60" width="760" height="580" rx="52" fill="#132620" stroke="#ffffff20" stroke-width="2" />
  <circle cx="450" cy="300" r="210" fill="#0b1d18" opacity=".5" />
  <ellipse cx="450" cy="315" rx="235" ry="170" fill="#eee5cc" stroke="#d4ff00" stroke-width="7" filter="url(#shadow)" />
    <ellipse cx="451.2" cy="337.7" rx="12.0" ry="10.0" fill="#578a45" stroke="#ffffff88" stroke-width="1.2" transform="rotate(312.8 451.2 337.7)" />
    <ellipse cx="439.3" cy="367.8" rx="16.8" ry="14.0" fill="#7ba35a" stroke="#ffffff88" stroke-width="1.2" transform="rotate(319.4 439.3 367.8)" />
    <ellipse cx="412.3" cy="395.2" rx="21.6" ry="18.0" fill="#315d34" stroke="#ffffff88" stroke-width="1.2" transform="rotate(326.0 412.3 395.2)" />
    <ellipse cx="371.5" cy="417.4" rx="26.4" ry="22.0" fill="#578a45" stroke="#ffffff88" stroke-width="1.2" transform="rotate(332.6 371.5 417.4)" />
    <ellipse cx="404.2" cy="356.0" rx="31.2" ry="26.0" fill="#7ba35a" stroke="#ffffff88" stroke-width="1.2" transform="rotate(339.3 404.2 356.0)" />
    <ellipse cx="361.0" cy="372.0" rx="12.0" ry="10.0" fill="#315d34" stroke="#ffffff88" stroke-width="1.2" transform="rotate(345.9 361.0 372.0)" />
    <ellipse cx="309.3" cy="379.3" rx="16.8" ry="14.0" fill="#578a45" stroke="#ffffff88" stroke-width="1.2" transform="rotate(352.5 309.3 379.3)" />
    <ellipse cx="383.3" cy="335.8" rx="21.6" ry="18.0" fill="#7ba35a" stroke="#ffffff88" stroke-width="1.2" transform="rotate(359.1 383.3 335.8)" />
    <ellipse cx="333.8" cy="336.9" rx="26.4" ry="22.0" fill="#315d34" stroke="#ffffff88" stroke-width="1.2" transform="rotate(365.7 333.8 336.9)" />
    <ellipse cx="283.1" cy="327.7" rx="31.2" ry="26.0" fill="#578a45" stroke="#ffffff88" stroke-width="1.2" transform="rotate(372.3 283.1 327.7)" />
    <ellipse cx="380.1" cy="312.8" rx="12.0" ry="10.0" fill="#7ba35a" stroke="#ffffff88" stroke-width="1.2" transform="rotate(378.9 380.1 312.8)" />
    <ellipse cx="335.7" cy="298.8" rx="16.8" ry="14.0" fill="#315d34" stroke="#ffffff88" stroke-width="1.2" transform="rotate(385.6 335.7 298.8)" />
    <ellipse cx="297.7" cy="275.5" rx="21.6" ry="18.0" fill="#578a45" stroke="#ffffff88" stroke-width="1.2" transform="rotate(392.2 297.7 275.5)" />
    <ellipse cx="393.6" cy="292.8" rx="26.4" ry="22.0" fill="#7ba35a" stroke="#ffffff88" stroke-width="1.2" transform="rotate(398.8 393.6 292.8)" />
    <ellipse cx="364.3" cy="267.1" rx="31.2" ry="26.0" fill="#315d34" stroke="#ffffff88" stroke-width="1.2" transform="rotate(405.4 364.3 267.1)" />
    <ellipse cx="347.5" cy="235.1" rx="12.0" ry="10.0" fill="#578a45" stroke="#ffffff88" stroke-width="1.2" transform="rotate(412.0 347.5 235.1)" />
    <ellipse cx="418.7" cy="280.2" rx="16.8" ry="14.0" fill="#7ba35a" stroke="#ffffff88" stroke-width="1.2" transform="rotate(418.6 418.7 280.2)" />
    <ellipse cx="411.1" cy="248.8" rx="21.6" ry="18.0" fill="#315d34" stroke="#ffffff88" stroke-width="1.2" transform="rotate(425.2 411.1 248.8)" />
    <ellipse cx="419.1" cy="215.6" rx="26.4" ry="22.0" fill="#578a45" stroke="#ffffff88" stroke-width="1.2" transform="rotate(431.8 419.1 215.6)" />
    <ellipse cx="448.0" cy="277.3" rx="31.2" ry="26.0" fill="#7ba35a" stroke="#ffffff88" stroke-width="1.2" transform="rotate(438.5 448.0 277.3)" />
    <ellipse cx="463.8" cy="247.3" rx="12.0" ry="10.0" fill="#315d34" stroke="#ffffff88" stroke-width="1.2" transform="rotate(445.1 463.8 247.3)" />
    <ellipse cx="494.4" cy="220.5" rx="16.8" ry="14.0" fill="#578a45" stroke="#ffffff88" stroke-width="1.2" transform="rotate(451.7 494.4 220.5)" />
    <ellipse cx="474.1" cy="283.6" rx="21.6" ry="18.0" fill="#7ba35a" stroke="#ffffff88" stroke-width="1.2" transform="rotate(458.3 474.1 283.6)" />
    <ellipse cx="509.3" cy="261.9" rx="26.4" ry="22.0" fill="#315d34" stroke="#ffffff88" stroke-width="1.2" transform="rotate(464.9 509.3 261.9)" />
    <ellipse cx="555.4" cy="247.5" rx="31.2" ry="26.0" fill="#578a45" stroke="#ffffff88" stroke-width="1.2" transform="rotate(471.5 555.4 247.5)" />
    <ellipse cx="490.9" cy="296.3" rx="12.0" ry="10.0" fill="#7ba35a" stroke="#ffffff88" stroke-width="1.2" transform="rotate(478.1 490.9 296.3)" />
    <ellipse cx="537.5" cy="287.7" rx="16.8" ry="14.0" fill="#315d34" stroke="#ffffff88" stroke-width="1.2" transform="rotate(484.8 537.5 287.7)" />
    <ellipse cx="588.3" cy="289.0" rx="21.6" ry="18.0" fill="#578a45" stroke="#ffffff88" stroke-width="1.2" transform="rotate(491.4 588.3 289.0)" />
    <ellipse cx="495.7" cy="311.5" rx="26.4" ry="22.0" fill="#7ba35a" stroke="#ffffff88" stroke-width="1.2" transform="rotate(498.0 495.7 311.5)" />
    <ellipse cx="542.9" cy="317.9" rx="31.2" ry="26.0" fill="#315d34" stroke="#ffffff88" stroke-width="1.2" transform="rotate(504.6 542.9 317.9)" />
    <ellipse cx="586.8" cy="334.3" rx="12.0" ry="10.0" fill="#578a45" stroke="#ffffff88" stroke-width="1.2" transform="rotate(511.2 586.8 334.3)" />
    <ellipse cx="489.0" cy="325.1" rx="16.8" ry="14.0" fill="#7ba35a" stroke="#ffffff88" stroke-width="1.2" transform="rotate(517.8 489.0 325.1)" />
    <ellipse cx="526.1" cy="345.0" rx="21.6" ry="18.0" fill="#315d34" stroke="#ffffff88" stroke-width="1.2" transform="rotate(524.4 526.1 345.0)" />
    <ellipse cx="553.1" cy="372.6" rx="26.4" ry="22.0" fill="#578a45" stroke="#ffffff88" stroke-width="1.2" transform="rotate(531.1 553.1 372.6)" />
    <ellipse cx="474.3" cy="334.0" rx="31.2" ry="26.0" fill="#7ba35a" stroke="#ffffff88" stroke-width="1.2" transform="rotate(537.7 474.3 334.0)" />
    <ellipse cx="493.0" cy="362.7" rx="12.0" ry="10.0" fill="#315d34" stroke="#ffffff88" stroke-width="1.2" transform="rotate(544.3 493.0 362.7)" />
    <ellipse cx="497.1" cy="395.2" rx="16.8" ry="14.0" fill="#578a45" stroke="#ffffff88" stroke-width="1.2" transform="rotate(550.9 497.1 395.2)" />
    <ellipse cx="485.4" cy="429.0" rx="21.6" ry="18.0" fill="#7ba35a" stroke="#ffffff88" stroke-width="1.2" transform="rotate(557.5 485.4 429.0)" />
  <rect x="115" y="538" width="670" height="88" rx="28" fill="#091612" stroke="#ffffff26" />
  <text x="450" y="586" text-anchor="middle" font-family="Arial, sans-serif" font-size="58" font-weight="700" fill="#ffffff">Fennel Powder</text>
  <text x="450" y="615" text-anchor="middle" font-family="Arial, sans-serif" font-size="24" fill="#d4ff00" letter-spacing="3">EXPORT QUALITY</text>
</svg>
