<svg xmlns="http://www.w3.org/2000/svg" width="900" height="700" viewBox="0 0 900 700" role="img" aria-labelledby="title desc">
  <title id="title">Garlic Powder</title>
  <desc id="desc">Clean export product artwork for Garlic Powder on a dark green background.</desc>
  <defs>
    <linearGradient id="background" x1="0" x2="1" y1="0" y2="1">
      <stop stop-color="#091612" />
      <stop offset="1" stop-color="#1a332b" />
    </linearGradient>
    <filter id="shadow"><feDropShadow dx="0" dy="18" stdDeviation="22" flood-color="#000000" flood-opacity=".35" /></filter>
  </defs>
  <rect width="900" height="700" fill="url(#background)" />
  <rect x="70" y="60" width="760" height="580" rx="52" fill="#132620" stroke="#ffffff20" stroke-width="2" />
  <circle cx="450" cy="300" r="210" fill="#0b1d18" opacity=".5" />
  <ellipse cx="450" cy="315" rx="235" ry="170" fill="#eee5cc" stroke="#d4ff00" stroke-width="7" filter="url(#shadow)" />
    <ellipse cx="480.7" cy="304.0" rx="12.0" ry="10.0" fill="#efe7d0" stroke="#ffffff88" stroke-width="1.2" transform="rotate(231.2 480.7 304.0)" />
    <ellipse cx="527.4" cy="297.3" rx="16.8" ry="14.0" fill="#d8c29b" stroke="#ffffff88" stroke-width="1.2" transform="rotate(237.8 527.4 297.3)" />
    <ellipse cx="577.1" cy="300.6" rx="21.6" ry="18.0" fill="#fff7df" stroke="#ffffff88" stroke-width="1.2" transform="rotate(244.4 577.1 300.6)" />
    <ellipse cx="626.0" cy="314.2" rx="26.4" ry="22.0" fill="#efe7d0" stroke="#ffffff88" stroke-width="1.2" transform="rotate(251.0 626.0 314.2)" />
    <ellipse cx="527.0" cy="323.0" rx="31.2" ry="26.0" fill="#d8c29b" stroke="#ffffff88" stroke-width="1.2" transform="rotate(257.7 527.0 323.0)" />
    <ellipse cx="568.5" cy="340.8" rx="12.0" ry="10.0" fill="#fff7df" stroke="#ffffff88" stroke-width="1.2" transform="rotate(264.3 568.5 340.8)" />
    <ellipse cx="601.9" cy="367.5" rx="16.8" ry="14.0" fill="#efe7d0" stroke="#ffffff88" stroke-width="1.2" transform="rotate(270.9 601.9 367.5)" />
    <ellipse cx="508.7" cy="344.3" rx="21.6" ry="18.0" fill="#d8c29b" stroke="#ffffff88" stroke-width="1.2" transform="rotate(277.5 508.7 344.3)" />
    <ellipse cx="532.6" cy="372.5" rx="26.4" ry="22.0" fill="#fff7df" stroke="#ffffff88" stroke-width="1.2" transform="rotate(284.1 532.6 372.5)" />
    <ellipse cx="542.9" cy="406.0" rx="31.2" ry="26.0" fill="#efe7d0" stroke="#ffffff88" stroke-width="1.2" transform="rotate(290.7 542.9 406.0)" />
    <ellipse cx="478.6" cy="356.5" rx="12.0" ry="10.0" fill="#d8c29b" stroke="#ffffff88" stroke-width="1.2" transform="rotate(297.3 478.6 356.5)" />
    <ellipse cx="479.5" cy="388.6" rx="16.8" ry="14.0" fill="#fff7df" stroke="#ffffff88" stroke-width="1.2" transform="rotate(304.0 479.5 388.6)" />
    <ellipse cx="464.7" cy="421.2" rx="21.6" ry="18.0" fill="#efe7d0" stroke="#ffffff88" stroke-width="1.2" transform="rotate(310.6 464.7 421.2)" />
    <ellipse cx="445.0" cy="357.8" rx="26.4" ry="22.0" fill="#d8c29b" stroke="#ffffff88" stroke-width="1.2" transform="rotate(317.2 445.0 357.8)" />
    <ellipse cx="423.0" cy="386.3" rx="31.2" ry="26.0" fill="#fff7df" stroke="#ffffff88" stroke-width="1.2" transform="rotate(323.8 423.0 386.3)" />
    <ellipse cx="386.8" cy="410.5" rx="12.0" ry="10.0" fill="#efe7d0" stroke="#ffffff88" stroke-width="1.2" transform="rotate(330.4 386.8 410.5)" />
    <ellipse cx="416.5" cy="348.9" rx="16.8" ry="14.0" fill="#d8c29b" stroke="#ffffff88" stroke-width="1.2" transform="rotate(337.0 416.5 348.9)" />
    <ellipse cx="376.8" cy="367.5" rx="21.6" ry="18.0" fill="#fff7df" stroke="#ffffff88" stroke-width="1.2" transform="rotate(343.6 376.8 367.5)" />
    <ellipse cx="327.6" cy="377.9" rx="26.4" ry="22.0" fill="#efe7d0" stroke="#ffffff88" stroke-width="1.2" transform="rotate(350.2 327.6 377.9)" />
    <ellipse cx="399.2" cy="333.2" rx="31.2" ry="26.0" fill="#d8c29b" stroke="#ffffff88" stroke-width="1.2" transform="rotate(356.9 399.2 333.2)" />
    <ellipse cx="350.9" cy="337.6" rx="12.0" ry="10.0" fill="#fff7df" stroke="#ffffff88" stroke-width="1.2" transform="rotate(363.5 350.9 337.6)" />
    <ellipse cx="300.3" cy="332.0" rx="16.8" ry="14.0" fill="#efe7d0" stroke="#ffffff88" stroke-width="1.2" transform="rotate(370.1 300.3 332.0)" />
    <ellipse cx="396.0" cy="315.3" rx="21.6" ry="18.0" fill="#d8c29b" stroke="#ffffff88" stroke-width="1.2" transform="rotate(376.7 396.0 315.3)" />
    <ellipse cx="350.3" cy="304.7" rx="26.4" ry="22.0" fill="#fff7df" stroke="#ffffff88" stroke-width="1.2" transform="rotate(383.3 350.3 304.7)" />
    <ellipse cx="309.7" cy="284.4" rx="31.2" ry="26.0" fill="#efe7d0" stroke="#ffffff88" stroke-width="1.2" transform="rotate(389.9 309.7 284.4)" />
    <ellipse cx="405.9" cy="299.7" rx="12.0" ry="10.0" fill="#d8c29b" stroke="#ffffff88" stroke-width="1.2" transform="rotate(396.5 405.9 299.7)" />
    <ellipse cx="373.0" cy="276.6" rx="16.8" ry="14.0" fill="#fff7df" stroke="#ffffff88" stroke-width="1.2" transform="rotate(403.2 373.0 276.6)" />
    <ellipse cx="351.7" cy="246.6" rx="21.6" ry="18.0" fill="#efe7d0" stroke="#ffffff88" stroke-width="1.2" transform="rotate(409.8 351.7 246.6)" />
    <ellipse cx="424.6" cy="290.1" rx="26.4" ry="22.0" fill="#d8c29b" stroke="#ffffff88" stroke-width="1.2" transform="rotate(416.4 424.6 290.1)" />
    <ellipse cx="412.0" cy="259.8" rx="31.2" ry="26.0" fill="#fff7df" stroke="#ffffff88" stroke-width="1.2" transform="rotate(423.0 412.0 259.8)" />
    <ellipse cx="414.7" cy="226.9" rx="12.0" ry="10.0" fill="#efe7d0" stroke="#ffffff88" stroke-width="1.2" transform="rotate(429.6 414.7 226.9)" />
    <ellipse cx="446.2" cy="287.8" rx="16.8" ry="14.0" fill="#d8c29b" stroke="#ffffff88" stroke-width="1.2" transform="rotate(436.2 446.2 287.8)" />
    <ellipse cx="456.7" cy="257.3" rx="21.6" ry="18.0" fill="#fff7df" stroke="#ffffff88" stroke-width="1.2" transform="rotate(442.8 456.7 257.3)" />
    <ellipse cx="482.4" cy="229.2" rx="26.4" ry="22.0" fill="#efe7d0" stroke="#ffffff88" stroke-width="1.2" transform="rotate(449.5 482.4 229.2)" />
    <ellipse cx="465.0" cy="292.3" rx="31.2" ry="26.0" fill="#d8c29b" stroke="#ffffff88" stroke-width="1.2" transform="rotate(456.1 465.0 292.3)" />
    <ellipse cx="496.0" cy="268.5" rx="12.0" ry="10.0" fill="#fff7df" stroke="#ffffff88" stroke-width="1.2" transform="rotate(462.7 496.0 268.5)" />
    <ellipse cx="538.7" cy="251.5" rx="16.8" ry="14.0" fill="#efe7d0" stroke="#ffffff88" stroke-width="1.2" transform="rotate(469.3 538.7 251.5)" />
    <ellipse cx="590.5" cy="242.9" rx="21.6" ry="18.0" fill="#d8c29b" stroke="#ffffff88" stroke-width="1.2" transform="rotate(475.9 590.5 242.9)" />
  <rect x="115" y="538" width="670" height="88" rx="28" fill="#091612" stroke="#ffffff26" />
  <text x="450" y="586" text-anchor="middle" font-family="Arial, sans-serif" font-size="58" font-weight="700" fill="#ffffff">Garlic Powder</text>
  <text x="450" y="615" text-anchor="middle" font-family="Arial, sans-serif" font-size="24" fill="#d4ff00" letter-spacing="3">EXPORT QUALITY</text>
</svg>
