<svg xmlns="http://www.w3.org/2000/svg" width="900" height="700" viewBox="0 0 900 700" role="img" aria-labelledby="title desc">
  <title id="title">Garlic Chopped</title>
  <desc id="desc">Clean export product artwork for Garlic Chopped on a dark green background.</desc>
  <defs>
    <linearGradient id="background" x1="0" x2="1" y1="0" y2="1">
      <stop stop-color="#091612" />
      <stop offset="1" stop-color="#1a332b" />
    </linearGradient>
    <filter id="shadow"><feDropShadow dx="0" dy="18" stdDeviation="22" flood-color="#000000" flood-opacity=".35" /></filter>
  </defs>
  <rect width="900" height="700" fill="url(#background)" />
  <rect x="70" y="60" width="760" height="580" rx="52" fill="#132620" stroke="#ffffff20" stroke-width="2" />
  <circle cx="450" cy="300" r="210" fill="#0b1d18" opacity=".5" />
  <ellipse cx="450" cy="315" rx="235" ry="170" fill="#eee5cc" stroke="#d4ff00" stroke-width="7" filter="url(#shadow)" />
    <ellipse cx="468.5" cy="295.7" rx="12.0" ry="10.0" fill="#efe7d0" stroke="#ffffff88" stroke-width="1.2" transform="rotate(210.8 468.5 295.7)" />
    <ellipse cx="504.3" cy="275.0" rx="16.8" ry="14.0" fill="#d8c29b" stroke="#ffffff88" stroke-width="1.2" transform="rotate(217.4 504.3 275.0)" />
    <ellipse cx="550.1" cy="262.1" rx="21.6" ry="18.0" fill="#fff7df" stroke="#ffffff88" stroke-width="1.2" transform="rotate(224.0 550.1 262.1)" />
    <ellipse cx="603.0" cy="258.4" rx="26.4" ry="22.0" fill="#efe7d0" stroke="#ffffff88" stroke-width="1.2" transform="rotate(230.6 603.0 258.4)" />
    <ellipse cx="523.2" cy="297.5" rx="31.2" ry="26.0" fill="#d8c29b" stroke="#ffffff88" stroke-width="1.2" transform="rotate(237.3 523.2 297.5)" />
    <ellipse cx="572.8" cy="299.9" rx="12.0" ry="10.0" fill="#fff7df" stroke="#ffffff88" stroke-width="1.2" transform="rotate(243.9 572.8 299.9)" />
    <ellipse cx="622.0" cy="312.6" rx="16.8" ry="14.0" fill="#efe7d0" stroke="#ffffff88" stroke-width="1.2" transform="rotate(250.5 622.0 312.6)" />
    <ellipse cx="523.2" cy="321.9" rx="21.6" ry="18.0" fill="#d8c29b" stroke="#ffffff88" stroke-width="1.2" transform="rotate(257.1 523.2 321.9)" />
    <ellipse cx="565.2" cy="339.0" rx="26.4" ry="22.0" fill="#fff7df" stroke="#ffffff88" stroke-width="1.2" transform="rotate(263.7 565.2 339.0)" />
    <ellipse cx="599.4" cy="364.9" rx="31.2" ry="26.0" fill="#efe7d0" stroke="#ffffff88" stroke-width="1.2" transform="rotate(270.3 599.4 364.9)" />
    <ellipse cx="506.1" cy="342.2" rx="12.0" ry="10.0" fill="#d8c29b" stroke="#ffffff88" stroke-width="1.2" transform="rotate(276.9 506.1 342.2)" />
    <ellipse cx="531.0" cy="369.9" rx="16.8" ry="14.0" fill="#fff7df" stroke="#ffffff88" stroke-width="1.2" transform="rotate(283.6 531.0 369.9)" />
    <ellipse cx="542.6" cy="403.0" rx="21.6" ry="18.0" fill="#efe7d0" stroke="#ffffff88" stroke-width="1.2" transform="rotate(290.2 542.6 403.0)" />
    <ellipse cx="477.8" cy="353.9" rx="26.4" ry="22.0" fill="#d8c29b" stroke="#ffffff88" stroke-width="1.2" transform="rotate(296.8 477.8 353.9)" />
    <ellipse cx="480.0" cy="385.8" rx="31.2" ry="26.0" fill="#fff7df" stroke="#ffffff88" stroke-width="1.2" transform="rotate(303.4 480.0 385.8)" />
    <ellipse cx="466.6" cy="418.4" rx="12.0" ry="10.0" fill="#efe7d0" stroke="#ffffff88" stroke-width="1.2" transform="rotate(310.0 466.6 418.4)" />
    <ellipse cx="446.2" cy="355.2" rx="16.8" ry="14.0" fill="#d8c29b" stroke="#ffffff88" stroke-width="1.2" transform="rotate(316.6 446.2 355.2)" />
    <ellipse cx="425.5" cy="384.0" rx="21.6" ry="18.0" fill="#fff7df" stroke="#ffffff88" stroke-width="1.2" transform="rotate(323.2 425.5 384.0)" />
    <ellipse cx="390.4" cy="408.7" rx="26.4" ry="22.0" fill="#efe7d0" stroke="#ffffff88" stroke-width="1.2" transform="rotate(329.8 390.4 408.7)" />
    <ellipse cx="419.3" cy="347.0" rx="31.2" ry="26.0" fill="#d8c29b" stroke="#ffffff88" stroke-width="1.2" transform="rotate(336.5 419.3 347.0)" />
    <ellipse cx="380.5" cy="366.2" rx="12.0" ry="10.0" fill="#fff7df" stroke="#ffffff88" stroke-width="1.2" transform="rotate(343.1 380.5 366.2)" />
    <ellipse cx="332.0" cy="377.3" rx="16.8" ry="14.0" fill="#efe7d0" stroke="#ffffff88" stroke-width="1.2" transform="rotate(349.7 332.0 377.3)" />
    <ellipse cx="403.1" cy="332.4" rx="21.6" ry="18.0" fill="#d8c29b" stroke="#ffffff88" stroke-width="1.2" transform="rotate(356.3 403.1 332.4)" />
    <ellipse cx="355.2" cy="337.6" rx="26.4" ry="22.0" fill="#fff7df" stroke="#ffffff88" stroke-width="1.2" transform="rotate(362.9 355.2 337.6)" />
    <ellipse cx="304.6" cy="332.8" rx="31.2" ry="26.0" fill="#efe7d0" stroke="#ffffff88" stroke-width="1.2" transform="rotate(369.5 304.6 332.8)" />
    <ellipse cx="400.0" cy="315.7" rx="12.0" ry="10.0" fill="#d8c29b" stroke="#ffffff88" stroke-width="1.2" transform="rotate(376.1 400.0 315.7)" />
    <ellipse cx="354.0" cy="305.9" rx="16.8" ry="14.0" fill="#fff7df" stroke="#ffffff88" stroke-width="1.2" transform="rotate(382.8 354.0 305.9)" />
    <ellipse cx="312.8" cy="286.5" rx="21.6" ry="18.0" fill="#efe7d0" stroke="#ffffff88" stroke-width="1.2" transform="rotate(389.4 312.8 286.5)" />
    <ellipse cx="409.1" cy="301.3" rx="26.4" ry="22.0" fill="#d8c29b" stroke="#ffffff88" stroke-width="1.2" transform="rotate(396.0 409.1 301.3)" />
    <ellipse cx="375.4" cy="278.9" rx="31.2" ry="26.0" fill="#fff7df" stroke="#ffffff88" stroke-width="1.2" transform="rotate(402.6 375.4 278.9)" />
    <ellipse cx="353.0" cy="249.4" rx="12.0" ry="10.0" fill="#efe7d0" stroke="#ffffff88" stroke-width="1.2" transform="rotate(409.2 353.0 249.4)" />
    <ellipse cx="426.3" cy="292.5" rx="16.8" ry="14.0" fill="#d8c29b" stroke="#ffffff88" stroke-width="1.2" transform="rotate(415.8 426.3 292.5)" />
    <ellipse cx="412.5" cy="262.5" rx="21.6" ry="18.0" fill="#fff7df" stroke="#ffffff88" stroke-width="1.2" transform="rotate(422.4 412.5 262.5)" />
    <ellipse cx="413.8" cy="229.8" rx="26.4" ry="22.0" fill="#efe7d0" stroke="#ffffff88" stroke-width="1.2" transform="rotate(429.1 413.8 229.8)" />
    <ellipse cx="446.1" cy="290.4" rx="31.2" ry="26.0" fill="#d8c29b" stroke="#ffffff88" stroke-width="1.2" transform="rotate(435.7 446.1 290.4)" />
    <ellipse cx="455.2" cy="259.9" rx="12.0" ry="10.0" fill="#fff7df" stroke="#ffffff88" stroke-width="1.2" transform="rotate(442.3 455.2 259.9)" />
    <ellipse cx="479.7" cy="231.4" rx="16.8" ry="14.0" fill="#efe7d0" stroke="#ffffff88" stroke-width="1.2" transform="rotate(448.9 479.7 231.4)" />
    <ellipse cx="518.4" cy="207.5" rx="21.6" ry="18.0" fill="#d8c29b" stroke="#ffffff88" stroke-width="1.2" transform="rotate(455.5 518.4 207.5)" />
  <rect x="115" y="538" width="670" height="88" rx="28" fill="#091612" stroke="#ffffff26" />
  <text x="450" y="586" text-anchor="middle" font-family="Arial, sans-serif" font-size="58" font-weight="700" fill="#ffffff">Garlic Chopped</text>
  <text x="450" y="615" text-anchor="middle" font-family="Arial, sans-serif" font-size="24" fill="#d4ff00" letter-spacing="3">EXPORT QUALITY</text>
</svg>
