<svg xmlns="http://www.w3.org/2000/svg" width="900" height="700" viewBox="0 0 900 700" role="img" aria-labelledby="title desc">
  <title id="title">Garlic Minced</title>
  <desc id="desc">Clean export product artwork for Garlic Minced on a dark green background.</desc>
  <defs>
    <linearGradient id="background" x1="0" x2="1" y1="0" y2="1">
      <stop stop-color="#091612" />
      <stop offset="1" stop-color="#1a332b" />
    </linearGradient>
    <filter id="shadow"><feDropShadow dx="0" dy="18" stdDeviation="22" flood-color="#000000" flood-opacity=".35" /></filter>
  </defs>
  <rect width="900" height="700" fill="url(#background)" />
  <rect x="70" y="60" width="760" height="580" rx="52" fill="#132620" stroke="#ffffff20" stroke-width="2" />
  <circle cx="450" cy="300" r="210" fill="#0b1d18" opacity=".5" />
  <ellipse cx="450" cy="315" rx="235" ry="170" fill="#eee5cc" stroke="#d4ff00" stroke-width="7" filter="url(#shadow)" />
    <ellipse cx="473.3" cy="298.0" rx="12.0" ry="10.0" fill="#efe7d0" stroke="#ffffff88" stroke-width="1.2" transform="rotate(217.6 473.3 298.0)" />
    <ellipse cx="513.9" cy="281.6" rx="16.8" ry="14.0" fill="#d8c29b" stroke="#ffffff88" stroke-width="1.2" transform="rotate(224.2 513.9 281.6)" />
    <ellipse cx="562.4" cy="273.9" rx="21.6" ry="18.0" fill="#fff7df" stroke="#ffffff88" stroke-width="1.2" transform="rotate(230.8 562.4 273.9)" />
    <ellipse cx="615.5" cy="276.1" rx="26.4" ry="22.0" fill="#efe7d0" stroke="#ffffff88" stroke-width="1.2" transform="rotate(237.4 615.5 276.1)" />
    <ellipse cx="526.7" cy="305.8" rx="31.2" ry="26.0" fill="#d8c29b" stroke="#ffffff88" stroke-width="1.2" transform="rotate(244.1 526.7 305.8)" />
    <ellipse cx="575.0" cy="313.7" rx="12.0" ry="10.0" fill="#fff7df" stroke="#ffffff88" stroke-width="1.2" transform="rotate(250.7 575.0 313.7)" />
    <ellipse cx="620.1" cy="331.6" rx="16.8" ry="14.0" fill="#efe7d0" stroke="#ffffff88" stroke-width="1.2" transform="rotate(257.3 620.1 331.6)" />
    <ellipse cx="520.4" cy="329.9" rx="21.6" ry="18.0" fill="#d8c29b" stroke="#ffffff88" stroke-width="1.2" transform="rotate(263.9 520.4 329.9)" />
    <ellipse cx="557.3" cy="351.3" rx="26.4" ry="22.0" fill="#fff7df" stroke="#ffffff88" stroke-width="1.2" transform="rotate(270.5 557.3 351.3)" />
    <ellipse cx="584.3" cy="380.6" rx="31.2" ry="26.0" fill="#efe7d0" stroke="#ffffff88" stroke-width="1.2" transform="rotate(277.1 584.3 380.6)" />
    <ellipse cx="498.3" cy="348.0" rx="12.0" ry="10.0" fill="#d8c29b" stroke="#ffffff88" stroke-width="1.2" transform="rotate(283.7 498.3 348.0)" />
    <ellipse cx="515.6" cy="378.0" rx="16.8" ry="14.0" fill="#fff7df" stroke="#ffffff88" stroke-width="1.2" transform="rotate(290.4 515.6 378.0)" />
    <ellipse cx="518.3" cy="411.9" rx="21.6" ry="18.0" fill="#efe7d0" stroke="#ffffff88" stroke-width="1.2" transform="rotate(297.0 518.3 411.9)" />
    <ellipse cx="467.3" cy="356.4" rx="26.4" ry="22.0" fill="#d8c29b" stroke="#ffffff88" stroke-width="1.2" transform="rotate(303.6 467.3 356.4)" />
    <ellipse cx="461.2" cy="388.1" rx="31.2" ry="26.0" fill="#fff7df" stroke="#ffffff88" stroke-width="1.2" transform="rotate(310.2 461.2 388.1)" />
    <ellipse cx="439.4" cy="418.8" rx="12.0" ry="10.0" fill="#efe7d0" stroke="#ffffff88" stroke-width="1.2" transform="rotate(316.8 439.4 418.8)" />
    <ellipse cx="435.8" cy="354.2" rx="16.8" ry="14.0" fill="#d8c29b" stroke="#ffffff88" stroke-width="1.2" transform="rotate(323.4 435.8 354.2)" />
    <ellipse cx="407.9" cy="380.3" rx="21.6" ry="18.0" fill="#fff7df" stroke="#ffffff88" stroke-width="1.2" transform="rotate(330.0 407.9 380.3)" />
    <ellipse cx="366.8" cy="400.8" rx="26.4" ry="22.0" fill="#efe7d0" stroke="#ffffff88" stroke-width="1.2" transform="rotate(336.6 366.8 400.8)" />
    <ellipse cx="411.4" cy="343.2" rx="31.2" ry="26.0" fill="#d8c29b" stroke="#ffffff88" stroke-width="1.2" transform="rotate(343.3 411.4 343.2)" />
    <ellipse cx="368.2" cy="357.8" rx="12.0" ry="10.0" fill="#fff7df" stroke="#ffffff88" stroke-width="1.2" transform="rotate(349.9 368.2 357.8)" />
    <ellipse cx="317.5" cy="363.4" rx="16.8" ry="14.0" fill="#efe7d0" stroke="#ffffff88" stroke-width="1.2" transform="rotate(356.5 317.5 363.4)" />
    <ellipse cx="399.2" cy="326.9" rx="21.6" ry="18.0" fill="#d8c29b" stroke="#ffffff88" stroke-width="1.2" transform="rotate(363.1 399.2 326.9)" />
    <ellipse cx="350.7" cy="326.9" rx="26.4" ry="22.0" fill="#fff7df" stroke="#ffffff88" stroke-width="1.2" transform="rotate(369.7 350.7 326.9)" />
    <ellipse cx="302.0" cy="316.6" rx="31.2" ry="26.0" fill="#efe7d0" stroke="#ffffff88" stroke-width="1.2" transform="rotate(376.3 302.0 316.6)" />
    <ellipse cx="400.6" cy="310.2" rx="12.0" ry="10.0" fill="#d8c29b" stroke="#ffffff88" stroke-width="1.2" transform="rotate(382.9 400.6 310.2)" />
    <ellipse cx="357.8" cy="295.5" rx="16.8" ry="14.0" fill="#fff7df" stroke="#ffffff88" stroke-width="1.2" transform="rotate(389.6 357.8 295.5)" />
    <ellipse cx="322.2" cy="271.8" rx="21.6" ry="18.0" fill="#efe7d0" stroke="#ffffff88" stroke-width="1.2" transform="rotate(396.2 322.2 271.8)" />
    <ellipse cx="413.2" cy="297.0" rx="26.4" ry="22.0" fill="#d8c29b" stroke="#ffffff88" stroke-width="1.2" transform="rotate(402.8 413.2 297.0)" />
    <ellipse cx="385.9" cy="271.2" rx="31.2" ry="26.0" fill="#fff7df" stroke="#ffffff88" stroke-width="1.2" transform="rotate(409.4 385.9 271.2)" />
    <ellipse cx="371.5" cy="239.6" rx="12.0" ry="10.0" fill="#efe7d0" stroke="#ffffff88" stroke-width="1.2" transform="rotate(416.0 371.5 239.6)" />
    <ellipse cx="432.5" cy="290.2" rx="16.8" ry="14.0" fill="#d8c29b" stroke="#ffffff88" stroke-width="1.2" transform="rotate(422.6 432.5 290.2)" />
    <ellipse cx="426.7" cy="259.2" rx="21.6" ry="18.0" fill="#fff7df" stroke="#ffffff88" stroke-width="1.2" transform="rotate(429.2 426.7 259.2)" />
    <ellipse cx="436.5" cy="227.0" rx="26.4" ry="22.0" fill="#efe7d0" stroke="#ffffff88" stroke-width="1.2" transform="rotate(435.9 436.5 227.0)" />
    <ellipse cx="452.5" cy="290.4" rx="31.2" ry="26.0" fill="#d8c29b" stroke="#ffffff88" stroke-width="1.2" transform="rotate(442.5 452.5 290.4)" />
    <ellipse cx="469.5" cy="261.2" rx="12.0" ry="10.0" fill="#fff7df" stroke="#ffffff88" stroke-width="1.2" transform="rotate(449.1 469.5 261.2)" />
    <ellipse cx="501.0" cy="235.9" rx="16.8" ry="14.0" fill="#efe7d0" stroke="#ffffff88" stroke-width="1.2" transform="rotate(455.7 501.0 235.9)" />
    <ellipse cx="545.4" cy="216.6" rx="21.6" ry="18.0" fill="#d8c29b" stroke="#ffffff88" stroke-width="1.2" transform="rotate(462.3 545.4 216.6)" />
  <rect x="115" y="538" width="670" height="88" rx="28" fill="#091612" stroke="#ffffff26" />
  <text x="450" y="586" text-anchor="middle" font-family="Arial, sans-serif" font-size="58" font-weight="700" fill="#ffffff">Garlic Minced</text>
  <text x="450" y="615" text-anchor="middle" font-family="Arial, sans-serif" font-size="24" fill="#d4ff00" letter-spacing="3">EXPORT QUALITY</text>
</svg>
