<svg xmlns="http://www.w3.org/2000/svg" width="900" height="700" viewBox="0 0 900 700" role="img" aria-labelledby="title desc">
  <title id="title">Garlic Flakes/Kibbled</title>
  <desc id="desc">Clean export product artwork for Garlic Flakes/Kibbled on a dark green background.</desc>
  <defs>
    <linearGradient id="background" x1="0" x2="1" y1="0" y2="1">
      <stop stop-color="#091612" />
      <stop offset="1" stop-color="#1a332b" />
    </linearGradient>
    <filter id="shadow"><feDropShadow dx="0" dy="18" stdDeviation="22" flood-color="#000000" flood-opacity=".35" /></filter>
  </defs>
  <rect width="900" height="700" fill="url(#background)" />
  <rect x="70" y="60" width="760" height="580" rx="52" fill="#132620" stroke="#ffffff20" stroke-width="2" />
  <circle cx="450" cy="300" r="210" fill="#0b1d18" opacity=".5" />
  <ellipse cx="450" cy="315" rx="235" ry="170" fill="#eee5cc" stroke="#d4ff00" stroke-width="7" filter="url(#shadow)" />
    <ellipse cx="463.2" cy="293.9" rx="12.0" ry="10.0" fill="#efe7d0" stroke="#ffffff88" stroke-width="1.2" transform="rotate(204.0 463.2 293.9)" />
    <ellipse cx="493.1" cy="269.6" rx="16.8" ry="14.0" fill="#d8c29b" stroke="#ffffff88" stroke-width="1.2" transform="rotate(210.6 493.1 269.6)" />
    <ellipse cx="534.9" cy="251.9" rx="21.6" ry="18.0" fill="#fff7df" stroke="#ffffff88" stroke-width="1.2" transform="rotate(217.2 534.9 251.9)" />
    <ellipse cx="586.1" cy="242.4" rx="26.4" ry="22.0" fill="#efe7d0" stroke="#ffffff88" stroke-width="1.2" transform="rotate(223.8 586.1 242.4)" />
    <ellipse cx="517.6" cy="289.7" rx="31.2" ry="26.0" fill="#d8c29b" stroke="#ffffff88" stroke-width="1.2" transform="rotate(230.5 517.6 289.7)" />
    <ellipse cx="567.1" cy="286.6" rx="12.0" ry="10.0" fill="#fff7df" stroke="#ffffff88" stroke-width="1.2" transform="rotate(237.1 567.1 286.6)" />
    <ellipse cx="618.9" cy="293.8" rx="16.8" ry="14.0" fill="#efe7d0" stroke="#ffffff88" stroke-width="1.2" transform="rotate(243.7 618.9 293.8)" />
    <ellipse cx="524.0" cy="313.8" rx="21.6" ry="18.0" fill="#d8c29b" stroke="#ffffff88" stroke-width="1.2" transform="rotate(250.3 524.0 313.8)" />
    <ellipse cx="569.8" cy="325.9" rx="26.4" ry="22.0" fill="#fff7df" stroke="#ffffff88" stroke-width="1.2" transform="rotate(256.9 569.8 325.9)" />
    <ellipse cx="610.2" cy="347.8" rx="31.2" ry="26.0" fill="#efe7d0" stroke="#ffffff88" stroke-width="1.2" transform="rotate(263.5 610.2 347.8)" />
    <ellipse cx="512.4" cy="335.6" rx="12.0" ry="10.0" fill="#d8c29b" stroke="#ffffff88" stroke-width="1.2" transform="rotate(270.1 512.4 335.6)" />
    <ellipse cx="544.1" cy="360.1" rx="16.8" ry="14.0" fill="#fff7df" stroke="#ffffff88" stroke-width="1.2" transform="rotate(276.8 544.1 360.1)" />
    <ellipse cx="564.1" cy="391.5" rx="21.6" ry="18.0" fill="#efe7d0" stroke="#ffffff88" stroke-width="1.2" transform="rotate(283.4 564.1 391.5)" />
    <ellipse cx="487.5" cy="350.3" rx="26.4" ry="22.0" fill="#d8c29b" stroke="#ffffff88" stroke-width="1.2" transform="rotate(290.0 487.5 350.3)" />
    <ellipse cx="498.0" cy="381.5" rx="31.2" ry="26.0" fill="#fff7df" stroke="#ffffff88" stroke-width="1.2" transform="rotate(296.6 498.0 381.5)" />
    <ellipse cx="493.3" cy="415.1" rx="12.0" ry="10.0" fill="#efe7d0" stroke="#ffffff88" stroke-width="1.2" transform="rotate(303.2 493.3 415.1)" />
    <ellipse cx="456.7" cy="355.1" rx="16.8" ry="14.0" fill="#d8c29b" stroke="#ffffff88" stroke-width="1.2" transform="rotate(309.8 456.7 355.1)" />
    <ellipse cx="443.8" cy="385.7" rx="21.6" ry="18.0" fill="#fff7df" stroke="#ffffff88" stroke-width="1.2" transform="rotate(316.4 443.8 385.7)" />
    <ellipse cx="415.6" cy="413.9" rx="26.4" ry="22.0" fill="#efe7d0" stroke="#ffffff88" stroke-width="1.2" transform="rotate(323.0 415.6 413.9)" />
    <ellipse cx="428.1" cy="349.9" rx="31.2" ry="26.0" fill="#d8c29b" stroke="#ffffff88" stroke-width="1.2" transform="rotate(329.7 428.1 349.9)" />
    <ellipse cx="394.9" cy="373.1" rx="12.0" ry="10.0" fill="#fff7df" stroke="#ffffff88" stroke-width="1.2" transform="rotate(336.3 394.9 373.1)" />
    <ellipse cx="350.0" cy="389.4" rx="16.8" ry="14.0" fill="#efe7d0" stroke="#ffffff88" stroke-width="1.2" transform="rotate(342.9 350.0 389.4)" />
    <ellipse cx="408.3" cy="337.3" rx="21.6" ry="18.0" fill="#d8c29b" stroke="#ffffff88" stroke-width="1.2" transform="rotate(349.5 408.3 337.3)" />
    <ellipse cx="362.4" cy="347.7" rx="26.4" ry="22.0" fill="#fff7df" stroke="#ffffff88" stroke-width="1.2" transform="rotate(356.1 362.4 347.7)" />
    <ellipse cx="311.3" cy="348.6" rx="31.2" ry="26.0" fill="#efe7d0" stroke="#ffffff88" stroke-width="1.2" transform="rotate(362.7 311.3 348.6)" />
    <ellipse cx="400.9" cy="321.2" rx="12.0" ry="10.0" fill="#d8c29b" stroke="#ffffff88" stroke-width="1.2" transform="rotate(369.3 400.9 321.2)" />
    <ellipse cx="353.0" cy="316.6" rx="16.8" ry="14.0" fill="#fff7df" stroke="#ffffff88" stroke-width="1.2" transform="rotate(376.0 353.0 316.6)" />
    <ellipse cx="307.4" cy="302.0" rx="21.6" ry="18.0" fill="#efe7d0" stroke="#ffffff88" stroke-width="1.2" transform="rotate(382.6 307.4 302.0)" />
    <ellipse cx="406.1" cy="306.0" rx="26.4" ry="22.0" fill="#d8c29b" stroke="#ffffff88" stroke-width="1.2" transform="rotate(389.2 406.1 306.0)" />
    <ellipse cx="367.1" cy="287.6" rx="31.2" ry="26.0" fill="#fff7df" stroke="#ffffff88" stroke-width="1.2" transform="rotate(395.8 367.1 287.6)" />
    <ellipse cx="337.3" cy="261.0" rx="12.0" ry="10.0" fill="#efe7d0" stroke="#ffffff88" stroke-width="1.2" transform="rotate(402.4 337.3 261.0)" />
    <ellipse cx="420.8" cy="295.4" rx="16.8" ry="14.0" fill="#d8c29b" stroke="#ffffff88" stroke-width="1.2" transform="rotate(409.0 420.8 295.4)" />
    <ellipse cx="399.4" cy="267.4" rx="21.6" ry="18.0" fill="#fff7df" stroke="#ffffff88" stroke-width="1.2" transform="rotate(415.6 399.4 267.4)" />
    <ellipse cx="392.2" cy="235.0" rx="26.4" ry="22.0" fill="#efe7d0" stroke="#ffffff88" stroke-width="1.2" transform="rotate(422.3 392.2 235.0)" />
    <ellipse cx="439.7" cy="291.2" rx="31.2" ry="26.0" fill="#d8c29b" stroke="#ffffff88" stroke-width="1.2" transform="rotate(428.9 439.7 291.2)" />
    <ellipse cx="440.8" cy="260.1" rx="12.0" ry="10.0" fill="#fff7df" stroke="#ffffff88" stroke-width="1.2" transform="rotate(435.5 440.8 260.1)" />
    <ellipse cx="457.5" cy="229.3" rx="16.8" ry="14.0" fill="#efe7d0" stroke="#ffffff88" stroke-width="1.2" transform="rotate(442.1 457.5 229.3)" />
    <ellipse cx="489.5" cy="201.5" rx="21.6" ry="18.0" fill="#d8c29b" stroke="#ffffff88" stroke-width="1.2" transform="rotate(448.7 489.5 201.5)" />
  <rect x="115" y="538" width="670" height="88" rx="28" fill="#091612" stroke="#ffffff26" />
  <text x="450" y="586" text-anchor="middle" font-family="Arial, sans-serif" font-size="48" font-weight="700" fill="#ffffff">Garlic Flakes/Kibbled</text>
  <text x="450" y="615" text-anchor="middle" font-family="Arial, sans-serif" font-size="24" fill="#d4ff00" letter-spacing="3">EXPORT QUALITY</text>
</svg>
