<svg xmlns="http://www.w3.org/2000/svg" width="900" height="700" viewBox="0 0 900 700" role="img" aria-labelledby="title desc">
  <title id="title">Garlic Granules</title>
  <desc id="desc">Clean export product artwork for Garlic Granules on a dark green background.</desc>
  <defs>
    <linearGradient id="background" x1="0" x2="1" y1="0" y2="1">
      <stop stop-color="#091612" />
      <stop offset="1" stop-color="#1a332b" />
    </linearGradient>
    <filter id="shadow"><feDropShadow dx="0" dy="18" stdDeviation="22" flood-color="#000000" flood-opacity=".35" /></filter>
  </defs>
  <rect width="900" height="700" fill="url(#background)" />
  <rect x="70" y="60" width="760" height="580" rx="52" fill="#132620" stroke="#ffffff20" stroke-width="2" />
  <circle cx="450" cy="300" r="210" fill="#0b1d18" opacity=".5" />
  <ellipse cx="450" cy="315" rx="235" ry="170" fill="#eee5cc" stroke="#d4ff00" stroke-width="7" filter="url(#shadow)" />
    <ellipse cx="477.4" cy="300.8" rx="12.0" ry="10.0" fill="#efe7d0" stroke="#ffffff88" stroke-width="1.2" transform="rotate(224.4 477.4 300.8)" />
    <ellipse cx="521.7" cy="289.1" rx="16.8" ry="14.0" fill="#d8c29b" stroke="#ffffff88" stroke-width="1.2" transform="rotate(231.0 521.7 289.1)" />
    <ellipse cx="571.5" cy="286.8" rx="21.6" ry="18.0" fill="#fff7df" stroke="#ffffff88" stroke-width="1.2" transform="rotate(237.6 571.5 286.8)" />
    <ellipse cx="623.2" cy="294.8" rx="26.4" ry="22.0" fill="#efe7d0" stroke="#ffffff88" stroke-width="1.2" transform="rotate(244.2 623.2 294.8)" />
    <ellipse cx="528.0" cy="314.4" rx="31.2" ry="26.0" fill="#d8c29b" stroke="#ffffff88" stroke-width="1.2" transform="rotate(250.9 528.0 314.4)" />
    <ellipse cx="573.5" cy="327.4" rx="12.0" ry="10.0" fill="#fff7df" stroke="#ffffff88" stroke-width="1.2" transform="rotate(257.5 573.5 327.4)" />
    <ellipse cx="613.3" cy="350.1" rx="16.8" ry="14.0" fill="#efe7d0" stroke="#ffffff88" stroke-width="1.2" transform="rotate(264.1 613.3 350.1)" />
    <ellipse cx="515.5" cy="337.4" rx="21.6" ry="18.0" fill="#d8c29b" stroke="#ffffff88" stroke-width="1.2" transform="rotate(270.7 515.5 337.4)" />
    <ellipse cx="546.4" cy="362.6" rx="26.4" ry="22.0" fill="#fff7df" stroke="#ffffff88" stroke-width="1.2" transform="rotate(277.3 546.4 362.6)" />
    <ellipse cx="565.2" cy="394.5" rx="31.2" ry="26.0" fill="#efe7d0" stroke="#ffffff88" stroke-width="1.2" transform="rotate(283.9 565.2 394.5)" />
    <ellipse cx="489.0" cy="352.8" rx="12.0" ry="10.0" fill="#d8c29b" stroke="#ffffff88" stroke-width="1.2" transform="rotate(290.5 489.0 352.8)" />
    <ellipse cx="498.3" cy="384.3" rx="16.8" ry="14.0" fill="#fff7df" stroke="#ffffff88" stroke-width="1.2" transform="rotate(297.2 498.3 384.3)" />
    <ellipse cx="492.1" cy="418.0" rx="21.6" ry="18.0" fill="#efe7d0" stroke="#ffffff88" stroke-width="1.2" transform="rotate(303.8 492.1 418.0)" />
    <ellipse cx="456.2" cy="357.7" rx="26.4" ry="22.0" fill="#d8c29b" stroke="#ffffff88" stroke-width="1.2" transform="rotate(310.4 456.2 357.7)" />
    <ellipse cx="442.0" cy="388.3" rx="31.2" ry="26.0" fill="#fff7df" stroke="#ffffff88" stroke-width="1.2" transform="rotate(317.0 442.0 388.3)" />
    <ellipse cx="412.6" cy="416.1" rx="12.0" ry="10.0" fill="#efe7d0" stroke="#ffffff88" stroke-width="1.2" transform="rotate(323.6 412.6 416.1)" />
    <ellipse cx="425.8" cy="352.1" rx="16.8" ry="14.0" fill="#d8c29b" stroke="#ffffff88" stroke-width="1.2" transform="rotate(330.2 425.8 352.1)" />
    <ellipse cx="391.5" cy="374.8" rx="21.6" ry="18.0" fill="#fff7df" stroke="#ffffff88" stroke-width="1.2" transform="rotate(336.8 391.5 374.8)" />
    <ellipse cx="345.7" cy="390.4" rx="26.4" ry="22.0" fill="#efe7d0" stroke="#ffffff88" stroke-width="1.2" transform="rotate(343.4 345.7 390.4)" />
    <ellipse cx="404.7" cy="338.5" rx="31.2" ry="26.0" fill="#d8c29b" stroke="#ffffff88" stroke-width="1.2" transform="rotate(350.1 404.7 338.5)" />
    <ellipse cx="358.3" cy="348.2" rx="12.0" ry="10.0" fill="#fff7df" stroke="#ffffff88" stroke-width="1.2" transform="rotate(356.7 358.3 348.2)" />
    <ellipse cx="306.8" cy="348.2" rx="16.8" ry="14.0" fill="#efe7d0" stroke="#ffffff88" stroke-width="1.2" transform="rotate(363.3 306.8 348.2)" />
    <ellipse cx="396.8" cy="321.2" rx="21.6" ry="18.0" fill="#d8c29b" stroke="#ffffff88" stroke-width="1.2" transform="rotate(369.9 396.8 321.2)" />
    <ellipse cx="349.0" cy="315.8" rx="26.4" ry="22.0" fill="#fff7df" stroke="#ffffff88" stroke-width="1.2" transform="rotate(376.5 349.0 315.8)" />
    <ellipse cx="303.7" cy="300.3" rx="31.2" ry="26.0" fill="#efe7d0" stroke="#ffffff88" stroke-width="1.2" transform="rotate(383.1 303.7 300.3)" />
    <ellipse cx="402.5" cy="304.8" rx="12.0" ry="10.0" fill="#d8c29b" stroke="#ffffff88" stroke-width="1.2" transform="rotate(389.7 402.5 304.8)" />
    <ellipse cx="364.2" cy="285.6" rx="16.8" ry="14.0" fill="#fff7df" stroke="#ffffff88" stroke-width="1.2" transform="rotate(396.4 364.2 285.6)" />
    <ellipse cx="335.3" cy="258.4" rx="21.6" ry="18.0" fill="#efe7d0" stroke="#ffffff88" stroke-width="1.2" transform="rotate(403.0 335.3 258.4)" />
    <ellipse cx="418.4" cy="293.2" rx="26.4" ry="22.0" fill="#d8c29b" stroke="#ffffff88" stroke-width="1.2" transform="rotate(409.6 418.4 293.2)" />
    <ellipse cx="398.2" cy="264.8" rx="31.2" ry="26.0" fill="#fff7df" stroke="#ffffff88" stroke-width="1.2" transform="rotate(416.2 398.2 264.8)" />
    <ellipse cx="392.3" cy="232.1" rx="12.0" ry="10.0" fill="#efe7d0" stroke="#ffffff88" stroke-width="1.2" transform="rotate(422.8 392.3 232.1)" />
    <ellipse cx="439.2" cy="288.6" rx="16.8" ry="14.0" fill="#d8c29b" stroke="#ffffff88" stroke-width="1.2" transform="rotate(429.4 439.2 288.6)" />
    <ellipse cx="441.6" cy="257.4" rx="21.6" ry="18.0" fill="#fff7df" stroke="#ffffff88" stroke-width="1.2" transform="rotate(436.0 441.6 257.4)" />
    <ellipse cx="459.6" cy="226.8" rx="26.4" ry="22.0" fill="#efe7d0" stroke="#ffffff88" stroke-width="1.2" transform="rotate(442.7 459.6 226.8)" />
    <ellipse cx="458.9" cy="291.0" rx="31.2" ry="26.0" fill="#d8c29b" stroke="#ffffff88" stroke-width="1.2" transform="rotate(449.3 458.9 291.0)" />
    <ellipse cx="483.2" cy="264.1" rx="12.0" ry="10.0" fill="#fff7df" stroke="#ffffff88" stroke-width="1.2" transform="rotate(455.9 483.2 264.1)" />
    <ellipse cx="520.9" cy="242.6" rx="16.8" ry="14.0" fill="#efe7d0" stroke="#ffffff88" stroke-width="1.2" transform="rotate(462.5 520.9 242.6)" />
    <ellipse cx="569.7" cy="228.5" rx="21.6" ry="18.0" fill="#d8c29b" stroke="#ffffff88" stroke-width="1.2" transform="rotate(469.1 569.7 228.5)" />
  <rect x="115" y="538" width="670" height="88" rx="28" fill="#091612" stroke="#ffffff26" />
  <text x="450" y="586" text-anchor="middle" font-family="Arial, sans-serif" font-size="58" font-weight="700" fill="#ffffff">Garlic Granules</text>
  <text x="450" y="615" text-anchor="middle" font-family="Arial, sans-serif" font-size="24" fill="#d4ff00" letter-spacing="3">EXPORT QUALITY</text>
</svg>
