<svg xmlns="http://www.w3.org/2000/svg" width="900" height="700" viewBox="0 0 900 700" role="img" aria-labelledby="title desc">
  <title id="title">Ginger</title>
  <desc id="desc">Clean export product artwork for Ginger on a dark green background.</desc>
  <defs>
    <linearGradient id="background" x1="0" x2="1" y1="0" y2="1">
      <stop stop-color="#091612" />
      <stop offset="1" stop-color="#1a332b" />
    </linearGradient>
    <filter id="shadow"><feDropShadow dx="0" dy="18" stdDeviation="22" flood-color="#000000" flood-opacity=".35" /></filter>
  </defs>
  <rect width="900" height="700" fill="url(#background)" />
  <rect x="70" y="60" width="760" height="580" rx="52" fill="#132620" stroke="#ffffff20" stroke-width="2" />
  <circle cx="450" cy="300" r="210" fill="#0b1d18" opacity=".5" />
  <ellipse cx="450" cy="315" rx="235" ry="170" fill="#eee5cc" stroke="#d4ff00" stroke-width="7" filter="url(#shadow)" />
    <ellipse cx="483.0" cy="322.6" rx="12.0" ry="10.0" fill="#b8743f" stroke="#ffffff88" stroke-width="1.2" transform="rotate(13.6 483.0 322.6)" />
    <ellipse cx="521.8" cy="340.8" rx="16.8" ry="14.0" fill="#d7a66a" stroke="#ffffff88" stroke-width="1.2" transform="rotate(20.2 521.8 340.8)" />
    <ellipse cx="551.1" cy="367.1" rx="21.6" ry="18.0" fill="#7f5130" stroke="#ffffff88" stroke-width="1.2" transform="rotate(26.8 551.1 367.1)" />
    <ellipse cx="568.0" cy="399.9" rx="26.4" ry="22.0" fill="#b8743f" stroke="#ffffff88" stroke-width="1.2" transform="rotate(33.4 568.0 399.9)" />
    <ellipse cx="492.1" cy="357.7" rx="31.2" ry="26.0" fill="#d7a66a" stroke="#ffffff88" stroke-width="1.2" transform="rotate(40.1 492.1 357.7)" />
    <ellipse cx="499.1" cy="389.7" rx="12.0" ry="10.0" fill="#7f5130" stroke="#ffffff88" stroke-width="1.2" transform="rotate(46.7 499.1 389.7)" />
    <ellipse cx="490.7" cy="423.6" rx="16.8" ry="14.0" fill="#b8743f" stroke="#ffffff88" stroke-width="1.2" transform="rotate(53.3 490.7 423.6)" />
    <ellipse cx="455.4" cy="363.0" rx="21.6" ry="18.0" fill="#d7a66a" stroke="#ffffff88" stroke-width="1.2" transform="rotate(59.9 455.4 363.0)" />
    <ellipse cx="438.9" cy="393.3" rx="26.4" ry="22.0" fill="#7f5130" stroke="#ffffff88" stroke-width="1.2" transform="rotate(66.5 438.9 393.3)" />
    <ellipse cx="407.2" cy="420.6" rx="31.2" ry="26.0" fill="#b8743f" stroke="#ffffff88" stroke-width="1.2" transform="rotate(73.1 407.2 420.6)" />
    <ellipse cx="421.3" cy="356.5" rx="12.0" ry="10.0" fill="#d7a66a" stroke="#ffffff88" stroke-width="1.2" transform="rotate(79.7 421.3 356.5)" />
    <ellipse cx="385.1" cy="378.3" rx="16.8" ry="14.0" fill="#7f5130" stroke="#ffffff88" stroke-width="1.2" transform="rotate(86.4 385.1 378.3)" />
    <ellipse cx="337.8" cy="392.8" rx="21.6" ry="18.0" fill="#b8743f" stroke="#ffffff88" stroke-width="1.2" transform="rotate(93.0 337.8 392.8)" />
    <ellipse cx="397.5" cy="341.0" rx="26.4" ry="22.0" fill="#d7a66a" stroke="#ffffff88" stroke-width="1.2" transform="rotate(99.6 397.5 341.0)" />
    <ellipse cx="350.1" cy="349.4" rx="31.2" ry="26.0" fill="#7f5130" stroke="#ffffff88" stroke-width="1.2" transform="rotate(106.2 350.1 349.4)" />
    <ellipse cx="298.2" cy="347.9" rx="12.0" ry="10.0" fill="#b8743f" stroke="#ffffff88" stroke-width="1.2" transform="rotate(112.8 298.2 347.9)" />
    <ellipse cx="388.8" cy="321.3" rx="16.8" ry="14.0" fill="#d7a66a" stroke="#ffffff88" stroke-width="1.2" transform="rotate(119.4 388.8 321.3)" />
    <ellipse cx="341.0" cy="314.3" rx="21.6" ry="18.0" fill="#7f5130" stroke="#ffffff88" stroke-width="1.2" transform="rotate(126.0 341.0 314.3)" />
    <ellipse cx="296.4" cy="297.4" rx="26.4" ry="22.0" fill="#b8743f" stroke="#ffffff88" stroke-width="1.2" transform="rotate(132.6 296.4 297.4)" />
    <ellipse cx="395.3" cy="302.4" rx="31.2" ry="26.0" fill="#d7a66a" stroke="#ffffff88" stroke-width="1.2" transform="rotate(139.3 395.3 302.4)" />
    <ellipse cx="358.1" cy="282.0" rx="12.0" ry="10.0" fill="#7f5130" stroke="#ffffff88" stroke-width="1.2" transform="rotate(145.9 358.1 282.0)" />
    <ellipse cx="330.9" cy="253.6" rx="16.8" ry="14.0" fill="#b8743f" stroke="#ffffff88" stroke-width="1.2" transform="rotate(152.5 330.9 253.6)" />
    <ellipse cx="413.8" cy="289.0" rx="21.6" ry="18.0" fill="#d7a66a" stroke="#ffffff88" stroke-width="1.2" transform="rotate(159.1 413.8 289.0)" />
    <ellipse cx="395.5" cy="259.7" rx="26.4" ry="22.0" fill="#7f5130" stroke="#ffffff88" stroke-width="1.2" transform="rotate(165.7 395.5 259.7)" />
    <ellipse cx="391.8" cy="226.5" rx="31.2" ry="26.0" fill="#b8743f" stroke="#ffffff88" stroke-width="1.2" transform="rotate(172.3 391.8 226.5)" />
    <ellipse cx="438.2" cy="283.4" rx="12.0" ry="10.0" fill="#d7a66a" stroke="#ffffff88" stroke-width="1.2" transform="rotate(178.9 438.2 283.4)" />
    <ellipse cx="442.9" cy="252.1" rx="16.8" ry="14.0" fill="#7f5130" stroke="#ffffff88" stroke-width="1.2" transform="rotate(185.6 442.9 252.1)" />
    <ellipse cx="463.2" cy="221.8" rx="21.6" ry="18.0" fill="#b8743f" stroke="#ffffff88" stroke-width="1.2" transform="rotate(192.2 463.2 221.8)" />
    <ellipse cx="461.7" cy="286.1" rx="26.4" ry="22.0" fill="#d7a66a" stroke="#ffffff88" stroke-width="1.2" transform="rotate(198.8 461.7 286.1)" />
    <ellipse cx="488.1" cy="259.9" rx="31.2" ry="26.0" fill="#7f5130" stroke="#ffffff88" stroke-width="1.2" transform="rotate(205.4 488.1 259.9)" />
    <ellipse cx="527.7" cy="239.3" rx="12.0" ry="10.0" fill="#b8743f" stroke="#ffffff88" stroke-width="1.2" transform="rotate(212.0 527.7 239.3)" />
    <ellipse cx="478.7" cy="295.1" rx="16.8" ry="14.0" fill="#d7a66a" stroke="#ffffff88" stroke-width="1.2" transform="rotate(218.6 478.7 295.1)" />
    <ellipse cx="520.7" cy="279.9" rx="21.6" ry="18.0" fill="#7f5130" stroke="#ffffff88" stroke-width="1.2" transform="rotate(225.2 520.7 279.9)" />
    <ellipse cx="570.2" cy="273.7" rx="26.4" ry="22.0" fill="#b8743f" stroke="#ffffff88" stroke-width="1.2" transform="rotate(231.9 570.2 273.7)" />
    <ellipse cx="486.1" cy="307.2" rx="31.2" ry="26.0" fill="#d7a66a" stroke="#ffffff88" stroke-width="1.2" transform="rotate(238.5 486.1 307.2)" />
    <ellipse cx="534.0" cy="306.4" rx="12.0" ry="10.0" fill="#7f5130" stroke="#ffffff88" stroke-width="1.2" transform="rotate(245.1 534.0 306.4)" />
    <ellipse cx="582.0" cy="315.8" rx="16.8" ry="14.0" fill="#b8743f" stroke="#ffffff88" stroke-width="1.2" transform="rotate(251.7 582.0 315.8)" />
    <ellipse cx="626.3" cy="335.2" rx="21.6" ry="18.0" fill="#d7a66a" stroke="#ffffff88" stroke-width="1.2" transform="rotate(258.3 626.3 335.2)" />
  <rect x="115" y="538" width="670" height="88" rx="28" fill="#091612" stroke="#ffffff26" />
  <text x="450" y="586" text-anchor="middle" font-family="Arial, sans-serif" font-size="58" font-weight="700" fill="#ffffff">Ginger</text>
  <text x="450" y="615" text-anchor="middle" font-family="Arial, sans-serif" font-size="24" fill="#d4ff00" letter-spacing="3">EXPORT QUALITY</text>
</svg>
