<svg xmlns="http://www.w3.org/2000/svg" width="900" height="700" viewBox="0 0 900 700" role="img" aria-labelledby="title desc">
  <title id="title">Ginger Flakes/Powder</title>
  <desc id="desc">Clean export product artwork for Ginger Flakes/Powder on a dark green background.</desc>
  <defs>
    <linearGradient id="background" x1="0" x2="1" y1="0" y2="1">
      <stop stop-color="#091612" />
      <stop offset="1" stop-color="#1a332b" />
    </linearGradient>
    <filter id="shadow"><feDropShadow dx="0" dy="18" stdDeviation="22" flood-color="#000000" flood-opacity=".35" /></filter>
  </defs>
  <rect width="900" height="700" fill="url(#background)" />
  <rect x="70" y="60" width="760" height="580" rx="52" fill="#132620" stroke="#ffffff20" stroke-width="2" />
  <circle cx="450" cy="300" r="210" fill="#0b1d18" opacity=".5" />
  <ellipse cx="450" cy="315" rx="235" ry="170" fill="#eee5cc" stroke="#d4ff00" stroke-width="7" filter="url(#shadow)" />
    <ellipse cx="483.1" cy="307.6" rx="12.0" ry="10.0" fill="#b8743f" stroke="#ffffff88" stroke-width="1.2" transform="rotate(238.0 483.1 307.6)" />
    <ellipse cx="530.8" cy="306.1" rx="16.8" ry="14.0" fill="#d7a66a" stroke="#ffffff88" stroke-width="1.2" transform="rotate(244.6 530.8 306.1)" />
    <ellipse cx="579.0" cy="314.8" rx="21.6" ry="18.0" fill="#7f5130" stroke="#ffffff88" stroke-width="1.2" transform="rotate(251.2 579.0 314.8)" />
    <ellipse cx="623.7" cy="333.5" rx="26.4" ry="22.0" fill="#b8743f" stroke="#ffffff88" stroke-width="1.2" transform="rotate(257.8 623.7 333.5)" />
    <ellipse cx="523.8" cy="331.3" rx="31.2" ry="26.0" fill="#d7a66a" stroke="#ffffff88" stroke-width="1.2" transform="rotate(264.5 523.8 331.3)" />
    <ellipse cx="560.1" cy="353.5" rx="12.0" ry="10.0" fill="#7f5130" stroke="#ffffff88" stroke-width="1.2" transform="rotate(271.1 560.1 353.5)" />
    <ellipse cx="586.0" cy="383.4" rx="16.8" ry="14.0" fill="#b8743f" stroke="#ffffff88" stroke-width="1.2" transform="rotate(277.7 586.0 383.4)" />
    <ellipse cx="500.3" cy="350.3" rx="21.6" ry="18.0" fill="#d7a66a" stroke="#ffffff88" stroke-width="1.2" transform="rotate(284.3 500.3 350.3)" />
    <ellipse cx="516.4" cy="380.7" rx="26.4" ry="22.0" fill="#7f5130" stroke="#ffffff88" stroke-width="1.2" transform="rotate(290.9 516.4 380.7)" />
    <ellipse cx="517.9" cy="414.9" rx="31.2" ry="26.0" fill="#b8743f" stroke="#ffffff88" stroke-width="1.2" transform="rotate(297.5 517.9 414.9)" />
    <ellipse cx="467.4" cy="359.1" rx="12.0" ry="10.0" fill="#d7a66a" stroke="#ffffff88" stroke-width="1.2" transform="rotate(304.1 467.4 359.1)" />
    <ellipse cx="460.0" cy="390.8" rx="16.8" ry="14.0" fill="#7f5130" stroke="#ffffff88" stroke-width="1.2" transform="rotate(310.8 460.0 390.8)" />
    <ellipse cx="436.9" cy="421.3" rx="21.6" ry="18.0" fill="#b8743f" stroke="#ffffff88" stroke-width="1.2" transform="rotate(317.4 436.9 421.3)" />
    <ellipse cx="434.0" cy="356.6" rx="26.4" ry="22.0" fill="#d7a66a" stroke="#ffffff88" stroke-width="1.2" transform="rotate(324.0 434.0 356.6)" />
    <ellipse cx="404.9" cy="382.3" rx="31.2" ry="26.0" fill="#7f5130" stroke="#ffffff88" stroke-width="1.2" transform="rotate(330.6 404.9 382.3)" />
    <ellipse cx="362.8" cy="402.2" rx="12.0" ry="10.0" fill="#b8743f" stroke="#ffffff88" stroke-width="1.2" transform="rotate(337.2 362.8 402.2)" />
    <ellipse cx="408.1" cy="344.7" rx="16.8" ry="14.0" fill="#d7a66a" stroke="#ffffff88" stroke-width="1.2" transform="rotate(343.8 408.1 344.7)" />
    <ellipse cx="364.2" cy="358.7" rx="21.6" ry="18.0" fill="#7f5130" stroke="#ffffff88" stroke-width="1.2" transform="rotate(350.4 364.2 358.7)" />
    <ellipse cx="313.0" cy="363.5" rx="26.4" ry="22.0" fill="#b8743f" stroke="#ffffff88" stroke-width="1.2" transform="rotate(357.0 313.0 363.5)" />
    <ellipse cx="395.2" cy="327.3" rx="31.2" ry="26.0" fill="#d7a66a" stroke="#ffffff88" stroke-width="1.2" transform="rotate(363.7 395.2 327.3)" />
    <ellipse cx="346.5" cy="326.4" rx="12.0" ry="10.0" fill="#7f5130" stroke="#ffffff88" stroke-width="1.2" transform="rotate(370.3 346.5 326.4)" />
    <ellipse cx="298.0" cy="315.2" rx="16.8" ry="14.0" fill="#b8743f" stroke="#ffffff88" stroke-width="1.2" transform="rotate(376.9 298.0 315.2)" />
    <ellipse cx="396.7" cy="309.3" rx="21.6" ry="18.0" fill="#d7a66a" stroke="#ffffff88" stroke-width="1.2" transform="rotate(383.5 396.7 309.3)" />
    <ellipse cx="354.4" cy="293.8" rx="26.4" ry="22.0" fill="#7f5130" stroke="#ffffff88" stroke-width="1.2" transform="rotate(390.1 354.4 293.8)" />
    <ellipse cx="319.7" cy="269.4" rx="31.2" ry="26.0" fill="#b8743f" stroke="#ffffff88" stroke-width="1.2" transform="rotate(396.7 319.7 269.4)" />
    <ellipse cx="410.5" cy="295.1" rx="12.0" ry="10.0" fill="#d7a66a" stroke="#ffffff88" stroke-width="1.2" transform="rotate(403.3 410.5 295.1)" />
    <ellipse cx="384.1" cy="268.7" rx="16.8" ry="14.0" fill="#7f5130" stroke="#ffffff88" stroke-width="1.2" transform="rotate(410.0 384.1 268.7)" />
    <ellipse cx="370.9" cy="236.8" rx="21.6" ry="18.0" fill="#b8743f" stroke="#ffffff88" stroke-width="1.2" transform="rotate(416.6 370.9 236.8)" />
    <ellipse cx="431.4" cy="287.6" rx="26.4" ry="22.0" fill="#d7a66a" stroke="#ffffff88" stroke-width="1.2" transform="rotate(423.2 431.4 287.6)" />
    <ellipse cx="426.9" cy="256.4" rx="31.2" ry="26.0" fill="#7f5130" stroke="#ffffff88" stroke-width="1.2" transform="rotate(429.8 426.9 256.4)" />
    <ellipse cx="438.1" cy="224.3" rx="12.0" ry="10.0" fill="#b8743f" stroke="#ffffff88" stroke-width="1.2" transform="rotate(436.4 438.1 224.3)" />
    <ellipse cx="453.4" cy="287.8" rx="16.8" ry="14.0" fill="#d7a66a" stroke="#ffffff88" stroke-width="1.2" transform="rotate(443.0 453.4 287.8)" />
    <ellipse cx="471.6" cy="258.9" rx="21.6" ry="18.0" fill="#7f5130" stroke="#ffffff88" stroke-width="1.2" transform="rotate(449.6 471.6 258.9)" />
    <ellipse cx="504.3" cy="234.0" rx="26.4" ry="22.0" fill="#b8743f" stroke="#ffffff88" stroke-width="1.2" transform="rotate(456.3 504.3 234.0)" />
    <ellipse cx="470.7" cy="294.3" rx="31.2" ry="26.0" fill="#d7a66a" stroke="#ffffff88" stroke-width="1.2" transform="rotate(462.9 470.7 294.3)" />
    <ellipse cx="507.4" cy="274.3" rx="12.0" ry="10.0" fill="#7f5130" stroke="#ffffff88" stroke-width="1.2" transform="rotate(469.5 507.4 274.3)" />
    <ellipse cx="554.0" cy="262.1" rx="16.8" ry="14.0" fill="#b8743f" stroke="#ffffff88" stroke-width="1.2" transform="rotate(476.1 554.0 262.1)" />
    <ellipse cx="607.2" cy="259.4" rx="21.6" ry="18.0" fill="#d7a66a" stroke="#ffffff88" stroke-width="1.2" transform="rotate(482.7 607.2 259.4)" />
  <rect x="115" y="538" width="670" height="88" rx="28" fill="#091612" stroke="#ffffff26" />
  <text x="450" y="586" text-anchor="middle" font-family="Arial, sans-serif" font-size="48" font-weight="700" fill="#ffffff">Ginger Flakes/Powder</text>
  <text x="450" y="615" text-anchor="middle" font-family="Arial, sans-serif" font-size="24" fill="#d4ff00" letter-spacing="3">EXPORT QUALITY</text>
</svg>
