<svg xmlns="http://www.w3.org/2000/svg" width="900" height="700" viewBox="0 0 900 700" role="img" aria-labelledby="title desc">
  <title id="title">Green Chilli Powder</title>
  <desc id="desc">Clean export product artwork for Green Chilli Powder on a dark green background.</desc>
  <defs>
    <linearGradient id="background" x1="0" x2="1" y1="0" y2="1">
      <stop stop-color="#091612" />
      <stop offset="1" stop-color="#1a332b" />
    </linearGradient>
    <filter id="shadow"><feDropShadow dx="0" dy="18" stdDeviation="22" flood-color="#000000" flood-opacity=".35" /></filter>
  </defs>
  <rect width="900" height="700" fill="url(#background)" />
  <rect x="70" y="60" width="760" height="580" rx="52" fill="#132620" stroke="#ffffff20" stroke-width="2" />
  <circle cx="450" cy="300" r="210" fill="#0b1d18" opacity=".5" />
  <ellipse cx="450" cy="315" rx="235" ry="170" fill="#eee5cc" stroke="#d4ff00" stroke-width="7" filter="url(#shadow)" />
    <ellipse cx="485.0" cy="315.2" rx="12.0" ry="10.0" fill="#d9432f" stroke="#ffffff88" stroke-width="1.2" transform="rotate(251.6 485.0 315.2)" />
    <ellipse cx="530.8" cy="324.1" rx="16.8" ry="14.0" fill="#9d1f2d" stroke="#ffffff88" stroke-width="1.2" transform="rotate(258.2 530.8 324.1)" />
    <ellipse cx="571.7" cy="342.8" rx="21.6" ry="18.0" fill="#f06b48" stroke="#ffffff88" stroke-width="1.2" transform="rotate(264.8 571.7 342.8)" />
    <ellipse cx="604.2" cy="370.1" rx="26.4" ry="22.0" fill="#d9432f" stroke="#ffffff88" stroke-width="1.2" transform="rotate(271.4 604.2 370.1)" />
    <ellipse cx="511.2" cy="346.4" rx="31.2" ry="26.0" fill="#9d1f2d" stroke="#ffffff88" stroke-width="1.2" transform="rotate(278.1 511.2 346.4)" />
    <ellipse cx="534.0" cy="375.2" rx="12.0" ry="10.0" fill="#f06b48" stroke="#ffffff88" stroke-width="1.2" transform="rotate(284.7 534.0 375.2)" />
    <ellipse cx="543.1" cy="409.0" rx="16.8" ry="14.0" fill="#d9432f" stroke="#ffffff88" stroke-width="1.2" transform="rotate(291.3 543.1 409.0)" />
    <ellipse cx="479.3" cy="359.2" rx="21.6" ry="18.0" fill="#9d1f2d" stroke="#ffffff88" stroke-width="1.2" transform="rotate(297.9 479.3 359.2)" />
    <ellipse cx="478.9" cy="391.4" rx="26.4" ry="22.0" fill="#f06b48" stroke="#ffffff88" stroke-width="1.2" transform="rotate(304.5 478.9 391.4)" />
    <ellipse cx="462.7" cy="423.9" rx="31.2" ry="26.0" fill="#d9432f" stroke="#ffffff88" stroke-width="1.2" transform="rotate(311.1 462.7 423.9)" />
    <ellipse cx="443.7" cy="360.3" rx="12.0" ry="10.0" fill="#9d1f2d" stroke="#ffffff88" stroke-width="1.2" transform="rotate(317.7 443.7 360.3)" />
    <ellipse cx="420.5" cy="388.6" rx="16.8" ry="14.0" fill="#f06b48" stroke="#ffffff88" stroke-width="1.2" transform="rotate(324.4 420.5 388.6)" />
    <ellipse cx="383.1" cy="412.3" rx="21.6" ry="18.0" fill="#d9432f" stroke="#ffffff88" stroke-width="1.2" transform="rotate(331.0 383.1 412.3)" />
    <ellipse cx="413.5" cy="350.8" rx="26.4" ry="22.0" fill="#9d1f2d" stroke="#ffffff88" stroke-width="1.2" transform="rotate(337.6 413.5 350.8)" />
    <ellipse cx="372.9" cy="368.7" rx="31.2" ry="26.0" fill="#f06b48" stroke="#ffffff88" stroke-width="1.2" transform="rotate(344.2 372.9 368.7)" />
    <ellipse cx="323.1" cy="378.3" rx="12.0" ry="10.0" fill="#d9432f" stroke="#ffffff88" stroke-width="1.2" transform="rotate(350.8 323.1 378.3)" />
    <ellipse cx="395.3" cy="333.9" rx="16.8" ry="14.0" fill="#9d1f2d" stroke="#ffffff88" stroke-width="1.2" transform="rotate(357.4 395.3 333.9)" />
    <ellipse cx="346.7" cy="337.5" rx="21.6" ry="18.0" fill="#f06b48" stroke="#ffffff88" stroke-width="1.2" transform="rotate(364.0 346.7 337.5)" />
    <ellipse cx="296.0" cy="331.0" rx="26.4" ry="22.0" fill="#d9432f" stroke="#ffffff88" stroke-width="1.2" transform="rotate(370.6 296.0 331.0)" />
    <ellipse cx="392.0" cy="314.7" rx="31.2" ry="26.0" fill="#9d1f2d" stroke="#ffffff88" stroke-width="1.2" transform="rotate(377.3 392.0 314.7)" />
    <ellipse cx="346.6" cy="303.3" rx="12.0" ry="10.0" fill="#f06b48" stroke="#ffffff88" stroke-width="1.2" transform="rotate(383.9 346.6 303.3)" />
    <ellipse cx="306.6" cy="282.3" rx="16.8" ry="14.0" fill="#d9432f" stroke="#ffffff88" stroke-width="1.2" transform="rotate(390.5 306.6 282.3)" />
    <ellipse cx="402.7" cy="298.1" rx="21.6" ry="18.0" fill="#9d1f2d" stroke="#ffffff88" stroke-width="1.2" transform="rotate(397.1 402.7 298.1)" />
    <ellipse cx="370.7" cy="274.3" rx="26.4" ry="22.0" fill="#f06b48" stroke="#ffffff88" stroke-width="1.2" transform="rotate(403.7 370.7 274.3)" />
    <ellipse cx="350.5" cy="243.8" rx="31.2" ry="26.0" fill="#d9432f" stroke="#ffffff88" stroke-width="1.2" transform="rotate(410.3 350.5 243.8)" />
    <ellipse cx="422.9" cy="287.7" rx="12.0" ry="10.0" fill="#9d1f2d" stroke="#ffffff88" stroke-width="1.2" transform="rotate(416.9 422.9 287.7)" />
    <ellipse cx="411.6" cy="257.1" rx="16.8" ry="14.0" fill="#f06b48" stroke="#ffffff88" stroke-width="1.2" transform="rotate(423.6 411.6 257.1)" />
    <ellipse cx="415.6" cy="224.1" rx="21.6" ry="18.0" fill="#d9432f" stroke="#ffffff88" stroke-width="1.2" transform="rotate(430.2 415.6 224.1)" />
    <ellipse cx="446.5" cy="285.2" rx="26.4" ry="22.0" fill="#9d1f2d" stroke="#ffffff88" stroke-width="1.2" transform="rotate(436.8 446.5 285.2)" />
    <ellipse cx="458.3" cy="254.8" rx="31.2" ry="26.0" fill="#f06b48" stroke="#ffffff88" stroke-width="1.2" transform="rotate(443.4 458.3 254.8)" />
    <ellipse cx="485.3" cy="226.9" rx="12.0" ry="10.0" fill="#d9432f" stroke="#ffffff88" stroke-width="1.2" transform="rotate(450.0 485.3 226.9)" />
    <ellipse cx="467.1" cy="290.1" rx="16.8" ry="14.0" fill="#9d1f2d" stroke="#ffffff88" stroke-width="1.2" transform="rotate(456.6 467.1 290.1)" />
    <ellipse cx="499.2" cy="266.8" rx="21.6" ry="18.0" fill="#f06b48" stroke="#ffffff88" stroke-width="1.2" transform="rotate(463.2 499.2 266.8)" />
    <ellipse cx="542.8" cy="250.4" rx="26.4" ry="22.0" fill="#d9432f" stroke="#ffffff88" stroke-width="1.2" transform="rotate(469.9 542.8 250.4)" />
    <ellipse cx="480.1" cy="300.0" rx="31.2" ry="26.0" fill="#9d1f2d" stroke="#ffffff88" stroke-width="1.2" transform="rotate(476.5 480.1 300.0)" />
    <ellipse cx="525.0" cy="289.0" rx="12.0" ry="10.0" fill="#f06b48" stroke="#ffffff88" stroke-width="1.2" transform="rotate(483.1 525.0 289.0)" />
    <ellipse cx="575.1" cy="287.7" rx="16.8" ry="14.0" fill="#d9432f" stroke="#ffffff88" stroke-width="1.2" transform="rotate(489.7 575.1 287.7)" />
    <ellipse cx="626.8" cy="296.6" rx="21.6" ry="18.0" fill="#9d1f2d" stroke="#ffffff88" stroke-width="1.2" transform="rotate(496.3 626.8 296.6)" />
  <rect x="115" y="538" width="670" height="88" rx="28" fill="#091612" stroke="#ffffff26" />
  <text x="450" y="586" text-anchor="middle" font-family="Arial, sans-serif" font-size="48" font-weight="700" fill="#ffffff">Green Chilli Powder</text>
  <text x="450" y="615" text-anchor="middle" font-family="Arial, sans-serif" font-size="24" fill="#d4ff00" letter-spacing="3">EXPORT QUALITY</text>
</svg>
