<svg xmlns="http://www.w3.org/2000/svg" width="900" height="700" viewBox="0 0 900 700" role="img" aria-labelledby="title desc">
  <title id="title">Groundnut</title>
  <desc id="desc">Clean export product artwork for Groundnut on a dark green background.</desc>
  <defs>
    <linearGradient id="background" x1="0" x2="1" y1="0" y2="1">
      <stop stop-color="#091612" />
      <stop offset="1" stop-color="#1a332b" />
    </linearGradient>
    <filter id="shadow"><feDropShadow dx="0" dy="18" stdDeviation="22" flood-color="#000000" flood-opacity=".35" /></filter>
  </defs>
  <rect width="900" height="700" fill="url(#background)" />
  <rect x="70" y="60" width="760" height="580" rx="52" fill="#132620" stroke="#ffffff20" stroke-width="2" />
  <circle cx="450" cy="300" r="210" fill="#0b1d18" opacity=".5" />
  <ellipse cx="450" cy="315" rx="235" ry="170" fill="#eee5cc" stroke="#d4ff00" stroke-width="7" filter="url(#shadow)" />
    <ellipse cx="424.7" cy="330.7" rx="12.0" ry="10.0" fill="#caa66a" stroke="#ffffff88" stroke-width="1.2" transform="rotate(95.2 424.7 330.7)" />
    <ellipse cx="382.1" cy="344.9" rx="16.8" ry="14.0" fill="#e1c887" stroke="#ffffff88" stroke-width="1.2" transform="rotate(101.8 382.1 344.9)" />
    <ellipse cx="332.8" cy="350.0" rx="21.6" ry="18.0" fill="#8f6a3c" stroke="#ffffff88" stroke-width="1.2" transform="rotate(108.4 332.8 350.0)" />
    <ellipse cx="280.2" cy="345.0" rx="26.4" ry="22.0" fill="#caa66a" stroke="#ffffff88" stroke-width="1.2" transform="rotate(115.0 280.2 345.0)" />
    <ellipse cx="372.4" cy="320.1" rx="31.2" ry="26.0" fill="#e1c887" stroke="#ffffff88" stroke-width="1.2" transform="rotate(121.7 372.4 320.1)" />
    <ellipse cx="325.3" cy="309.7" rx="12.0" ry="10.0" fill="#8f6a3c" stroke="#ffffff88" stroke-width="1.2" transform="rotate(128.3 325.3 309.7)" />
    <ellipse cx="282.5" cy="289.5" rx="16.8" ry="14.0" fill="#caa66a" stroke="#ffffff88" stroke-width="1.2" transform="rotate(134.9 282.5 289.5)" />
    <ellipse cx="381.7" cy="296.5" rx="21.6" ry="18.0" fill="#e1c887" stroke="#ffffff88" stroke-width="1.2" transform="rotate(141.5 381.7 296.5)" />
    <ellipse cx="347.6" cy="273.1" rx="26.4" ry="22.0" fill="#8f6a3c" stroke="#ffffff88" stroke-width="1.2" transform="rotate(148.1 347.6 273.1)" />
    <ellipse cx="324.4" cy="242.5" rx="31.2" ry="26.0" fill="#caa66a" stroke="#ffffff88" stroke-width="1.2" transform="rotate(154.7 324.4 242.5)" />
    <ellipse cx="406.0" cy="279.6" rx="12.0" ry="10.0" fill="#e1c887" stroke="#ffffff88" stroke-width="1.2" transform="rotate(161.3 406.0 279.6)" />
    <ellipse cx="392.5" cy="248.8" rx="16.8" ry="14.0" fill="#8f6a3c" stroke="#ffffff88" stroke-width="1.2" transform="rotate(168.0 392.5 248.8)" />
    <ellipse cx="394.0" cy="214.8" rx="21.6" ry="18.0" fill="#caa66a" stroke="#ffffff88" stroke-width="1.2" transform="rotate(174.6 394.0 214.8)" />
    <ellipse cx="438.0" cy="272.8" rx="26.4" ry="22.0" fill="#e1c887" stroke="#ffffff88" stroke-width="1.2" transform="rotate(181.2 438.0 272.8)" />
    <ellipse cx="448.0" cy="241.6" rx="31.2" ry="26.0" fill="#8f6a3c" stroke="#ffffff88" stroke-width="1.2" transform="rotate(187.8 448.0 241.6)" />
    <ellipse cx="473.6" cy="212.1" rx="12.0" ry="10.0" fill="#caa66a" stroke="#ffffff88" stroke-width="1.2" transform="rotate(194.4 473.6 212.1)" />
    <ellipse cx="469.1" cy="276.7" rx="16.8" ry="14.0" fill="#e1c887" stroke="#ffffff88" stroke-width="1.2" transform="rotate(201.0 469.1 276.7)" />
    <ellipse cx="500.2" cy="252.1" rx="21.6" ry="18.0" fill="#8f6a3c" stroke="#ffffff88" stroke-width="1.2" transform="rotate(207.6 500.2 252.1)" />
    <ellipse cx="543.6" cy="233.9" rx="26.4" ry="22.0" fill="#caa66a" stroke="#ffffff88" stroke-width="1.2" transform="rotate(214.2 543.6 233.9)" />
    <ellipse cx="492.0" cy="289.0" rx="31.2" ry="26.0" fill="#e1c887" stroke="#ffffff88" stroke-width="1.2" transform="rotate(220.9 492.0 289.0)" />
    <ellipse cx="536.9" cy="276.7" rx="12.0" ry="10.0" fill="#8f6a3c" stroke="#ffffff88" stroke-width="1.2" transform="rotate(227.5 536.9 276.7)" />
    <ellipse cx="588.1" cy="273.7" rx="16.8" ry="14.0" fill="#caa66a" stroke="#ffffff88" stroke-width="1.2" transform="rotate(234.1 588.1 273.7)" />
    <ellipse cx="502.1" cy="305.8" rx="21.6" ry="18.0" fill="#e1c887" stroke="#ffffff88" stroke-width="1.2" transform="rotate(240.7 502.1 305.8)" />
    <ellipse cx="550.5" cy="308.4" rx="26.4" ry="22.0" fill="#8f6a3c" stroke="#ffffff88" stroke-width="1.2" transform="rotate(247.3 550.5 308.4)" />
    <ellipse cx="597.7" cy="321.3" rx="31.2" ry="26.0" fill="#caa66a" stroke="#ffffff88" stroke-width="1.2" transform="rotate(253.9 597.7 321.3)" />
    <ellipse cx="498.7" cy="322.4" rx="12.0" ry="10.0" fill="#e1c887" stroke="#ffffff88" stroke-width="1.2" transform="rotate(260.5 498.7 322.4)" />
    <ellipse cx="539.5" cy="339.3" rx="16.8" ry="14.0" fill="#8f6a3c" stroke="#ffffff88" stroke-width="1.2" transform="rotate(267.2 539.5 339.3)" />
    <ellipse cx="571.9" cy="364.8" rx="21.6" ry="18.0" fill="#caa66a" stroke="#ffffff88" stroke-width="1.2" transform="rotate(273.8 571.9 364.8)" />
    <ellipse cx="484.4" cy="334.9" rx="26.4" ry="22.0" fill="#e1c887" stroke="#ffffff88" stroke-width="1.2" transform="rotate(280.4 484.4 334.9)" />
    <ellipse cx="508.4" cy="362.0" rx="31.2" ry="26.0" fill="#8f6a3c" stroke="#ffffff88" stroke-width="1.2" transform="rotate(287.0 508.4 362.0)" />
    <ellipse cx="518.8" cy="394.3" rx="12.0" ry="10.0" fill="#caa66a" stroke="#ffffff88" stroke-width="1.2" transform="rotate(293.6 518.8 394.3)" />
    <ellipse cx="464.3" cy="340.7" rx="16.8" ry="14.0" fill="#e1c887" stroke="#ffffff88" stroke-width="1.2" transform="rotate(300.2 464.3 340.7)" />
    <ellipse cx="466.2" cy="371.9" rx="21.6" ry="18.0" fill="#8f6a3c" stroke="#ffffff88" stroke-width="1.2" transform="rotate(306.8 466.2 371.9)" />
    <ellipse cx="452.4" cy="403.4" rx="26.4" ry="22.0" fill="#caa66a" stroke="#ffffff88" stroke-width="1.2" transform="rotate(313.5 452.4 403.4)" />
    <ellipse cx="444.4" cy="339.4" rx="31.2" ry="26.0" fill="#e1c887" stroke="#ffffff88" stroke-width="1.2" transform="rotate(320.1 444.4 339.4)" />
    <ellipse cx="423.8" cy="367.6" rx="12.0" ry="10.0" fill="#8f6a3c" stroke="#ffffff88" stroke-width="1.2" transform="rotate(326.7 423.8 367.6)" />
    <ellipse cx="389.2" cy="391.2" rx="16.8" ry="14.0" fill="#caa66a" stroke="#ffffff88" stroke-width="1.2" transform="rotate(333.3 389.2 391.2)" />
    <ellipse cx="342.5" cy="408.1" rx="21.6" ry="18.0" fill="#e1c887" stroke="#ffffff88" stroke-width="1.2" transform="rotate(339.9 342.5 408.1)" />
  <rect x="115" y="538" width="670" height="88" rx="28" fill="#091612" stroke="#ffffff26" />
  <text x="450" y="586" text-anchor="middle" font-family="Arial, sans-serif" font-size="58" font-weight="700" fill="#ffffff">Groundnut</text>
  <text x="450" y="615" text-anchor="middle" font-family="Arial, sans-serif" font-size="24" fill="#d4ff00" letter-spacing="3">EXPORT QUALITY</text>
</svg>
