<svg xmlns="http://www.w3.org/2000/svg" width="900" height="700" viewBox="0 0 900 700" role="img" aria-labelledby="title desc">
  <title id="title">Kabuli Chickpeas</title>
  <desc id="desc">Clean export product artwork for Kabuli Chickpeas on a dark green background.</desc>
  <defs>
    <linearGradient id="background" x1="0" x2="1" y1="0" y2="1">
      <stop stop-color="#091612" />
      <stop offset="1" stop-color="#1a332b" />
    </linearGradient>
    <filter id="shadow"><feDropShadow dx="0" dy="18" stdDeviation="22" flood-color="#000000" flood-opacity=".35" /></filter>
  </defs>
  <rect width="900" height="700" fill="url(#background)" />
  <rect x="70" y="60" width="760" height="580" rx="52" fill="#132620" stroke="#ffffff20" stroke-width="2" />
  <circle cx="450" cy="300" r="210" fill="#0b1d18" opacity=".5" />
  <ellipse cx="450" cy="315" rx="235" ry="170" fill="#eee5cc" stroke="#d4ff00" stroke-width="7" filter="url(#shadow)" />
    <ellipse cx="482.9" cy="322.7" rx="12.0" ry="10.0" fill="#caa66a" stroke="#ffffff88" stroke-width="1.2" transform="rotate(265.2 482.9 322.7)" />
    <ellipse cx="521.5" cy="341.1" rx="16.8" ry="14.0" fill="#e1c887" stroke="#ffffff88" stroke-width="1.2" transform="rotate(271.8 521.5 341.1)" />
    <ellipse cx="550.5" cy="367.6" rx="21.6" ry="18.0" fill="#8f6a3c" stroke="#ffffff88" stroke-width="1.2" transform="rotate(278.4 550.5 367.6)" />
    <ellipse cx="567.1" cy="400.4" rx="26.4" ry="22.0" fill="#caa66a" stroke="#ffffff88" stroke-width="1.2" transform="rotate(285.0 567.1 400.4)" />
    <ellipse cx="491.6" cy="357.9" rx="31.2" ry="26.0" fill="#e1c887" stroke="#ffffff88" stroke-width="1.2" transform="rotate(291.7 491.6 357.9)" />
    <ellipse cx="498.4" cy="389.9" rx="12.0" ry="10.0" fill="#8f6a3c" stroke="#ffffff88" stroke-width="1.2" transform="rotate(298.3 498.4 389.9)" />
    <ellipse cx="489.5" cy="423.8" rx="16.8" ry="14.0" fill="#caa66a" stroke="#ffffff88" stroke-width="1.2" transform="rotate(304.9 489.5 423.8)" />
    <ellipse cx="454.9" cy="363.0" rx="21.6" ry="18.0" fill="#e1c887" stroke="#ffffff88" stroke-width="1.2" transform="rotate(311.5 454.9 363.0)" />
    <ellipse cx="438.1" cy="393.3" rx="26.4" ry="22.0" fill="#8f6a3c" stroke="#ffffff88" stroke-width="1.2" transform="rotate(318.1 438.1 393.3)" />
    <ellipse cx="406.1" cy="420.4" rx="31.2" ry="26.0" fill="#caa66a" stroke="#ffffff88" stroke-width="1.2" transform="rotate(324.7 406.1 420.4)" />
    <ellipse cx="420.9" cy="356.4" rx="12.0" ry="10.0" fill="#e1c887" stroke="#ffffff88" stroke-width="1.2" transform="rotate(331.3 420.9 356.4)" />
    <ellipse cx="384.4" cy="378.0" rx="16.8" ry="14.0" fill="#8f6a3c" stroke="#ffffff88" stroke-width="1.2" transform="rotate(338.0 384.4 378.0)" />
    <ellipse cx="337.0" cy="392.3" rx="21.6" ry="18.0" fill="#caa66a" stroke="#ffffff88" stroke-width="1.2" transform="rotate(344.6 337.0 392.3)" />
    <ellipse cx="397.3" cy="340.8" rx="26.4" ry="22.0" fill="#e1c887" stroke="#ffffff88" stroke-width="1.2" transform="rotate(351.2 397.3 340.8)" />
    <ellipse cx="349.8" cy="348.9" rx="31.2" ry="26.0" fill="#8f6a3c" stroke="#ffffff88" stroke-width="1.2" transform="rotate(357.8 349.8 348.9)" />
    <ellipse cx="297.9" cy="347.2" rx="12.0" ry="10.0" fill="#caa66a" stroke="#ffffff88" stroke-width="1.2" transform="rotate(364.4 297.9 347.2)" />
    <ellipse cx="388.7" cy="321.0" rx="16.8" ry="14.0" fill="#e1c887" stroke="#ffffff88" stroke-width="1.2" transform="rotate(371.0 388.7 321.0)" />
    <ellipse cx="341.0" cy="313.9" rx="21.6" ry="18.0" fill="#8f6a3c" stroke="#ffffff88" stroke-width="1.2" transform="rotate(377.6 341.0 313.9)" />
    <ellipse cx="296.6" cy="296.7" rx="26.4" ry="22.0" fill="#caa66a" stroke="#ffffff88" stroke-width="1.2" transform="rotate(384.2 296.6 296.7)" />
    <ellipse cx="395.5" cy="302.2" rx="31.2" ry="26.0" fill="#e1c887" stroke="#ffffff88" stroke-width="1.2" transform="rotate(390.9 395.5 302.2)" />
    <ellipse cx="358.5" cy="281.6" rx="12.0" ry="10.0" fill="#8f6a3c" stroke="#ffffff88" stroke-width="1.2" transform="rotate(397.5 358.5 281.6)" />
    <ellipse cx="331.6" cy="253.1" rx="16.8" ry="14.0" fill="#caa66a" stroke="#ffffff88" stroke-width="1.2" transform="rotate(404.1 331.6 253.1)" />
    <ellipse cx="414.1" cy="288.8" rx="21.6" ry="18.0" fill="#e1c887" stroke="#ffffff88" stroke-width="1.2" transform="rotate(410.7 414.1 288.8)" />
    <ellipse cx="396.1" cy="259.5" rx="26.4" ry="22.0" fill="#8f6a3c" stroke="#ffffff88" stroke-width="1.2" transform="rotate(417.3 396.1 259.5)" />
    <ellipse cx="392.7" cy="226.3" rx="31.2" ry="26.0" fill="#caa66a" stroke="#ffffff88" stroke-width="1.2" transform="rotate(423.9 392.7 226.3)" />
    <ellipse cx="438.5" cy="283.4" rx="12.0" ry="10.0" fill="#e1c887" stroke="#ffffff88" stroke-width="1.2" transform="rotate(430.5 438.5 283.4)" />
    <ellipse cx="443.5" cy="252.1" rx="16.8" ry="14.0" fill="#8f6a3c" stroke="#ffffff88" stroke-width="1.2" transform="rotate(437.2 443.5 252.1)" />
    <ellipse cx="464.2" cy="221.9" rx="21.6" ry="18.0" fill="#caa66a" stroke="#ffffff88" stroke-width="1.2" transform="rotate(443.8 464.2 221.9)" />
    <ellipse cx="462.0" cy="286.1" rx="26.4" ry="22.0" fill="#e1c887" stroke="#ffffff88" stroke-width="1.2" transform="rotate(450.4 462.0 286.1)" />
    <ellipse cx="488.7" cy="260.0" rx="31.2" ry="26.0" fill="#8f6a3c" stroke="#ffffff88" stroke-width="1.2" transform="rotate(457.0 488.7 260.0)" />
    <ellipse cx="528.5" cy="239.6" rx="12.0" ry="10.0" fill="#caa66a" stroke="#ffffff88" stroke-width="1.2" transform="rotate(463.6 528.5 239.6)" />
    <ellipse cx="478.9" cy="295.2" rx="16.8" ry="14.0" fill="#e1c887" stroke="#ffffff88" stroke-width="1.2" transform="rotate(470.2 478.9 295.2)" />
    <ellipse cx="521.1" cy="280.2" rx="21.6" ry="18.0" fill="#8f6a3c" stroke="#ffffff88" stroke-width="1.2" transform="rotate(476.8 521.1 280.2)" />
    <ellipse cx="570.6" cy="274.2" rx="26.4" ry="22.0" fill="#caa66a" stroke="#ffffff88" stroke-width="1.2" transform="rotate(483.5 570.6 274.2)" />
    <ellipse cx="486.1" cy="307.4" rx="31.2" ry="26.0" fill="#e1c887" stroke="#ffffff88" stroke-width="1.2" transform="rotate(490.1 486.1 307.4)" />
    <ellipse cx="534.1" cy="306.8" rx="12.0" ry="10.0" fill="#8f6a3c" stroke="#ffffff88" stroke-width="1.2" transform="rotate(496.7 534.1 306.8)" />
    <ellipse cx="582.0" cy="316.4" rx="16.8" ry="14.0" fill="#caa66a" stroke="#ffffff88" stroke-width="1.2" transform="rotate(503.3 582.0 316.4)" />
    <ellipse cx="626.1" cy="336.0" rx="21.6" ry="18.0" fill="#e1c887" stroke="#ffffff88" stroke-width="1.2" transform="rotate(509.9 626.1 336.0)" />
  <rect x="115" y="538" width="670" height="88" rx="28" fill="#091612" stroke="#ffffff26" />
  <text x="450" y="586" text-anchor="middle" font-family="Arial, sans-serif" font-size="48" font-weight="700" fill="#ffffff">Kabuli Chickpeas</text>
  <text x="450" y="615" text-anchor="middle" font-family="Arial, sans-serif" font-size="24" fill="#d4ff00" letter-spacing="3">EXPORT QUALITY</text>
</svg>
