<svg xmlns="http://www.w3.org/2000/svg" width="900" height="700" viewBox="0 0 900 700" role="img" aria-labelledby="title desc">
  <title id="title">Moong Dal</title>
  <desc id="desc">Clean export product artwork for Moong Dal on a dark green background.</desc>
  <defs>
    <linearGradient id="background" x1="0" x2="1" y1="0" y2="1">
      <stop stop-color="#091612" />
      <stop offset="1" stop-color="#1a332b" />
    </linearGradient>
    <filter id="shadow"><feDropShadow dx="0" dy="18" stdDeviation="22" flood-color="#000000" flood-opacity=".35" /></filter>
  </defs>
  <rect width="900" height="700" fill="url(#background)" />
  <rect x="70" y="60" width="760" height="580" rx="52" fill="#132620" stroke="#ffffff20" stroke-width="2" />
  <circle cx="450" cy="300" r="210" fill="#0b1d18" opacity=".5" />
  <ellipse cx="450" cy="315" rx="235" ry="170" fill="#eee5cc" stroke="#d4ff00" stroke-width="7" filter="url(#shadow)" />
    <ellipse cx="462.8" cy="336.2" rx="12.0" ry="10.0" fill="#caa66a" stroke="#ffffff88" stroke-width="1.2" transform="rotate(299.2 462.8 336.2)" />
    <ellipse cx="467.0" cy="367.1" rx="16.8" ry="14.0" fill="#e1c887" stroke="#ffffff88" stroke-width="1.2" transform="rotate(305.8 467.0 367.1)" />
    <ellipse cx="455.6" cy="398.8" rx="21.6" ry="18.0" fill="#8f6a3c" stroke="#ffffff88" stroke-width="1.2" transform="rotate(312.4 455.6 398.8)" />
    <ellipse cx="428.6" cy="428.5" rx="26.4" ry="22.0" fill="#caa66a" stroke="#ffffff88" stroke-width="1.2" transform="rotate(319.0 428.6 428.5)" />
    <ellipse cx="427.9" cy="363.6" rx="31.2" ry="26.0" fill="#e1c887" stroke="#ffffff88" stroke-width="1.2" transform="rotate(325.7 427.9 363.6)" />
    <ellipse cx="395.3" cy="388.1" rx="12.0" ry="10.0" fill="#8f6a3c" stroke="#ffffff88" stroke-width="1.2" transform="rotate(332.3 395.3 388.1)" />
    <ellipse cx="350.3" cy="406.1" rx="16.8" ry="14.0" fill="#caa66a" stroke="#ffffff88" stroke-width="1.2" transform="rotate(338.9 350.3 406.1)" />
    <ellipse cx="397.8" cy="349.1" rx="21.6" ry="18.0" fill="#e1c887" stroke="#ffffff88" stroke-width="1.2" transform="rotate(345.5 397.8 349.1)" />
    <ellipse cx="351.7" cy="360.8" rx="26.4" ry="22.0" fill="#8f6a3c" stroke="#ffffff88" stroke-width="1.2" transform="rotate(352.1 351.7 360.8)" />
    <ellipse cx="299.2" cy="363.2" rx="31.2" ry="26.0" fill="#caa66a" stroke="#ffffff88" stroke-width="1.2" transform="rotate(358.7 299.2 363.2)" />
    <ellipse cx="382.9" cy="328.1" rx="12.0" ry="10.0" fill="#e1c887" stroke="#ffffff88" stroke-width="1.2" transform="rotate(365.3 382.9 328.1)" />
    <ellipse cx="333.9" cy="324.6" rx="16.8" ry="14.0" fill="#8f6a3c" stroke="#ffffff88" stroke-width="1.2" transform="rotate(372.0 333.9 324.6)" />
    <ellipse cx="286.1" cy="310.8" rx="21.6" ry="18.0" fill="#caa66a" stroke="#ffffff88" stroke-width="1.2" transform="rotate(378.6 286.1 310.8)" />
    <ellipse cx="385.4" cy="306.3" rx="26.4" ry="22.0" fill="#e1c887" stroke="#ffffff88" stroke-width="1.2" transform="rotate(385.2 385.4 306.3)" />
    <ellipse cx="344.7" cy="288.4" rx="31.2" ry="26.0" fill="#8f6a3c" stroke="#ffffff88" stroke-width="1.2" transform="rotate(391.8 344.7 288.4)" />
    <ellipse cx="312.4" cy="261.9" rx="12.0" ry="10.0" fill="#caa66a" stroke="#ffffff88" stroke-width="1.2" transform="rotate(398.4 312.4 261.9)" />
    <ellipse cx="402.6" cy="289.0" rx="16.8" ry="14.0" fill="#e1c887" stroke="#ffffff88" stroke-width="1.2" transform="rotate(405.0 402.6 289.0)" />
    <ellipse cx="379.4" cy="261.0" rx="21.6" ry="18.0" fill="#8f6a3c" stroke="#ffffff88" stroke-width="1.2" transform="rotate(411.6 379.4 261.0)" />
    <ellipse cx="369.9" cy="228.0" rx="26.4" ry="22.0" fill="#caa66a" stroke="#ffffff88" stroke-width="1.2" transform="rotate(418.2 369.9 228.0)" />
    <ellipse cx="428.8" cy="279.9" rx="31.2" ry="26.0" fill="#e1c887" stroke="#ffffff88" stroke-width="1.2" transform="rotate(424.9 428.8 279.9)" />
    <ellipse cx="428.3" cy="248.2" rx="12.0" ry="10.0" fill="#8f6a3c" stroke="#ffffff88" stroke-width="1.2" transform="rotate(431.5 428.3 248.2)" />
    <ellipse cx="443.4" cy="216.3" rx="16.8" ry="14.0" fill="#caa66a" stroke="#ffffff88" stroke-width="1.2" transform="rotate(438.1 443.4 216.3)" />
    <ellipse cx="456.6" cy="280.2" rx="21.6" ry="18.0" fill="#e1c887" stroke="#ffffff88" stroke-width="1.2" transform="rotate(444.7 456.6 280.2)" />
    <ellipse cx="478.6" cy="252.0" rx="26.4" ry="22.0" fill="#8f6a3c" stroke="#ffffff88" stroke-width="1.2" transform="rotate(451.3 478.6 252.0)" />
    <ellipse cx="514.7" cy="228.5" rx="31.2" ry="26.0" fill="#caa66a" stroke="#ffffff88" stroke-width="1.2" transform="rotate(457.9 514.7 228.5)" />
    <ellipse cx="479.0" cy="288.5" rx="12.0" ry="10.0" fill="#e1c887" stroke="#ffffff88" stroke-width="1.2" transform="rotate(464.5 479.0 288.5)" />
    <ellipse cx="518.5" cy="270.3" rx="16.8" ry="14.0" fill="#8f6a3c" stroke="#ffffff88" stroke-width="1.2" transform="rotate(471.2 518.5 270.3)" />
    <ellipse cx="567.0" cy="260.5" rx="21.6" ry="18.0" fill="#caa66a" stroke="#ffffff88" stroke-width="1.2" transform="rotate(477.8 567.0 260.5)" />
    <ellipse cx="491.3" cy="301.8" rx="26.4" ry="22.0" fill="#e1c887" stroke="#ffffff88" stroke-width="1.2" transform="rotate(484.4 491.3 301.8)" />
    <ellipse cx="539.1" cy="297.6" rx="31.2" ry="26.0" fill="#8f6a3c" stroke="#ffffff88" stroke-width="1.2" transform="rotate(491.0 539.1 297.6)" />
    <ellipse cx="588.9" cy="303.6" rx="12.0" ry="10.0" fill="#caa66a" stroke="#ffffff88" stroke-width="1.2" transform="rotate(497.6 588.9 303.6)" />
    <ellipse cx="492.0" cy="316.1" rx="16.8" ry="14.0" fill="#e1c887" stroke="#ffffff88" stroke-width="1.2" transform="rotate(504.2 492.0 316.1)" />
    <ellipse cx="537.1" cy="326.8" rx="21.6" ry="18.0" fill="#8f6a3c" stroke="#ffffff88" stroke-width="1.2" transform="rotate(510.8 537.1 326.8)" />
    <ellipse cx="576.8" cy="347.0" rx="26.4" ry="22.0" fill="#caa66a" stroke="#ffffff88" stroke-width="1.2" transform="rotate(517.5 576.8 347.0)" />
    <ellipse cx="482.7" cy="327.6" rx="31.2" ry="26.0" fill="#e1c887" stroke="#ffffff88" stroke-width="1.2" transform="rotate(524.1 482.7 327.6)" />
    <ellipse cx="515.0" cy="350.6" rx="12.0" ry="10.0" fill="#8f6a3c" stroke="#ffffff88" stroke-width="1.2" transform="rotate(530.7 515.0 350.6)" />
    <ellipse cx="535.5" cy="380.4" rx="16.8" ry="14.0" fill="#caa66a" stroke="#ffffff88" stroke-width="1.2" transform="rotate(537.3 535.5 380.4)" />
    <ellipse cx="541.9" cy="414.8" rx="21.6" ry="18.0" fill="#e1c887" stroke="#ffffff88" stroke-width="1.2" transform="rotate(543.9 541.9 414.8)" />
  <rect x="115" y="538" width="670" height="88" rx="28" fill="#091612" stroke="#ffffff26" />
  <text x="450" y="586" text-anchor="middle" font-family="Arial, sans-serif" font-size="58" font-weight="700" fill="#ffffff">Moong Dal</text>
  <text x="450" y="615" text-anchor="middle" font-family="Arial, sans-serif" font-size="24" fill="#d4ff00" letter-spacing="3">EXPORT QUALITY</text>
</svg>
