<svg xmlns="http://www.w3.org/2000/svg" width="900" height="700" viewBox="0 0 900 700" role="img" aria-labelledby="title desc">
  <title id="title">Moringa Powder</title>
  <desc id="desc">Clean export product artwork for Moringa Powder on a dark green background.</desc>
  <defs>
    <linearGradient id="background" x1="0" x2="1" y1="0" y2="1">
      <stop stop-color="#091612" />
      <stop offset="1" stop-color="#1a332b" />
    </linearGradient>
    <filter id="shadow"><feDropShadow dx="0" dy="18" stdDeviation="22" flood-color="#000000" flood-opacity=".35" /></filter>
  </defs>
  <rect width="900" height="700" fill="url(#background)" />
  <rect x="70" y="60" width="760" height="580" rx="52" fill="#132620" stroke="#ffffff20" stroke-width="2" />
  <circle cx="450" cy="300" r="210" fill="#0b1d18" opacity=".5" />
  <ellipse cx="450" cy="315" rx="235" ry="170" fill="#eee5cc" stroke="#d4ff00" stroke-width="7" filter="url(#shadow)" />
    <ellipse cx="418.2" cy="305.5" rx="12.0" ry="10.0" fill="#578a45" stroke="#ffffff88" stroke-width="1.2" transform="rotate(142.8 418.2 305.5)" />
    <ellipse cx="382.0" cy="285.2" rx="16.8" ry="14.0" fill="#7ba35a" stroke="#ffffff88" stroke-width="1.2" transform="rotate(149.4 382.0 285.2)" />
    <ellipse cx="356.4" cy="257.3" rx="21.6" ry="18.0" fill="#315d34" stroke="#ffffff88" stroke-width="1.2" transform="rotate(156.0 356.4 257.3)" />
    <ellipse cx="344.0" cy="223.7" rx="26.4" ry="22.0" fill="#578a45" stroke="#ffffff88" stroke-width="1.2" transform="rotate(162.6 344.0 223.7)" />
    <ellipse cx="413.9" cy="270.1" rx="31.2" ry="26.0" fill="#7ba35a" stroke="#ffffff88" stroke-width="1.2" transform="rotate(169.3 413.9 270.1)" />
    <ellipse cx="411.2" cy="237.8" rx="12.0" ry="10.0" fill="#315d34" stroke="#ffffff88" stroke-width="1.2" transform="rotate(175.9 411.2 237.8)" />
    <ellipse cx="424.2" cy="204.5" rx="16.8" ry="14.0" fill="#578a45" stroke="#ffffff88" stroke-width="1.2" transform="rotate(182.5 424.2 204.5)" />
    <ellipse cx="451.1" cy="266.9" rx="21.6" ry="18.0" fill="#7ba35a" stroke="#ffffff88" stroke-width="1.2" transform="rotate(189.1 451.1 266.9)" />
    <ellipse cx="471.7" cy="237.6" rx="26.4" ry="22.0" fill="#315d34" stroke="#ffffff88" stroke-width="1.2" transform="rotate(195.7 471.7 237.6)" />
    <ellipse cx="506.9" cy="212.3" rx="31.2" ry="26.0" fill="#578a45" stroke="#ffffff88" stroke-width="1.2" transform="rotate(202.3 506.9 212.3)" />
    <ellipse cx="484.2" cy="275.3" rx="12.0" ry="10.0" fill="#7ba35a" stroke="#ffffff88" stroke-width="1.2" transform="rotate(208.9 484.2 275.3)" />
    <ellipse cx="523.2" cy="255.7" rx="16.8" ry="14.0" fill="#315d34" stroke="#ffffff88" stroke-width="1.2" transform="rotate(215.6 523.2 255.7)" />
    <ellipse cx="572.3" cy="244.0" rx="21.6" ry="18.0" fill="#578a45" stroke="#ffffff88" stroke-width="1.2" transform="rotate(222.2 572.3 244.0)" />
    <ellipse cx="505.8" cy="292.1" rx="26.4" ry="22.0" fill="#7ba35a" stroke="#ffffff88" stroke-width="1.2" transform="rotate(228.8 505.8 292.1)" />
    <ellipse cx="554.2" cy="286.5" rx="31.2" ry="26.0" fill="#315d34" stroke="#ffffff88" stroke-width="1.2" transform="rotate(235.4 554.2 286.5)" />
    <ellipse cx="605.7" cy="291.0" rx="12.0" ry="10.0" fill="#578a45" stroke="#ffffff88" stroke-width="1.2" transform="rotate(242.0 605.7 291.0)" />
    <ellipse cx="511.9" cy="312.3" rx="16.8" ry="14.0" fill="#7ba35a" stroke="#ffffff88" stroke-width="1.2" transform="rotate(248.6 511.9 312.3)" />
    <ellipse cx="558.5" cy="321.9" rx="21.6" ry="18.0" fill="#315d34" stroke="#ffffff88" stroke-width="1.2" transform="rotate(255.2 558.5 321.9)" />
    <ellipse cx="600.6" cy="341.4" rx="26.4" ry="22.0" fill="#578a45" stroke="#ffffff88" stroke-width="1.2" transform="rotate(261.8 600.6 341.4)" />
    <ellipse cx="502.8" cy="330.7" rx="31.2" ry="26.0" fill="#7ba35a" stroke="#ffffff88" stroke-width="1.2" transform="rotate(268.5 502.8 330.7)" />
    <ellipse cx="537.0" cy="353.2" rx="12.0" ry="10.0" fill="#315d34" stroke="#ffffff88" stroke-width="1.2" transform="rotate(275.1 537.0 353.2)" />
    <ellipse cx="560.3" cy="383.0" rx="16.8" ry="14.0" fill="#578a45" stroke="#ffffff88" stroke-width="1.2" transform="rotate(281.7 560.3 383.0)" />
    <ellipse cx="482.5" cy="343.0" rx="21.6" ry="18.0" fill="#7ba35a" stroke="#ffffff88" stroke-width="1.2" transform="rotate(288.3 482.5 343.0)" />
    <ellipse cx="496.7" cy="373.2" rx="26.4" ry="22.0" fill="#315d34" stroke="#ffffff88" stroke-width="1.2" transform="rotate(294.9 496.7 373.2)" />
    <ellipse cx="495.9" cy="406.4" rx="31.2" ry="26.0" fill="#578a45" stroke="#ffffff88" stroke-width="1.2" transform="rotate(301.5 495.9 406.4)" />
    <ellipse cx="457.5" cy="347.1" rx="12.0" ry="10.0" fill="#7ba35a" stroke="#ffffff88" stroke-width="1.2" transform="rotate(308.1 457.5 347.1)" />
    <ellipse cx="448.5" cy="378.0" rx="16.8" ry="14.0" fill="#315d34" stroke="#ffffff88" stroke-width="1.2" transform="rotate(314.8 448.5 378.0)" />
    <ellipse cx="424.2" cy="407.1" rx="21.6" ry="18.0" fill="#578a45" stroke="#ffffff88" stroke-width="1.2" transform="rotate(321.4 424.2 407.1)" />
    <ellipse cx="434.4" cy="343.1" rx="26.4" ry="22.0" fill="#7ba35a" stroke="#ffffff88" stroke-width="1.2" transform="rotate(328.0 434.4 343.1)" />
    <ellipse cx="404.5" cy="367.7" rx="31.2" ry="26.0" fill="#315d34" stroke="#ffffff88" stroke-width="1.2" transform="rotate(334.6 404.5 367.7)" />
    <ellipse cx="362.4" cy="386.0" rx="12.0" ry="10.0" fill="#578a45" stroke="#ffffff88" stroke-width="1.2" transform="rotate(341.2 362.4 386.0)" />
    <ellipse cx="418.7" cy="333.2" rx="16.8" ry="14.0" fill="#7ba35a" stroke="#ffffff88" stroke-width="1.2" transform="rotate(347.8 418.7 333.2)" />
    <ellipse cx="374.8" cy="345.9" rx="21.6" ry="18.0" fill="#315d34" stroke="#ffffff88" stroke-width="1.2" transform="rotate(354.4 374.8 345.9)" />
    <ellipse cx="324.6" cy="349.3" rx="26.4" ry="22.0" fill="#578a45" stroke="#ffffff88" stroke-width="1.2" transform="rotate(361.1 324.6 349.3)" />
    <ellipse cx="413.0" cy="320.7" rx="31.2" ry="26.0" fill="#7ba35a" stroke="#ffffff88" stroke-width="1.2" transform="rotate(367.7 413.0 320.7)" />
    <ellipse cx="365.2" cy="318.7" rx="12.0" ry="10.0" fill="#315d34" stroke="#ffffff88" stroke-width="1.2" transform="rotate(374.3 365.2 318.7)" />
    <ellipse cx="318.6" cy="306.6" rx="16.8" ry="14.0" fill="#578a45" stroke="#ffffff88" stroke-width="1.2" transform="rotate(380.9 318.6 306.6)" />
    <ellipse cx="277.2" cy="284.7" rx="21.6" ry="18.0" fill="#7ba35a" stroke="#ffffff88" stroke-width="1.2" transform="rotate(387.5 277.2 284.7)" />
  <rect x="115" y="538" width="670" height="88" rx="28" fill="#091612" stroke="#ffffff26" />
  <text x="450" y="586" text-anchor="middle" font-family="Arial, sans-serif" font-size="58" font-weight="700" fill="#ffffff">Moringa Powder</text>
  <text x="450" y="615" text-anchor="middle" font-family="Arial, sans-serif" font-size="24" fill="#d4ff00" letter-spacing="3">EXPORT QUALITY</text>
</svg>
