<svg xmlns="http://www.w3.org/2000/svg" width="900" height="700" viewBox="0 0 900 700" role="img" aria-labelledby="title desc">
  <title id="title">Non-Basmati Rice</title>
  <desc id="desc">Clean export product artwork for Non-Basmati Rice on a dark green background.</desc>
  <defs>
    <linearGradient id="background" x1="0" x2="1" y1="0" y2="1">
      <stop stop-color="#091612" />
      <stop offset="1" stop-color="#1a332b" />
    </linearGradient>
    <filter id="shadow"><feDropShadow dx="0" dy="18" stdDeviation="22" flood-color="#000000" flood-opacity=".35" /></filter>
  </defs>
  <rect width="900" height="700" fill="url(#background)" />
  <rect x="70" y="60" width="760" height="580" rx="52" fill="#132620" stroke="#ffffff20" stroke-width="2" />
  <circle cx="450" cy="300" r="210" fill="#0b1d18" opacity=".5" />
  <ellipse cx="450" cy="315" rx="235" ry="170" fill="#eee5cc" stroke="#d4ff00" stroke-width="7" filter="url(#shadow)" />
    <ellipse cx="420.8" cy="327.6" rx="12.0" ry="10.0" fill="#caa66a" stroke="#ffffff88" stroke-width="1.2" transform="rotate(353.6 420.8 327.6)" />
    <ellipse cx="375.1" cy="336.7" rx="16.8" ry="14.0" fill="#e1c887" stroke="#ffffff88" stroke-width="1.2" transform="rotate(360.2 375.1 336.7)" />
    <ellipse cx="325.1" cy="336.1" rx="21.6" ry="18.0" fill="#8f6a3c" stroke="#ffffff88" stroke-width="1.2" transform="rotate(366.8 325.1 336.1)" />
    <ellipse cx="274.7" cy="325.1" rx="26.4" ry="22.0" fill="#caa66a" stroke="#ffffff88" stroke-width="1.2" transform="rotate(373.4 274.7 325.1)" />
    <ellipse cx="372.2" cy="311.1" rx="31.2" ry="26.0" fill="#e1c887" stroke="#ffffff88" stroke-width="1.2" transform="rotate(380.1 372.2 311.1)" />
    <ellipse cx="328.6" cy="295.5" rx="12.0" ry="10.0" fill="#8f6a3c" stroke="#ffffff88" stroke-width="1.2" transform="rotate(386.7 328.6 295.5)" />
    <ellipse cx="292.1" cy="270.7" rx="16.8" ry="14.0" fill="#caa66a" stroke="#ffffff88" stroke-width="1.2" transform="rotate(393.3 292.1 270.7)" />
    <ellipse cx="387.8" cy="288.9" rx="21.6" ry="18.0" fill="#e1c887" stroke="#ffffff88" stroke-width="1.2" transform="rotate(399.9 387.8 288.9)" />
    <ellipse cx="360.5" cy="262.1" rx="26.4" ry="22.0" fill="#8f6a3c" stroke="#ffffff88" stroke-width="1.2" transform="rotate(406.5 360.5 262.1)" />
    <ellipse cx="346.0" cy="229.2" rx="31.2" ry="26.0" fill="#caa66a" stroke="#ffffff88" stroke-width="1.2" transform="rotate(413.1 346.0 229.2)" />
    <ellipse cx="416.3" cy="275.1" rx="12.0" ry="10.0" fill="#e1c887" stroke="#ffffff88" stroke-width="1.2" transform="rotate(419.7 416.3 275.1)" />
    <ellipse cx="411.3" cy="243.2" rx="16.8" ry="14.0" fill="#8f6a3c" stroke="#ffffff88" stroke-width="1.2" transform="rotate(426.4 411.3 243.2)" />
    <ellipse cx="422.0" cy="210.0" rx="21.6" ry="18.0" fill="#caa66a" stroke="#ffffff88" stroke-width="1.2" transform="rotate(433.0 422.0 210.0)" />
    <ellipse cx="449.6" cy="272.1" rx="26.4" ry="22.0" fill="#e1c887" stroke="#ffffff88" stroke-width="1.2" transform="rotate(439.6 449.6 272.1)" />
    <ellipse cx="467.9" cy="242.5" rx="31.2" ry="26.0" fill="#8f6a3c" stroke="#ffffff88" stroke-width="1.2" transform="rotate(446.2 467.9 242.5)" />
    <ellipse cx="501.0" cy="216.4" rx="12.0" ry="10.0" fill="#caa66a" stroke="#ffffff88" stroke-width="1.2" transform="rotate(452.8 501.0 216.4)" />
    <ellipse cx="479.2" cy="279.4" rx="16.8" ry="14.0" fill="#e1c887" stroke="#ffffff88" stroke-width="1.2" transform="rotate(459.4 479.2 279.4)" />
    <ellipse cx="516.4" cy="258.8" rx="21.6" ry="18.0" fill="#8f6a3c" stroke="#ffffff88" stroke-width="1.2" transform="rotate(466.0 516.4 258.8)" />
    <ellipse cx="564.1" cy="245.9" rx="26.4" ry="22.0" fill="#caa66a" stroke="#ffffff88" stroke-width="1.2" transform="rotate(472.6 564.1 245.9)" />
    <ellipse cx="498.4" cy="294.2" rx="31.2" ry="26.0" fill="#e1c887" stroke="#ffffff88" stroke-width="1.2" transform="rotate(479.3 498.4 294.2)" />
    <ellipse cx="545.9" cy="287.2" rx="12.0" ry="10.0" fill="#8f6a3c" stroke="#ffffff88" stroke-width="1.2" transform="rotate(485.9 545.9 287.2)" />
    <ellipse cx="597.1" cy="290.2" rx="16.8" ry="14.0" fill="#caa66a" stroke="#ffffff88" stroke-width="1.2" transform="rotate(492.5 597.1 290.2)" />
    <ellipse cx="503.8" cy="311.9" rx="21.6" ry="18.0" fill="#e1c887" stroke="#ffffff88" stroke-width="1.2" transform="rotate(499.1 503.8 311.9)" />
    <ellipse cx="550.7" cy="320.0" rx="26.4" ry="22.0" fill="#8f6a3c" stroke="#ffffff88" stroke-width="1.2" transform="rotate(505.7 550.7 320.0)" />
    <ellipse cx="593.7" cy="338.0" rx="31.2" ry="26.0" fill="#caa66a" stroke="#ffffff88" stroke-width="1.2" transform="rotate(512.3 593.7 338.0)" />
    <ellipse cx="495.9" cy="327.9" rx="12.0" ry="10.0" fill="#e1c887" stroke="#ffffff88" stroke-width="1.2" transform="rotate(518.9 495.9 327.9)" />
    <ellipse cx="531.5" cy="349.2" rx="16.8" ry="14.0" fill="#8f6a3c" stroke="#ffffff88" stroke-width="1.2" transform="rotate(525.6 531.5 349.2)" />
    <ellipse cx="556.5" cy="378.0" rx="21.6" ry="18.0" fill="#caa66a" stroke="#ffffff88" stroke-width="1.2" transform="rotate(532.2 556.5 378.0)" />
    <ellipse cx="478.5" cy="338.5" rx="26.4" ry="22.0" fill="#e1c887" stroke="#ffffff88" stroke-width="1.2" transform="rotate(538.8 478.5 338.5)" />
    <ellipse cx="494.8" cy="368.0" rx="31.2" ry="26.0" fill="#8f6a3c" stroke="#ffffff88" stroke-width="1.2" transform="rotate(545.4 494.8 368.0)" />
    <ellipse cx="496.3" cy="400.9" rx="12.0" ry="10.0" fill="#caa66a" stroke="#ffffff88" stroke-width="1.2" transform="rotate(552.0 496.3 400.9)" />
    <ellipse cx="457.2" cy="341.9" rx="16.8" ry="14.0" fill="#e1c887" stroke="#ffffff88" stroke-width="1.2" transform="rotate(558.6 457.2 341.9)" />
    <ellipse cx="450.5" cy="372.8" rx="21.6" ry="18.0" fill="#8f6a3c" stroke="#ffffff88" stroke-width="1.2" transform="rotate(565.2 450.5 372.8)" />
    <ellipse cx="428.4" cy="402.3" rx="26.4" ry="22.0" fill="#caa66a" stroke="#ffffff88" stroke-width="1.2" transform="rotate(571.9 428.4 402.3)" />
    <ellipse cx="437.9" cy="338.4" rx="31.2" ry="26.0" fill="#e1c887" stroke="#ffffff88" stroke-width="1.2" transform="rotate(578.5 437.9 338.4)" />
    <ellipse cx="410.0" cy="363.7" rx="12.0" ry="10.0" fill="#8f6a3c" stroke="#ffffff88" stroke-width="1.2" transform="rotate(585.1 410.0 363.7)" />
    <ellipse cx="369.6" cy="383.0" rx="16.8" ry="14.0" fill="#caa66a" stroke="#ffffff88" stroke-width="1.2" transform="rotate(591.7 369.6 383.0)" />
    <ellipse cx="319.0" cy="394.3" rx="21.6" ry="18.0" fill="#e1c887" stroke="#ffffff88" stroke-width="1.2" transform="rotate(598.3 319.0 394.3)" />
  <rect x="115" y="538" width="670" height="88" rx="28" fill="#091612" stroke="#ffffff26" />
  <text x="450" y="586" text-anchor="middle" font-family="Arial, sans-serif" font-size="48" font-weight="700" fill="#ffffff">Non-Basmati Rice</text>
  <text x="450" y="615" text-anchor="middle" font-family="Arial, sans-serif" font-size="24" fill="#d4ff00" letter-spacing="3">EXPORT QUALITY</text>
</svg>
