<svg xmlns="http://www.w3.org/2000/svg" width="900" height="700" viewBox="0 0 900 700" role="img" aria-labelledby="title desc">
  <title id="title">Nutmeg</title>
  <desc id="desc">Clean export product artwork for Nutmeg on a dark green background.</desc>
  <defs>
    <linearGradient id="background" x1="0" x2="1" y1="0" y2="1">
      <stop stop-color="#091612" />
      <stop offset="1" stop-color="#1a332b" />
    </linearGradient>
    <filter id="shadow"><feDropShadow dx="0" dy="18" stdDeviation="22" flood-color="#000000" flood-opacity=".35" /></filter>
  </defs>
  <rect width="900" height="700" fill="url(#background)" />
  <rect x="70" y="60" width="760" height="580" rx="52" fill="#132620" stroke="#ffffff20" stroke-width="2" />
  <circle cx="450" cy="300" r="210" fill="#0b1d18" opacity=".5" />
  <ellipse cx="450" cy="315" rx="235" ry="170" fill="#eee5cc" stroke="#d4ff00" stroke-width="7" filter="url(#shadow)" />
    <ellipse cx="480.5" cy="326.1" rx="12.0" ry="10.0" fill="#b8743f" stroke="#ffffff88" stroke-width="1.2" transform="rotate(20.4 480.5 326.1)" />
    <ellipse cx="514.0" cy="348.3" rx="16.8" ry="14.0" fill="#d7a66a" stroke="#ffffff88" stroke-width="1.2" transform="rotate(27.0 514.0 348.3)" />
    <ellipse cx="536.0" cy="377.5" rx="21.6" ry="18.0" fill="#7f5130" stroke="#ffffff88" stroke-width="1.2" transform="rotate(33.6 536.0 377.5)" />
    <ellipse cx="544.2" cy="411.6" rx="26.4" ry="22.0" fill="#b8743f" stroke="#ffffff88" stroke-width="1.2" transform="rotate(40.2 544.2 411.6)" />
    <ellipse cx="480.3" cy="361.7" rx="31.2" ry="26.0" fill="#d7a66a" stroke="#ffffff88" stroke-width="1.2" transform="rotate(46.9 480.3 361.7)" />
    <ellipse cx="479.0" cy="394.0" rx="12.0" ry="10.0" fill="#7f5130" stroke="#ffffff88" stroke-width="1.2" transform="rotate(53.5 479.0 394.0)" />
    <ellipse cx="461.8" cy="426.5" rx="16.8" ry="14.0" fill="#b8743f" stroke="#ffffff88" stroke-width="1.2" transform="rotate(60.1 461.8 426.5)" />
    <ellipse cx="442.9" cy="362.9" rx="21.6" ry="18.0" fill="#d7a66a" stroke="#ffffff88" stroke-width="1.2" transform="rotate(66.7 442.9 362.9)" />
    <ellipse cx="418.7" cy="391.0" rx="26.4" ry="22.0" fill="#7f5130" stroke="#ffffff88" stroke-width="1.2" transform="rotate(73.3 418.7 391.0)" />
    <ellipse cx="380.4" cy="414.4" rx="31.2" ry="26.0" fill="#b8743f" stroke="#ffffff88" stroke-width="1.2" transform="rotate(79.9 380.4 414.4)" />
    <ellipse cx="410.9" cy="352.7" rx="12.0" ry="10.0" fill="#d7a66a" stroke="#ffffff88" stroke-width="1.2" transform="rotate(86.5 410.9 352.7)" />
    <ellipse cx="369.6" cy="370.2" rx="16.8" ry="14.0" fill="#7f5130" stroke="#ffffff88" stroke-width="1.2" transform="rotate(93.2 369.6 370.2)" />
    <ellipse cx="319.2" cy="379.3" rx="21.6" ry="18.0" fill="#b8743f" stroke="#ffffff88" stroke-width="1.2" transform="rotate(99.8 319.2 379.3)" />
    <ellipse cx="391.5" cy="334.9" rx="26.4" ry="22.0" fill="#d7a66a" stroke="#ffffff88" stroke-width="1.2" transform="rotate(106.4 391.5 334.9)" />
    <ellipse cx="342.6" cy="337.9" rx="31.2" ry="26.0" fill="#7f5130" stroke="#ffffff88" stroke-width="1.2" transform="rotate(113.0 342.6 337.9)" />
    <ellipse cx="291.8" cy="330.7" rx="12.0" ry="10.0" fill="#b8743f" stroke="#ffffff88" stroke-width="1.2" transform="rotate(119.6 291.8 330.7)" />
    <ellipse cx="388.0" cy="314.4" rx="16.8" ry="14.0" fill="#d7a66a" stroke="#ffffff88" stroke-width="1.2" transform="rotate(126.2 388.0 314.4)" />
    <ellipse cx="342.7" cy="302.4" rx="21.6" ry="18.0" fill="#7f5130" stroke="#ffffff88" stroke-width="1.2" transform="rotate(132.8 342.7 302.4)" />
    <ellipse cx="303.2" cy="280.7" rx="26.4" ry="22.0" fill="#b8743f" stroke="#ffffff88" stroke-width="1.2" transform="rotate(139.4 303.2 280.7)" />
    <ellipse cx="399.4" cy="296.6" rx="31.2" ry="26.0" fill="#d7a66a" stroke="#ffffff88" stroke-width="1.2" transform="rotate(146.1 399.4 296.6)" />
    <ellipse cx="368.0" cy="272.3" rx="12.0" ry="10.0" fill="#7f5130" stroke="#ffffff88" stroke-width="1.2" transform="rotate(152.7 368.0 272.3)" />
    <ellipse cx="348.6" cy="241.4" rx="16.8" ry="14.0" fill="#b8743f" stroke="#ffffff88" stroke-width="1.2" transform="rotate(159.3 348.6 241.4)" />
    <ellipse cx="421.1" cy="285.4" rx="21.6" ry="18.0" fill="#d7a66a" stroke="#ffffff88" stroke-width="1.2" transform="rotate(165.9 421.1 285.4)" />
    <ellipse cx="410.7" cy="254.5" rx="26.4" ry="22.0" fill="#7f5130" stroke="#ffffff88" stroke-width="1.2" transform="rotate(172.5 410.7 254.5)" />
    <ellipse cx="415.7" cy="221.4" rx="31.2" ry="26.0" fill="#b8743f" stroke="#ffffff88" stroke-width="1.2" transform="rotate(179.1 415.7 221.4)" />
    <ellipse cx="446.6" cy="282.6" rx="12.0" ry="10.0" fill="#d7a66a" stroke="#ffffff88" stroke-width="1.2" transform="rotate(185.7 446.6 282.6)" />
    <ellipse cx="459.4" cy="252.2" rx="16.8" ry="14.0" fill="#7f5130" stroke="#ffffff88" stroke-width="1.2" transform="rotate(192.4 459.4 252.2)" />
    <ellipse cx="487.3" cy="224.6" rx="21.6" ry="18.0" fill="#b8743f" stroke="#ffffff88" stroke-width="1.2" transform="rotate(199.0 487.3 224.6)" />
    <ellipse cx="469.1" cy="287.8" rx="26.4" ry="22.0" fill="#d7a66a" stroke="#ffffff88" stroke-width="1.2" transform="rotate(205.6 469.1 287.8)" />
    <ellipse cx="501.9" cy="264.9" rx="31.2" ry="26.0" fill="#7f5130" stroke="#ffffff88" stroke-width="1.2" transform="rotate(212.2 501.9 264.9)" />
    <ellipse cx="546.2" cy="248.9" rx="12.0" ry="10.0" fill="#b8743f" stroke="#ffffff88" stroke-width="1.2" transform="rotate(218.8 546.2 248.9)" />
    <ellipse cx="483.5" cy="298.5" rx="16.8" ry="14.0" fill="#d7a66a" stroke="#ffffff88" stroke-width="1.2" transform="rotate(225.4 483.5 298.5)" />
    <ellipse cx="528.9" cy="288.2" rx="21.6" ry="18.0" fill="#7f5130" stroke="#ffffff88" stroke-width="1.2" transform="rotate(232.0 528.9 288.2)" />
    <ellipse cx="579.2" cy="287.5" rx="26.4" ry="22.0" fill="#b8743f" stroke="#ffffff88" stroke-width="1.2" transform="rotate(238.7 579.2 287.5)" />
    <ellipse cx="487.6" cy="311.3" rx="31.2" ry="26.0" fill="#d7a66a" stroke="#ffffff88" stroke-width="1.2" transform="rotate(245.3 487.6 311.3)" />
    <ellipse cx="535.0" cy="315.8" rx="12.0" ry="10.0" fill="#7f5130" stroke="#ffffff88" stroke-width="1.2" transform="rotate(251.9 535.0 315.8)" />
    <ellipse cx="579.9" cy="330.3" rx="16.8" ry="14.0" fill="#b8743f" stroke="#ffffff88" stroke-width="1.2" transform="rotate(258.5 579.9 330.3)" />
    <ellipse cx="618.5" cy="354.3" rx="21.6" ry="18.0" fill="#d7a66a" stroke="#ffffff88" stroke-width="1.2" transform="rotate(265.1 618.5 354.3)" />
  <rect x="115" y="538" width="670" height="88" rx="28" fill="#091612" stroke="#ffffff26" />
  <text x="450" y="586" text-anchor="middle" font-family="Arial, sans-serif" font-size="58" font-weight="700" fill="#ffffff">Nutmeg</text>
  <text x="450" y="615" text-anchor="middle" font-family="Arial, sans-serif" font-size="24" fill="#d4ff00" letter-spacing="3">EXPORT QUALITY</text>
</svg>
