<svg xmlns="http://www.w3.org/2000/svg" width="900" height="700" viewBox="0 0 900 700" role="img" aria-labelledby="title desc">
  <title id="title">Onion Flakes/Kibbled</title>
  <desc id="desc">Clean export product artwork for Onion Flakes/Kibbled on a dark green background.</desc>
  <defs>
    <linearGradient id="background" x1="0" x2="1" y1="0" y2="1">
      <stop stop-color="#091612" />
      <stop offset="1" stop-color="#1a332b" />
    </linearGradient>
    <filter id="shadow"><feDropShadow dx="0" dy="18" stdDeviation="22" flood-color="#000000" flood-opacity=".35" /></filter>
  </defs>
  <rect width="900" height="700" fill="url(#background)" />
  <rect x="70" y="60" width="760" height="580" rx="52" fill="#132620" stroke="#ffffff20" stroke-width="2" />
  <circle cx="450" cy="300" r="210" fill="#0b1d18" opacity=".5" />
  <ellipse cx="450" cy="315" rx="235" ry="170" fill="#eee5cc" stroke="#d4ff00" stroke-width="7" filter="url(#shadow)" />
    <ellipse cx="434.4" cy="294.6" rx="12.0" ry="10.0" fill="#efe7d0" stroke="#ffffff88" stroke-width="1.2" transform="rotate(170.0 434.4 294.6)" />
    <ellipse cx="426.0" cy="264.0" rx="16.8" ry="14.0" fill="#d8c29b" stroke="#ffffff88" stroke-width="1.2" transform="rotate(176.6 426.0 264.0)" />
    <ellipse cx="433.1" cy="231.9" rx="21.6" ry="18.0" fill="#fff7df" stroke="#ffffff88" stroke-width="1.2" transform="rotate(183.2 433.1 231.9)" />
    <ellipse cx="455.9" cy="200.7" rx="26.4" ry="22.0" fill="#efe7d0" stroke="#ffffff88" stroke-width="1.2" transform="rotate(189.8 455.9 200.7)" />
    <ellipse cx="465.4" cy="265.3" rx="31.2" ry="26.0" fill="#d8c29b" stroke="#ffffff88" stroke-width="1.2" transform="rotate(196.5 465.4 265.3)" />
    <ellipse cx="494.5" cy="239.1" rx="12.0" ry="10.0" fill="#fff7df" stroke="#ffffff88" stroke-width="1.2" transform="rotate(203.1 494.5 239.1)" />
    <ellipse cx="536.9" cy="218.5" rx="16.8" ry="14.0" fill="#efe7d0" stroke="#ffffff88" stroke-width="1.2" transform="rotate(209.7 536.9 218.5)" />
    <ellipse cx="497.4" cy="278.1" rx="21.6" ry="18.0" fill="#d8c29b" stroke="#ffffff88" stroke-width="1.2" transform="rotate(216.3 497.4 278.1)" />
    <ellipse cx="541.7" cy="263.7" rx="26.4" ry="22.0" fill="#fff7df" stroke="#ffffff88" stroke-width="1.2" transform="rotate(222.9 541.7 263.7)" />
    <ellipse cx="593.7" cy="258.4" rx="31.2" ry="26.0" fill="#efe7d0" stroke="#ffffff88" stroke-width="1.2" transform="rotate(229.5 593.7 258.4)" />
    <ellipse cx="515.0" cy="298.1" rx="12.0" ry="10.0" fill="#d8c29b" stroke="#ffffff88" stroke-width="1.2" transform="rotate(236.1 515.0 298.1)" />
    <ellipse cx="564.3" cy="298.8" rx="16.8" ry="14.0" fill="#fff7df" stroke="#ffffff88" stroke-width="1.2" transform="rotate(242.8 564.3 298.8)" />
    <ellipse cx="613.8" cy="309.8" rx="21.6" ry="18.0" fill="#efe7d0" stroke="#ffffff88" stroke-width="1.2" transform="rotate(249.4 613.8 309.8)" />
    <ellipse cx="515.6" cy="320.0" rx="26.4" ry="22.0" fill="#d8c29b" stroke="#ffffff88" stroke-width="1.2" transform="rotate(256.0 515.6 320.0)" />
    <ellipse cx="558.5" cy="335.4" rx="31.2" ry="26.0" fill="#fff7df" stroke="#ffffff88" stroke-width="1.2" transform="rotate(262.6 558.5 335.4)" />
    <ellipse cx="594.3" cy="360.0" rx="12.0" ry="10.0" fill="#efe7d0" stroke="#ffffff88" stroke-width="1.2" transform="rotate(269.2 594.3 360.0)" />
    <ellipse cx="500.7" cy="338.2" rx="16.8" ry="14.0" fill="#d8c29b" stroke="#ffffff88" stroke-width="1.2" transform="rotate(275.8 500.7 338.2)" />
    <ellipse cx="527.7" cy="364.7" rx="21.6" ry="18.0" fill="#fff7df" stroke="#ffffff88" stroke-width="1.2" transform="rotate(282.4 527.7 364.7)" />
    <ellipse cx="541.6" cy="397.1" rx="26.4" ry="22.0" fill="#efe7d0" stroke="#ffffff88" stroke-width="1.2" transform="rotate(289.0 541.6 397.1)" />
    <ellipse cx="475.9" cy="348.7" rx="31.2" ry="26.0" fill="#d8c29b" stroke="#ffffff88" stroke-width="1.2" transform="rotate(295.7 475.9 348.7)" />
    <ellipse cx="480.7" cy="380.3" rx="12.0" ry="10.0" fill="#fff7df" stroke="#ffffff88" stroke-width="1.2" transform="rotate(302.3 480.7 380.3)" />
    <ellipse cx="470.0" cy="412.9" rx="16.8" ry="14.0" fill="#efe7d0" stroke="#ffffff88" stroke-width="1.2" transform="rotate(308.9 470.0 412.9)" />
    <ellipse cx="448.2" cy="350.1" rx="21.6" ry="18.0" fill="#d8c29b" stroke="#ffffff88" stroke-width="1.2" transform="rotate(315.5 448.2 350.1)" />
    <ellipse cx="430.0" cy="379.4" rx="26.4" ry="22.0" fill="#fff7df" stroke="#ffffff88" stroke-width="1.2" transform="rotate(322.1 430.0 379.4)" />
    <ellipse cx="397.3" cy="404.9" rx="31.2" ry="26.0" fill="#efe7d0" stroke="#ffffff88" stroke-width="1.2" transform="rotate(328.7 397.3 404.9)" />
    <ellipse cx="424.7" cy="343.0" rx="12.0" ry="10.0" fill="#d8c29b" stroke="#ffffff88" stroke-width="1.2" transform="rotate(335.3 424.7 343.0)" />
    <ellipse cx="387.9" cy="363.4" rx="16.8" ry="14.0" fill="#fff7df" stroke="#ffffff88" stroke-width="1.2" transform="rotate(342.0 387.9 363.4)" />
    <ellipse cx="340.8" cy="376.0" rx="21.6" ry="18.0" fill="#efe7d0" stroke="#ffffff88" stroke-width="1.2" transform="rotate(348.6 340.8 376.0)" />
    <ellipse cx="410.7" cy="330.5" rx="26.4" ry="22.0" fill="#d8c29b" stroke="#ffffff88" stroke-width="1.2" transform="rotate(355.2 410.7 330.5)" />
    <ellipse cx="363.6" cy="337.4" rx="31.2" ry="26.0" fill="#fff7df" stroke="#ffffff88" stroke-width="1.2" transform="rotate(361.8 363.6 337.4)" />
    <ellipse cx="313.2" cy="334.4" rx="12.0" ry="10.0" fill="#efe7d0" stroke="#ffffff88" stroke-width="1.2" transform="rotate(368.4 313.2 334.4)" />
    <ellipse cx="408.1" cy="316.3" rx="16.8" ry="14.0" fill="#d8c29b" stroke="#ffffff88" stroke-width="1.2" transform="rotate(375.0 408.1 316.3)" />
    <ellipse cx="361.6" cy="308.3" rx="21.6" ry="18.0" fill="#fff7df" stroke="#ffffff88" stroke-width="1.2" transform="rotate(381.6 361.6 308.3)" />
    <ellipse cx="319.4" cy="290.4" rx="26.4" ry="22.0" fill="#efe7d0" stroke="#ffffff88" stroke-width="1.2" transform="rotate(388.3 319.4 290.4)" />
    <ellipse cx="415.7" cy="304.3" rx="31.2" ry="26.0" fill="#d8c29b" stroke="#ffffff88" stroke-width="1.2" transform="rotate(394.9 415.7 304.3)" />
    <ellipse cx="380.4" cy="283.2" rx="12.0" ry="10.0" fill="#fff7df" stroke="#ffffff88" stroke-width="1.2" transform="rotate(401.5 380.4 283.2)" />
    <ellipse cx="355.9" cy="254.8" rx="16.8" ry="14.0" fill="#efe7d0" stroke="#ffffff88" stroke-width="1.2" transform="rotate(408.1 355.9 254.8)" />
    <ellipse cx="344.9" cy="220.8" rx="21.6" ry="18.0" fill="#d8c29b" stroke="#ffffff88" stroke-width="1.2" transform="rotate(414.7 344.9 220.8)" />
  <rect x="115" y="538" width="670" height="88" rx="28" fill="#091612" stroke="#ffffff26" />
  <text x="450" y="586" text-anchor="middle" font-family="Arial, sans-serif" font-size="48" font-weight="700" fill="#ffffff">Onion Flakes/Kibbled</text>
  <text x="450" y="615" text-anchor="middle" font-family="Arial, sans-serif" font-size="24" fill="#d4ff00" letter-spacing="3">EXPORT QUALITY</text>
</svg>
