<svg xmlns="http://www.w3.org/2000/svg" width="900" height="700" viewBox="0 0 900 700" role="img" aria-labelledby="title desc">
  <title id="title">Onion Minced</title>
  <desc id="desc">Clean export product artwork for Onion Minced on a dark green background.</desc>
  <defs>
    <linearGradient id="background" x1="0" x2="1" y1="0" y2="1">
      <stop stop-color="#091612" />
      <stop offset="1" stop-color="#1a332b" />
    </linearGradient>
    <filter id="shadow"><feDropShadow dx="0" dy="18" stdDeviation="22" flood-color="#000000" flood-opacity=".35" /></filter>
  </defs>
  <rect width="900" height="700" fill="url(#background)" />
  <rect x="70" y="60" width="760" height="580" rx="52" fill="#132620" stroke="#ffffff20" stroke-width="2" />
  <circle cx="450" cy="300" r="210" fill="#0b1d18" opacity=".5" />
  <ellipse cx="450" cy="315" rx="235" ry="170" fill="#eee5cc" stroke="#d4ff00" stroke-width="7" filter="url(#shadow)" />
    <ellipse cx="445.7" cy="292.4" rx="12.0" ry="10.0" fill="#efe7d0" stroke="#ffffff88" stroke-width="1.2" transform="rotate(183.6 445.7 292.4)" />
    <ellipse cx="453.5" cy="261.7" rx="16.8" ry="14.0" fill="#d8c29b" stroke="#ffffff88" stroke-width="1.2" transform="rotate(190.2 453.5 261.7)" />
    <ellipse cx="476.7" cy="233.0" rx="21.6" ry="18.0" fill="#fff7df" stroke="#ffffff88" stroke-width="1.2" transform="rotate(196.8 476.7 233.0)" />
    <ellipse cx="514.2" cy="208.5" rx="26.4" ry="22.0" fill="#efe7d0" stroke="#ffffff88" stroke-width="1.2" transform="rotate(203.4 514.2 208.5)" />
    <ellipse cx="490.0" cy="271.5" rx="31.2" ry="26.0" fill="#d8c29b" stroke="#ffffff88" stroke-width="1.2" transform="rotate(210.1 490.0 271.5)" />
    <ellipse cx="530.9" cy="253.1" rx="12.0" ry="10.0" fill="#fff7df" stroke="#ffffff88" stroke-width="1.2" transform="rotate(216.7 530.9 253.1)" />
    <ellipse cx="581.4" cy="242.9" rx="16.8" ry="14.0" fill="#efe7d0" stroke="#ffffff88" stroke-width="1.2" transform="rotate(223.3 581.4 242.9)" />
    <ellipse cx="513.6" cy="290.4" rx="21.6" ry="18.0" fill="#d8c29b" stroke="#ffffff88" stroke-width="1.2" transform="rotate(229.9 513.6 290.4)" />
    <ellipse cx="562.8" cy="286.5" rx="26.4" ry="22.0" fill="#fff7df" stroke="#ffffff88" stroke-width="1.2" transform="rotate(236.5 562.8 286.5)" />
    <ellipse cx="614.5" cy="292.8" rx="31.2" ry="26.0" fill="#efe7d0" stroke="#ffffff88" stroke-width="1.2" transform="rotate(243.1 614.5 292.8)" />
    <ellipse cx="519.9" cy="313.2" rx="12.0" ry="10.0" fill="#d8c29b" stroke="#ffffff88" stroke-width="1.2" transform="rotate(249.7 519.9 313.2)" />
    <ellipse cx="566.1" cy="324.5" rx="16.8" ry="14.0" fill="#fff7df" stroke="#ffffff88" stroke-width="1.2" transform="rotate(256.4 566.1 324.5)" />
    <ellipse cx="607.1" cy="345.6" rx="21.6" ry="18.0" fill="#efe7d0" stroke="#ffffff88" stroke-width="1.2" transform="rotate(263.0 607.1 345.6)" />
    <ellipse cx="509.2" cy="333.9" rx="26.4" ry="22.0" fill="#d8c29b" stroke="#ffffff88" stroke-width="1.2" transform="rotate(269.6 509.2 333.9)" />
    <ellipse cx="541.9" cy="357.8" rx="31.2" ry="26.0" fill="#fff7df" stroke="#ffffff88" stroke-width="1.2" transform="rotate(276.2 541.9 357.8)" />
    <ellipse cx="563.0" cy="388.7" rx="12.0" ry="10.0" fill="#efe7d0" stroke="#ffffff88" stroke-width="1.2" transform="rotate(282.8 563.0 388.7)" />
    <ellipse cx="485.9" cy="347.8" rx="16.8" ry="14.0" fill="#d8c29b" stroke="#ffffff88" stroke-width="1.2" transform="rotate(289.4 485.9 347.8)" />
    <ellipse cx="497.7" cy="378.7" rx="21.6" ry="18.0" fill="#fff7df" stroke="#ffffff88" stroke-width="1.2" transform="rotate(296.0 497.7 378.7)" />
    <ellipse cx="494.3" cy="412.2" rx="26.4" ry="22.0" fill="#efe7d0" stroke="#ffffff88" stroke-width="1.2" transform="rotate(302.6 494.3 412.2)" />
    <ellipse cx="457.1" cy="352.4" rx="31.2" ry="26.0" fill="#d8c29b" stroke="#ffffff88" stroke-width="1.2" transform="rotate(309.3 457.1 352.4)" />
    <ellipse cx="445.5" cy="383.2" rx="12.0" ry="10.0" fill="#fff7df" stroke="#ffffff88" stroke-width="1.2" transform="rotate(315.9 445.5 383.2)" />
    <ellipse cx="418.6" cy="411.7" rx="16.8" ry="14.0" fill="#efe7d0" stroke="#ffffff88" stroke-width="1.2" transform="rotate(322.5 418.6 411.7)" />
    <ellipse cx="430.3" cy="347.7" rx="21.6" ry="18.0" fill="#d8c29b" stroke="#ffffff88" stroke-width="1.2" transform="rotate(329.1 430.3 347.7)" />
    <ellipse cx="398.2" cy="371.3" rx="26.4" ry="22.0" fill="#fff7df" stroke="#ffffff88" stroke-width="1.2" transform="rotate(335.7 398.2 371.3)" />
    <ellipse cx="354.2" cy="388.3" rx="31.2" ry="26.0" fill="#efe7d0" stroke="#ffffff88" stroke-width="1.2" transform="rotate(342.3 354.2 388.3)" />
    <ellipse cx="411.8" cy="336.0" rx="12.0" ry="10.0" fill="#d8c29b" stroke="#ffffff88" stroke-width="1.2" transform="rotate(348.9 411.8 336.0)" />
    <ellipse cx="366.6" cy="347.2" rx="16.8" ry="14.0" fill="#fff7df" stroke="#ffffff88" stroke-width="1.2" transform="rotate(355.6 366.6 347.2)" />
    <ellipse cx="315.8" cy="348.9" rx="21.6" ry="18.0" fill="#efe7d0" stroke="#ffffff88" stroke-width="1.2" transform="rotate(362.2 315.8 348.9)" />
    <ellipse cx="405.0" cy="321.1" rx="26.4" ry="22.0" fill="#d8c29b" stroke="#ffffff88" stroke-width="1.2" transform="rotate(368.8 405.0 321.1)" />
    <ellipse cx="357.1" cy="317.4" rx="31.2" ry="26.0" fill="#fff7df" stroke="#ffffff88" stroke-width="1.2" transform="rotate(375.4 357.1 317.4)" />
    <ellipse cx="311.1" cy="303.6" rx="12.0" ry="10.0" fill="#efe7d0" stroke="#ffffff88" stroke-width="1.2" transform="rotate(382.0 311.1 303.6)" />
    <ellipse cx="409.8" cy="307.2" rx="16.8" ry="14.0" fill="#d8c29b" stroke="#ffffff88" stroke-width="1.2" transform="rotate(388.6 409.8 307.2)" />
    <ellipse cx="370.1" cy="289.5" rx="21.6" ry="18.0" fill="#fff7df" stroke="#ffffff88" stroke-width="1.2" transform="rotate(395.2 370.1 289.5)" />
    <ellipse cx="339.4" cy="263.5" rx="26.4" ry="22.0" fill="#efe7d0" stroke="#ffffff88" stroke-width="1.2" transform="rotate(401.9 339.4 263.5)" />
    <ellipse cx="423.2" cy="297.5" rx="31.2" ry="26.0" fill="#d8c29b" stroke="#ffffff88" stroke-width="1.2" transform="rotate(408.5 423.2 297.5)" />
    <ellipse cx="400.7" cy="270.0" rx="12.0" ry="10.0" fill="#fff7df" stroke="#ffffff88" stroke-width="1.2" transform="rotate(415.1 400.7 270.0)" />
    <ellipse cx="392.2" cy="237.9" rx="16.8" ry="14.0" fill="#efe7d0" stroke="#ffffff88" stroke-width="1.2" transform="rotate(421.7 392.2 237.9)" />
    <ellipse cx="399.2" cy="203.4" rx="21.6" ry="18.0" fill="#d8c29b" stroke="#ffffff88" stroke-width="1.2" transform="rotate(428.3 399.2 203.4)" />
  <rect x="115" y="538" width="670" height="88" rx="28" fill="#091612" stroke="#ffffff26" />
  <text x="450" y="586" text-anchor="middle" font-family="Arial, sans-serif" font-size="58" font-weight="700" fill="#ffffff">Onion Minced</text>
  <text x="450" y="615" text-anchor="middle" font-family="Arial, sans-serif" font-size="24" fill="#d4ff00" letter-spacing="3">EXPORT QUALITY</text>
</svg>
