<svg xmlns="http://www.w3.org/2000/svg" width="900" height="700" viewBox="0 0 900 700" role="img" aria-labelledby="title desc">
  <title id="title">Onion Granules</title>
  <desc id="desc">Clean export product artwork for Onion Granules on a dark green background.</desc>
  <defs>
    <linearGradient id="background" x1="0" x2="1" y1="0" y2="1">
      <stop stop-color="#091612" />
      <stop offset="1" stop-color="#1a332b" />
    </linearGradient>
    <filter id="shadow"><feDropShadow dx="0" dy="18" stdDeviation="22" flood-color="#000000" flood-opacity=".35" /></filter>
  </defs>
  <rect width="900" height="700" fill="url(#background)" />
  <rect x="70" y="60" width="760" height="580" rx="52" fill="#132620" stroke="#ffffff20" stroke-width="2" />
  <circle cx="450" cy="300" r="210" fill="#0b1d18" opacity=".5" />
  <ellipse cx="450" cy="315" rx="235" ry="170" fill="#eee5cc" stroke="#d4ff00" stroke-width="7" filter="url(#shadow)" />
    <ellipse cx="451.7" cy="292.3" rx="12.0" ry="10.0" fill="#efe7d0" stroke="#ffffff88" stroke-width="1.2" transform="rotate(190.4 451.7 292.3)" />
    <ellipse cx="467.3" cy="262.9" rx="16.8" ry="14.0" fill="#d8c29b" stroke="#ffffff88" stroke-width="1.2" transform="rotate(197.0 467.3 262.9)" />
    <ellipse cx="497.6" cy="237.1" rx="21.6" ry="18.0" fill="#fff7df" stroke="#ffffff88" stroke-width="1.2" transform="rotate(203.6 497.6 237.1)" />
    <ellipse cx="541.0" cy="217.1" rx="26.4" ry="22.0" fill="#efe7d0" stroke="#ffffff88" stroke-width="1.2" transform="rotate(210.2 541.0 217.1)" />
    <ellipse cx="500.8" cy="276.5" rx="31.2" ry="26.0" fill="#d8c29b" stroke="#ffffff88" stroke-width="1.2" transform="rotate(216.9 500.8 276.5)" />
    <ellipse cx="545.9" cy="262.9" rx="12.0" ry="10.0" fill="#fff7df" stroke="#ffffff88" stroke-width="1.2" transform="rotate(223.5 545.9 262.9)" />
    <ellipse cx="598.3" cy="258.4" rx="16.8" ry="14.0" fill="#efe7d0" stroke="#ffffff88" stroke-width="1.2" transform="rotate(230.1 598.3 258.4)" />
    <ellipse cx="519.1" cy="297.8" rx="21.6" ry="18.0" fill="#d8c29b" stroke="#ffffff88" stroke-width="1.2" transform="rotate(236.7 519.1 297.8)" />
    <ellipse cx="568.6" cy="299.3" rx="26.4" ry="22.0" fill="#fff7df" stroke="#ffffff88" stroke-width="1.2" transform="rotate(243.3 568.6 299.3)" />
    <ellipse cx="617.9" cy="311.2" rx="31.2" ry="26.0" fill="#efe7d0" stroke="#ffffff88" stroke-width="1.2" transform="rotate(249.9 617.9 311.2)" />
    <ellipse cx="519.4" cy="320.9" rx="12.0" ry="10.0" fill="#d8c29b" stroke="#ffffff88" stroke-width="1.2" transform="rotate(256.5 519.4 320.9)" />
    <ellipse cx="561.9" cy="337.2" rx="16.8" ry="14.0" fill="#fff7df" stroke="#ffffff88" stroke-width="1.2" transform="rotate(263.2 561.9 337.2)" />
    <ellipse cx="596.9" cy="362.4" rx="21.6" ry="18.0" fill="#efe7d0" stroke="#ffffff88" stroke-width="1.2" transform="rotate(269.8 596.9 362.4)" />
    <ellipse cx="503.5" cy="340.1" rx="26.4" ry="22.0" fill="#d8c29b" stroke="#ffffff88" stroke-width="1.2" transform="rotate(276.4 503.5 340.1)" />
    <ellipse cx="529.4" cy="367.3" rx="31.2" ry="26.0" fill="#fff7df" stroke="#ffffff88" stroke-width="1.2" transform="rotate(283.0 529.4 367.3)" />
    <ellipse cx="542.2" cy="400.0" rx="12.0" ry="10.0" fill="#efe7d0" stroke="#ffffff88" stroke-width="1.2" transform="rotate(289.6 542.2 400.0)" />
    <ellipse cx="476.9" cy="351.3" rx="16.8" ry="14.0" fill="#d8c29b" stroke="#ffffff88" stroke-width="1.2" transform="rotate(296.2 476.9 351.3)" />
    <ellipse cx="480.4" cy="383.0" rx="21.6" ry="18.0" fill="#fff7df" stroke="#ffffff88" stroke-width="1.2" transform="rotate(302.8 480.4 383.0)" />
    <ellipse cx="468.3" cy="415.7" rx="26.4" ry="22.0" fill="#efe7d0" stroke="#ffffff88" stroke-width="1.2" transform="rotate(309.4 468.3 415.7)" />
    <ellipse cx="447.2" cy="352.7" rx="31.2" ry="26.0" fill="#d8c29b" stroke="#ffffff88" stroke-width="1.2" transform="rotate(316.1 447.2 352.7)" />
    <ellipse cx="427.8" cy="381.7" rx="12.0" ry="10.0" fill="#fff7df" stroke="#ffffff88" stroke-width="1.2" transform="rotate(322.7 427.8 381.7)" />
    <ellipse cx="393.9" cy="406.8" rx="16.8" ry="14.0" fill="#efe7d0" stroke="#ffffff88" stroke-width="1.2" transform="rotate(329.3 393.9 406.8)" />
    <ellipse cx="422.1" cy="345.0" rx="21.6" ry="18.0" fill="#d8c29b" stroke="#ffffff88" stroke-width="1.2" transform="rotate(335.9 422.1 345.0)" />
    <ellipse cx="384.2" cy="364.8" rx="26.4" ry="22.0" fill="#fff7df" stroke="#ffffff88" stroke-width="1.2" transform="rotate(342.5 384.2 364.8)" />
    <ellipse cx="336.5" cy="376.7" rx="31.2" ry="26.0" fill="#efe7d0" stroke="#ffffff88" stroke-width="1.2" transform="rotate(349.1 336.5 376.7)" />
    <ellipse cx="406.9" cy="331.5" rx="12.0" ry="10.0" fill="#d8c29b" stroke="#ffffff88" stroke-width="1.2" transform="rotate(355.7 406.9 331.5)" />
    <ellipse cx="359.4" cy="337.6" rx="16.8" ry="14.0" fill="#fff7df" stroke="#ffffff88" stroke-width="1.2" transform="rotate(362.4 359.4 337.6)" />
    <ellipse cx="308.9" cy="333.6" rx="21.6" ry="18.0" fill="#efe7d0" stroke="#ffffff88" stroke-width="1.2" transform="rotate(369.0 308.9 333.6)" />
    <ellipse cx="404.0" cy="316.0" rx="26.4" ry="22.0" fill="#d8c29b" stroke="#ffffff88" stroke-width="1.2" transform="rotate(375.6 404.0 316.0)" />
    <ellipse cx="357.8" cy="307.1" rx="31.2" ry="26.0" fill="#fff7df" stroke="#ffffff88" stroke-width="1.2" transform="rotate(382.2 357.8 307.1)" />
    <ellipse cx="316.1" cy="288.5" rx="12.0" ry="10.0" fill="#efe7d0" stroke="#ffffff88" stroke-width="1.2" transform="rotate(388.8 316.1 288.5)" />
    <ellipse cx="412.4" cy="302.9" rx="16.8" ry="14.0" fill="#d8c29b" stroke="#ffffff88" stroke-width="1.2" transform="rotate(395.4 412.4 302.9)" />
    <ellipse cx="377.9" cy="281.1" rx="21.6" ry="18.0" fill="#fff7df" stroke="#ffffff88" stroke-width="1.2" transform="rotate(402.0 377.9 281.1)" />
    <ellipse cx="354.4" cy="252.1" rx="26.4" ry="22.0" fill="#efe7d0" stroke="#ffffff88" stroke-width="1.2" transform="rotate(408.7 354.4 252.1)" />
    <ellipse cx="428.1" cy="294.8" rx="31.2" ry="26.0" fill="#d8c29b" stroke="#ffffff88" stroke-width="1.2" transform="rotate(415.3 428.1 294.8)" />
    <ellipse cx="413.1" cy="265.2" rx="12.0" ry="10.0" fill="#fff7df" stroke="#ffffff88" stroke-width="1.2" transform="rotate(421.9 413.1 265.2)" />
    <ellipse cx="413.1" cy="232.6" rx="16.8" ry="14.0" fill="#efe7d0" stroke="#ffffff88" stroke-width="1.2" transform="rotate(428.5 413.1 232.6)" />
    <ellipse cx="429.0" cy="199.5" rx="21.6" ry="18.0" fill="#d8c29b" stroke="#ffffff88" stroke-width="1.2" transform="rotate(435.1 429.0 199.5)" />
  <rect x="115" y="538" width="670" height="88" rx="28" fill="#091612" stroke="#ffffff26" />
  <text x="450" y="586" text-anchor="middle" font-family="Arial, sans-serif" font-size="58" font-weight="700" fill="#ffffff">Onion Granules</text>
  <text x="450" y="615" text-anchor="middle" font-family="Arial, sans-serif" font-size="24" fill="#d4ff00" letter-spacing="3">EXPORT QUALITY</text>
</svg>
