<svg xmlns="http://www.w3.org/2000/svg" width="900" height="700" viewBox="0 0 900 700" role="img" aria-labelledby="title desc">
  <title id="title">Onion Powder</title>
  <desc id="desc">Clean export product artwork for Onion Powder on a dark green background.</desc>
  <defs>
    <linearGradient id="background" x1="0" x2="1" y1="0" y2="1">
      <stop stop-color="#091612" />
      <stop offset="1" stop-color="#1a332b" />
    </linearGradient>
    <filter id="shadow"><feDropShadow dx="0" dy="18" stdDeviation="22" flood-color="#000000" flood-opacity=".35" /></filter>
  </defs>
  <rect width="900" height="700" fill="url(#background)" />
  <rect x="70" y="60" width="760" height="580" rx="52" fill="#132620" stroke="#ffffff20" stroke-width="2" />
  <circle cx="450" cy="300" r="210" fill="#0b1d18" opacity=".5" />
  <ellipse cx="450" cy="315" rx="235" ry="170" fill="#eee5cc" stroke="#d4ff00" stroke-width="7" filter="url(#shadow)" />
    <ellipse cx="457.6" cy="292.8" rx="12.0" ry="10.0" fill="#efe7d0" stroke="#ffffff88" stroke-width="1.2" transform="rotate(197.2 457.6 292.8)" />
    <ellipse cx="480.6" cy="265.6" rx="16.8" ry="14.0" fill="#d8c29b" stroke="#ffffff88" stroke-width="1.2" transform="rotate(203.8 480.6 265.6)" />
    <ellipse cx="517.2" cy="243.4" rx="21.6" ry="18.0" fill="#fff7df" stroke="#ffffff88" stroke-width="1.2" transform="rotate(210.4 517.2 243.4)" />
    <ellipse cx="565.2" cy="228.5" rx="26.4" ry="22.0" fill="#efe7d0" stroke="#ffffff88" stroke-width="1.2" transform="rotate(217.0 565.2 228.5)" />
    <ellipse cx="510.1" cy="282.7" rx="31.2" ry="26.0" fill="#d8c29b" stroke="#ffffff88" stroke-width="1.2" transform="rotate(223.7 510.1 282.7)" />
    <ellipse cx="558.1" cy="274.2" rx="12.0" ry="10.0" fill="#fff7df" stroke="#ffffff88" stroke-width="1.2" transform="rotate(230.3 558.1 274.2)" />
    <ellipse cx="610.9" cy="275.5" rx="16.8" ry="14.0" fill="#efe7d0" stroke="#ffffff88" stroke-width="1.2" transform="rotate(236.9 610.9 275.5)" />
    <ellipse cx="522.6" cy="305.6" rx="21.6" ry="18.0" fill="#d8c29b" stroke="#ffffff88" stroke-width="1.2" transform="rotate(243.5 522.6 305.6)" />
    <ellipse cx="570.9" cy="312.6" rx="26.4" ry="22.0" fill="#fff7df" stroke="#ffffff88" stroke-width="1.2" transform="rotate(250.1 570.9 312.6)" />
    <ellipse cx="616.5" cy="329.7" rx="31.2" ry="26.0" fill="#efe7d0" stroke="#ffffff88" stroke-width="1.2" transform="rotate(256.7 616.5 329.7)" />
    <ellipse cx="516.9" cy="328.5" rx="12.0" ry="10.0" fill="#d8c29b" stroke="#ffffff88" stroke-width="1.2" transform="rotate(263.3 516.9 328.5)" />
    <ellipse cx="554.5" cy="349.1" rx="16.8" ry="14.0" fill="#fff7df" stroke="#ffffff88" stroke-width="1.2" transform="rotate(270.0 554.5 349.1)" />
    <ellipse cx="582.4" cy="377.9" rx="21.6" ry="18.0" fill="#efe7d0" stroke="#ffffff88" stroke-width="1.2" transform="rotate(276.6 582.4 377.9)" />
    <ellipse cx="496.2" cy="345.7" rx="26.4" ry="22.0" fill="#d8c29b" stroke="#ffffff88" stroke-width="1.2" transform="rotate(283.2 496.2 345.7)" />
    <ellipse cx="514.7" cy="375.2" rx="31.2" ry="26.0" fill="#fff7df" stroke="#ffffff88" stroke-width="1.2" transform="rotate(289.8 514.7 375.2)" />
    <ellipse cx="518.7" cy="408.9" rx="12.0" ry="10.0" fill="#efe7d0" stroke="#ffffff88" stroke-width="1.2" transform="rotate(296.4 518.7 408.9)" />
    <ellipse cx="467.0" cy="353.7" rx="16.8" ry="14.0" fill="#d8c29b" stroke="#ffffff88" stroke-width="1.2" transform="rotate(303.0 467.0 353.7)" />
    <ellipse cx="462.3" cy="385.4" rx="21.6" ry="18.0" fill="#fff7df" stroke="#ffffff88" stroke-width="1.2" transform="rotate(309.6 462.3 385.4)" />
    <ellipse cx="441.9" cy="416.3" rx="26.4" ry="22.0" fill="#efe7d0" stroke="#ffffff88" stroke-width="1.2" transform="rotate(316.2 441.9 416.3)" />
    <ellipse cx="437.5" cy="351.8" rx="31.2" ry="26.0" fill="#d8c29b" stroke="#ffffff88" stroke-width="1.2" transform="rotate(322.9 437.5 351.8)" />
    <ellipse cx="410.8" cy="378.3" rx="12.0" ry="10.0" fill="#fff7df" stroke="#ffffff88" stroke-width="1.2" transform="rotate(329.5 410.8 378.3)" />
    <ellipse cx="370.8" cy="399.3" rx="16.8" ry="14.0" fill="#efe7d0" stroke="#ffffff88" stroke-width="1.2" transform="rotate(336.1 370.8 399.3)" />
    <ellipse cx="414.7" cy="341.5" rx="21.6" ry="18.0" fill="#d8c29b" stroke="#ffffff88" stroke-width="1.2" transform="rotate(342.7 414.7 341.5)" />
    <ellipse cx="372.2" cy="356.9" rx="26.4" ry="22.0" fill="#fff7df" stroke="#ffffff88" stroke-width="1.2" transform="rotate(349.3 372.2 356.9)" />
    <ellipse cx="322.0" cy="363.3" rx="31.2" ry="26.0" fill="#efe7d0" stroke="#ffffff88" stroke-width="1.2" transform="rotate(355.9 322.0 363.3)" />
    <ellipse cx="403.2" cy="326.5" rx="12.0" ry="10.0" fill="#d8c29b" stroke="#ffffff88" stroke-width="1.2" transform="rotate(362.5 403.2 326.5)" />
    <ellipse cx="354.9" cy="327.3" rx="16.8" ry="14.0" fill="#fff7df" stroke="#ffffff88" stroke-width="1.2" transform="rotate(369.2 354.9 327.3)" />
    <ellipse cx="306.1" cy="317.8" rx="21.6" ry="18.0" fill="#efe7d0" stroke="#ffffff88" stroke-width="1.2" transform="rotate(375.8 306.1 317.8)" />
    <ellipse cx="404.4" cy="311.0" rx="26.4" ry="22.0" fill="#d8c29b" stroke="#ffffff88" stroke-width="1.2" transform="rotate(382.4 404.4 311.0)" />
    <ellipse cx="361.2" cy="297.1" rx="31.2" ry="26.0" fill="#fff7df" stroke="#ffffff88" stroke-width="1.2" transform="rotate(389.0 361.2 297.1)" />
    <ellipse cx="324.9" cy="274.1" rx="12.0" ry="10.0" fill="#efe7d0" stroke="#ffffff88" stroke-width="1.2" transform="rotate(395.6 324.9 274.1)" />
    <ellipse cx="416.1" cy="298.9" rx="16.8" ry="14.0" fill="#d8c29b" stroke="#ffffff88" stroke-width="1.2" transform="rotate(402.2 416.1 298.9)" />
    <ellipse cx="387.8" cy="273.6" rx="21.6" ry="18.0" fill="#fff7df" stroke="#ffffff88" stroke-width="1.2" transform="rotate(408.8 387.8 273.6)" />
    <ellipse cx="372.2" cy="242.5" rx="26.4" ry="22.0" fill="#efe7d0" stroke="#ffffff88" stroke-width="1.2" transform="rotate(415.5 372.2 242.5)" />
    <ellipse cx="433.7" cy="292.7" rx="31.2" ry="26.0" fill="#d8c29b" stroke="#ffffff88" stroke-width="1.2" transform="rotate(422.1 433.7 292.7)" />
    <ellipse cx="426.6" cy="261.9" rx="12.0" ry="10.0" fill="#fff7df" stroke="#ffffff88" stroke-width="1.2" transform="rotate(428.7 426.6 261.9)" />
    <ellipse cx="435.1" cy="229.7" rx="16.8" ry="14.0" fill="#efe7d0" stroke="#ffffff88" stroke-width="1.2" transform="rotate(435.3 435.1 229.7)" />
    <ellipse cx="459.4" cy="198.8" rx="21.6" ry="18.0" fill="#d8c29b" stroke="#ffffff88" stroke-width="1.2" transform="rotate(441.9 459.4 198.8)" />
  <rect x="115" y="538" width="670" height="88" rx="28" fill="#091612" stroke="#ffffff26" />
  <text x="450" y="586" text-anchor="middle" font-family="Arial, sans-serif" font-size="58" font-weight="700" fill="#ffffff">Onion Powder</text>
  <text x="450" y="615" text-anchor="middle" font-family="Arial, sans-serif" font-size="24" fill="#d4ff00" letter-spacing="3">EXPORT QUALITY</text>
</svg>
