<svg xmlns="http://www.w3.org/2000/svg" width="900" height="700" viewBox="0 0 900 700" role="img" aria-labelledby="title desc">
  <title id="title">Onion Chopped</title>
  <desc id="desc">Clean export product artwork for Onion Chopped on a dark green background.</desc>
  <defs>
    <linearGradient id="background" x1="0" x2="1" y1="0" y2="1">
      <stop stop-color="#091612" />
      <stop offset="1" stop-color="#1a332b" />
    </linearGradient>
    <filter id="shadow"><feDropShadow dx="0" dy="18" stdDeviation="22" flood-color="#000000" flood-opacity=".35" /></filter>
  </defs>
  <rect width="900" height="700" fill="url(#background)" />
  <rect x="70" y="60" width="760" height="580" rx="52" fill="#132620" stroke="#ffffff20" stroke-width="2" />
  <circle cx="450" cy="300" r="210" fill="#0b1d18" opacity=".5" />
  <ellipse cx="450" cy="315" rx="235" ry="170" fill="#eee5cc" stroke="#d4ff00" stroke-width="7" filter="url(#shadow)" />
    <ellipse cx="439.9" cy="293.2" rx="12.0" ry="10.0" fill="#efe7d0" stroke="#ffffff88" stroke-width="1.2" transform="rotate(176.8 439.9 293.2)" />
    <ellipse cx="439.6" cy="262.1" rx="16.8" ry="14.0" fill="#d8c29b" stroke="#ffffff88" stroke-width="1.2" transform="rotate(183.4 439.6 262.1)" />
    <ellipse cx="454.9" cy="231.2" rx="21.6" ry="18.0" fill="#fff7df" stroke="#ffffff88" stroke-width="1.2" transform="rotate(190.0 454.9 231.2)" />
    <ellipse cx="485.6" cy="203.0" rx="26.4" ry="22.0" fill="#efe7d0" stroke="#ffffff88" stroke-width="1.2" transform="rotate(196.6 485.6 203.0)" />
    <ellipse cx="478.1" cy="267.7" rx="31.2" ry="26.0" fill="#d8c29b" stroke="#ffffff88" stroke-width="1.2" transform="rotate(203.3 478.1 267.7)" />
    <ellipse cx="513.7" cy="245.1" rx="12.0" ry="10.0" fill="#fff7df" stroke="#ffffff88" stroke-width="1.2" transform="rotate(209.9 513.7 245.1)" />
    <ellipse cx="560.8" cy="229.5" rx="16.8" ry="14.0" fill="#efe7d0" stroke="#ffffff88" stroke-width="1.2" transform="rotate(216.5 560.8 229.5)" />
    <ellipse cx="506.3" cy="283.8" rx="21.6" ry="18.0" fill="#d8c29b" stroke="#ffffff88" stroke-width="1.2" transform="rotate(223.1 506.3 283.8)" />
    <ellipse cx="553.8" cy="274.5" rx="26.4" ry="22.0" fill="#fff7df" stroke="#ffffff88" stroke-width="1.2" transform="rotate(229.7 553.8 274.5)" />
    <ellipse cx="606.3" cy="275.0" rx="31.2" ry="26.0" fill="#efe7d0" stroke="#ffffff88" stroke-width="1.2" transform="rotate(236.3 606.3 275.0)" />
    <ellipse cx="518.5" cy="305.5" rx="12.0" ry="10.0" fill="#d8c29b" stroke="#ffffff88" stroke-width="1.2" transform="rotate(242.9 518.5 305.5)" />
    <ellipse cx="566.9" cy="311.6" rx="16.8" ry="14.0" fill="#fff7df" stroke="#ffffff88" stroke-width="1.2" transform="rotate(249.6 566.9 311.6)" />
    <ellipse cx="612.8" cy="327.9" rx="21.6" ry="18.0" fill="#efe7d0" stroke="#ffffff88" stroke-width="1.2" transform="rotate(256.2 612.8 327.9)" />
    <ellipse cx="513.3" cy="327.1" rx="26.4" ry="22.0" fill="#d8c29b" stroke="#ffffff88" stroke-width="1.2" transform="rotate(262.8 513.3 327.1)" />
    <ellipse cx="551.7" cy="347.1" rx="31.2" ry="26.0" fill="#fff7df" stroke="#ffffff88" stroke-width="1.2" transform="rotate(269.4 551.7 347.1)" />
    <ellipse cx="580.5" cy="375.2" rx="12.0" ry="10.0" fill="#efe7d0" stroke="#ffffff88" stroke-width="1.2" transform="rotate(276.0 580.5 375.2)" />
    <ellipse cx="494.0" cy="343.4" rx="16.8" ry="14.0" fill="#d8c29b" stroke="#ffffff88" stroke-width="1.2" transform="rotate(282.6 494.0 343.4)" />
    <ellipse cx="513.6" cy="372.5" rx="21.6" ry="18.0" fill="#fff7df" stroke="#ffffff88" stroke-width="1.2" transform="rotate(289.2 513.6 372.5)" />
    <ellipse cx="518.9" cy="406.0" rx="26.4" ry="22.0" fill="#efe7d0" stroke="#ffffff88" stroke-width="1.2" transform="rotate(295.8 518.9 406.0)" />
    <ellipse cx="466.7" cy="351.1" rx="31.2" ry="26.0" fill="#d8c29b" stroke="#ffffff88" stroke-width="1.2" transform="rotate(302.5 466.7 351.1)" />
    <ellipse cx="463.3" cy="382.7" rx="12.0" ry="10.0" fill="#fff7df" stroke="#ffffff88" stroke-width="1.2" transform="rotate(309.1 463.3 382.7)" />
    <ellipse cx="444.2" cy="413.7" rx="16.8" ry="14.0" fill="#efe7d0" stroke="#ffffff88" stroke-width="1.2" transform="rotate(315.7 444.2 413.7)" />
    <ellipse cx="439.1" cy="349.4" rx="21.6" ry="18.0" fill="#d8c29b" stroke="#ffffff88" stroke-width="1.2" transform="rotate(322.3 439.1 349.4)" />
    <ellipse cx="413.6" cy="376.2" rx="26.4" ry="22.0" fill="#fff7df" stroke="#ffffff88" stroke-width="1.2" transform="rotate(328.9 413.6 376.2)" />
    <ellipse cx="374.6" cy="397.8" rx="31.2" ry="26.0" fill="#efe7d0" stroke="#ffffff88" stroke-width="1.2" transform="rotate(335.5 374.6 397.8)" />
    <ellipse cx="417.8" cy="339.9" rx="12.0" ry="10.0" fill="#d8c29b" stroke="#ffffff88" stroke-width="1.2" transform="rotate(342.1 417.8 339.9)" />
    <ellipse cx="376.2" cy="355.9" rx="16.8" ry="14.0" fill="#fff7df" stroke="#ffffff88" stroke-width="1.2" transform="rotate(348.8 376.2 355.9)" />
    <ellipse cx="326.5" cy="363.2" rx="21.6" ry="18.0" fill="#efe7d0" stroke="#ffffff88" stroke-width="1.2" transform="rotate(355.4 326.5 363.2)" />
    <ellipse cx="407.2" cy="326.0" rx="26.4" ry="22.0" fill="#d8c29b" stroke="#ffffff88" stroke-width="1.2" transform="rotate(362.0 407.2 326.0)" />
    <ellipse cx="359.0" cy="327.6" rx="31.2" ry="26.0" fill="#fff7df" stroke="#ffffff88" stroke-width="1.2" transform="rotate(368.6 359.0 327.6)" />
    <ellipse cx="310.1" cy="319.0" rx="12.0" ry="10.0" fill="#efe7d0" stroke="#ffffff88" stroke-width="1.2" transform="rotate(375.2 310.1 319.0)" />
    <ellipse cx="408.3" cy="311.7" rx="16.8" ry="14.0" fill="#d8c29b" stroke="#ffffff88" stroke-width="1.2" transform="rotate(381.8 408.3 311.7)" />
    <ellipse cx="364.6" cy="298.7" rx="21.6" ry="18.0" fill="#fff7df" stroke="#ffffff88" stroke-width="1.2" transform="rotate(388.4 364.6 298.7)" />
    <ellipse cx="327.6" cy="276.4" rx="26.4" ry="22.0" fill="#efe7d0" stroke="#ffffff88" stroke-width="1.2" transform="rotate(395.1 327.6 276.4)" />
    <ellipse cx="419.0" cy="300.7" rx="31.2" ry="26.0" fill="#d8c29b" stroke="#ffffff88" stroke-width="1.2" transform="rotate(401.7 419.0 300.7)" />
    <ellipse cx="389.7" cy="276.1" rx="12.0" ry="10.0" fill="#fff7df" stroke="#ffffff88" stroke-width="1.2" transform="rotate(408.3 389.7 276.1)" />
    <ellipse cx="373.0" cy="245.3" rx="16.8" ry="14.0" fill="#efe7d0" stroke="#ffffff88" stroke-width="1.2" transform="rotate(414.9 373.0 245.3)" />
    <ellipse cx="370.9" cy="210.6" rx="21.6" ry="18.0" fill="#d8c29b" stroke="#ffffff88" stroke-width="1.2" transform="rotate(421.5 370.9 210.6)" />
  <rect x="115" y="538" width="670" height="88" rx="28" fill="#091612" stroke="#ffffff26" />
  <text x="450" y="586" text-anchor="middle" font-family="Arial, sans-serif" font-size="58" font-weight="700" fill="#ffffff">Onion Chopped</text>
  <text x="450" y="615" text-anchor="middle" font-family="Arial, sans-serif" font-size="24" fill="#d4ff00" letter-spacing="3">EXPORT QUALITY</text>
</svg>
