<svg xmlns="http://www.w3.org/2000/svg" width="900" height="700" viewBox="0 0 900 700" role="img" aria-labelledby="title desc">
  <title id="title">Potato Flakes/Powder</title>
  <desc id="desc">Clean export product artwork for Potato Flakes/Powder on a dark green background.</desc>
  <defs>
    <linearGradient id="background" x1="0" x2="1" y1="0" y2="1">
      <stop stop-color="#091612" />
      <stop offset="1" stop-color="#1a332b" />
    </linearGradient>
    <filter id="shadow"><feDropShadow dx="0" dy="18" stdDeviation="22" flood-color="#000000" flood-opacity=".35" /></filter>
  </defs>
  <rect width="900" height="700" fill="url(#background)" />
  <rect x="70" y="60" width="760" height="580" rx="52" fill="#132620" stroke="#ffffff20" stroke-width="2" />
  <circle cx="450" cy="300" r="210" fill="#0b1d18" opacity=".5" />
  <ellipse cx="450" cy="315" rx="235" ry="170" fill="#eee5cc" stroke="#d4ff00" stroke-width="7" filter="url(#shadow)" />
    <ellipse cx="484.5" cy="311.3" rx="12.0" ry="10.0" fill="#b8743f" stroke="#ffffff88" stroke-width="1.2" transform="rotate(244.8 484.5 311.3)" />
    <ellipse cx="532.0" cy="315.1" rx="16.8" ry="14.0" fill="#d7a66a" stroke="#ffffff88" stroke-width="1.2" transform="rotate(251.4 532.0 315.1)" />
    <ellipse cx="577.2" cy="329.0" rx="21.6" ry="18.0" fill="#7f5130" stroke="#ffffff88" stroke-width="1.2" transform="rotate(258.0 577.2 329.0)" />
    <ellipse cx="616.3" cy="352.4" rx="26.4" ry="22.0" fill="#b8743f" stroke="#ffffff88" stroke-width="1.2" transform="rotate(264.6 616.3 352.4)" />
    <ellipse cx="518.5" cy="339.2" rx="31.2" ry="26.0" fill="#d7a66a" stroke="#ffffff88" stroke-width="1.2" transform="rotate(271.3 518.5 339.2)" />
    <ellipse cx="548.5" cy="365.0" rx="12.0" ry="10.0" fill="#7f5130" stroke="#ffffff88" stroke-width="1.2" transform="rotate(277.9 548.5 365.0)" />
    <ellipse cx="566.2" cy="397.4" rx="16.8" ry="14.0" fill="#b8743f" stroke="#ffffff88" stroke-width="1.2" transform="rotate(284.5 566.2 397.4)" />
    <ellipse cx="490.3" cy="355.3" rx="21.6" ry="18.0" fill="#d7a66a" stroke="#ffffff88" stroke-width="1.2" transform="rotate(291.1 490.3 355.3)" />
    <ellipse cx="498.4" cy="387.1" rx="26.4" ry="22.0" fill="#7f5130" stroke="#ffffff88" stroke-width="1.2" transform="rotate(297.7 498.4 387.1)" />
    <ellipse cx="490.9" cy="420.9" rx="31.2" ry="26.0" fill="#b8743f" stroke="#ffffff88" stroke-width="1.2" transform="rotate(304.3 490.9 420.9)" />
    <ellipse cx="455.6" cy="360.4" rx="12.0" ry="10.0" fill="#d7a66a" stroke="#ffffff88" stroke-width="1.2" transform="rotate(310.9 455.6 360.4)" />
    <ellipse cx="440.1" cy="390.8" rx="16.8" ry="14.0" fill="#7f5130" stroke="#ffffff88" stroke-width="1.2" transform="rotate(317.6 440.1 390.8)" />
    <ellipse cx="409.4" cy="418.3" rx="21.6" ry="18.0" fill="#b8743f" stroke="#ffffff88" stroke-width="1.2" transform="rotate(324.2 409.4 418.3)" />
    <ellipse cx="423.4" cy="354.2" rx="26.4" ry="22.0" fill="#d7a66a" stroke="#ffffff88" stroke-width="1.2" transform="rotate(330.8 423.4 354.2)" />
    <ellipse cx="388.0" cy="376.4" rx="31.2" ry="26.0" fill="#7f5130" stroke="#ffffff88" stroke-width="1.2" transform="rotate(337.4 388.0 376.4)" />
    <ellipse cx="341.4" cy="391.4" rx="12.0" ry="10.0" fill="#b8743f" stroke="#ffffff88" stroke-width="1.2" transform="rotate(344.0 341.4 391.4)" />
    <ellipse cx="401.0" cy="339.7" rx="16.8" ry="14.0" fill="#d7a66a" stroke="#ffffff88" stroke-width="1.2" transform="rotate(350.6 401.0 339.7)" />
    <ellipse cx="354.0" cy="348.6" rx="21.6" ry="18.0" fill="#7f5130" stroke="#ffffff88" stroke-width="1.2" transform="rotate(357.2 354.0 348.6)" />
    <ellipse cx="302.3" cy="347.7" rx="26.4" ry="22.0" fill="#b8743f" stroke="#ffffff88" stroke-width="1.2" transform="rotate(363.8 302.3 347.7)" />
    <ellipse cx="392.8" cy="321.1" rx="31.2" ry="26.0" fill="#d7a66a" stroke="#ffffff88" stroke-width="1.2" transform="rotate(370.5 392.8 321.1)" />
    <ellipse cx="345.0" cy="314.9" rx="12.0" ry="10.0" fill="#7f5130" stroke="#ffffff88" stroke-width="1.2" transform="rotate(377.1 345.0 314.9)" />
    <ellipse cx="300.1" cy="298.5" rx="16.8" ry="14.0" fill="#b8743f" stroke="#ffffff88" stroke-width="1.2" transform="rotate(383.7 300.1 298.5)" />
    <ellipse cx="399.0" cy="303.5" rx="21.6" ry="18.0" fill="#d7a66a" stroke="#ffffff88" stroke-width="1.2" transform="rotate(390.3 399.0 303.5)" />
    <ellipse cx="361.3" cy="283.6" rx="26.4" ry="22.0" fill="#7f5130" stroke="#ffffff88" stroke-width="1.2" transform="rotate(396.9 361.3 283.6)" />
    <ellipse cx="333.4" cy="255.7" rx="31.2" ry="26.0" fill="#b8743f" stroke="#ffffff88" stroke-width="1.2" transform="rotate(403.5 333.4 255.7)" />
    <ellipse cx="416.2" cy="291.0" rx="12.0" ry="10.0" fill="#d7a66a" stroke="#ffffff88" stroke-width="1.2" transform="rotate(410.1 416.2 291.0)" />
    <ellipse cx="397.1" cy="262.1" rx="16.8" ry="14.0" fill="#7f5130" stroke="#ffffff88" stroke-width="1.2" transform="rotate(416.8 397.1 262.1)" />
    <ellipse cx="392.4" cy="229.2" rx="21.6" ry="18.0" fill="#b8743f" stroke="#ffffff88" stroke-width="1.2" transform="rotate(423.4 392.4 229.2)" />
    <ellipse cx="438.8" cy="286.0" rx="26.4" ry="22.0" fill="#d7a66a" stroke="#ffffff88" stroke-width="1.2" transform="rotate(430.0 438.8 286.0)" />
    <ellipse cx="442.5" cy="254.7" rx="31.2" ry="26.0" fill="#7f5130" stroke="#ffffff88" stroke-width="1.2" transform="rotate(436.6 442.5 254.7)" />
    <ellipse cx="461.9" cy="224.3" rx="12.0" ry="10.0" fill="#b8743f" stroke="#ffffff88" stroke-width="1.2" transform="rotate(443.2 461.9 224.3)" />
    <ellipse cx="460.4" cy="288.5" rx="16.8" ry="14.0" fill="#d7a66a" stroke="#ffffff88" stroke-width="1.2" transform="rotate(449.8 460.4 288.5)" />
    <ellipse cx="485.9" cy="262.1" rx="21.6" ry="18.0" fill="#7f5130" stroke="#ffffff88" stroke-width="1.2" transform="rotate(456.4 485.9 262.1)" />
    <ellipse cx="524.6" cy="241.1" rx="26.4" ry="22.0" fill="#b8743f" stroke="#ffffff88" stroke-width="1.2" transform="rotate(463.1 524.6 241.1)" />
    <ellipse cx="475.8" cy="296.9" rx="31.2" ry="26.0" fill="#d7a66a" stroke="#ffffff88" stroke-width="1.2" transform="rotate(469.7 475.8 296.9)" />
    <ellipse cx="517.2" cy="281.2" rx="12.0" ry="10.0" fill="#7f5130" stroke="#ffffff88" stroke-width="1.2" transform="rotate(476.3 517.2 281.2)" />
    <ellipse cx="566.2" cy="274.3" rx="16.8" ry="14.0" fill="#b8743f" stroke="#ffffff88" stroke-width="1.2" transform="rotate(482.9 566.2 274.3)" />
    <ellipse cx="619.4" cy="277.5" rx="21.6" ry="18.0" fill="#d7a66a" stroke="#ffffff88" stroke-width="1.2" transform="rotate(489.5 619.4 277.5)" />
  <rect x="115" y="538" width="670" height="88" rx="28" fill="#091612" stroke="#ffffff26" />
  <text x="450" y="586" text-anchor="middle" font-family="Arial, sans-serif" font-size="48" font-weight="700" fill="#ffffff">Potato Flakes/Powder</text>
  <text x="450" y="615" text-anchor="middle" font-family="Arial, sans-serif" font-size="24" fill="#d4ff00" letter-spacing="3">EXPORT QUALITY</text>
</svg>
