<svg xmlns="http://www.w3.org/2000/svg" width="900" height="700" viewBox="0 0 900 700" role="img" aria-labelledby="title desc">
  <title id="title">Premium Basmati Rice</title>
  <desc id="desc">Clean export product artwork for Premium Basmati Rice on a dark green background.</desc>
  <defs>
    <linearGradient id="background" x1="0" x2="1" y1="0" y2="1">
      <stop stop-color="#091612" />
      <stop offset="1" stop-color="#1a332b" />
    </linearGradient>
    <filter id="shadow"><feDropShadow dx="0" dy="18" stdDeviation="22" flood-color="#000000" flood-opacity=".35" /></filter>
  </defs>
  <rect width="900" height="700" fill="url(#background)" />
  <rect x="70" y="60" width="760" height="580" rx="52" fill="#132620" stroke="#ffffff20" stroke-width="2" />
  <circle cx="450" cy="300" r="210" fill="#0b1d18" opacity=".5" />
  <ellipse cx="450" cy="315" rx="235" ry="170" fill="#eee5cc" stroke="#d4ff00" stroke-width="7" filter="url(#shadow)" />
    <ellipse cx="424.5" cy="330.6" rx="12.0" ry="10.0" fill="#caa66a" stroke="#ffffff88" stroke-width="1.2" transform="rotate(346.8 424.5 330.6)" />
    <ellipse cx="381.8" cy="344.6" rx="16.8" ry="14.0" fill="#e1c887" stroke="#ffffff88" stroke-width="1.2" transform="rotate(353.4 381.8 344.6)" />
    <ellipse cx="332.4" cy="349.5" rx="21.6" ry="18.0" fill="#8f6a3c" stroke="#ffffff88" stroke-width="1.2" transform="rotate(360.0 332.4 349.5)" />
    <ellipse cx="279.9" cy="344.3" rx="26.4" ry="22.0" fill="#caa66a" stroke="#ffffff88" stroke-width="1.2" transform="rotate(366.6 279.9 344.3)" />
    <ellipse cx="372.3" cy="319.7" rx="31.2" ry="26.0" fill="#e1c887" stroke="#ffffff88" stroke-width="1.2" transform="rotate(373.3 372.3 319.7)" />
    <ellipse cx="325.3" cy="309.2" rx="12.0" ry="10.0" fill="#8f6a3c" stroke="#ffffff88" stroke-width="1.2" transform="rotate(379.9 325.3 309.2)" />
    <ellipse cx="282.8" cy="288.7" rx="16.8" ry="14.0" fill="#caa66a" stroke="#ffffff88" stroke-width="1.2" transform="rotate(386.5 282.8 288.7)" />
    <ellipse cx="381.9" cy="296.2" rx="21.6" ry="18.0" fill="#e1c887" stroke="#ffffff88" stroke-width="1.2" transform="rotate(393.1 381.9 296.2)" />
    <ellipse cx="348.0" cy="272.7" rx="26.4" ry="22.0" fill="#8f6a3c" stroke="#ffffff88" stroke-width="1.2" transform="rotate(399.7 348.0 272.7)" />
    <ellipse cx="325.2" cy="241.9" rx="31.2" ry="26.0" fill="#caa66a" stroke="#ffffff88" stroke-width="1.2" transform="rotate(406.3 325.2 241.9)" />
    <ellipse cx="406.4" cy="279.4" rx="12.0" ry="10.0" fill="#e1c887" stroke="#ffffff88" stroke-width="1.2" transform="rotate(412.9 406.4 279.4)" />
    <ellipse cx="393.2" cy="248.5" rx="16.8" ry="14.0" fill="#8f6a3c" stroke="#ffffff88" stroke-width="1.2" transform="rotate(419.6 393.2 248.5)" />
    <ellipse cx="395.1" cy="214.6" rx="21.6" ry="18.0" fill="#caa66a" stroke="#ffffff88" stroke-width="1.2" transform="rotate(426.2 395.1 214.6)" />
    <ellipse cx="438.4" cy="272.8" rx="26.4" ry="22.0" fill="#e1c887" stroke="#ffffff88" stroke-width="1.2" transform="rotate(432.8 438.4 272.8)" />
    <ellipse cx="448.8" cy="241.6" rx="31.2" ry="26.0" fill="#8f6a3c" stroke="#ffffff88" stroke-width="1.2" transform="rotate(439.4 448.8 241.6)" />
    <ellipse cx="474.6" cy="212.2" rx="12.0" ry="10.0" fill="#caa66a" stroke="#ffffff88" stroke-width="1.2" transform="rotate(446.0 474.6 212.2)" />
    <ellipse cx="469.5" cy="276.7" rx="16.8" ry="14.0" fill="#e1c887" stroke="#ffffff88" stroke-width="1.2" transform="rotate(452.6 469.5 276.7)" />
    <ellipse cx="500.8" cy="252.3" rx="21.6" ry="18.0" fill="#8f6a3c" stroke="#ffffff88" stroke-width="1.2" transform="rotate(459.2 500.8 252.3)" />
    <ellipse cx="544.5" cy="234.3" rx="26.4" ry="22.0" fill="#caa66a" stroke="#ffffff88" stroke-width="1.2" transform="rotate(465.8 544.5 234.3)" />
    <ellipse cx="492.2" cy="289.2" rx="31.2" ry="26.0" fill="#e1c887" stroke="#ffffff88" stroke-width="1.2" transform="rotate(472.5 492.2 289.2)" />
    <ellipse cx="537.3" cy="277.1" rx="12.0" ry="10.0" fill="#8f6a3c" stroke="#ffffff88" stroke-width="1.2" transform="rotate(479.1 537.3 277.1)" />
    <ellipse cx="588.5" cy="274.3" rx="16.8" ry="14.0" fill="#caa66a" stroke="#ffffff88" stroke-width="1.2" transform="rotate(485.7 588.5 274.3)" />
    <ellipse cx="502.2" cy="306.0" rx="21.6" ry="18.0" fill="#e1c887" stroke="#ffffff88" stroke-width="1.2" transform="rotate(492.3 502.2 306.0)" />
    <ellipse cx="550.6" cy="308.9" rx="26.4" ry="22.0" fill="#8f6a3c" stroke="#ffffff88" stroke-width="1.2" transform="rotate(498.9 550.6 308.9)" />
    <ellipse cx="597.6" cy="321.9" rx="31.2" ry="26.0" fill="#caa66a" stroke="#ffffff88" stroke-width="1.2" transform="rotate(505.5 597.6 321.9)" />
    <ellipse cx="498.6" cy="322.6" rx="12.0" ry="10.0" fill="#e1c887" stroke="#ffffff88" stroke-width="1.2" transform="rotate(512.1 498.6 322.6)" />
    <ellipse cx="539.2" cy="339.7" rx="16.8" ry="14.0" fill="#8f6a3c" stroke="#ffffff88" stroke-width="1.2" transform="rotate(518.8 539.2 339.7)" />
    <ellipse cx="571.4" cy="365.4" rx="21.6" ry="18.0" fill="#caa66a" stroke="#ffffff88" stroke-width="1.2" transform="rotate(525.4 571.4 365.4)" />
    <ellipse cx="484.2" cy="335.0" rx="26.4" ry="22.0" fill="#e1c887" stroke="#ffffff88" stroke-width="1.2" transform="rotate(532.0 484.2 335.0)" />
    <ellipse cx="507.9" cy="362.3" rx="31.2" ry="26.0" fill="#8f6a3c" stroke="#ffffff88" stroke-width="1.2" transform="rotate(538.6 507.9 362.3)" />
    <ellipse cx="517.9" cy="394.6" rx="12.0" ry="10.0" fill="#caa66a" stroke="#ffffff88" stroke-width="1.2" transform="rotate(545.2 517.9 394.6)" />
    <ellipse cx="464.1" cy="340.7" rx="16.8" ry="14.0" fill="#e1c887" stroke="#ffffff88" stroke-width="1.2" transform="rotate(551.8 464.1 340.7)" />
    <ellipse cx="465.6" cy="372.0" rx="21.6" ry="18.0" fill="#8f6a3c" stroke="#ffffff88" stroke-width="1.2" transform="rotate(558.4 465.6 372.0)" />
    <ellipse cx="451.5" cy="403.4" rx="26.4" ry="22.0" fill="#caa66a" stroke="#ffffff88" stroke-width="1.2" transform="rotate(565.1 451.5 403.4)" />
    <ellipse cx="444.1" cy="339.4" rx="31.2" ry="26.0" fill="#e1c887" stroke="#ffffff88" stroke-width="1.2" transform="rotate(571.7 444.1 339.4)" />
    <ellipse cx="423.3" cy="367.4" rx="12.0" ry="10.0" fill="#8f6a3c" stroke="#ffffff88" stroke-width="1.2" transform="rotate(578.3 423.3 367.4)" />
    <ellipse cx="388.4" cy="390.9" rx="16.8" ry="14.0" fill="#caa66a" stroke="#ffffff88" stroke-width="1.2" transform="rotate(584.9 388.4 390.9)" />
    <ellipse cx="341.6" cy="407.6" rx="21.6" ry="18.0" fill="#e1c887" stroke="#ffffff88" stroke-width="1.2" transform="rotate(591.5 341.6 407.6)" />
  <rect x="115" y="538" width="670" height="88" rx="28" fill="#091612" stroke="#ffffff26" />
  <text x="450" y="586" text-anchor="middle" font-family="Arial, sans-serif" font-size="48" font-weight="700" fill="#ffffff">Premium Basmati Rice</text>
  <text x="450" y="615" text-anchor="middle" font-family="Arial, sans-serif" font-size="24" fill="#d4ff00" letter-spacing="3">EXPORT QUALITY</text>
</svg>
