<svg xmlns="http://www.w3.org/2000/svg" width="900" height="700" viewBox="0 0 900 700" role="img" aria-labelledby="title desc">
  <title id="title">Sesame Seeds</title>
  <desc id="desc">Clean export product artwork for Sesame Seeds on a dark green background.</desc>
  <defs>
    <linearGradient id="background" x1="0" x2="1" y1="0" y2="1">
      <stop stop-color="#091612" />
      <stop offset="1" stop-color="#1a332b" />
    </linearGradient>
    <filter id="shadow"><feDropShadow dx="0" dy="18" stdDeviation="22" flood-color="#000000" flood-opacity=".35" /></filter>
  </defs>
  <rect width="900" height="700" fill="url(#background)" />
  <rect x="70" y="60" width="760" height="580" rx="52" fill="#132620" stroke="#ffffff20" stroke-width="2" />
  <circle cx="450" cy="300" r="210" fill="#0b1d18" opacity=".5" />
  <ellipse cx="450" cy="315" rx="235" ry="170" fill="#eee5cc" stroke="#d4ff00" stroke-width="7" filter="url(#shadow)" />
    <ellipse cx="429.1" cy="333.3" rx="12.0" ry="10.0" fill="#efe7d0" stroke="#ffffff88" stroke-width="1.2" transform="rotate(88.4 429.1 333.3)" />
    <ellipse cx="390.9" cy="352.0" rx="16.8" ry="14.0" fill="#d8c29b" stroke="#ffffff88" stroke-width="1.2" transform="rotate(95.0 390.9 352.0)" />
    <ellipse cx="343.6" cy="362.4" rx="21.6" ry="18.0" fill="#fff7df" stroke="#ffffff88" stroke-width="1.2" transform="rotate(101.6 343.6 362.4)" />
    <ellipse cx="290.4" cy="363.3" rx="26.4" ry="22.0" fill="#efe7d0" stroke="#ffffff88" stroke-width="1.2" transform="rotate(108.2 290.4 363.3)" />
    <ellipse cx="374.8" cy="328.5" rx="31.2" ry="26.0" fill="#d8c29b" stroke="#ffffff88" stroke-width="1.2" transform="rotate(114.9 374.8 328.5)" />
    <ellipse cx="325.7" cy="323.5" rx="12.0" ry="10.0" fill="#fff7df" stroke="#ffffff88" stroke-width="1.2" transform="rotate(121.5 325.7 323.5)" />
    <ellipse cx="278.3" cy="308.2" rx="16.8" ry="14.0" fill="#efe7d0" stroke="#ffffff88" stroke-width="1.2" transform="rotate(128.1 278.3 308.2)" />
    <ellipse cx="377.9" cy="304.2" rx="21.6" ry="18.0" fill="#d8c29b" stroke="#ffffff88" stroke-width="1.2" transform="rotate(134.7 377.9 304.2)" />
    <ellipse cx="338.1" cy="285.0" rx="26.4" ry="22.0" fill="#fff7df" stroke="#ffffff88" stroke-width="1.2" transform="rotate(141.3 338.1 285.0)" />
    <ellipse cx="307.4" cy="257.3" rx="31.2" ry="26.0" fill="#efe7d0" stroke="#ffffff88" stroke-width="1.2" transform="rotate(147.9 307.4 257.3)" />
    <ellipse cx="397.5" cy="284.9" rx="12.0" ry="10.0" fill="#d8c29b" stroke="#ffffff88" stroke-width="1.2" transform="rotate(154.5 397.5 284.9)" />
    <ellipse cx="376.1" cy="256.0" rx="16.8" ry="14.0" fill="#fff7df" stroke="#ffffff88" stroke-width="1.2" transform="rotate(161.2 376.1 256.0)" />
    <ellipse cx="368.8" cy="222.4" rx="21.6" ry="18.0" fill="#efe7d0" stroke="#ffffff88" stroke-width="1.2" transform="rotate(167.8 368.8 222.4)" />
    <ellipse cx="427.2" cy="274.7" rx="26.4" ry="22.0" fill="#d8c29b" stroke="#ffffff88" stroke-width="1.2" transform="rotate(174.4 427.2 274.7)" />
    <ellipse cx="428.9" cy="242.8" rx="31.2" ry="26.0" fill="#fff7df" stroke="#ffffff88" stroke-width="1.2" transform="rotate(181.0 428.9 242.8)" />
    <ellipse cx="446.5" cy="211.0" rx="12.0" ry="10.0" fill="#efe7d0" stroke="#ffffff88" stroke-width="1.2" transform="rotate(187.6 446.5 211.0)" />
    <ellipse cx="458.8" cy="275.1" rx="16.8" ry="14.0" fill="#d8c29b" stroke="#ffffff88" stroke-width="1.2" transform="rotate(194.2 458.8 275.1)" />
    <ellipse cx="483.1" cy="247.5" rx="21.6" ry="18.0" fill="#fff7df" stroke="#ffffff88" stroke-width="1.2" transform="rotate(200.8 483.1 247.5)" />
    <ellipse cx="521.2" cy="224.8" rx="26.4" ry="22.0" fill="#efe7d0" stroke="#ffffff88" stroke-width="1.2" transform="rotate(207.4 521.2 224.8)" />
    <ellipse cx="484.6" cy="284.7" rx="31.2" ry="26.0" fill="#d8c29b" stroke="#ffffff88" stroke-width="1.2" transform="rotate(214.1 484.6 284.7)" />
    <ellipse cx="525.7" cy="267.7" rx="12.0" ry="10.0" fill="#fff7df" stroke="#ffffff88" stroke-width="1.2" transform="rotate(220.7 525.7 267.7)" />
    <ellipse cx="575.4" cy="259.1" rx="16.8" ry="14.0" fill="#efe7d0" stroke="#ffffff88" stroke-width="1.2" transform="rotate(227.3 575.4 259.1)" />
    <ellipse cx="499.0" cy="300.2" rx="21.6" ry="18.0" fill="#d8c29b" stroke="#ffffff88" stroke-width="1.2" transform="rotate(233.9 499.0 300.2)" />
    <ellipse cx="547.3" cy="297.5" rx="26.4" ry="22.0" fill="#fff7df" stroke="#ffffff88" stroke-width="1.2" transform="rotate(240.5 547.3 297.5)" />
    <ellipse cx="597.2" cy="304.9" rx="31.2" ry="26.0" fill="#efe7d0" stroke="#ffffff88" stroke-width="1.2" transform="rotate(247.1 597.2 304.9)" />
    <ellipse cx="499.9" cy="317.0" rx="12.0" ry="10.0" fill="#d8c29b" stroke="#ffffff88" stroke-width="1.2" transform="rotate(253.7 499.9 317.0)" />
    <ellipse cx="544.5" cy="329.1" rx="16.8" ry="14.0" fill="#fff7df" stroke="#ffffff88" stroke-width="1.2" transform="rotate(260.4 544.5 329.1)" />
    <ellipse cx="583.1" cy="350.7" rx="21.6" ry="18.0" fill="#efe7d0" stroke="#ffffff88" stroke-width="1.2" transform="rotate(267.0 583.1 350.7)" />
    <ellipse cx="489.1" cy="330.8" rx="26.4" ry="22.0" fill="#d8c29b" stroke="#ffffff88" stroke-width="1.2" transform="rotate(273.6 489.1 330.8)" />
    <ellipse cx="519.8" cy="354.9" rx="31.2" ry="26.0" fill="#fff7df" stroke="#ffffff88" stroke-width="1.2" transform="rotate(280.2 519.8 354.9)" />
    <ellipse cx="538.4" cy="385.6" rx="12.0" ry="10.0" fill="#efe7d0" stroke="#ffffff88" stroke-width="1.2" transform="rotate(286.8 538.4 385.6)" />
    <ellipse cx="470.8" cy="338.7" rx="16.8" ry="14.0" fill="#d8c29b" stroke="#ffffff88" stroke-width="1.2" transform="rotate(293.4 470.8 338.7)" />
    <ellipse cx="480.8" cy="369.3" rx="21.6" ry="18.0" fill="#fff7df" stroke="#ffffff88" stroke-width="1.2" transform="rotate(300.0 480.8 369.3)" />
    <ellipse cx="475.4" cy="401.9" rx="26.4" ry="22.0" fill="#efe7d0" stroke="#ffffff88" stroke-width="1.2" transform="rotate(306.7 475.4 401.9)" />
    <ellipse cx="450.8" cy="339.7" rx="31.2" ry="26.0" fill="#d8c29b" stroke="#ffffff88" stroke-width="1.2" transform="rotate(313.3 450.8 339.7)" />
    <ellipse cx="437.9" cy="369.7" rx="12.0" ry="10.0" fill="#fff7df" stroke="#ffffff88" stroke-width="1.2" transform="rotate(319.9 437.9 369.7)" />
    <ellipse cx="409.9" cy="396.7" rx="16.8" ry="14.0" fill="#efe7d0" stroke="#ffffff88" stroke-width="1.2" transform="rotate(326.5 409.9 396.7)" />
    <ellipse cx="368.3" cy="418.5" rx="21.6" ry="18.0" fill="#d8c29b" stroke="#ffffff88" stroke-width="1.2" transform="rotate(333.1 368.3 418.5)" />
  <rect x="115" y="538" width="670" height="88" rx="28" fill="#091612" stroke="#ffffff26" />
  <text x="450" y="586" text-anchor="middle" font-family="Arial, sans-serif" font-size="58" font-weight="700" fill="#ffffff">Sesame Seeds</text>
  <text x="450" y="615" text-anchor="middle" font-family="Arial, sans-serif" font-size="24" fill="#d4ff00" letter-spacing="3">EXPORT QUALITY</text>
</svg>
