<svg xmlns="http://www.w3.org/2000/svg" width="900" height="700" viewBox="0 0 900 700" role="img" aria-labelledby="title desc">
  <title id="title">Soybean</title>
  <desc id="desc">Clean export product artwork for Soybean on a dark green background.</desc>
  <defs>
    <linearGradient id="background" x1="0" x2="1" y1="0" y2="1">
      <stop stop-color="#091612" />
      <stop offset="1" stop-color="#1a332b" />
    </linearGradient>
    <filter id="shadow"><feDropShadow dx="0" dy="18" stdDeviation="22" flood-color="#000000" flood-opacity=".35" /></filter>
  </defs>
  <rect width="900" height="700" fill="url(#background)" />
  <rect x="70" y="60" width="760" height="580" rx="52" fill="#132620" stroke="#ffffff20" stroke-width="2" />
  <circle cx="450" cy="300" r="210" fill="#0b1d18" opacity=".5" />
  <ellipse cx="450" cy="315" rx="235" ry="170" fill="#eee5cc" stroke="#d4ff00" stroke-width="7" filter="url(#shadow)" />
    <ellipse cx="420.9" cy="327.7" rx="12.0" ry="10.0" fill="#caa66a" stroke="#ffffff88" stroke-width="1.2" transform="rotate(102.0 420.9 327.7)" />
    <ellipse cx="375.3" cy="337.0" rx="16.8" ry="14.0" fill="#e1c887" stroke="#ffffff88" stroke-width="1.2" transform="rotate(108.6 375.3 337.0)" />
    <ellipse cx="325.4" cy="336.6" rx="21.6" ry="18.0" fill="#8f6a3c" stroke="#ffffff88" stroke-width="1.2" transform="rotate(115.2 325.4 336.6)" />
    <ellipse cx="274.8" cy="325.9" rx="26.4" ry="22.0" fill="#caa66a" stroke="#ffffff88" stroke-width="1.2" transform="rotate(121.8 274.8 325.9)" />
    <ellipse cx="372.2" cy="311.5" rx="31.2" ry="26.0" fill="#e1c887" stroke="#ffffff88" stroke-width="1.2" transform="rotate(128.5 372.2 311.5)" />
    <ellipse cx="328.4" cy="296.1" rx="12.0" ry="10.0" fill="#8f6a3c" stroke="#ffffff88" stroke-width="1.2" transform="rotate(135.1 328.4 296.1)" />
    <ellipse cx="291.6" cy="271.4" rx="16.8" ry="14.0" fill="#caa66a" stroke="#ffffff88" stroke-width="1.2" transform="rotate(141.7 291.6 271.4)" />
    <ellipse cx="387.5" cy="289.2" rx="21.6" ry="18.0" fill="#e1c887" stroke="#ffffff88" stroke-width="1.2" transform="rotate(148.3 387.5 289.2)" />
    <ellipse cx="359.9" cy="262.5" rx="26.4" ry="22.0" fill="#8f6a3c" stroke="#ffffff88" stroke-width="1.2" transform="rotate(154.9 359.9 262.5)" />
    <ellipse cx="345.1" cy="229.7" rx="31.2" ry="26.0" fill="#caa66a" stroke="#ffffff88" stroke-width="1.2" transform="rotate(161.5 345.1 229.7)" />
    <ellipse cx="415.9" cy="275.3" rx="12.0" ry="10.0" fill="#e1c887" stroke="#ffffff88" stroke-width="1.2" transform="rotate(168.1 415.9 275.3)" />
    <ellipse cx="410.6" cy="243.4" rx="16.8" ry="14.0" fill="#8f6a3c" stroke="#ffffff88" stroke-width="1.2" transform="rotate(174.8 410.6 243.4)" />
    <ellipse cx="420.9" cy="210.1" rx="21.6" ry="18.0" fill="#caa66a" stroke="#ffffff88" stroke-width="1.2" transform="rotate(181.4 420.9 210.1)" />
    <ellipse cx="449.2" cy="272.1" rx="26.4" ry="22.0" fill="#e1c887" stroke="#ffffff88" stroke-width="1.2" transform="rotate(188.0 449.2 272.1)" />
    <ellipse cx="467.2" cy="242.4" rx="31.2" ry="26.0" fill="#8f6a3c" stroke="#ffffff88" stroke-width="1.2" transform="rotate(194.6 467.2 242.4)" />
    <ellipse cx="500.0" cy="216.2" rx="12.0" ry="10.0" fill="#caa66a" stroke="#ffffff88" stroke-width="1.2" transform="rotate(201.2 500.0 216.2)" />
    <ellipse cx="478.8" cy="279.3" rx="16.8" ry="14.0" fill="#e1c887" stroke="#ffffff88" stroke-width="1.2" transform="rotate(207.8 478.8 279.3)" />
    <ellipse cx="515.8" cy="258.5" rx="21.6" ry="18.0" fill="#8f6a3c" stroke="#ffffff88" stroke-width="1.2" transform="rotate(214.4 515.8 258.5)" />
    <ellipse cx="563.4" cy="245.4" rx="26.4" ry="22.0" fill="#caa66a" stroke="#ffffff88" stroke-width="1.2" transform="rotate(221.0 563.4 245.4)" />
    <ellipse cx="498.1" cy="294.0" rx="31.2" ry="26.0" fill="#e1c887" stroke="#ffffff88" stroke-width="1.2" transform="rotate(227.7 498.1 294.0)" />
    <ellipse cx="545.6" cy="286.8" rx="12.0" ry="10.0" fill="#8f6a3c" stroke="#ffffff88" stroke-width="1.2" transform="rotate(234.3 545.6 286.8)" />
    <ellipse cx="596.9" cy="289.5" rx="16.8" ry="14.0" fill="#caa66a" stroke="#ffffff88" stroke-width="1.2" transform="rotate(240.9 596.9 289.5)" />
    <ellipse cx="503.8" cy="311.7" rx="21.6" ry="18.0" fill="#e1c887" stroke="#ffffff88" stroke-width="1.2" transform="rotate(247.5 503.8 311.7)" />
    <ellipse cx="550.8" cy="319.6" rx="26.4" ry="22.0" fill="#8f6a3c" stroke="#ffffff88" stroke-width="1.2" transform="rotate(254.1 550.8 319.6)" />
    <ellipse cx="593.9" cy="337.4" rx="31.2" ry="26.0" fill="#caa66a" stroke="#ffffff88" stroke-width="1.2" transform="rotate(260.7 593.9 337.4)" />
    <ellipse cx="496.0" cy="327.7" rx="12.0" ry="10.0" fill="#e1c887" stroke="#ffffff88" stroke-width="1.2" transform="rotate(267.3 496.0 327.7)" />
    <ellipse cx="531.9" cy="348.8" rx="16.8" ry="14.0" fill="#8f6a3c" stroke="#ffffff88" stroke-width="1.2" transform="rotate(274.0 531.9 348.8)" />
    <ellipse cx="557.2" cy="377.5" rx="21.6" ry="18.0" fill="#caa66a" stroke="#ffffff88" stroke-width="1.2" transform="rotate(280.6 557.2 377.5)" />
    <ellipse cx="478.7" cy="338.4" rx="26.4" ry="22.0" fill="#e1c887" stroke="#ffffff88" stroke-width="1.2" transform="rotate(287.2 478.7 338.4)" />
    <ellipse cx="495.3" cy="367.8" rx="31.2" ry="26.0" fill="#8f6a3c" stroke="#ffffff88" stroke-width="1.2" transform="rotate(293.8 495.3 367.8)" />
    <ellipse cx="497.2" cy="400.7" rx="12.0" ry="10.0" fill="#caa66a" stroke="#ffffff88" stroke-width="1.2" transform="rotate(300.4 497.2 400.7)" />
    <ellipse cx="457.4" cy="341.9" rx="16.8" ry="14.0" fill="#e1c887" stroke="#ffffff88" stroke-width="1.2" transform="rotate(307.0 457.4 341.9)" />
    <ellipse cx="451.1" cy="372.8" rx="21.6" ry="18.0" fill="#8f6a3c" stroke="#ffffff88" stroke-width="1.2" transform="rotate(313.6 451.1 372.8)" />
    <ellipse cx="429.3" cy="402.4" rx="26.4" ry="22.0" fill="#caa66a" stroke="#ffffff88" stroke-width="1.2" transform="rotate(320.3 429.3 402.4)" />
    <ellipse cx="438.1" cy="338.5" rx="31.2" ry="26.0" fill="#e1c887" stroke="#ffffff88" stroke-width="1.2" transform="rotate(326.9 438.1 338.5)" />
    <ellipse cx="410.5" cy="363.9" rx="12.0" ry="10.0" fill="#8f6a3c" stroke="#ffffff88" stroke-width="1.2" transform="rotate(333.5 410.5 363.9)" />
    <ellipse cx="370.3" cy="383.4" rx="16.8" ry="14.0" fill="#caa66a" stroke="#ffffff88" stroke-width="1.2" transform="rotate(340.1 370.3 383.4)" />
    <ellipse cx="319.9" cy="394.9" rx="21.6" ry="18.0" fill="#e1c887" stroke="#ffffff88" stroke-width="1.2" transform="rotate(346.7 319.9 394.9)" />
  <rect x="115" y="538" width="670" height="88" rx="28" fill="#091612" stroke="#ffffff26" />
  <text x="450" y="586" text-anchor="middle" font-family="Arial, sans-serif" font-size="58" font-weight="700" fill="#ffffff">Soybean</text>
  <text x="450" y="615" text-anchor="middle" font-family="Arial, sans-serif" font-size="24" fill="#d4ff00" letter-spacing="3">EXPORT QUALITY</text>
</svg>
