<svg xmlns="http://www.w3.org/2000/svg" width="900" height="700" viewBox="0 0 900 700" role="img" aria-labelledby="title desc">
  <title id="title">Spray Dried Beetroot Powder</title>
  <desc id="desc">Clean export product artwork for Spray Dried Beetroot Powder on a dark green background.</desc>
  <defs>
    <linearGradient id="background" x1="0" x2="1" y1="0" y2="1">
      <stop stop-color="#091612" />
      <stop offset="1" stop-color="#1a332b" />
    </linearGradient>
    <filter id="shadow"><feDropShadow dx="0" dy="18" stdDeviation="22" flood-color="#000000" flood-opacity=".35" /></filter>
  </defs>
  <rect width="900" height="700" fill="url(#background)" />
  <rect x="70" y="60" width="760" height="580" rx="52" fill="#132620" stroke="#ffffff20" stroke-width="2" />
  <circle cx="450" cy="300" r="210" fill="#0b1d18" opacity=".5" />
  <ellipse cx="450" cy="315" rx="235" ry="170" fill="#eee5cc" stroke="#d4ff00" stroke-width="7" filter="url(#shadow)" />
    <ellipse cx="415.1" cy="313.0" rx="12.0" ry="10.0" fill="#d9432f" stroke="#ffffff88" stroke-width="1.2" transform="rotate(129.2 415.1 313.0)" />
    <ellipse cx="370.6" cy="301.6" rx="16.8" ry="14.0" fill="#9d1f2d" stroke="#ffffff88" stroke-width="1.2" transform="rotate(135.8 370.6 301.6)" />
    <ellipse cx="332.2" cy="280.9" rx="21.6" ry="18.0" fill="#f06b48" stroke="#ffffff88" stroke-width="1.2" transform="rotate(142.4 332.2 280.9)" />
    <ellipse cx="303.2" cy="251.9" rx="26.4" ry="22.0" fill="#d9432f" stroke="#ffffff88" stroke-width="1.2" transform="rotate(149.0 303.2 251.9)" />
    <ellipse cx="392.9" cy="280.4" rx="31.2" ry="26.0" fill="#9d1f2d" stroke="#ffffff88" stroke-width="1.2" transform="rotate(155.7 392.9 280.4)" />
    <ellipse cx="373.8" cy="250.6" rx="12.0" ry="10.0" fill="#f06b48" stroke="#ffffff88" stroke-width="1.2" transform="rotate(162.3 373.8 250.6)" />
    <ellipse cx="369.0" cy="216.4" rx="16.8" ry="14.0" fill="#d9432f" stroke="#ffffff88" stroke-width="1.2" transform="rotate(168.9 369.0 216.4)" />
    <ellipse cx="426.4" cy="269.4" rx="21.6" ry="18.0" fill="#9d1f2d" stroke="#ffffff88" stroke-width="1.2" transform="rotate(175.5 426.4 269.4)" />
    <ellipse cx="430.8" cy="237.3" rx="26.4" ry="22.0" fill="#f06b48" stroke="#ffffff88" stroke-width="1.2" transform="rotate(182.1 430.8 237.3)" />
    <ellipse cx="451.0" cy="205.8" rx="31.2" ry="26.0" fill="#d9432f" stroke="#ffffff88" stroke-width="1.2" transform="rotate(188.7 451.0 205.8)" />
    <ellipse cx="461.9" cy="270.2" rx="12.0" ry="10.0" fill="#9d1f2d" stroke="#ffffff88" stroke-width="1.2" transform="rotate(195.3 461.9 270.2)" />
    <ellipse cx="488.6" cy="243.2" rx="16.8" ry="14.0" fill="#f06b48" stroke="#ffffff88" stroke-width="1.2" transform="rotate(202.0 488.6 243.2)" />
    <ellipse cx="528.9" cy="221.5" rx="21.6" ry="18.0" fill="#d9432f" stroke="#ffffff88" stroke-width="1.2" transform="rotate(208.6 528.9 221.5)" />
    <ellipse cx="490.8" cy="281.3" rx="26.4" ry="22.0" fill="#9d1f2d" stroke="#ffffff88" stroke-width="1.2" transform="rotate(215.2 490.8 281.3)" />
    <ellipse cx="533.6" cy="265.6" rx="31.2" ry="26.0" fill="#f06b48" stroke="#ffffff88" stroke-width="1.2" transform="rotate(221.8 533.6 265.6)" />
    <ellipse cx="584.4" cy="258.6" rx="12.0" ry="10.0" fill="#d9432f" stroke="#ffffff88" stroke-width="1.2" transform="rotate(228.4 584.4 258.6)" />
    <ellipse cx="506.9" cy="299.0" rx="16.8" ry="14.0" fill="#9d1f2d" stroke="#ffffff88" stroke-width="1.2" transform="rotate(235.0 506.9 299.0)" />
    <ellipse cx="555.8" cy="298.0" rx="21.6" ry="18.0" fill="#f06b48" stroke="#ffffff88" stroke-width="1.2" transform="rotate(241.6 555.8 298.0)" />
    <ellipse cx="605.5" cy="307.2" rx="26.4" ry="22.0" fill="#d9432f" stroke="#ffffff88" stroke-width="1.2" transform="rotate(248.2 605.5 307.2)" />
    <ellipse cx="507.8" cy="318.3" rx="31.2" ry="26.0" fill="#9d1f2d" stroke="#ffffff88" stroke-width="1.2" transform="rotate(254.9 507.8 318.3)" />
    <ellipse cx="551.6" cy="332.1" rx="12.0" ry="10.0" fill="#f06b48" stroke="#ffffff88" stroke-width="1.2" transform="rotate(261.5 551.6 332.1)" />
    <ellipse cx="588.8" cy="355.2" rx="16.8" ry="14.0" fill="#d9432f" stroke="#ffffff88" stroke-width="1.2" transform="rotate(268.1 588.8 355.2)" />
    <ellipse cx="495.0" cy="334.4" rx="21.6" ry="18.0" fill="#9d1f2d" stroke="#ffffff88" stroke-width="1.2" transform="rotate(274.7 495.0 334.4)" />
    <ellipse cx="523.9" cy="359.7" rx="26.4" ry="22.0" fill="#f06b48" stroke="#ffffff88" stroke-width="1.2" transform="rotate(281.3 523.9 359.7)" />
    <ellipse cx="540.2" cy="391.3" rx="31.2" ry="26.0" fill="#d9432f" stroke="#ffffff88" stroke-width="1.2" transform="rotate(287.9 540.2 391.3)" />
    <ellipse cx="473.5" cy="343.7" rx="12.0" ry="10.0" fill="#9d1f2d" stroke="#ffffff88" stroke-width="1.2" transform="rotate(294.5 473.5 343.7)" />
    <ellipse cx="481.0" cy="374.8" rx="16.8" ry="14.0" fill="#f06b48" stroke="#ffffff88" stroke-width="1.2" transform="rotate(301.2 481.0 374.8)" />
    <ellipse cx="472.9" cy="407.4" rx="21.6" ry="18.0" fill="#d9432f" stroke="#ffffff88" stroke-width="1.2" transform="rotate(307.8 472.9 407.4)" />
    <ellipse cx="449.7" cy="344.9" rx="26.4" ry="22.0" fill="#9d1f2d" stroke="#ffffff88" stroke-width="1.2" transform="rotate(314.4 449.7 344.9)" />
    <ellipse cx="434.2" cy="374.6" rx="31.2" ry="26.0" fill="#f06b48" stroke="#ffffff88" stroke-width="1.2" transform="rotate(321.0 434.2 374.6)" />
    <ellipse cx="403.8" cy="400.9" rx="12.0" ry="10.0" fill="#d9432f" stroke="#ffffff88" stroke-width="1.2" transform="rotate(327.6 403.8 400.9)" />
    <ellipse cx="429.8" cy="338.9" rx="16.8" ry="14.0" fill="#9d1f2d" stroke="#ffffff88" stroke-width="1.2" transform="rotate(334.2 429.8 338.9)" />
    <ellipse cx="394.9" cy="360.4" rx="21.6" ry="18.0" fill="#f06b48" stroke="#ffffff88" stroke-width="1.2" transform="rotate(340.8 394.9 360.4)" />
    <ellipse cx="349.4" cy="374.5" rx="26.4" ry="22.0" fill="#d9432f" stroke="#ffffff88" stroke-width="1.2" transform="rotate(347.5 349.4 374.5)" />
    <ellipse cx="418.1" cy="328.4" rx="31.2" ry="26.0" fill="#9d1f2d" stroke="#ffffff88" stroke-width="1.2" transform="rotate(354.1 418.1 328.4)" />
    <ellipse cx="372.0" cy="336.9" rx="12.0" ry="10.0" fill="#f06b48" stroke="#ffffff88" stroke-width="1.2" transform="rotate(360.7 372.0 336.9)" />
    <ellipse cx="321.9" cy="335.6" rx="16.8" ry="14.0" fill="#d9432f" stroke="#ffffff88" stroke-width="1.2" transform="rotate(367.3 321.9 335.6)" />
    <ellipse cx="271.5" cy="323.9" rx="21.6" ry="18.0" fill="#9d1f2d" stroke="#ffffff88" stroke-width="1.2" transform="rotate(373.9 271.5 323.9)" />
  <rect x="115" y="538" width="670" height="88" rx="28" fill="#091612" stroke="#ffffff26" />
  <text x="450" y="586" text-anchor="middle" font-family="Arial, sans-serif" font-size="40" font-weight="700" fill="#ffffff">Spray Dried Beetroot Powder</text>
  <text x="450" y="615" text-anchor="middle" font-family="Arial, sans-serif" font-size="24" fill="#d4ff00" letter-spacing="3">EXPORT QUALITY</text>
</svg>
