<svg xmlns="http://www.w3.org/2000/svg" width="900" height="700" viewBox="0 0 900 700" role="img" aria-labelledby="title desc">
  <title id="title">Spray Dried Tamarind Powder</title>
  <desc id="desc">Clean export product artwork for Spray Dried Tamarind Powder on a dark green background.</desc>
  <defs>
    <linearGradient id="background" x1="0" x2="1" y1="0" y2="1">
      <stop stop-color="#091612" />
      <stop offset="1" stop-color="#1a332b" />
    </linearGradient>
    <filter id="shadow"><feDropShadow dx="0" dy="18" stdDeviation="22" flood-color="#000000" flood-opacity=".35" /></filter>
  </defs>
  <rect width="900" height="700" fill="url(#background)" />
  <rect x="70" y="60" width="760" height="580" rx="52" fill="#132620" stroke="#ffffff20" stroke-width="2" />
  <circle cx="450" cy="300" r="210" fill="#0b1d18" opacity=".5" />
  <ellipse cx="450" cy="315" rx="235" ry="170" fill="#eee5cc" stroke="#d4ff00" stroke-width="7" filter="url(#shadow)" />
    <ellipse cx="416.1" cy="320.7" rx="12.0" ry="10.0" fill="#b8743f" stroke="#ffffff88" stroke-width="1.2" transform="rotate(115.6 416.1 320.7)" />
    <ellipse cx="368.3" cy="319.6" rx="16.8" ry="14.0" fill="#d7a66a" stroke="#ffffff88" stroke-width="1.2" transform="rotate(122.2 368.3 319.6)" />
    <ellipse cx="321.4" cy="308.4" rx="21.6" ry="18.0" fill="#7f5130" stroke="#ffffff88" stroke-width="1.2" transform="rotate(128.8 321.4 308.4)" />
    <ellipse cx="279.2" cy="287.3" rx="26.4" ry="22.0" fill="#b8743f" stroke="#ffffff88" stroke-width="1.2" transform="rotate(135.4 279.2 287.3)" />
    <ellipse cx="378.5" cy="294.8" rx="31.2" ry="26.0" fill="#d7a66a" stroke="#ffffff88" stroke-width="1.2" transform="rotate(142.1 378.5 294.8)" />
    <ellipse cx="345.1" cy="270.8" rx="12.0" ry="10.0" fill="#7f5130" stroke="#ffffff88" stroke-width="1.2" transform="rotate(148.7 345.1 270.8)" />
    <ellipse cx="323.0" cy="239.6" rx="16.8" ry="14.0" fill="#b8743f" stroke="#ffffff88" stroke-width="1.2" transform="rotate(155.3 323.0 239.6)" />
    <ellipse cx="404.3" cy="277.1" rx="21.6" ry="18.0" fill="#d7a66a" stroke="#ffffff88" stroke-width="1.2" transform="rotate(161.9 404.3 277.1)" />
    <ellipse cx="392.0" cy="246.0" rx="26.4" ry="22.0" fill="#7f5130" stroke="#ffffff88" stroke-width="1.2" transform="rotate(168.5 392.0 246.0)" />
    <ellipse cx="394.9" cy="211.8" rx="31.2" ry="26.0" fill="#b8743f" stroke="#ffffff88" stroke-width="1.2" transform="rotate(175.1 394.9 211.8)" />
    <ellipse cx="438.2" cy="270.1" rx="12.0" ry="10.0" fill="#d7a66a" stroke="#ffffff88" stroke-width="1.2" transform="rotate(181.7 438.2 270.1)" />
    <ellipse cx="449.6" cy="239.0" rx="16.8" ry="14.0" fill="#7f5130" stroke="#ffffff88" stroke-width="1.2" transform="rotate(188.4 449.6 239.0)" />
    <ellipse cx="476.4" cy="209.8" rx="21.6" ry="18.0" fill="#b8743f" stroke="#ffffff88" stroke-width="1.2" transform="rotate(195.0 476.4 209.8)" />
    <ellipse cx="471.2" cy="274.4" rx="26.4" ry="22.0" fill="#d7a66a" stroke="#ffffff88" stroke-width="1.2" transform="rotate(201.6 471.2 274.4)" />
    <ellipse cx="503.4" cy="250.3" rx="31.2" ry="26.0" fill="#7f5130" stroke="#ffffff88" stroke-width="1.2" transform="rotate(208.2 503.4 250.3)" />
    <ellipse cx="547.8" cy="232.7" rx="12.0" ry="10.0" fill="#b8743f" stroke="#ffffff88" stroke-width="1.2" transform="rotate(214.8 547.8 232.7)" />
    <ellipse cx="495.5" cy="287.6" rx="16.8" ry="14.0" fill="#d7a66a" stroke="#ffffff88" stroke-width="1.2" transform="rotate(221.4 495.5 287.6)" />
    <ellipse cx="541.0" cy="276.0" rx="21.6" ry="18.0" fill="#7f5130" stroke="#ffffff88" stroke-width="1.2" transform="rotate(228.0 541.0 276.0)" />
    <ellipse cx="592.6" cy="273.9" rx="26.4" ry="22.0" fill="#b8743f" stroke="#ffffff88" stroke-width="1.2" transform="rotate(234.6 592.6 273.9)" />
    <ellipse cx="506.2" cy="305.6" rx="31.2" ry="26.0" fill="#d7a66a" stroke="#ffffff88" stroke-width="1.2" transform="rotate(241.3 506.2 305.6)" />
    <ellipse cx="554.6" cy="309.1" rx="12.0" ry="10.0" fill="#7f5130" stroke="#ffffff88" stroke-width="1.2" transform="rotate(247.9 554.6 309.1)" />
    <ellipse cx="601.5" cy="322.8" rx="16.8" ry="14.0" fill="#b8743f" stroke="#ffffff88" stroke-width="1.2" transform="rotate(254.5 601.5 322.8)" />
    <ellipse cx="502.4" cy="323.5" rx="21.6" ry="18.0" fill="#d7a66a" stroke="#ffffff88" stroke-width="1.2" transform="rotate(261.1 502.4 323.5)" />
    <ellipse cx="542.6" cy="341.2" rx="26.4" ry="22.0" fill="#7f5130" stroke="#ffffff88" stroke-width="1.2" transform="rotate(267.7 542.6 341.2)" />
    <ellipse cx="574.2" cy="367.3" rx="31.2" ry="26.0" fill="#b8743f" stroke="#ffffff88" stroke-width="1.2" transform="rotate(274.3 574.2 367.3)" />
    <ellipse cx="486.9" cy="336.9" rx="12.0" ry="10.0" fill="#d7a66a" stroke="#ffffff88" stroke-width="1.2" transform="rotate(280.9 486.9 336.9)" />
    <ellipse cx="509.9" cy="364.6" rx="16.8" ry="14.0" fill="#7f5130" stroke="#ffffff88" stroke-width="1.2" transform="rotate(287.6 509.9 364.6)" />
    <ellipse cx="519.0" cy="397.2" rx="21.6" ry="18.0" fill="#b8743f" stroke="#ffffff88" stroke-width="1.2" transform="rotate(294.2 519.0 397.2)" />
    <ellipse cx="465.1" cy="343.2" rx="26.4" ry="22.0" fill="#d7a66a" stroke="#ffffff88" stroke-width="1.2" transform="rotate(300.8 465.1 343.2)" />
    <ellipse cx="465.6" cy="374.6" rx="31.2" ry="26.0" fill="#7f5130" stroke="#ffffff88" stroke-width="1.2" transform="rotate(307.4 465.6 374.6)" />
    <ellipse cx="450.5" cy="406.0" rx="12.0" ry="10.0" fill="#b8743f" stroke="#ffffff88" stroke-width="1.2" transform="rotate(314.0 450.5 406.0)" />
    <ellipse cx="443.2" cy="341.9" rx="16.8" ry="14.0" fill="#d7a66a" stroke="#ffffff88" stroke-width="1.2" transform="rotate(320.6 443.2 341.9)" />
    <ellipse cx="421.4" cy="369.8" rx="21.6" ry="18.0" fill="#7f5130" stroke="#ffffff88" stroke-width="1.2" transform="rotate(327.2 421.4 369.8)" />
    <ellipse cx="385.7" cy="392.9" rx="26.4" ry="22.0" fill="#b8743f" stroke="#ffffff88" stroke-width="1.2" transform="rotate(333.9 385.7 392.9)" />
    <ellipse cx="426.8" cy="334.5" rx="31.2" ry="26.0" fill="#d7a66a" stroke="#ffffff88" stroke-width="1.2" transform="rotate(340.5 426.8 334.5)" />
    <ellipse cx="387.7" cy="352.6" rx="12.0" ry="10.0" fill="#7f5130" stroke="#ffffff88" stroke-width="1.2" transform="rotate(347.1 387.7 352.6)" />
    <ellipse cx="339.8" cy="362.2" rx="16.8" ry="14.0" fill="#b8743f" stroke="#ffffff88" stroke-width="1.2" transform="rotate(353.7 339.8 362.2)" />
    <ellipse cx="286.3" cy="362.1" rx="21.6" ry="18.0" fill="#d7a66a" stroke="#ffffff88" stroke-width="1.2" transform="rotate(360.3 286.3 362.1)" />
  <rect x="115" y="538" width="670" height="88" rx="28" fill="#091612" stroke="#ffffff26" />
  <text x="450" y="586" text-anchor="middle" font-family="Arial, sans-serif" font-size="40" font-weight="700" fill="#ffffff">Spray Dried Tamarind Powder</text>
  <text x="450" y="615" text-anchor="middle" font-family="Arial, sans-serif" font-size="24" fill="#d4ff00" letter-spacing="3">EXPORT QUALITY</text>
</svg>
