<svg xmlns="http://www.w3.org/2000/svg" width="900" height="700" viewBox="0 0 900 700" role="img" aria-labelledby="title desc">
  <title id="title">Spray Dried Lemon Powder</title>
  <desc id="desc">Clean export product artwork for Spray Dried Lemon Powder on a dark green background.</desc>
  <defs>
    <linearGradient id="background" x1="0" x2="1" y1="0" y2="1">
      <stop stop-color="#091612" />
      <stop offset="1" stop-color="#1a332b" />
    </linearGradient>
    <filter id="shadow"><feDropShadow dx="0" dy="18" stdDeviation="22" flood-color="#000000" flood-opacity=".35" /></filter>
  </defs>
  <rect width="900" height="700" fill="url(#background)" />
  <rect x="70" y="60" width="760" height="580" rx="52" fill="#132620" stroke="#ffffff20" stroke-width="2" />
  <circle cx="450" cy="300" r="210" fill="#0b1d18" opacity=".5" />
  <ellipse cx="450" cy="315" rx="235" ry="170" fill="#eee5cc" stroke="#d4ff00" stroke-width="7" filter="url(#shadow)" />
    <ellipse cx="415.1" cy="316.9" rx="12.0" ry="10.0" fill="#b8743f" stroke="#ffffff88" stroke-width="1.2" transform="rotate(122.4 415.1 316.9)" />
    <ellipse cx="368.3" cy="310.5" rx="16.8" ry="14.0" fill="#d7a66a" stroke="#ffffff88" stroke-width="1.2" transform="rotate(129.0 368.3 310.5)" />
    <ellipse cx="325.0" cy="294.3" rx="21.6" ry="18.0" fill="#7f5130" stroke="#ffffff88" stroke-width="1.2" transform="rotate(135.6 325.0 294.3)" />
    <ellipse cx="288.9" cy="268.9" rx="26.4" ry="22.0" fill="#b8743f" stroke="#ffffff88" stroke-width="1.2" transform="rotate(142.2 288.9 268.9)" />
    <ellipse cx="384.7" cy="287.2" rx="31.2" ry="26.0" fill="#d7a66a" stroke="#ffffff88" stroke-width="1.2" transform="rotate(148.9 384.7 287.2)" />
    <ellipse cx="358.1" cy="259.9" rx="12.0" ry="10.0" fill="#7f5130" stroke="#ffffff88" stroke-width="1.2" transform="rotate(155.5 358.1 259.9)" />
    <ellipse cx="344.5" cy="226.7" rx="16.8" ry="14.0" fill="#b8743f" stroke="#ffffff88" stroke-width="1.2" transform="rotate(162.1 344.5 226.7)" />
    <ellipse cx="414.9" cy="272.7" rx="21.6" ry="18.0" fill="#d7a66a" stroke="#ffffff88" stroke-width="1.2" transform="rotate(168.7 414.9 272.7)" />
    <ellipse cx="410.8" cy="240.6" rx="26.4" ry="22.0" fill="#7f5130" stroke="#ffffff88" stroke-width="1.2" transform="rotate(175.3 410.8 240.6)" />
    <ellipse cx="422.5" cy="207.3" rx="31.2" ry="26.0" fill="#b8743f" stroke="#ffffff88" stroke-width="1.2" transform="rotate(181.9 422.5 207.3)" />
    <ellipse cx="450.1" cy="269.5" rx="12.0" ry="10.0" fill="#d7a66a" stroke="#ffffff88" stroke-width="1.2" transform="rotate(188.5 450.1 269.5)" />
    <ellipse cx="469.4" cy="240.0" rx="16.8" ry="14.0" fill="#7f5130" stroke="#ffffff88" stroke-width="1.2" transform="rotate(195.2 469.4 240.0)" />
    <ellipse cx="503.4" cy="214.2" rx="21.6" ry="18.0" fill="#b8743f" stroke="#ffffff88" stroke-width="1.2" transform="rotate(201.8 503.4 214.2)" />
    <ellipse cx="481.5" cy="277.3" rx="26.4" ry="22.0" fill="#d7a66a" stroke="#ffffff88" stroke-width="1.2" transform="rotate(208.4 481.5 277.3)" />
    <ellipse cx="519.5" cy="257.1" rx="31.2" ry="26.0" fill="#7f5130" stroke="#ffffff88" stroke-width="1.2" transform="rotate(215.0 519.5 257.1)" />
    <ellipse cx="567.8" cy="244.6" rx="12.0" ry="10.0" fill="#b8743f" stroke="#ffffff88" stroke-width="1.2" transform="rotate(221.6 567.8 244.6)" />
    <ellipse cx="501.9" cy="293.0" rx="16.8" ry="14.0" fill="#d7a66a" stroke="#ffffff88" stroke-width="1.2" transform="rotate(228.2 501.9 293.0)" />
    <ellipse cx="549.9" cy="286.6" rx="21.6" ry="18.0" fill="#7f5130" stroke="#ffffff88" stroke-width="1.2" transform="rotate(234.8 549.9 286.6)" />
    <ellipse cx="601.3" cy="290.2" rx="26.4" ry="22.0" fill="#b8743f" stroke="#ffffff88" stroke-width="1.2" transform="rotate(241.4 601.3 290.2)" />
    <ellipse cx="507.8" cy="311.9" rx="31.2" ry="26.0" fill="#d7a66a" stroke="#ffffff88" stroke-width="1.2" transform="rotate(248.1 507.8 311.9)" />
    <ellipse cx="554.6" cy="320.7" rx="12.0" ry="10.0" fill="#7f5130" stroke="#ffffff88" stroke-width="1.2" transform="rotate(254.7 554.6 320.7)" />
    <ellipse cx="597.3" cy="339.4" rx="16.8" ry="14.0" fill="#b8743f" stroke="#ffffff88" stroke-width="1.2" transform="rotate(261.3 597.3 339.4)" />
    <ellipse cx="499.4" cy="329.1" rx="21.6" ry="18.0" fill="#d7a66a" stroke="#ffffff88" stroke-width="1.2" transform="rotate(267.9 499.4 329.1)" />
    <ellipse cx="534.5" cy="351.0" rx="26.4" ry="22.0" fill="#7f5130" stroke="#ffffff88" stroke-width="1.2" transform="rotate(274.5 534.5 351.0)" />
    <ellipse cx="558.8" cy="380.2" rx="31.2" ry="26.0" fill="#b8743f" stroke="#ffffff88" stroke-width="1.2" transform="rotate(281.1 558.8 380.2)" />
    <ellipse cx="480.7" cy="340.7" rx="12.0" ry="10.0" fill="#d7a66a" stroke="#ffffff88" stroke-width="1.2" transform="rotate(287.7 480.7 340.7)" />
    <ellipse cx="496.1" cy="370.5" rx="16.8" ry="14.0" fill="#7f5130" stroke="#ffffff88" stroke-width="1.2" transform="rotate(294.4 496.1 370.5)" />
    <ellipse cx="496.6" cy="403.6" rx="21.6" ry="18.0" fill="#b8743f" stroke="#ffffff88" stroke-width="1.2" transform="rotate(301.0 496.6 403.6)" />
    <ellipse cx="457.5" cy="344.5" rx="26.4" ry="22.0" fill="#d7a66a" stroke="#ffffff88" stroke-width="1.2" transform="rotate(307.6 457.5 344.5)" />
    <ellipse cx="449.9" cy="375.4" rx="31.2" ry="26.0" fill="#7f5130" stroke="#ffffff88" stroke-width="1.2" transform="rotate(314.2 449.9 375.4)" />
    <ellipse cx="426.8" cy="404.7" rx="12.0" ry="10.0" fill="#b8743f" stroke="#ffffff88" stroke-width="1.2" transform="rotate(320.8 426.8 404.7)" />
    <ellipse cx="436.3" cy="340.8" rx="16.8" ry="14.0" fill="#d7a66a" stroke="#ffffff88" stroke-width="1.2" transform="rotate(327.4 436.3 340.8)" />
    <ellipse cx="407.6" cy="365.8" rx="21.6" ry="18.0" fill="#7f5130" stroke="#ffffff88" stroke-width="1.2" transform="rotate(334.0 407.6 365.8)" />
    <ellipse cx="366.4" cy="384.7" rx="26.4" ry="22.0" fill="#b8743f" stroke="#ffffff88" stroke-width="1.2" transform="rotate(340.7 366.4 384.7)" />
    <ellipse cx="422.0" cy="331.7" rx="31.2" ry="26.0" fill="#d7a66a" stroke="#ffffff88" stroke-width="1.2" transform="rotate(347.3 422.0 331.7)" />
    <ellipse cx="378.8" cy="345.2" rx="12.0" ry="10.0" fill="#7f5130" stroke="#ffffff88" stroke-width="1.2" transform="rotate(353.9 378.8 345.2)" />
    <ellipse cx="329.1" cy="349.4" rx="16.8" ry="14.0" fill="#b8743f" stroke="#ffffff88" stroke-width="1.2" transform="rotate(360.5 329.1 349.4)" />
    <ellipse cx="276.4" cy="343.4" rx="21.6" ry="18.0" fill="#d7a66a" stroke="#ffffff88" stroke-width="1.2" transform="rotate(367.1 276.4 343.4)" />
  <rect x="115" y="538" width="670" height="88" rx="28" fill="#091612" stroke="#ffffff26" />
  <text x="450" y="586" text-anchor="middle" font-family="Arial, sans-serif" font-size="40" font-weight="700" fill="#ffffff">Spray Dried Lemon Powder</text>
  <text x="450" y="615" text-anchor="middle" font-family="Arial, sans-serif" font-size="24" fill="#d4ff00" letter-spacing="3">EXPORT QUALITY</text>
</svg>
