<svg xmlns="http://www.w3.org/2000/svg" width="900" height="700" viewBox="0 0 900 700" role="img" aria-labelledby="title desc">
  <title id="title">Spray Dried Tomato Powder</title>
  <desc id="desc">Clean export product artwork for Spray Dried Tomato Powder on a dark green background.</desc>
  <defs>
    <linearGradient id="background" x1="0" x2="1" y1="0" y2="1">
      <stop stop-color="#091612" />
      <stop offset="1" stop-color="#1a332b" />
    </linearGradient>
    <filter id="shadow"><feDropShadow dx="0" dy="18" stdDeviation="22" flood-color="#000000" flood-opacity=".35" /></filter>
  </defs>
  <rect width="900" height="700" fill="url(#background)" />
  <rect x="70" y="60" width="760" height="580" rx="52" fill="#132620" stroke="#ffffff20" stroke-width="2" />
  <circle cx="450" cy="300" r="210" fill="#0b1d18" opacity=".5" />
  <ellipse cx="450" cy="315" rx="235" ry="170" fill="#eee5cc" stroke="#d4ff00" stroke-width="7" filter="url(#shadow)" />
    <ellipse cx="418.1" cy="324.3" rx="12.0" ry="10.0" fill="#d9432f" stroke="#ffffff88" stroke-width="1.2" transform="rotate(108.8 418.1 324.3)" />
    <ellipse cx="370.7" cy="328.5" rx="16.8" ry="14.0" fill="#9d1f2d" stroke="#ffffff88" stroke-width="1.2" transform="rotate(115.4 370.7 328.5)" />
    <ellipse cx="321.5" cy="322.6" rx="21.6" ry="18.0" fill="#f06b48" stroke="#ffffff88" stroke-width="1.2" transform="rotate(122.0 321.5 322.6)" />
    <ellipse cx="274.5" cy="306.5" rx="26.4" ry="22.0" fill="#d9432f" stroke="#ffffff88" stroke-width="1.2" transform="rotate(128.6 274.5 306.5)" />
    <ellipse cx="374.2" cy="303.0" rx="31.2" ry="26.0" fill="#9d1f2d" stroke="#ffffff88" stroke-width="1.2" transform="rotate(135.3 374.2 303.0)" />
    <ellipse cx="335.1" cy="283.0" rx="12.0" ry="10.0" fill="#f06b48" stroke="#ffffff88" stroke-width="1.2" transform="rotate(141.9 335.1 283.0)" />
    <ellipse cx="305.2" cy="254.6" rx="16.8" ry="14.0" fill="#d9432f" stroke="#ffffff88" stroke-width="1.2" transform="rotate(148.5 305.2 254.6)" />
    <ellipse cx="395.1" cy="282.7" rx="21.6" ry="18.0" fill="#9d1f2d" stroke="#ffffff88" stroke-width="1.2" transform="rotate(155.1 395.1 282.7)" />
    <ellipse cx="374.9" cy="253.3" rx="26.4" ry="22.0" fill="#f06b48" stroke="#ffffff88" stroke-width="1.2" transform="rotate(161.7 374.9 253.3)" />
    <ellipse cx="368.8" cy="219.4" rx="31.2" ry="26.0" fill="#d9432f" stroke="#ffffff88" stroke-width="1.2" transform="rotate(168.3 368.8 219.4)" />
    <ellipse cx="426.7" cy="272.1" rx="12.0" ry="10.0" fill="#9d1f2d" stroke="#ffffff88" stroke-width="1.2" transform="rotate(174.9 426.7 272.1)" />
    <ellipse cx="429.8" cy="240.1" rx="16.8" ry="14.0" fill="#f06b48" stroke="#ffffff88" stroke-width="1.2" transform="rotate(181.6 429.8 240.1)" />
    <ellipse cx="448.7" cy="208.4" rx="21.6" ry="18.0" fill="#d9432f" stroke="#ffffff88" stroke-width="1.2" transform="rotate(188.2 448.7 208.4)" />
    <ellipse cx="460.3" cy="272.6" rx="26.4" ry="22.0" fill="#9d1f2d" stroke="#ffffff88" stroke-width="1.2" transform="rotate(194.8 460.3 272.6)" />
    <ellipse cx="485.8" cy="245.3" rx="31.2" ry="26.0" fill="#f06b48" stroke="#ffffff88" stroke-width="1.2" transform="rotate(201.4 485.8 245.3)" />
    <ellipse cx="525.0" cy="223.1" rx="12.0" ry="10.0" fill="#d9432f" stroke="#ffffff88" stroke-width="1.2" transform="rotate(208.0 525.0 223.1)" />
    <ellipse cx="487.7" cy="283.0" rx="16.8" ry="14.0" fill="#9d1f2d" stroke="#ffffff88" stroke-width="1.2" transform="rotate(214.6 487.7 283.0)" />
    <ellipse cx="529.6" cy="266.6" rx="21.6" ry="18.0" fill="#f06b48" stroke="#ffffff88" stroke-width="1.2" transform="rotate(221.2 529.6 266.6)" />
    <ellipse cx="579.9" cy="258.8" rx="26.4" ry="22.0" fill="#d9432f" stroke="#ffffff88" stroke-width="1.2" transform="rotate(227.8 579.9 258.8)" />
    <ellipse cx="502.9" cy="299.6" rx="31.2" ry="26.0" fill="#9d1f2d" stroke="#ffffff88" stroke-width="1.2" transform="rotate(234.5 502.9 299.6)" />
    <ellipse cx="551.6" cy="297.7" rx="12.0" ry="10.0" fill="#f06b48" stroke="#ffffff88" stroke-width="1.2" transform="rotate(241.1 551.6 297.7)" />
    <ellipse cx="601.4" cy="306.0" rx="16.8" ry="14.0" fill="#d9432f" stroke="#ffffff88" stroke-width="1.2" transform="rotate(247.7 601.4 306.0)" />
    <ellipse cx="503.9" cy="317.6" rx="21.6" ry="18.0" fill="#9d1f2d" stroke="#ffffff88" stroke-width="1.2" transform="rotate(254.3 503.9 317.6)" />
    <ellipse cx="548.1" cy="330.6" rx="26.4" ry="22.0" fill="#f06b48" stroke="#ffffff88" stroke-width="1.2" transform="rotate(260.9 548.1 330.6)" />
    <ellipse cx="586.0" cy="352.9" rx="31.2" ry="26.0" fill="#d9432f" stroke="#ffffff88" stroke-width="1.2" transform="rotate(267.5 586.0 352.9)" />
    <ellipse cx="492.1" cy="332.6" rx="12.0" ry="10.0" fill="#9d1f2d" stroke="#ffffff88" stroke-width="1.2" transform="rotate(274.1 492.1 332.6)" />
    <ellipse cx="521.9" cy="357.3" rx="16.8" ry="14.0" fill="#f06b48" stroke="#ffffff88" stroke-width="1.2" transform="rotate(280.8 521.9 357.3)" />
    <ellipse cx="539.4" cy="388.4" rx="21.6" ry="18.0" fill="#d9432f" stroke="#ffffff88" stroke-width="1.2" transform="rotate(287.4 539.4 388.4)" />
    <ellipse cx="472.2" cy="341.2" rx="26.4" ry="22.0" fill="#9d1f2d" stroke="#ffffff88" stroke-width="1.2" transform="rotate(294.0 472.2 341.2)" />
    <ellipse cx="480.9" cy="372.0" rx="31.2" ry="26.0" fill="#f06b48" stroke="#ffffff88" stroke-width="1.2" transform="rotate(300.6 480.9 372.0)" />
    <ellipse cx="474.2" cy="404.6" rx="12.0" ry="10.0" fill="#d9432f" stroke="#ffffff88" stroke-width="1.2" transform="rotate(307.2 474.2 404.6)" />
    <ellipse cx="450.3" cy="342.3" rx="16.8" ry="14.0" fill="#9d1f2d" stroke="#ffffff88" stroke-width="1.2" transform="rotate(313.8 450.3 342.3)" />
    <ellipse cx="436.1" cy="372.1" rx="21.6" ry="18.0" fill="#f06b48" stroke="#ffffff88" stroke-width="1.2" transform="rotate(320.4 436.1 372.1)" />
    <ellipse cx="406.9" cy="398.8" rx="26.4" ry="22.0" fill="#d9432f" stroke="#ffffff88" stroke-width="1.2" transform="rotate(327.1 406.9 398.8)" />
    <ellipse cx="432.2" cy="336.8" rx="31.2" ry="26.0" fill="#9d1f2d" stroke="#ffffff88" stroke-width="1.2" transform="rotate(333.7 432.2 336.8)" />
    <ellipse cx="398.3" cy="358.9" rx="12.0" ry="10.0" fill="#f06b48" stroke="#ffffff88" stroke-width="1.2" transform="rotate(340.3 398.3 358.9)" />
    <ellipse cx="353.6" cy="373.6" rx="16.8" ry="14.0" fill="#d9432f" stroke="#ffffff88" stroke-width="1.2" transform="rotate(346.9 353.6 373.6)" />
    <ellipse cx="301.0" cy="379.4" rx="21.6" ry="18.0" fill="#9d1f2d" stroke="#ffffff88" stroke-width="1.2" transform="rotate(353.5 301.0 379.4)" />
  <rect x="115" y="538" width="670" height="88" rx="28" fill="#091612" stroke="#ffffff26" />
  <text x="450" y="586" text-anchor="middle" font-family="Arial, sans-serif" font-size="40" font-weight="700" fill="#ffffff">Spray Dried Tomato Powder</text>
  <text x="450" y="615" text-anchor="middle" font-family="Arial, sans-serif" font-size="24" fill="#d4ff00" letter-spacing="3">EXPORT QUALITY</text>
</svg>
