<svg xmlns="http://www.w3.org/2000/svg" width="900" height="700" viewBox="0 0 900 700" role="img" aria-labelledby="title desc">
  <title id="title">Toor Dal</title>
  <desc id="desc">Clean export product artwork for Toor Dal on a dark green background.</desc>
  <defs>
    <linearGradient id="background" x1="0" x2="1" y1="0" y2="1">
      <stop stop-color="#091612" />
      <stop offset="1" stop-color="#1a332b" />
    </linearGradient>
    <filter id="shadow"><feDropShadow dx="0" dy="18" stdDeviation="22" flood-color="#000000" flood-opacity=".35" /></filter>
  </defs>
  <rect width="900" height="700" fill="url(#background)" />
  <rect x="70" y="60" width="760" height="580" rx="52" fill="#132620" stroke="#ffffff20" stroke-width="2" />
  <circle cx="450" cy="300" r="210" fill="#0b1d18" opacity=".5" />
  <ellipse cx="450" cy="315" rx="235" ry="170" fill="#eee5cc" stroke="#d4ff00" stroke-width="7" filter="url(#shadow)" />
    <ellipse cx="477.1" cy="329.4" rx="12.0" ry="10.0" fill="#caa66a" stroke="#ffffff88" stroke-width="1.2" transform="rotate(278.8 477.1 329.4)" />
    <ellipse cx="504.0" cy="355.1" rx="16.8" ry="14.0" fill="#e1c887" stroke="#ffffff88" stroke-width="1.2" transform="rotate(285.4 504.0 355.1)" />
    <ellipse cx="517.8" cy="386.3" rx="21.6" ry="18.0" fill="#8f6a3c" stroke="#ffffff88" stroke-width="1.2" transform="rotate(292.0 517.8 386.3)" />
    <ellipse cx="516.6" cy="420.9" rx="26.4" ry="22.0" fill="#caa66a" stroke="#ffffff88" stroke-width="1.2" transform="rotate(298.6 516.6 420.9)" />
    <ellipse cx="467.2" cy="364.4" rx="31.2" ry="26.0" fill="#e1c887" stroke="#ffffff88" stroke-width="1.2" transform="rotate(305.3 467.2 364.4)" />
    <ellipse cx="457.2" cy="396.1" rx="12.0" ry="10.0" fill="#8f6a3c" stroke="#ffffff88" stroke-width="1.2" transform="rotate(311.9 457.2 396.1)" />
    <ellipse cx="431.4" cy="426.1" rx="16.8" ry="14.0" fill="#caa66a" stroke="#ffffff88" stroke-width="1.2" transform="rotate(318.5 431.4 426.1)" />
    <ellipse cx="430.0" cy="361.3" rx="21.6" ry="18.0" fill="#e1c887" stroke="#ffffff88" stroke-width="1.2" transform="rotate(325.1 430.0 361.3)" />
    <ellipse cx="398.6" cy="386.2" rx="26.4" ry="22.0" fill="#8f6a3c" stroke="#ffffff88" stroke-width="1.2" transform="rotate(331.7 398.6 386.2)" />
    <ellipse cx="354.6" cy="404.9" rx="31.2" ry="26.0" fill="#caa66a" stroke="#ffffff88" stroke-width="1.2" transform="rotate(338.3 354.6 404.9)" />
    <ellipse cx="401.3" cy="347.7" rx="12.0" ry="10.0" fill="#e1c887" stroke="#ffffff88" stroke-width="1.2" transform="rotate(344.9 401.3 347.7)" />
    <ellipse cx="355.9" cy="360.2" rx="16.8" ry="14.0" fill="#8f6a3c" stroke="#ffffff88" stroke-width="1.2" transform="rotate(351.6 355.9 360.2)" />
    <ellipse cx="303.8" cy="363.3" rx="21.6" ry="18.0" fill="#caa66a" stroke="#ffffff88" stroke-width="1.2" transform="rotate(358.2 303.8 363.3)" />
    <ellipse cx="387.1" cy="327.9" rx="26.4" ry="22.0" fill="#e1c887" stroke="#ffffff88" stroke-width="1.2" transform="rotate(364.8 387.1 327.9)" />
    <ellipse cx="338.1" cy="325.2" rx="31.2" ry="26.0" fill="#8f6a3c" stroke="#ffffff88" stroke-width="1.2" transform="rotate(371.4 338.1 325.2)" />
    <ellipse cx="290.1" cy="312.4" rx="12.0" ry="10.0" fill="#caa66a" stroke="#ffffff88" stroke-width="1.2" transform="rotate(378.0 290.1 312.4)" />
    <ellipse cx="389.1" cy="307.4" rx="16.8" ry="14.0" fill="#e1c887" stroke="#ffffff88" stroke-width="1.2" transform="rotate(384.6 389.1 307.4)" />
    <ellipse cx="347.8" cy="290.3" rx="21.6" ry="18.0" fill="#8f6a3c" stroke="#ffffff88" stroke-width="1.2" transform="rotate(391.2 347.8 290.3)" />
    <ellipse cx="314.7" cy="264.5" rx="26.4" ry="22.0" fill="#caa66a" stroke="#ffffff88" stroke-width="1.2" transform="rotate(397.8 314.7 264.5)" />
    <ellipse cx="405.2" cy="291.1" rx="31.2" ry="26.0" fill="#e1c887" stroke="#ffffff88" stroke-width="1.2" transform="rotate(404.5 405.2 291.1)" />
    <ellipse cx="380.9" cy="263.6" rx="12.0" ry="10.0" fill="#8f6a3c" stroke="#ffffff88" stroke-width="1.2" transform="rotate(411.1 380.9 263.6)" />
    <ellipse cx="370.1" cy="230.9" rx="16.8" ry="14.0" fill="#caa66a" stroke="#ffffff88" stroke-width="1.2" transform="rotate(417.7 370.1 230.9)" />
    <ellipse cx="429.6" cy="282.5" rx="21.6" ry="18.0" fill="#e1c887" stroke="#ffffff88" stroke-width="1.2" transform="rotate(424.3 429.6 282.5)" />
    <ellipse cx="427.7" cy="251.0" rx="26.4" ry="22.0" fill="#8f6a3c" stroke="#ffffff88" stroke-width="1.2" transform="rotate(430.9 427.7 251.0)" />
    <ellipse cx="441.5" cy="219.0" rx="31.2" ry="26.0" fill="#caa66a" stroke="#ffffff88" stroke-width="1.2" transform="rotate(437.5 441.5 219.0)" />
    <ellipse cx="455.4" cy="282.7" rx="12.0" ry="10.0" fill="#e1c887" stroke="#ffffff88" stroke-width="1.2" transform="rotate(444.1 455.4 282.7)" />
    <ellipse cx="476.2" cy="254.3" rx="16.8" ry="14.0" fill="#8f6a3c" stroke="#ffffff88" stroke-width="1.2" transform="rotate(450.8 476.2 254.3)" />
    <ellipse cx="511.2" cy="230.3" rx="21.6" ry="18.0" fill="#caa66a" stroke="#ffffff88" stroke-width="1.2" transform="rotate(457.4 511.2 230.3)" />
    <ellipse cx="476.1" cy="290.4" rx="26.4" ry="22.0" fill="#e1c887" stroke="#ffffff88" stroke-width="1.2" transform="rotate(464.0 476.1 290.4)" />
    <ellipse cx="514.7" cy="271.6" rx="31.2" ry="26.0" fill="#8f6a3c" stroke="#ffffff88" stroke-width="1.2" transform="rotate(470.6 514.7 271.6)" />
    <ellipse cx="562.6" cy="261.0" rx="12.0" ry="10.0" fill="#caa66a" stroke="#ffffff88" stroke-width="1.2" transform="rotate(477.2 562.6 261.0)" />
    <ellipse cx="487.4" cy="302.6" rx="16.8" ry="14.0" fill="#e1c887" stroke="#ffffff88" stroke-width="1.2" transform="rotate(483.8 487.4 302.6)" />
    <ellipse cx="534.9" cy="297.6" rx="21.6" ry="18.0" fill="#8f6a3c" stroke="#ffffff88" stroke-width="1.2" transform="rotate(490.4 534.9 297.6)" />
    <ellipse cx="584.7" cy="302.7" rx="26.4" ry="22.0" fill="#caa66a" stroke="#ffffff88" stroke-width="1.2" transform="rotate(497.1 584.7 302.7)" />
    <ellipse cx="488.0" cy="315.6" rx="31.2" ry="26.0" fill="#e1c887" stroke="#ffffff88" stroke-width="1.2" transform="rotate(503.7 488.0 315.6)" />
    <ellipse cx="533.5" cy="325.5" rx="12.0" ry="10.0" fill="#8f6a3c" stroke="#ffffff88" stroke-width="1.2" transform="rotate(510.3 533.5 325.5)" />
    <ellipse cx="573.7" cy="344.9" rx="16.8" ry="14.0" fill="#caa66a" stroke="#ffffff88" stroke-width="1.2" transform="rotate(516.9 573.7 344.9)" />
    <ellipse cx="605.2" cy="373.0" rx="21.6" ry="18.0" fill="#e1c887" stroke="#ffffff88" stroke-width="1.2" transform="rotate(523.5 605.2 373.0)" />
  <rect x="115" y="538" width="670" height="88" rx="28" fill="#091612" stroke="#ffffff26" />
  <text x="450" y="586" text-anchor="middle" font-family="Arial, sans-serif" font-size="58" font-weight="700" fill="#ffffff">Toor Dal</text>
  <text x="450" y="615" text-anchor="middle" font-family="Arial, sans-serif" font-size="24" fill="#d4ff00" letter-spacing="3">EXPORT QUALITY</text>
</svg>
