<svg xmlns="http://www.w3.org/2000/svg" width="900" height="700" viewBox="0 0 900 700" role="img" aria-labelledby="title desc">
  <title id="title">Turmeric Powder</title>
  <desc id="desc">Clean export product artwork for Turmeric Powder on a dark green background.</desc>
  <defs>
    <linearGradient id="background" x1="0" x2="1" y1="0" y2="1">
      <stop stop-color="#091612" />
      <stop offset="1" stop-color="#1a332b" />
    </linearGradient>
    <filter id="shadow"><feDropShadow dx="0" dy="18" stdDeviation="22" flood-color="#000000" flood-opacity=".35" /></filter>
  </defs>
  <rect width="900" height="700" fill="url(#background)" />
  <rect x="70" y="60" width="760" height="580" rx="52" fill="#132620" stroke="#ffffff20" stroke-width="2" />
  <circle cx="450" cy="300" r="210" fill="#0b1d18" opacity=".5" />
  <ellipse cx="450" cy="315" rx="235" ry="170" fill="#eee5cc" stroke="#d4ff00" stroke-width="7" filter="url(#shadow)" />
    <ellipse cx="434.0" cy="335.2" rx="12.0" ry="10.0" fill="#d9a21b" stroke="#ffffff88" stroke-width="1.2" transform="rotate(333.2 434.0 335.2)" />
    <ellipse cx="400.9" cy="357.7" rx="16.8" ry="14.0" fill="#f1c44e" stroke="#ffffff88" stroke-width="1.2" transform="rotate(339.8 400.9 357.7)" />
    <ellipse cx="356.9" cy="373.0" rx="21.6" ry="18.0" fill="#b66b20" stroke="#ffffff88" stroke-width="1.2" transform="rotate(346.4 356.9 373.0)" />
    <ellipse cx="304.6" cy="379.5" rx="26.4" ry="22.0" fill="#d9a21b" stroke="#ffffff88" stroke-width="1.2" transform="rotate(353.0 304.6 379.5)" />
    <ellipse cx="379.2" cy="336.3" rx="31.2" ry="26.0" fill="#f1c44e" stroke="#ffffff88" stroke-width="1.2" transform="rotate(359.7 379.2 336.3)" />
    <ellipse cx="329.5" cy="336.5" rx="12.0" ry="10.0" fill="#b66b20" stroke="#ffffff88" stroke-width="1.2" transform="rotate(366.3 329.5 336.5)" />
    <ellipse cx="278.9" cy="326.5" rx="16.8" ry="14.0" fill="#d9a21b" stroke="#ffffff88" stroke-width="1.2" transform="rotate(372.9 278.9 326.5)" />
    <ellipse cx="376.1" cy="312.0" rx="21.6" ry="18.0" fill="#f1c44e" stroke="#ffffff88" stroke-width="1.2" transform="rotate(379.5 376.1 312.0)" />
    <ellipse cx="332.1" cy="297.2" rx="26.4" ry="22.0" fill="#b66b20" stroke="#ffffff88" stroke-width="1.2" transform="rotate(386.1 332.1 297.2)" />
    <ellipse cx="294.8" cy="273.1" rx="31.2" ry="26.0" fill="#d9a21b" stroke="#ffffff88" stroke-width="1.2" transform="rotate(392.7 294.8 273.1)" />
    <ellipse cx="390.6" cy="290.9" rx="12.0" ry="10.0" fill="#f1c44e" stroke="#ffffff88" stroke-width="1.2" transform="rotate(399.3 390.6 290.9)" />
    <ellipse cx="362.4" cy="264.6" rx="16.8" ry="14.0" fill="#b66b20" stroke="#ffffff88" stroke-width="1.2" transform="rotate(406.0 362.4 264.6)" />
    <ellipse cx="346.7" cy="232.2" rx="21.6" ry="18.0" fill="#d9a21b" stroke="#ffffff88" stroke-width="1.2" transform="rotate(412.6 346.7 232.2)" />
    <ellipse cx="417.4" cy="277.7" rx="26.4" ry="22.0" fill="#f1c44e" stroke="#ffffff88" stroke-width="1.2" transform="rotate(419.2 417.4 277.7)" />
    <ellipse cx="411.2" cy="246.0" rx="31.2" ry="26.0" fill="#b66b20" stroke="#ffffff88" stroke-width="1.2" transform="rotate(425.8 411.2 246.0)" />
    <ellipse cx="420.5" cy="212.8" rx="12.0" ry="10.0" fill="#d9a21b" stroke="#ffffff88" stroke-width="1.2" transform="rotate(432.4 420.5 212.8)" />
    <ellipse cx="448.8" cy="274.7" rx="16.8" ry="14.0" fill="#f1c44e" stroke="#ffffff88" stroke-width="1.2" transform="rotate(439.0 448.8 274.7)" />
    <ellipse cx="465.8" cy="244.9" rx="21.6" ry="18.0" fill="#b66b20" stroke="#ffffff88" stroke-width="1.2" transform="rotate(445.6 465.8 244.9)" />
    <ellipse cx="497.7" cy="218.5" rx="26.4" ry="22.0" fill="#d9a21b" stroke="#ffffff88" stroke-width="1.2" transform="rotate(452.2 497.7 218.5)" />
    <ellipse cx="476.6" cy="281.5" rx="31.2" ry="26.0" fill="#f1c44e" stroke="#ffffff88" stroke-width="1.2" transform="rotate(458.9 476.6 281.5)" />
    <ellipse cx="512.8" cy="260.3" rx="12.0" ry="10.0" fill="#b66b20" stroke="#ffffff88" stroke-width="1.2" transform="rotate(465.5 512.8 260.3)" />
    <ellipse cx="559.7" cy="246.6" rx="16.8" ry="14.0" fill="#d9a21b" stroke="#ffffff88" stroke-width="1.2" transform="rotate(472.1 559.7 246.6)" />
    <ellipse cx="494.6" cy="295.2" rx="21.6" ry="18.0" fill="#f1c44e" stroke="#ffffff88" stroke-width="1.2" transform="rotate(478.7 494.6 295.2)" />
    <ellipse cx="541.7" cy="287.4" rx="26.4" ry="22.0" fill="#b66b20" stroke="#ffffff88" stroke-width="1.2" transform="rotate(485.3 541.7 287.4)" />
    <ellipse cx="592.7" cy="289.5" rx="31.2" ry="26.0" fill="#d9a21b" stroke="#ffffff88" stroke-width="1.2" transform="rotate(491.9 592.7 289.5)" />
    <ellipse cx="499.7" cy="311.7" rx="12.0" ry="10.0" fill="#f1c44e" stroke="#ffffff88" stroke-width="1.2" transform="rotate(498.5 499.7 311.7)" />
    <ellipse cx="546.8" cy="318.9" rx="16.8" ry="14.0" fill="#b66b20" stroke="#ffffff88" stroke-width="1.2" transform="rotate(505.2 546.8 318.9)" />
    <ellipse cx="590.3" cy="336.2" rx="21.6" ry="18.0" fill="#d9a21b" stroke="#ffffff88" stroke-width="1.2" transform="rotate(511.8 590.3 336.2)" />
    <ellipse cx="492.5" cy="326.5" rx="26.4" ry="22.0" fill="#f1c44e" stroke="#ffffff88" stroke-width="1.2" transform="rotate(518.4 492.5 326.5)" />
    <ellipse cx="528.9" cy="347.0" rx="31.2" ry="26.0" fill="#b66b20" stroke="#ffffff88" stroke-width="1.2" transform="rotate(525.0 528.9 347.0)" />
    <ellipse cx="554.9" cy="375.3" rx="12.0" ry="10.0" fill="#d9a21b" stroke="#ffffff88" stroke-width="1.2" transform="rotate(531.6 554.9 375.3)" />
    <ellipse cx="476.5" cy="336.2" rx="16.8" ry="14.0" fill="#f1c44e" stroke="#ffffff88" stroke-width="1.2" transform="rotate(538.2 476.5 336.2)" />
    <ellipse cx="493.9" cy="365.3" rx="21.6" ry="18.0" fill="#b66b20" stroke="#ffffff88" stroke-width="1.2" transform="rotate(544.8 493.9 365.3)" />
    <ellipse cx="496.7" cy="398.0" rx="26.4" ry="22.0" fill="#d9a21b" stroke="#ffffff88" stroke-width="1.2" transform="rotate(551.5 496.7 398.0)" />
    <ellipse cx="457.0" cy="339.3" rx="31.2" ry="26.0" fill="#f1c44e" stroke="#ffffff88" stroke-width="1.2" transform="rotate(558.1 457.0 339.3)" />
    <ellipse cx="451.7" cy="370.2" rx="12.0" ry="10.0" fill="#b66b20" stroke="#ffffff88" stroke-width="1.2" transform="rotate(564.7 451.7 370.2)" />
    <ellipse cx="430.9" cy="399.9" rx="16.8" ry="14.0" fill="#d9a21b" stroke="#ffffff88" stroke-width="1.2" transform="rotate(571.3 430.9 399.9)" />
    <ellipse cx="395.3" cy="425.8" rx="21.6" ry="18.0" fill="#f1c44e" stroke="#ffffff88" stroke-width="1.2" transform="rotate(577.9 395.3 425.8)" />
  <rect x="115" y="538" width="670" height="88" rx="28" fill="#091612" stroke="#ffffff26" />
  <text x="450" y="586" text-anchor="middle" font-family="Arial, sans-serif" font-size="58" font-weight="700" fill="#ffffff">Turmeric Powder</text>
  <text x="450" y="615" text-anchor="middle" font-family="Arial, sans-serif" font-size="24" fill="#d4ff00" letter-spacing="3">EXPORT QUALITY</text>
</svg>
