<svg xmlns="http://www.w3.org/2000/svg" width="900" height="700" viewBox="0 0 900 700" role="img" aria-labelledby="title desc">
  <title id="title">Turmeric</title>
  <desc id="desc">Clean export product artwork for Turmeric on a dark green background.</desc>
  <defs>
    <linearGradient id="background" x1="0" x2="1" y1="0" y2="1">
      <stop stop-color="#091612" />
      <stop offset="1" stop-color="#1a332b" />
    </linearGradient>
    <filter id="shadow"><feDropShadow dx="0" dy="18" stdDeviation="22" flood-color="#000000" flood-opacity=".35" /></filter>
  </defs>
  <rect width="900" height="700" fill="url(#background)" />
  <rect x="70" y="60" width="760" height="580" rx="52" fill="#132620" stroke="#ffffff20" stroke-width="2" />
  <circle cx="450" cy="300" r="210" fill="#0b1d18" opacity=".5" />
  <ellipse cx="450" cy="315" rx="235" ry="170" fill="#eee5cc" stroke="#d4ff00" stroke-width="7" filter="url(#shadow)" />
    <ellipse cx="485.0" cy="315.0" rx="12.0" ry="10.0" fill="#d9a21b" stroke="#ffffff88" stroke-width="1.2" transform="rotate(0.0 485.0 315.0)" />
    <ellipse cx="530.9" cy="323.8" rx="16.8" ry="14.0" fill="#f1c44e" stroke="#ffffff88" stroke-width="1.2" transform="rotate(6.6 530.9 323.8)" />
    <ellipse cx="572.0" cy="342.2" rx="21.6" ry="18.0" fill="#b66b20" stroke="#ffffff88" stroke-width="1.2" transform="rotate(13.2 572.0 342.2)" />
    <ellipse cx="604.8" cy="369.4" rx="26.4" ry="22.0" fill="#d9a21b" stroke="#ffffff88" stroke-width="1.2" transform="rotate(19.8 604.8 369.4)" />
    <ellipse cx="511.6" cy="346.1" rx="31.2" ry="26.0" fill="#f1c44e" stroke="#ffffff88" stroke-width="1.2" transform="rotate(26.5 511.6 346.1)" />
    <ellipse cx="534.7" cy="374.8" rx="12.0" ry="10.0" fill="#b66b20" stroke="#ffffff88" stroke-width="1.2" transform="rotate(33.1 534.7 374.8)" />
    <ellipse cx="544.1" cy="408.6" rx="16.8" ry="14.0" fill="#d9a21b" stroke="#ffffff88" stroke-width="1.2" transform="rotate(39.7 544.1 408.6)" />
    <ellipse cx="479.7" cy="359.0" rx="21.6" ry="18.0" fill="#f1c44e" stroke="#ffffff88" stroke-width="1.2" transform="rotate(46.3 479.7 359.0)" />
    <ellipse cx="479.7" cy="391.2" rx="26.4" ry="22.0" fill="#b66b20" stroke="#ffffff88" stroke-width="1.2" transform="rotate(52.9 479.7 391.2)" />
    <ellipse cx="463.9" cy="423.8" rx="31.2" ry="26.0" fill="#d9a21b" stroke="#ffffff88" stroke-width="1.2" transform="rotate(59.5 463.9 423.8)" />
    <ellipse cx="444.2" cy="360.3" rx="12.0" ry="10.0" fill="#f1c44e" stroke="#ffffff88" stroke-width="1.2" transform="rotate(66.1 444.2 360.3)" />
    <ellipse cx="421.3" cy="388.7" rx="16.8" ry="14.0" fill="#b66b20" stroke="#ffffff88" stroke-width="1.2" transform="rotate(72.8 421.3 388.7)" />
    <ellipse cx="384.1" cy="412.6" rx="21.6" ry="18.0" fill="#d9a21b" stroke="#ffffff88" stroke-width="1.2" transform="rotate(79.4 384.1 412.6)" />
    <ellipse cx="413.9" cy="350.9" rx="26.4" ry="22.0" fill="#f1c44e" stroke="#ffffff88" stroke-width="1.2" transform="rotate(86.0 413.9 350.9)" />
    <ellipse cx="373.5" cy="369.0" rx="31.2" ry="26.0" fill="#b66b20" stroke="#ffffff88" stroke-width="1.2" transform="rotate(92.6 373.5 369.0)" />
    <ellipse cx="323.7" cy="378.9" rx="12.0" ry="10.0" fill="#d9a21b" stroke="#ffffff88" stroke-width="1.2" transform="rotate(99.2 323.7 378.9)" />
    <ellipse cx="395.5" cy="334.2" rx="16.8" ry="14.0" fill="#f1c44e" stroke="#ffffff88" stroke-width="1.2" transform="rotate(105.8 395.5 334.2)" />
    <ellipse cx="346.9" cy="338.0" rx="21.6" ry="18.0" fill="#b66b20" stroke="#ffffff88" stroke-width="1.2" transform="rotate(112.4 346.9 338.0)" />
    <ellipse cx="296.1" cy="331.7" rx="26.4" ry="22.0" fill="#d9a21b" stroke="#ffffff88" stroke-width="1.2" transform="rotate(119.0 296.1 331.7)" />
    <ellipse cx="392.0" cy="315.0" rx="31.2" ry="26.0" fill="#f1c44e" stroke="#ffffff88" stroke-width="1.2" transform="rotate(125.7 392.0 315.0)" />
    <ellipse cx="346.4" cy="303.8" rx="12.0" ry="10.0" fill="#b66b20" stroke="#ffffff88" stroke-width="1.2" transform="rotate(132.3 346.4 303.8)" />
    <ellipse cx="306.2" cy="282.9" rx="16.8" ry="14.0" fill="#d9a21b" stroke="#ffffff88" stroke-width="1.2" transform="rotate(138.9 306.2 282.9)" />
    <ellipse cx="402.5" cy="298.3" rx="21.6" ry="18.0" fill="#f1c44e" stroke="#ffffff88" stroke-width="1.2" transform="rotate(145.5 402.5 298.3)" />
    <ellipse cx="370.3" cy="274.7" rx="26.4" ry="22.0" fill="#b66b20" stroke="#ffffff88" stroke-width="1.2" transform="rotate(152.1 370.3 274.7)" />
    <ellipse cx="349.8" cy="244.2" rx="31.2" ry="26.0" fill="#d9a21b" stroke="#ffffff88" stroke-width="1.2" transform="rotate(158.7 349.8 244.2)" />
    <ellipse cx="422.7" cy="287.8" rx="12.0" ry="10.0" fill="#f1c44e" stroke="#ffffff88" stroke-width="1.2" transform="rotate(165.3 422.7 287.8)" />
    <ellipse cx="411.0" cy="257.3" rx="16.8" ry="14.0" fill="#b66b20" stroke="#ffffff88" stroke-width="1.2" transform="rotate(172.0 411.0 257.3)" />
    <ellipse cx="414.7" cy="224.3" rx="21.6" ry="18.0" fill="#d9a21b" stroke="#ffffff88" stroke-width="1.2" transform="rotate(178.6 414.7 224.3)" />
    <ellipse cx="446.2" cy="285.2" rx="26.4" ry="22.0" fill="#f1c44e" stroke="#ffffff88" stroke-width="1.2" transform="rotate(185.2 446.2 285.2)" />
    <ellipse cx="457.7" cy="254.8" rx="31.2" ry="26.0" fill="#b66b20" stroke="#ffffff88" stroke-width="1.2" transform="rotate(191.8 457.7 254.8)" />
    <ellipse cx="484.4" cy="226.8" rx="12.0" ry="10.0" fill="#d9a21b" stroke="#ffffff88" stroke-width="1.2" transform="rotate(198.4 484.4 226.8)" />
    <ellipse cx="466.9" cy="290.0" rx="16.8" ry="14.0" fill="#f1c44e" stroke="#ffffff88" stroke-width="1.2" transform="rotate(205.0 466.9 290.0)" />
    <ellipse cx="498.7" cy="266.6" rx="21.6" ry="18.0" fill="#b66b20" stroke="#ffffff88" stroke-width="1.2" transform="rotate(211.6 498.7 266.6)" />
    <ellipse cx="542.1" cy="250.0" rx="26.4" ry="22.0" fill="#d9a21b" stroke="#ffffff88" stroke-width="1.2" transform="rotate(218.3 542.1 250.0)" />
    <ellipse cx="480.0" cy="299.8" rx="31.2" ry="26.0" fill="#f1c44e" stroke="#ffffff88" stroke-width="1.2" transform="rotate(224.9 480.0 299.8)" />
    <ellipse cx="524.8" cy="288.7" rx="12.0" ry="10.0" fill="#b66b20" stroke="#ffffff88" stroke-width="1.2" transform="rotate(231.5 524.8 288.7)" />
    <ellipse cx="574.8" cy="287.1" rx="16.8" ry="14.0" fill="#d9a21b" stroke="#ffffff88" stroke-width="1.2" transform="rotate(238.1 574.8 287.1)" />
    <ellipse cx="626.6" cy="295.8" rx="21.6" ry="18.0" fill="#f1c44e" stroke="#ffffff88" stroke-width="1.2" transform="rotate(244.7 626.6 295.8)" />
  <rect x="115" y="538" width="670" height="88" rx="28" fill="#091612" stroke="#ffffff26" />
  <text x="450" y="586" text-anchor="middle" font-family="Arial, sans-serif" font-size="58" font-weight="700" fill="#ffffff">Turmeric</text>
  <text x="450" y="615" text-anchor="middle" font-family="Arial, sans-serif" font-size="24" fill="#d4ff00" letter-spacing="3">EXPORT QUALITY</text>
</svg>
