<svg xmlns="http://www.w3.org/2000/svg" width="900" height="700" viewBox="0 0 900 700" role="img" aria-labelledby="title desc">
  <title id="title">Urad Dal</title>
  <desc id="desc">Clean export product artwork for Urad Dal on a dark green background.</desc>
  <defs>
    <linearGradient id="background" x1="0" x2="1" y1="0" y2="1">
      <stop stop-color="#091612" />
      <stop offset="1" stop-color="#1a332b" />
    </linearGradient>
    <filter id="shadow"><feDropShadow dx="0" dy="18" stdDeviation="22" flood-color="#000000" flood-opacity=".35" /></filter>
  </defs>
  <rect width="900" height="700" fill="url(#background)" />
  <rect x="70" y="60" width="760" height="580" rx="52" fill="#132620" stroke="#ffffff20" stroke-width="2" />
  <circle cx="450" cy="300" r="210" fill="#0b1d18" opacity=".5" />
  <ellipse cx="450" cy="315" rx="235" ry="170" fill="#eee5cc" stroke="#d4ff00" stroke-width="7" filter="url(#shadow)" />
    <ellipse cx="468.1" cy="334.5" rx="12.0" ry="10.0" fill="#caa66a" stroke="#ffffff88" stroke-width="1.2" transform="rotate(292.4 468.1 334.5)" />
    <ellipse cx="480.3" cy="364.5" rx="16.8" ry="14.0" fill="#e1c887" stroke="#ffffff88" stroke-width="1.2" transform="rotate(299.0 480.3 364.5)" />
    <ellipse cx="477.3" cy="396.9" rx="21.6" ry="18.0" fill="#8f6a3c" stroke="#ffffff88" stroke-width="1.2" transform="rotate(305.6 477.3 396.9)" />
    <ellipse cx="458.4" cy="429.3" rx="26.4" ry="22.0" fill="#caa66a" stroke="#ffffff88" stroke-width="1.2" transform="rotate(312.2 458.4 429.3)" />
    <ellipse cx="440.9" cy="365.4" rx="31.2" ry="26.0" fill="#e1c887" stroke="#ffffff88" stroke-width="1.2" transform="rotate(318.9 440.9 365.4)" />
    <ellipse cx="415.1" cy="393.0" rx="12.0" ry="10.0" fill="#8f6a3c" stroke="#ffffff88" stroke-width="1.2" transform="rotate(325.5 415.1 393.0)" />
    <ellipse cx="375.5" cy="415.8" rx="16.8" ry="14.0" fill="#caa66a" stroke="#ffffff88" stroke-width="1.2" transform="rotate(332.1 375.5 415.8)" />
    <ellipse cx="407.4" cy="354.3" rx="21.6" ry="18.0" fill="#e1c887" stroke="#ffffff88" stroke-width="1.2" transform="rotate(338.7 407.4 354.3)" />
    <ellipse cx="365.0" cy="371.0" rx="26.4" ry="22.0" fill="#8f6a3c" stroke="#ffffff88" stroke-width="1.2" transform="rotate(345.3 365.0 371.0)" />
    <ellipse cx="313.9" cy="379.0" rx="31.2" ry="26.0" fill="#caa66a" stroke="#ffffff88" stroke-width="1.2" transform="rotate(351.9 313.9 379.0)" />
    <ellipse cx="387.3" cy="335.3" rx="12.0" ry="10.0" fill="#e1c887" stroke="#ffffff88" stroke-width="1.2" transform="rotate(358.5 387.3 335.3)" />
    <ellipse cx="338.1" cy="337.2" rx="16.8" ry="14.0" fill="#8f6a3c" stroke="#ffffff88" stroke-width="1.2" transform="rotate(365.2 338.1 337.2)" />
    <ellipse cx="287.4" cy="328.9" rx="21.6" ry="18.0" fill="#caa66a" stroke="#ffffff88" stroke-width="1.2" transform="rotate(371.8 287.4 328.9)" />
    <ellipse cx="384.0" cy="313.5" rx="26.4" ry="22.0" fill="#e1c887" stroke="#ffffff88" stroke-width="1.2" transform="rotate(378.4 384.0 313.5)" />
    <ellipse cx="339.3" cy="300.4" rx="31.2" ry="26.0" fill="#8f6a3c" stroke="#ffffff88" stroke-width="1.2" transform="rotate(385.0 339.3 300.4)" />
    <ellipse cx="300.6" cy="277.8" rx="12.0" ry="10.0" fill="#caa66a" stroke="#ffffff88" stroke-width="1.2" transform="rotate(391.6 300.6 277.8)" />
    <ellipse cx="396.5" cy="294.6" rx="16.8" ry="14.0" fill="#e1c887" stroke="#ffffff88" stroke-width="1.2" transform="rotate(398.2 396.5 294.6)" />
    <ellipse cx="366.4" cy="269.6" rx="21.6" ry="18.0" fill="#8f6a3c" stroke="#ffffff88" stroke-width="1.2" transform="rotate(404.8 366.4 269.6)" />
    <ellipse cx="348.4" cy="238.1" rx="26.4" ry="22.0" fill="#caa66a" stroke="#ffffff88" stroke-width="1.2" transform="rotate(411.4 348.4 238.1)" />
    <ellipse cx="420.0" cy="282.7" rx="31.2" ry="26.0" fill="#e1c887" stroke="#ffffff88" stroke-width="1.2" transform="rotate(418.1 420.0 282.7)" />
    <ellipse cx="411.2" cy="251.6" rx="12.0" ry="10.0" fill="#8f6a3c" stroke="#ffffff88" stroke-width="1.2" transform="rotate(424.7 411.2 251.6)" />
    <ellipse cx="417.8" cy="218.4" rx="16.8" ry="14.0" fill="#caa66a" stroke="#ffffff88" stroke-width="1.2" transform="rotate(431.3 417.8 218.4)" />
    <ellipse cx="447.4" cy="279.9" rx="21.6" ry="18.0" fill="#e1c887" stroke="#ffffff88" stroke-width="1.2" transform="rotate(437.9 447.4 279.9)" />
    <ellipse cx="461.8" cy="249.8" rx="26.4" ry="22.0" fill="#8f6a3c" stroke="#ffffff88" stroke-width="1.2" transform="rotate(444.5 461.8 249.8)" />
    <ellipse cx="491.3" cy="222.6" rx="31.2" ry="26.0" fill="#caa66a" stroke="#ffffff88" stroke-width="1.2" transform="rotate(451.1 491.3 222.6)" />
    <ellipse cx="471.7" cy="285.7" rx="12.0" ry="10.0" fill="#e1c887" stroke="#ffffff88" stroke-width="1.2" transform="rotate(457.7 471.7 285.7)" />
    <ellipse cx="505.8" cy="263.4" rx="16.8" ry="14.0" fill="#8f6a3c" stroke="#ffffff88" stroke-width="1.2" transform="rotate(464.4 505.8 263.4)" />
    <ellipse cx="551.1" cy="248.4" rx="21.6" ry="18.0" fill="#caa66a" stroke="#ffffff88" stroke-width="1.2" transform="rotate(471.0 551.1 248.4)" />
    <ellipse cx="487.3" cy="297.5" rx="26.4" ry="22.0" fill="#e1c887" stroke="#ffffff88" stroke-width="1.2" transform="rotate(477.6 487.3 297.5)" />
    <ellipse cx="533.3" cy="288.1" rx="31.2" ry="26.0" fill="#8f6a3c" stroke="#ffffff88" stroke-width="1.2" transform="rotate(484.2 533.3 288.1)" />
    <ellipse cx="583.9" cy="288.5" rx="12.0" ry="10.0" fill="#caa66a" stroke="#ffffff88" stroke-width="1.2" transform="rotate(490.8 583.9 288.5)" />
    <ellipse cx="491.6" cy="311.4" rx="16.8" ry="14.0" fill="#e1c887" stroke="#ffffff88" stroke-width="1.2" transform="rotate(497.4 491.6 311.4)" />
    <ellipse cx="538.9" cy="317.0" rx="21.6" ry="18.0" fill="#8f6a3c" stroke="#ffffff88" stroke-width="1.2" transform="rotate(504.0 538.9 317.0)" />
    <ellipse cx="583.3" cy="332.6" rx="26.4" ry="22.0" fill="#caa66a" stroke="#ffffff88" stroke-width="1.2" transform="rotate(510.7 583.3 332.6)" />
    <ellipse cx="485.5" cy="323.8" rx="31.2" ry="26.0" fill="#e1c887" stroke="#ffffff88" stroke-width="1.2" transform="rotate(517.3 485.5 323.8)" />
    <ellipse cx="523.3" cy="343.0" rx="12.0" ry="10.0" fill="#8f6a3c" stroke="#ffffff88" stroke-width="1.2" transform="rotate(523.9 523.3 343.0)" />
    <ellipse cx="551.3" cy="370.0" rx="16.8" ry="14.0" fill="#caa66a" stroke="#ffffff88" stroke-width="1.2" transform="rotate(530.5 551.3 370.0)" />
    <ellipse cx="566.6" cy="403.3" rx="21.6" ry="18.0" fill="#e1c887" stroke="#ffffff88" stroke-width="1.2" transform="rotate(537.1 566.6 403.3)" />
  <rect x="115" y="538" width="670" height="88" rx="28" fill="#091612" stroke="#ffffff26" />
  <text x="450" y="586" text-anchor="middle" font-family="Arial, sans-serif" font-size="58" font-weight="700" fill="#ffffff">Urad Dal</text>
  <text x="450" y="615" text-anchor="middle" font-family="Arial, sans-serif" font-size="24" fill="#d4ff00" letter-spacing="3">EXPORT QUALITY</text>
</svg>
