<svg xmlns="http://www.w3.org/2000/svg" width="900" height="700" viewBox="0 0 900 700" role="img" aria-labelledby="title desc">
  <title id="title">White Pepper</title>
  <desc id="desc">Clean export product artwork for White Pepper on a dark green background.</desc>
  <defs>
    <linearGradient id="background" x1="0" x2="1" y1="0" y2="1">
      <stop stop-color="#091612" />
      <stop offset="1" stop-color="#1a332b" />
    </linearGradient>
    <filter id="shadow"><feDropShadow dx="0" dy="18" stdDeviation="22" flood-color="#000000" flood-opacity=".35" /></filter>
  </defs>
  <rect width="900" height="700" fill="url(#background)" />
  <rect x="70" y="60" width="760" height="580" rx="52" fill="#132620" stroke="#ffffff20" stroke-width="2" />
  <circle cx="450" cy="300" r="210" fill="#0b1d18" opacity=".5" />
  <ellipse cx="450" cy="315" rx="235" ry="170" fill="#eee5cc" stroke="#d4ff00" stroke-width="7" filter="url(#shadow)" />
    <ellipse cx="463.0" cy="336.1" rx="12.0" ry="10.0" fill="#b8743f" stroke="#ffffff88" stroke-width="1.2" transform="rotate(47.6 463.0 336.1)" />
    <ellipse cx="467.5" cy="367.1" rx="16.8" ry="14.0" fill="#d7a66a" stroke="#ffffff88" stroke-width="1.2" transform="rotate(54.2 467.5 367.1)" />
    <ellipse cx="456.5" cy="398.7" rx="21.6" ry="18.0" fill="#7f5130" stroke="#ffffff88" stroke-width="1.2" transform="rotate(60.8 456.5 398.7)" />
    <ellipse cx="429.8" cy="428.6" rx="26.4" ry="22.0" fill="#b8743f" stroke="#ffffff88" stroke-width="1.2" transform="rotate(67.4 429.8 428.6)" />
    <ellipse cx="428.4" cy="363.7" rx="31.2" ry="26.0" fill="#d7a66a" stroke="#ffffff88" stroke-width="1.2" transform="rotate(74.1 428.4 363.7)" />
    <ellipse cx="396.1" cy="388.3" rx="12.0" ry="10.0" fill="#7f5130" stroke="#ffffff88" stroke-width="1.2" transform="rotate(80.7 396.1 388.3)" />
    <ellipse cx="351.3" cy="406.6" rx="16.8" ry="14.0" fill="#b8743f" stroke="#ffffff88" stroke-width="1.2" transform="rotate(87.3 351.3 406.6)" />
    <ellipse cx="398.1" cy="349.3" rx="21.6" ry="18.0" fill="#d7a66a" stroke="#ffffff88" stroke-width="1.2" transform="rotate(93.9 398.1 349.3)" />
    <ellipse cx="352.1" cy="361.3" rx="26.4" ry="22.0" fill="#7f5130" stroke="#ffffff88" stroke-width="1.2" transform="rotate(100.5 352.1 361.3)" />
    <ellipse cx="299.7" cy="363.8" rx="31.2" ry="26.0" fill="#b8743f" stroke="#ffffff88" stroke-width="1.2" transform="rotate(107.1 299.7 363.8)" />
    <ellipse cx="383.1" cy="328.4" rx="12.0" ry="10.0" fill="#d7a66a" stroke="#ffffff88" stroke-width="1.2" transform="rotate(113.7 383.1 328.4)" />
    <ellipse cx="334.0" cy="325.1" rx="16.8" ry="14.0" fill="#7f5130" stroke="#ffffff88" stroke-width="1.2" transform="rotate(120.4 334.0 325.1)" />
    <ellipse cx="286.1" cy="311.5" rx="21.6" ry="18.0" fill="#b8743f" stroke="#ffffff88" stroke-width="1.2" transform="rotate(127.0 286.1 311.5)" />
    <ellipse cx="385.3" cy="306.6" rx="26.4" ry="22.0" fill="#d7a66a" stroke="#ffffff88" stroke-width="1.2" transform="rotate(133.6 385.3 306.6)" />
    <ellipse cx="344.4" cy="288.9" rx="31.2" ry="26.0" fill="#7f5130" stroke="#ffffff88" stroke-width="1.2" transform="rotate(140.2 344.4 288.9)" />
    <ellipse cx="311.8" cy="262.5" rx="12.0" ry="10.0" fill="#b8743f" stroke="#ffffff88" stroke-width="1.2" transform="rotate(146.8 311.8 262.5)" />
    <ellipse cx="402.3" cy="289.2" rx="16.8" ry="14.0" fill="#d7a66a" stroke="#ffffff88" stroke-width="1.2" transform="rotate(153.4 402.3 289.2)" />
    <ellipse cx="378.8" cy="261.3" rx="21.6" ry="18.0" fill="#7f5130" stroke="#ffffff88" stroke-width="1.2" transform="rotate(160.0 378.8 261.3)" />
    <ellipse cx="369.0" cy="228.4" rx="26.4" ry="22.0" fill="#b8743f" stroke="#ffffff88" stroke-width="1.2" transform="rotate(166.6 369.0 228.4)" />
    <ellipse cx="428.4" cy="280.0" rx="31.2" ry="26.0" fill="#d7a66a" stroke="#ffffff88" stroke-width="1.2" transform="rotate(173.3 428.4 280.0)" />
    <ellipse cx="427.6" cy="248.3" rx="12.0" ry="10.0" fill="#7f5130" stroke="#ffffff88" stroke-width="1.2" transform="rotate(179.9 427.6 248.3)" />
    <ellipse cx="442.4" cy="216.3" rx="16.8" ry="14.0" fill="#b8743f" stroke="#ffffff88" stroke-width="1.2" transform="rotate(186.5 442.4 216.3)" />
    <ellipse cx="456.2" cy="280.1" rx="21.6" ry="18.0" fill="#d7a66a" stroke="#ffffff88" stroke-width="1.2" transform="rotate(193.1 456.2 280.1)" />
    <ellipse cx="478.0" cy="251.9" rx="26.4" ry="22.0" fill="#7f5130" stroke="#ffffff88" stroke-width="1.2" transform="rotate(199.7 478.0 251.9)" />
    <ellipse cx="513.8" cy="228.2" rx="31.2" ry="26.0" fill="#b8743f" stroke="#ffffff88" stroke-width="1.2" transform="rotate(206.3 513.8 228.2)" />
    <ellipse cx="478.7" cy="288.4" rx="12.0" ry="10.0" fill="#d7a66a" stroke="#ffffff88" stroke-width="1.2" transform="rotate(212.9 478.7 288.4)" />
    <ellipse cx="518.0" cy="270.0" rx="16.8" ry="14.0" fill="#7f5130" stroke="#ffffff88" stroke-width="1.2" transform="rotate(219.6 518.0 270.0)" />
    <ellipse cx="566.5" cy="259.9" rx="21.6" ry="18.0" fill="#b8743f" stroke="#ffffff88" stroke-width="1.2" transform="rotate(226.2 566.5 259.9)" />
    <ellipse cx="491.1" cy="301.6" rx="26.4" ry="22.0" fill="#d7a66a" stroke="#ffffff88" stroke-width="1.2" transform="rotate(232.8 491.1 301.6)" />
    <ellipse cx="538.9" cy="297.2" rx="31.2" ry="26.0" fill="#7f5130" stroke="#ffffff88" stroke-width="1.2" transform="rotate(239.4 538.9 297.2)" />
    <ellipse cx="588.8" cy="303.0" rx="12.0" ry="10.0" fill="#b8743f" stroke="#ffffff88" stroke-width="1.2" transform="rotate(246.0 588.8 303.0)" />
    <ellipse cx="492.0" cy="315.9" rx="16.8" ry="14.0" fill="#d7a66a" stroke="#ffffff88" stroke-width="1.2" transform="rotate(252.6 492.0 315.9)" />
    <ellipse cx="537.3" cy="326.4" rx="21.6" ry="18.0" fill="#7f5130" stroke="#ffffff88" stroke-width="1.2" transform="rotate(259.2 537.3 326.4)" />
    <ellipse cx="577.1" cy="346.4" rx="26.4" ry="22.0" fill="#b8743f" stroke="#ffffff88" stroke-width="1.2" transform="rotate(265.9 577.1 346.4)" />
    <ellipse cx="482.8" cy="327.5" rx="31.2" ry="26.0" fill="#d7a66a" stroke="#ffffff88" stroke-width="1.2" transform="rotate(272.5 482.8 327.5)" />
    <ellipse cx="515.3" cy="350.3" rx="12.0" ry="10.0" fill="#7f5130" stroke="#ffffff88" stroke-width="1.2" transform="rotate(279.1 515.3 350.3)" />
    <ellipse cx="536.2" cy="380.0" rx="16.8" ry="14.0" fill="#b8743f" stroke="#ffffff88" stroke-width="1.2" transform="rotate(285.7 536.2 380.0)" />
    <ellipse cx="543.0" cy="414.4" rx="21.6" ry="18.0" fill="#d7a66a" stroke="#ffffff88" stroke-width="1.2" transform="rotate(292.3 543.0 414.4)" />
  <rect x="115" y="538" width="670" height="88" rx="28" fill="#091612" stroke="#ffffff26" />
  <text x="450" y="586" text-anchor="middle" font-family="Arial, sans-serif" font-size="58" font-weight="700" fill="#ffffff">White Pepper</text>
  <text x="450" y="615" text-anchor="middle" font-family="Arial, sans-serif" font-size="24" fill="#d4ff00" letter-spacing="3">EXPORT QUALITY</text>
</svg>
