<svg xmlns="http://www.w3.org/2000/svg" width="900" height="700" viewBox="0 0 900 700" role="img" aria-labelledby="title desc">
  <title id="title">White Rice</title>
  <desc id="desc">Clean export product artwork for White Rice on a dark green background.</desc>
  <defs>
    <linearGradient id="background" x1="0" x2="1" y1="0" y2="1">
      <stop stop-color="#091612" />
      <stop offset="1" stop-color="#1a332b" />
    </linearGradient>
    <filter id="shadow"><feDropShadow dx="0" dy="18" stdDeviation="22" flood-color="#000000" flood-opacity=".35" /></filter>
  </defs>
  <rect width="900" height="700" fill="url(#background)" />
  <rect x="70" y="60" width="760" height="580" rx="52" fill="#132620" stroke="#ffffff20" stroke-width="2" />
  <circle cx="450" cy="300" r="210" fill="#0b1d18" opacity=".5" />
  <ellipse cx="450" cy="315" rx="235" ry="170" fill="#eee5cc" stroke="#d4ff00" stroke-width="7" filter="url(#shadow)" />
    <ellipse cx="418.0" cy="324.2" rx="12.0" ry="10.0" fill="#efe7d0" stroke="#ffffff88" stroke-width="1.2" transform="rotate(360.4 418.0 324.2)" />
    <ellipse cx="370.5" cy="328.2" rx="16.8" ry="14.0" fill="#d8c29b" stroke="#ffffff88" stroke-width="1.2" transform="rotate(367.0 370.5 328.2)" />
    <ellipse cx="321.5" cy="322.0" rx="21.6" ry="18.0" fill="#fff7df" stroke="#ffffff88" stroke-width="1.2" transform="rotate(373.6 321.5 322.0)" />
    <ellipse cx="274.6" cy="305.7" rx="26.4" ry="22.0" fill="#efe7d0" stroke="#ffffff88" stroke-width="1.2" transform="rotate(380.2 274.6 305.7)" />
    <ellipse cx="374.4" cy="302.6" rx="31.2" ry="26.0" fill="#d8c29b" stroke="#ffffff88" stroke-width="1.2" transform="rotate(386.9 374.4 302.6)" />
    <ellipse cx="335.5" cy="282.5" rx="12.0" ry="10.0" fill="#fff7df" stroke="#ffffff88" stroke-width="1.2" transform="rotate(393.5 335.5 282.5)" />
    <ellipse cx="305.9" cy="254.0" rx="16.8" ry="14.0" fill="#efe7d0" stroke="#ffffff88" stroke-width="1.2" transform="rotate(400.1 305.9 254.0)" />
    <ellipse cx="395.5" cy="282.5" rx="21.6" ry="18.0" fill="#d8c29b" stroke="#ffffff88" stroke-width="1.2" transform="rotate(406.7 395.5 282.5)" />
    <ellipse cx="375.5" cy="253.0" rx="26.4" ry="22.0" fill="#fff7df" stroke="#ffffff88" stroke-width="1.2" transform="rotate(413.3 375.5 253.0)" />
    <ellipse cx="369.8" cy="219.0" rx="31.2" ry="26.0" fill="#efe7d0" stroke="#ffffff88" stroke-width="1.2" transform="rotate(419.9 369.8 219.0)" />
    <ellipse cx="427.2" cy="272.0" rx="12.0" ry="10.0" fill="#d8c29b" stroke="#ffffff88" stroke-width="1.2" transform="rotate(426.5 427.2 272.0)" />
    <ellipse cx="430.6" cy="240.0" rx="16.8" ry="14.0" fill="#fff7df" stroke="#ffffff88" stroke-width="1.2" transform="rotate(433.2 430.6 240.0)" />
    <ellipse cx="449.8" cy="208.4" rx="21.6" ry="18.0" fill="#efe7d0" stroke="#ffffff88" stroke-width="1.2" transform="rotate(439.8 449.8 208.4)" />
    <ellipse cx="460.8" cy="272.7" rx="26.4" ry="22.0" fill="#d8c29b" stroke="#ffffff88" stroke-width="1.2" transform="rotate(446.4 460.8 272.7)" />
    <ellipse cx="486.5" cy="245.5" rx="31.2" ry="26.0" fill="#fff7df" stroke="#ffffff88" stroke-width="1.2" transform="rotate(453.0 486.5 245.5)" />
    <ellipse cx="526.0" cy="223.5" rx="12.0" ry="10.0" fill="#efe7d0" stroke="#ffffff88" stroke-width="1.2" transform="rotate(459.6 526.0 223.5)" />
    <ellipse cx="488.0" cy="283.2" rx="16.8" ry="14.0" fill="#d8c29b" stroke="#ffffff88" stroke-width="1.2" transform="rotate(466.2 488.0 283.2)" />
    <ellipse cx="530.1" cy="266.9" rx="21.6" ry="18.0" fill="#fff7df" stroke="#ffffff88" stroke-width="1.2" transform="rotate(472.8 530.1 266.9)" />
    <ellipse cx="580.5" cy="259.4" rx="26.4" ry="22.0" fill="#efe7d0" stroke="#ffffff88" stroke-width="1.2" transform="rotate(479.4 580.5 259.4)" />
    <ellipse cx="503.1" cy="299.8" rx="31.2" ry="26.0" fill="#d8c29b" stroke="#ffffff88" stroke-width="1.2" transform="rotate(486.1 503.1 299.8)" />
    <ellipse cx="551.8" cy="298.2" rx="12.0" ry="10.0" fill="#fff7df" stroke="#ffffff88" stroke-width="1.2" transform="rotate(492.7 551.8 298.2)" />
    <ellipse cx="601.5" cy="306.7" rx="16.8" ry="14.0" fill="#efe7d0" stroke="#ffffff88" stroke-width="1.2" transform="rotate(499.3 601.5 306.7)" />
    <ellipse cx="503.8" cy="317.8" rx="21.6" ry="18.0" fill="#d8c29b" stroke="#ffffff88" stroke-width="1.2" transform="rotate(505.9 503.8 317.8)" />
    <ellipse cx="547.9" cy="331.0" rx="26.4" ry="22.0" fill="#fff7df" stroke="#ffffff88" stroke-width="1.2" transform="rotate(512.5 547.9 331.0)" />
    <ellipse cx="585.6" cy="353.5" rx="31.2" ry="26.0" fill="#efe7d0" stroke="#ffffff88" stroke-width="1.2" transform="rotate(519.1 585.6 353.5)" />
    <ellipse cx="491.9" cy="332.7" rx="12.0" ry="10.0" fill="#d8c29b" stroke="#ffffff88" stroke-width="1.2" transform="rotate(525.7 491.9 332.7)" />
    <ellipse cx="521.5" cy="357.6" rx="16.8" ry="14.0" fill="#fff7df" stroke="#ffffff88" stroke-width="1.2" transform="rotate(532.4 521.5 357.6)" />
    <ellipse cx="538.6" cy="388.8" rx="21.6" ry="18.0" fill="#efe7d0" stroke="#ffffff88" stroke-width="1.2" transform="rotate(539.0 538.6 388.8)" />
    <ellipse cx="472.0" cy="341.3" rx="26.4" ry="22.0" fill="#d8c29b" stroke="#ffffff88" stroke-width="1.2" transform="rotate(545.6 472.0 341.3)" />
    <ellipse cx="480.3" cy="372.1" rx="31.2" ry="26.0" fill="#fff7df" stroke="#ffffff88" stroke-width="1.2" transform="rotate(552.2 480.3 372.1)" />
    <ellipse cx="473.2" cy="404.7" rx="12.0" ry="10.0" fill="#efe7d0" stroke="#ffffff88" stroke-width="1.2" transform="rotate(558.8 473.2 404.7)" />
    <ellipse cx="450.1" cy="342.3" rx="16.8" ry="14.0" fill="#d8c29b" stroke="#ffffff88" stroke-width="1.2" transform="rotate(565.4 450.1 342.3)" />
    <ellipse cx="435.5" cy="372.1" rx="21.6" ry="18.0" fill="#fff7df" stroke="#ffffff88" stroke-width="1.2" transform="rotate(572.0 435.5 372.1)" />
    <ellipse cx="406.0" cy="398.7" rx="26.4" ry="22.0" fill="#efe7d0" stroke="#ffffff88" stroke-width="1.2" transform="rotate(578.7 406.0 398.7)" />
    <ellipse cx="432.0" cy="336.7" rx="31.2" ry="26.0" fill="#d8c29b" stroke="#ffffff88" stroke-width="1.2" transform="rotate(585.3 432.0 336.7)" />
    <ellipse cx="397.9" cy="358.6" rx="12.0" ry="10.0" fill="#fff7df" stroke="#ffffff88" stroke-width="1.2" transform="rotate(591.9 397.9 358.6)" />
    <ellipse cx="353.0" cy="373.2" rx="16.8" ry="14.0" fill="#efe7d0" stroke="#ffffff88" stroke-width="1.2" transform="rotate(598.5 353.0 373.2)" />
    <ellipse cx="300.3" cy="378.8" rx="21.6" ry="18.0" fill="#d8c29b" stroke="#ffffff88" stroke-width="1.2" transform="rotate(605.1 300.3 378.8)" />
  <rect x="115" y="538" width="670" height="88" rx="28" fill="#091612" stroke="#ffffff26" />
  <text x="450" y="586" text-anchor="middle" font-family="Arial, sans-serif" font-size="58" font-weight="700" fill="#ffffff">White Rice</text>
  <text x="450" y="615" text-anchor="middle" font-family="Arial, sans-serif" font-size="24" fill="#d4ff00" letter-spacing="3">EXPORT QUALITY</text>
</svg>
