<svg xmlns="http://www.w3.org/2000/svg" width="900" height="700" viewBox="0 0 900 700" role="img" aria-labelledby="title desc">
  <title id="title">Yellow Mustard Seeds</title>
  <desc id="desc">Clean export product artwork for Yellow Mustard Seeds on a dark green background.</desc>
  <defs>
    <linearGradient id="background" x1="0" x2="1" y1="0" y2="1">
      <stop stop-color="#091612" />
      <stop offset="1" stop-color="#1a332b" />
    </linearGradient>
    <filter id="shadow"><feDropShadow dx="0" dy="18" stdDeviation="22" flood-color="#000000" flood-opacity=".35" /></filter>
  </defs>
  <rect width="900" height="700" fill="url(#background)" />
  <rect x="70" y="60" width="760" height="580" rx="52" fill="#132620" stroke="#ffffff20" stroke-width="2" />
  <circle cx="450" cy="300" r="210" fill="#0b1d18" opacity=".5" />
  <ellipse cx="450" cy="315" rx="235" ry="170" fill="#eee5cc" stroke="#d4ff00" stroke-width="7" filter="url(#shadow)" />
    <ellipse cx="434.2" cy="335.3" rx="12.0" ry="10.0" fill="#d9a21b" stroke="#ffffff88" stroke-width="1.2" transform="rotate(81.6 434.2 335.3)" />
    <ellipse cx="401.4" cy="357.9" rx="16.8" ry="14.0" fill="#f1c44e" stroke="#ffffff88" stroke-width="1.2" transform="rotate(88.2 401.4 357.9)" />
    <ellipse cx="357.5" cy="373.4" rx="21.6" ry="18.0" fill="#b66b20" stroke="#ffffff88" stroke-width="1.2" transform="rotate(94.8 357.5 373.4)" />
    <ellipse cx="305.3" cy="380.1" rx="26.4" ry="22.0" fill="#d9a21b" stroke="#ffffff88" stroke-width="1.2" transform="rotate(101.4 305.3 380.1)" />
    <ellipse cx="379.4" cy="336.6" rx="31.2" ry="26.0" fill="#f1c44e" stroke="#ffffff88" stroke-width="1.2" transform="rotate(108.1 379.4 336.6)" />
    <ellipse cx="329.7" cy="337.1" rx="12.0" ry="10.0" fill="#b66b20" stroke="#ffffff88" stroke-width="1.2" transform="rotate(114.7 329.7 337.1)" />
    <ellipse cx="279.0" cy="327.2" rx="16.8" ry="14.0" fill="#d9a21b" stroke="#ffffff88" stroke-width="1.2" transform="rotate(121.3 279.0 327.2)" />
    <ellipse cx="376.1" cy="312.3" rx="21.6" ry="18.0" fill="#f1c44e" stroke="#ffffff88" stroke-width="1.2" transform="rotate(127.9 376.1 312.3)" />
    <ellipse cx="331.9" cy="297.7" rx="26.4" ry="22.0" fill="#b66b20" stroke="#ffffff88" stroke-width="1.2" transform="rotate(134.5 331.9 297.7)" />
    <ellipse cx="294.4" cy="273.8" rx="31.2" ry="26.0" fill="#d9a21b" stroke="#ffffff88" stroke-width="1.2" transform="rotate(141.1 294.4 273.8)" />
    <ellipse cx="390.4" cy="291.1" rx="12.0" ry="10.0" fill="#f1c44e" stroke="#ffffff88" stroke-width="1.2" transform="rotate(147.7 390.4 291.1)" />
    <ellipse cx="361.8" cy="265.0" rx="16.8" ry="14.0" fill="#b66b20" stroke="#ffffff88" stroke-width="1.2" transform="rotate(154.4 361.8 265.0)" />
    <ellipse cx="345.8" cy="232.7" rx="21.6" ry="18.0" fill="#d9a21b" stroke="#ffffff88" stroke-width="1.2" transform="rotate(161.0 345.8 232.7)" />
    <ellipse cx="417.0" cy="277.8" rx="26.4" ry="22.0" fill="#f1c44e" stroke="#ffffff88" stroke-width="1.2" transform="rotate(167.6 417.0 277.8)" />
    <ellipse cx="410.5" cy="246.2" rx="31.2" ry="26.0" fill="#b66b20" stroke="#ffffff88" stroke-width="1.2" transform="rotate(174.2 410.5 246.2)" />
    <ellipse cx="419.4" cy="212.9" rx="12.0" ry="10.0" fill="#d9a21b" stroke="#ffffff88" stroke-width="1.2" transform="rotate(180.8 419.4 212.9)" />
    <ellipse cx="448.3" cy="274.7" rx="16.8" ry="14.0" fill="#f1c44e" stroke="#ffffff88" stroke-width="1.2" transform="rotate(187.4 448.3 274.7)" />
    <ellipse cx="465.0" cy="244.8" rx="21.6" ry="18.0" fill="#b66b20" stroke="#ffffff88" stroke-width="1.2" transform="rotate(194.0 465.0 244.8)" />
    <ellipse cx="496.7" cy="218.2" rx="26.4" ry="22.0" fill="#d9a21b" stroke="#ffffff88" stroke-width="1.2" transform="rotate(200.6 496.7 218.2)" />
    <ellipse cx="476.2" cy="281.4" rx="31.2" ry="26.0" fill="#f1c44e" stroke="#ffffff88" stroke-width="1.2" transform="rotate(207.3 476.2 281.4)" />
    <ellipse cx="512.2" cy="260.0" rx="12.0" ry="10.0" fill="#b66b20" stroke="#ffffff88" stroke-width="1.2" transform="rotate(213.9 512.2 260.0)" />
    <ellipse cx="559.0" cy="246.2" rx="16.8" ry="14.0" fill="#d9a21b" stroke="#ffffff88" stroke-width="1.2" transform="rotate(220.5 559.0 246.2)" />
    <ellipse cx="494.4" cy="295.0" rx="21.6" ry="18.0" fill="#f1c44e" stroke="#ffffff88" stroke-width="1.2" transform="rotate(227.1 494.4 295.0)" />
    <ellipse cx="541.4" cy="287.0" rx="26.4" ry="22.0" fill="#b66b20" stroke="#ffffff88" stroke-width="1.2" transform="rotate(233.7 541.4 287.0)" />
    <ellipse cx="592.4" cy="288.9" rx="31.2" ry="26.0" fill="#d9a21b" stroke="#ffffff88" stroke-width="1.2" transform="rotate(240.3 592.4 288.9)" />
    <ellipse cx="499.7" cy="311.4" rx="12.0" ry="10.0" fill="#f1c44e" stroke="#ffffff88" stroke-width="1.2" transform="rotate(246.9 499.7 311.4)" />
    <ellipse cx="546.8" cy="318.5" rx="16.8" ry="14.0" fill="#b66b20" stroke="#ffffff88" stroke-width="1.2" transform="rotate(253.6 546.8 318.5)" />
    <ellipse cx="590.5" cy="335.5" rx="21.6" ry="18.0" fill="#d9a21b" stroke="#ffffff88" stroke-width="1.2" transform="rotate(260.2 590.5 335.5)" />
    <ellipse cx="492.6" cy="326.3" rx="26.4" ry="22.0" fill="#f1c44e" stroke="#ffffff88" stroke-width="1.2" transform="rotate(266.8 492.6 326.3)" />
    <ellipse cx="529.2" cy="346.7" rx="31.2" ry="26.0" fill="#b66b20" stroke="#ffffff88" stroke-width="1.2" transform="rotate(273.4 529.2 346.7)" />
    <ellipse cx="555.5" cy="374.8" rx="12.0" ry="10.0" fill="#d9a21b" stroke="#ffffff88" stroke-width="1.2" transform="rotate(280.0 555.5 374.8)" />
    <ellipse cx="476.7" cy="336.1" rx="16.8" ry="14.0" fill="#f1c44e" stroke="#ffffff88" stroke-width="1.2" transform="rotate(286.6 476.7 336.1)" />
    <ellipse cx="494.4" cy="365.1" rx="21.6" ry="18.0" fill="#b66b20" stroke="#ffffff88" stroke-width="1.2" transform="rotate(293.2 494.4 365.1)" />
    <ellipse cx="497.6" cy="397.8" rx="26.4" ry="22.0" fill="#d9a21b" stroke="#ffffff88" stroke-width="1.2" transform="rotate(299.9 497.6 397.8)" />
    <ellipse cx="457.3" cy="339.2" rx="31.2" ry="26.0" fill="#f1c44e" stroke="#ffffff88" stroke-width="1.2" transform="rotate(306.5 457.3 339.2)" />
    <ellipse cx="452.3" cy="370.2" rx="12.0" ry="10.0" fill="#b66b20" stroke="#ffffff88" stroke-width="1.2" transform="rotate(313.1 452.3 370.2)" />
    <ellipse cx="431.8" cy="400.0" rx="16.8" ry="14.0" fill="#d9a21b" stroke="#ffffff88" stroke-width="1.2" transform="rotate(319.7 431.8 400.0)" />
    <ellipse cx="396.4" cy="426.0" rx="21.6" ry="18.0" fill="#f1c44e" stroke="#ffffff88" stroke-width="1.2" transform="rotate(326.3 396.4 426.0)" />
  <rect x="115" y="538" width="670" height="88" rx="28" fill="#091612" stroke="#ffffff26" />
  <text x="450" y="586" text-anchor="middle" font-family="Arial, sans-serif" font-size="48" font-weight="700" fill="#ffffff">Yellow Mustard Seeds</text>
  <text x="450" y="615" text-anchor="middle" font-family="Arial, sans-serif" font-size="24" fill="#d4ff00" letter-spacing="3">EXPORT QUALITY</text>
</svg>
